<svg width="278" height="268" viewBox="0 0 278 268" fill="none" xmlns="http://www.w3.org/2000/svg">
<circle cx="134" cy="134" r="124" stroke="#FFFFFD" stroke-width="20"/>
<path d="M56.5491 192.111C56.5491 192.111 59.476 190.54 42.7732 182.572C26.0703 174.604 37.5359 163.105 37.5359 163.105L45.8697 158.336L46.9697 149.726C46.9697 149.726 65.3839 144.3 72.4535 152.982C79.5232 161.663 93.0579 162.42 93.0579 162.42L108.582 168.941L106.708 183.61C105.241 195.091 98.1278 197.423 98.1278 197.423C94.5647 205.832 99.8794 212.648 92.7573 214.562L91.2905 226.043C95.9607 239.279 89.0557 236.707 98.5595 247.39C98.5595 247.39 92.4611 252.444 78.0774 236.994C63.6936 221.544 64.3048 216.761 64.3048 216.761L57.8463 203.296L56.5491 192.111Z" stroke="#FFFFFD" stroke-width="10"/>
<path d="M7.50001 99.5C17.6788 117.884 27.0566 123.537 35.3581 125.254L51.4073 130.195C38.4008 123.388 32.3022 113.846 34.6656 104.096C41.5581 90.2865 49.2413 95.8464 54.9204 95.2815C60.5996 94.7166 61.0998 82.4254 66.6772 79.2408C72.2546 76.0563 86.9534 73.9891 88.4959 78.7648C90.0383 83.5406 96.8043 79.2826 108.864 75.6717C120.924 72.0608 117.329 50.7644 108.226 56.1741C102.479 63.3415 97.9274 63.2066 87.7711 56.6203C81.87 51.8337 80.3653 62.0529 73.0727 56.941C65.78 51.8292 62.2208 44.4038 72.3192 33.9221C72.3192 33.9221 75.6128 33.3089 81.548 40.5684C87.4833 47.8279 102.003 40.1221 102.003 40.1221L112.807 42.8657C123.918 59.9651 127.801 50.4999 134.667 51.6492C141.532 44.8628 146.253 45.1516 145.275 39.1781C148.699 32.613 167.048 28.8125 162.668 23.6979C152.125 17.0142 130.306 24.4039 124.93 24.5212C119.554 24.6385 117.805 15.2706 107.03 19.62C94.6049 22.0881 95.7393 40.2588 87.0799 35.5034C78.4205 30.748 65.1688 33.1561 65.1688 33.1561L52.8439 31.8357" stroke="#FFFFFD" stroke-width="10"/>
<path d="M114.653 147.827C115.79 135.326 112.199 127.021 119.715 121.996C119.224 115.001 126.745 114.31 132.365 106.867L145.31 105.653L155.471 110.654L164.672 106.626L181.584 108.205C188.854 117.712 190.375 119.013 192.154 126.357C202.787 127.984 203.467 131.932 209.238 138.957C210.103 151.618 201.666 157.399 196.353 171.128C200.215 176.191 200.231 179.298 193.508 185.685C194.882 191.547 193.927 195.75 190.579 204.123C188.421 217.717 185.304 219.648 179.047 221.007L164.466 206.572C162.201 199.69 156.96 191.595 157.842 184.419C161.017 166.808 162.452 157.284 150.53 154.93L142.168 161.919L126.719 161.775C123.419 159.756 121.459 158.359 114.653 147.827Z" stroke="#FFFFFD" stroke-width="10"/>
<path d="M212.044 185.094C213.752 184.032 214.579 183.159 215.587 180.622C217.336 180.425 216.939 180.425 218.733 177.586C221.408 180.539 223.168 181.152 222.455 184.227C223.111 188.113 222.56 188.774 221.841 190.388C220.643 193.727 219.758 194.583 218.189 196.101L218.173 196.117C216.916 196.303 216.188 196.311 214.271 193.824C213.746 191.727 213.971 190.912 214.685 189.675C211.999 187.241 211.902 186.425 212.044 185.094Z" stroke="#FFFFFD" stroke-width="10"/>
<path d="M182.039 40.2226L162.441 48.3798L162.346 50.1373M182.039 40.2226L206.173 44.6549L226 40M182.039 40.2226L162.346 50.1373M162.346 50.1373C150.347 68.4237 145.307 79.1368 150.433 102.099C158.226 106.163 163.15 101.362 172.098 90.6947C185.325 82.6722 187.11 86.2671 190.792 91.9632C196.493 94.7863 199.689 96.3691 205.389 99.1923C212.395 99.4825 206.689 110.992 205.389 118.323C216.507 130.287 215.14 126.333 224.522 128C233.905 129.667 239.404 118.451 230 118.323C220.596 118.194 223.684 106.912 223.866 99.1922C214.157 91.3879 216.939 95.1618 226 91C233.968 102.347 233.733 102.866 242 102C251.132 115.05 255.729 109.159 263 110.5" stroke="#FFFFFD" stroke-width="10"/>
</svg>
