<svg width="30" height="30" viewBox="0 0 30 30" fill="none" xmlns="http://www.w3.org/2000/svg">
<g clip-path="url(#clip0)">
<path d="M15 28.9C13.4 25.9 7 19.5 5.1 15.4C4.5 14.1 4.1 12.7 4.1 11.2C4.2 5.70001 9.1 1.10001 15 1.10001C20.9 1.10001 25.9 5.70001 25.9 11.2C25.9 12.7 25.5 14.1 24.9 15.4C23 19.5 16.6 25.9 15 28.9Z" fill="#69A3DC"/>
<path d="M5.1 15.4C4.5 14.1 4.1 12.7 4.1 11.2C4.2 5.70001 9.1 1.10001 15 1.10001C20.9 1.10001 25.9 5.70001 25.9 11.2C25.9 12.7 25.5 14.1 24.9 15.4" stroke="#80C4D3" stroke-width="2" stroke-miterlimit="10" stroke-linecap="round"/>
<path d="M5.1 15.4C7 19.5 13.4 25.9 15 28.9" stroke="#80C4D3" stroke-width="2" stroke-miterlimit="10" stroke-linecap="round"/>
<path d="M24.9 15.45C23 19.55 16.6 25.95 15 28.95" stroke="#80C4D3" stroke-width="2" stroke-miterlimit="10" stroke-linecap="round"/>
</g>
<defs>
<clipPath id="clip0">
<rect width="30" height="30" fill="white"/>
</clipPath>
</defs>
</svg>
