<svg width="800" height="899" viewBox="0 0 800 899" fill="none" xmlns="http://www.w3.org/2000/svg">
<path d="M2.5 2.5H797.5V674.616H2.5V2.5Z" fill="#FFFFFD" stroke="black" stroke-width="5"/>
<path d="M2.5 675.795H797.5V896.5H2.5V675.795Z" fill="#FFFFFD" stroke="black" stroke-width="5"/>
<path d="M54.5391 710.578H43.5703V741H39.0938V710.578H28.1484V706.875H54.5391V710.578ZM63.2578 718.711C65.1797 716.352 67.6797 715.172 70.7578 715.172C76.1172 715.172 78.8203 718.195 78.8672 724.242V741H74.5312V724.219C74.5156 722.391 74.0938 721.039 73.2656 720.164C72.4531 719.289 71.1797 718.852 69.4453 718.852C68.0391 718.852 66.8047 719.227 65.7422 719.977C64.6797 720.727 63.8516 721.711 63.2578 722.93V741H58.9219V705H63.2578V718.711ZM95.8828 741.469C92.4453 741.469 89.6484 740.344 87.4922 738.094C85.3359 735.828 84.2578 732.805 84.2578 729.023V728.227C84.2578 725.711 84.7344 723.469 85.6875 721.5C86.6562 719.516 88 717.969 89.7188 716.859C91.4531 715.734 93.3281 715.172 95.3438 715.172C98.6406 715.172 101.203 716.258 103.031 718.43C104.859 720.602 105.773 723.711 105.773 727.758V729.562H88.5938C88.6562 732.062 89.3828 734.086 90.7734 735.633C92.1797 737.164 93.9609 737.93 96.1172 737.93C97.6484 737.93 98.9453 737.617 100.008 736.992C101.07 736.367 102 735.539 102.797 734.508L105.445 736.57C103.32 739.836 100.133 741.469 95.8828 741.469ZM95.3438 718.734C93.5938 718.734 92.125 719.375 90.9375 720.656C89.75 721.922 89.0156 723.703 88.7344 726H101.438V725.672C101.312 723.469 100.719 721.766 99.6562 720.562C98.5938 719.344 97.1562 718.734 95.3438 718.734ZM118.781 734.648L124.688 715.641H129.328L119.133 744.914C117.555 749.133 115.047 751.242 111.609 751.242L110.789 751.172L109.172 750.867V747.352L110.344 747.445C111.812 747.445 112.953 747.148 113.766 746.555C114.594 745.961 115.273 744.875 115.805 743.297L116.766 740.719L107.719 715.641H112.453L118.781 734.648ZM167.578 735.023L172.453 715.641H176.789L169.406 741H165.891L159.727 721.781L153.727 741H150.211L142.852 715.641H147.164L152.156 734.625L158.062 715.641H161.555L167.578 735.023ZM191.742 741.469C188.305 741.469 185.508 740.344 183.352 738.094C181.195 735.828 180.117 732.805 180.117 729.023V728.227C180.117 725.711 180.594 723.469 181.547 721.5C182.516 719.516 183.859 717.969 185.578 716.859C187.312 715.734 189.188 715.172 191.203 715.172C194.5 715.172 197.062 716.258 198.891 718.43C200.719 720.602 201.633 723.711 201.633 727.758V729.562H184.453C184.516 732.062 185.242 734.086 186.633 735.633C188.039 737.164 189.82 737.93 191.977 737.93C193.508 737.93 194.805 737.617 195.867 736.992C196.93 736.367 197.859 735.539 198.656 734.508L201.305 736.57C199.18 739.836 195.992 741.469 191.742 741.469ZM191.203 718.734C189.453 718.734 187.984 719.375 186.797 720.656C185.609 721.922 184.875 723.703 184.594 726H197.297V725.672C197.172 723.469 196.578 721.766 195.516 720.562C194.453 719.344 193.016 718.734 191.203 718.734ZM218.93 719.531C218.273 719.422 217.562 719.367 216.797 719.367C213.953 719.367 212.023 720.578 211.008 723V741H206.672V715.641H210.891L210.961 718.57C212.383 716.305 214.398 715.172 217.008 715.172C217.852 715.172 218.492 715.281 218.93 715.5V719.531ZM232.992 741.469C229.555 741.469 226.758 740.344 224.602 738.094C222.445 735.828 221.367 732.805 221.367 729.023V728.227C221.367 725.711 221.844 723.469 222.797 721.5C223.766 719.516 225.109 717.969 226.828 716.859C228.562 715.734 230.438 715.172 232.453 715.172C235.75 715.172 238.312 716.258 240.141 718.43C241.969 720.602 242.883 723.711 242.883 727.758V729.562H225.703C225.766 732.062 226.492 734.086 227.883 735.633C229.289 737.164 231.07 737.93 233.227 737.93C234.758 737.93 236.055 737.617 237.117 736.992C238.18 736.367 239.109 735.539 239.906 734.508L242.555 736.57C240.43 739.836 237.242 741.469 232.992 741.469ZM232.453 718.734C230.703 718.734 229.234 719.375 228.047 720.656C226.859 721.922 226.125 723.703 225.844 726H238.547V725.672C238.422 723.469 237.828 721.766 236.766 720.562C235.703 719.344 234.266 718.734 232.453 718.734ZM264.539 741H260.203V705H264.539V741ZM270.352 728.086C270.352 725.602 270.836 723.367 271.805 721.383C272.789 719.398 274.148 717.867 275.883 716.789C277.633 715.711 279.625 715.172 281.859 715.172C285.312 715.172 288.102 716.367 290.227 718.758C292.367 721.148 293.438 724.328 293.438 728.297V728.602C293.438 731.07 292.961 733.289 292.008 735.258C291.07 737.211 289.719 738.734 287.953 739.828C286.203 740.922 284.188 741.469 281.906 741.469C278.469 741.469 275.68 740.273 273.539 737.883C271.414 735.492 270.352 732.328 270.352 728.391V728.086ZM274.711 728.602C274.711 731.414 275.359 733.672 276.656 735.375C277.969 737.078 279.719 737.93 281.906 737.93C284.109 737.93 285.859 737.07 287.156 735.352C288.453 733.617 289.102 731.195 289.102 728.086C289.102 725.305 288.438 723.055 287.109 721.336C285.797 719.602 284.047 718.734 281.859 718.734C279.719 718.734 277.992 719.586 276.68 721.289C275.367 722.992 274.711 725.43 274.711 728.602ZM297.727 728.086C297.727 725.602 298.211 723.367 299.18 721.383C300.164 719.398 301.523 717.867 303.258 716.789C305.008 715.711 307 715.172 309.234 715.172C312.688 715.172 315.477 716.367 317.602 718.758C319.742 721.148 320.812 724.328 320.812 728.297V728.602C320.812 731.07 320.336 733.289 319.383 735.258C318.445 737.211 317.094 738.734 315.328 739.828C313.578 740.922 311.562 741.469 309.281 741.469C305.844 741.469 303.055 740.273 300.914 737.883C298.789 735.492 297.727 732.328 297.727 728.391V728.086ZM302.086 728.602C302.086 731.414 302.734 733.672 304.031 735.375C305.344 737.078 307.094 737.93 309.281 737.93C311.484 737.93 313.234 737.07 314.531 735.352C315.828 733.617 316.477 731.195 316.477 728.086C316.477 725.305 315.812 723.055 314.484 721.336C313.172 719.602 311.422 718.734 309.234 718.734C307.094 718.734 305.367 719.586 304.055 721.289C302.742 722.992 302.086 725.43 302.086 728.602ZM333.328 729.258L330.609 732.094V741H326.273V705H330.609V726.773L332.93 723.984L340.828 715.641H346.102L336.234 726.234L347.25 741H342.164L333.328 729.258ZM355.289 741H350.953V715.641H355.289V741ZM350.602 708.914C350.602 708.211 350.812 707.617 351.234 707.133C351.672 706.648 352.312 706.406 353.156 706.406C354 706.406 354.641 706.648 355.078 707.133C355.516 707.617 355.734 708.211 355.734 708.914C355.734 709.617 355.516 710.203 355.078 710.672C354.641 711.141 354 711.375 353.156 711.375C352.312 711.375 351.672 711.141 351.234 710.672C350.812 710.203 350.602 709.617 350.602 708.914ZM366.352 715.641L366.492 718.828C368.43 716.391 370.961 715.172 374.086 715.172C379.445 715.172 382.148 718.195 382.195 724.242V741H377.859V724.219C377.844 722.391 377.422 721.039 376.594 720.164C375.781 719.289 374.508 718.852 372.773 718.852C371.367 718.852 370.133 719.227 369.07 719.977C368.008 720.727 367.18 721.711 366.586 722.93V741H362.25V715.641H366.352ZM387.703 728.109C387.703 724.156 388.617 721.016 390.445 718.688C392.273 716.344 394.695 715.172 397.711 715.172C400.805 715.172 403.219 716.266 404.953 718.453L405.164 715.641H409.125V740.391C409.125 743.672 408.148 746.258 406.195 748.148C404.258 750.039 401.648 750.984 398.367 750.984C396.539 750.984 394.75 750.594 393 749.812C391.25 749.031 389.914 747.961 388.992 746.602L391.242 744C393.102 746.297 395.375 747.445 398.062 747.445C400.172 747.445 401.812 746.852 402.984 745.664C404.172 744.477 404.766 742.805 404.766 740.648V738.469C403.031 740.469 400.664 741.469 397.664 741.469C394.695 741.469 392.289 740.273 390.445 737.883C388.617 735.492 387.703 732.234 387.703 728.109ZM392.062 728.602C392.062 731.461 392.648 733.711 393.82 735.352C394.992 736.977 396.633 737.789 398.742 737.789C401.477 737.789 403.484 736.547 404.766 734.062V722.484C403.438 720.062 401.445 718.852 398.789 718.852C396.68 718.852 395.031 719.672 393.844 721.312C392.656 722.953 392.062 725.383 392.062 728.602ZM433.477 709.5V715.641H438.211V718.992H433.477V734.719C433.477 735.734 433.688 736.5 434.109 737.016C434.531 737.516 435.25 737.766 436.266 737.766C436.766 737.766 437.453 737.672 438.328 737.484V741C437.188 741.312 436.078 741.469 435 741.469C433.062 741.469 431.602 740.883 430.617 739.711C429.633 738.539 429.141 736.875 429.141 734.719V718.992H424.523V715.641H429.141V709.5H433.477ZM441.68 728.086C441.68 725.602 442.164 723.367 443.133 721.383C444.117 719.398 445.477 717.867 447.211 716.789C448.961 715.711 450.953 715.172 453.188 715.172C456.641 715.172 459.43 716.367 461.555 718.758C463.695 721.148 464.766 724.328 464.766 728.297V728.602C464.766 731.07 464.289 733.289 463.336 735.258C462.398 737.211 461.047 738.734 459.281 739.828C457.531 740.922 455.516 741.469 453.234 741.469C449.797 741.469 447.008 740.273 444.867 737.883C442.742 735.492 441.68 732.328 441.68 728.391V728.086ZM446.039 728.602C446.039 731.414 446.688 733.672 447.984 735.375C449.297 737.078 451.047 737.93 453.234 737.93C455.438 737.93 457.188 737.07 458.484 735.352C459.781 733.617 460.43 731.195 460.43 728.086C460.43 725.305 459.766 723.055 458.438 721.336C457.125 719.602 455.375 718.734 453.188 718.734C451.047 718.734 449.32 719.586 448.008 721.289C446.695 722.992 446.039 725.43 446.039 728.602ZM504.562 735.023L509.438 715.641H513.773L506.391 741H502.875L496.711 721.781L490.711 741H487.195L479.836 715.641H484.148L489.141 734.625L495.047 715.641H498.539L504.562 735.023ZM517.055 728.086C517.055 725.602 517.539 723.367 518.508 721.383C519.492 719.398 520.852 717.867 522.586 716.789C524.336 715.711 526.328 715.172 528.562 715.172C532.016 715.172 534.805 716.367 536.93 718.758C539.07 721.148 540.141 724.328 540.141 728.297V728.602C540.141 731.07 539.664 733.289 538.711 735.258C537.773 737.211 536.422 738.734 534.656 739.828C532.906 740.922 530.891 741.469 528.609 741.469C525.172 741.469 522.383 740.273 520.242 737.883C518.117 735.492 517.055 732.328 517.055 728.391V728.086ZM521.414 728.602C521.414 731.414 522.062 733.672 523.359 735.375C524.672 737.078 526.422 737.93 528.609 737.93C530.812 737.93 532.562 737.07 533.859 735.352C535.156 733.617 535.805 731.195 535.805 728.086C535.805 725.305 535.141 723.055 533.812 721.336C532.5 719.602 530.75 718.734 528.562 718.734C526.422 718.734 524.695 719.586 523.383 721.289C522.07 722.992 521.414 725.43 521.414 728.602ZM557.836 719.531C557.18 719.422 556.469 719.367 555.703 719.367C552.859 719.367 550.93 720.578 549.914 723V741H545.578V715.641H549.797L549.867 718.57C551.289 716.305 553.305 715.172 555.914 715.172C556.758 715.172 557.398 715.281 557.836 715.5V719.531ZM568.922 729.258L566.203 732.094V741H561.867V705H566.203V726.773L568.523 723.984L576.422 715.641H581.695L571.828 726.234L582.844 741H577.758L568.922 729.258ZM602.789 741H598.453V715.641H602.789V741ZM598.102 708.914C598.102 708.211 598.312 707.617 598.734 707.133C599.172 706.648 599.812 706.406 600.656 706.406C601.5 706.406 602.141 706.648 602.578 707.133C603.016 707.617 603.234 708.211 603.234 708.914C603.234 709.617 603.016 710.203 602.578 710.672C602.141 711.141 601.5 711.375 600.656 711.375C599.812 711.375 599.172 711.141 598.734 710.672C598.312 710.203 598.102 709.617 598.102 708.914ZM613.852 715.641L613.992 718.828C615.93 716.391 618.461 715.172 621.586 715.172C626.945 715.172 629.648 718.195 629.695 724.242V741H625.359V724.219C625.344 722.391 624.922 721.039 624.094 720.164C623.281 719.289 622.008 718.852 620.273 718.852C618.867 718.852 617.633 719.227 616.57 719.977C615.508 720.727 614.68 721.711 614.086 722.93V741H609.75V715.641H613.852ZM673.922 730.172C673.5 733.781 672.164 736.57 669.914 738.539C667.68 740.492 664.703 741.469 660.984 741.469C656.953 741.469 653.719 740.023 651.281 737.133C648.859 734.242 647.648 730.375 647.648 725.531V722.25C647.648 719.078 648.211 716.289 649.336 713.883C650.477 711.477 652.086 709.633 654.164 708.352C656.242 707.055 658.648 706.406 661.383 706.406C665.008 706.406 667.914 707.422 670.102 709.453C672.289 711.469 673.562 714.266 673.922 717.844H669.398C669.008 715.125 668.156 713.156 666.844 711.938C665.547 710.719 663.727 710.109 661.383 710.109C658.508 710.109 656.25 711.172 654.609 713.297C652.984 715.422 652.172 718.445 652.172 722.367V725.672C652.172 729.375 652.945 732.32 654.492 734.508C656.039 736.695 658.203 737.789 660.984 737.789C663.484 737.789 665.398 737.227 666.727 736.102C668.07 734.961 668.961 732.984 669.398 730.172H673.922ZM683.742 718.711C685.664 716.352 688.164 715.172 691.242 715.172C696.602 715.172 699.305 718.195 699.352 724.242V741H695.016V724.219C695 722.391 694.578 721.039 693.75 720.164C692.938 719.289 691.664 718.852 689.93 718.852C688.523 718.852 687.289 719.227 686.227 719.977C685.164 720.727 684.336 721.711 683.742 722.93V741H679.406V705H683.742V718.711ZM710.555 741H706.219V715.641H710.555V741ZM705.867 708.914C705.867 708.211 706.078 707.617 706.5 707.133C706.938 706.648 707.578 706.406 708.422 706.406C709.266 706.406 709.906 706.648 710.344 707.133C710.781 707.617 711 708.211 711 708.914C711 709.617 710.781 710.203 710.344 710.672C709.906 711.141 709.266 711.375 708.422 711.375C707.578 711.375 706.938 711.141 706.5 710.672C706.078 710.203 705.867 709.617 705.867 708.914ZM721.617 715.641L721.758 718.828C723.695 716.391 726.227 715.172 729.352 715.172C734.711 715.172 737.414 718.195 737.461 724.242V741H733.125V724.219C733.109 722.391 732.688 721.039 731.859 720.164C731.047 719.289 729.773 718.852 728.039 718.852C726.633 718.852 725.398 719.227 724.336 719.977C723.273 720.727 722.445 721.711 721.852 722.93V741H717.516V715.641H721.617ZM759.656 741C759.406 740.5 759.203 739.609 759.047 738.328C757.031 740.422 754.625 741.469 751.828 741.469C749.328 741.469 747.273 740.766 745.664 739.359C744.07 737.938 743.273 736.141 743.273 733.969C743.273 731.328 744.273 729.281 746.273 727.828C748.289 726.359 751.117 725.625 754.758 725.625H758.977V723.633C758.977 722.117 758.523 720.914 757.617 720.023C756.711 719.117 755.375 718.664 753.609 718.664C752.062 718.664 750.766 719.055 749.719 719.836C748.672 720.617 748.148 721.562 748.148 722.672H743.789C743.789 721.406 744.234 720.188 745.125 719.016C746.031 717.828 747.25 716.891 748.781 716.203C750.328 715.516 752.023 715.172 753.867 715.172C756.789 715.172 759.078 715.906 760.734 717.375C762.391 718.828 763.25 720.836 763.312 723.398V735.07C763.312 737.398 763.609 739.25 764.203 740.625V741H759.656ZM752.461 737.695C753.82 737.695 755.109 737.344 756.328 736.641C757.547 735.938 758.43 735.023 758.977 733.898V728.695H755.578C750.266 728.695 747.609 730.25 747.609 733.359C747.609 734.719 748.062 735.781 748.969 736.547C749.875 737.312 751.039 737.695 752.461 737.695ZM36.1641 765.5V771.641H40.8984V774.992H36.1641V790.719C36.1641 791.734 36.375 792.5 36.7969 793.016C37.2188 793.516 37.9375 793.766 38.9531 793.766C39.4531 793.766 40.1406 793.672 41.0156 793.484V797C39.875 797.312 38.7656 797.469 37.6875 797.469C35.75 797.469 34.2891 796.883 33.3047 795.711C32.3203 794.539 31.8281 792.875 31.8281 790.719V774.992H27.2109V771.641H31.8281V765.5H36.1641ZM56.5078 797.469C53.0703 797.469 50.2734 796.344 48.1172 794.094C45.9609 791.828 44.8828 788.805 44.8828 785.023V784.227C44.8828 781.711 45.3594 779.469 46.3125 777.5C47.2812 775.516 48.625 773.969 50.3438 772.859C52.0781 771.734 53.9531 771.172 55.9688 771.172C59.2656 771.172 61.8281 772.258 63.6562 774.43C65.4844 776.602 66.3984 779.711 66.3984 783.758V785.562H49.2188C49.2812 788.062 50.0078 790.086 51.3984 791.633C52.8047 793.164 54.5859 793.93 56.7422 793.93C58.2734 793.93 59.5703 793.617 60.6328 792.992C61.6953 792.367 62.625 791.539 63.4219 790.508L66.0703 792.57C63.9453 795.836 60.7578 797.469 56.5078 797.469ZM55.9688 774.734C54.2188 774.734 52.75 775.375 51.5625 776.656C50.375 777.922 49.6406 779.703 49.3594 782H62.0625V781.672C61.9375 779.469 61.3438 777.766 60.2812 776.562C59.2188 775.344 57.7812 774.734 55.9688 774.734ZM75.5156 771.641L75.6328 774.453C77.4922 772.266 80 771.172 83.1562 771.172C86.7031 771.172 89.1172 772.531 90.3984 775.25C91.2422 774.031 92.3359 773.047 93.6797 772.297C95.0391 771.547 96.6406 771.172 98.4844 771.172C104.047 771.172 106.875 774.117 106.969 780.008V797H102.633V780.266C102.633 778.453 102.219 777.102 101.391 776.211C100.562 775.305 99.1719 774.852 97.2188 774.852C95.6094 774.852 94.2734 775.336 93.2109 776.305C92.1484 777.258 91.5312 778.547 91.3594 780.172V797H87V780.383C87 776.695 85.1953 774.852 81.5859 774.852C78.7422 774.852 76.7969 776.062 75.75 778.484V797H71.4141V771.641H75.5156ZM134.953 784.602C134.953 788.461 134.07 791.57 132.305 793.93C130.539 796.289 128.148 797.469 125.133 797.469C122.055 797.469 119.633 796.492 117.867 794.539V806.75H113.531V771.641H117.492L117.703 774.453C119.469 772.266 121.922 771.172 125.062 771.172C128.109 771.172 130.516 772.32 132.281 774.617C134.062 776.914 134.953 780.109 134.953 784.203V784.602ZM130.617 784.109C130.617 781.25 130.008 778.992 128.789 777.336C127.57 775.68 125.898 774.852 123.773 774.852C121.148 774.852 119.18 776.016 117.867 778.344V790.461C119.164 792.773 121.148 793.93 123.82 793.93C125.898 793.93 127.547 793.109 128.766 791.469C130 789.812 130.617 787.359 130.617 784.109ZM139.336 784.086C139.336 781.602 139.82 779.367 140.789 777.383C141.773 775.398 143.133 773.867 144.867 772.789C146.617 771.711 148.609 771.172 150.844 771.172C154.297 771.172 157.086 772.367 159.211 774.758C161.352 777.148 162.422 780.328 162.422 784.297V784.602C162.422 787.07 161.945 789.289 160.992 791.258C160.055 793.211 158.703 794.734 156.938 795.828C155.188 796.922 153.172 797.469 150.891 797.469C147.453 797.469 144.664 796.273 142.523 793.883C140.398 791.492 139.336 788.328 139.336 784.391V784.086ZM143.695 784.602C143.695 787.414 144.344 789.672 145.641 791.375C146.953 793.078 148.703 793.93 150.891 793.93C153.094 793.93 154.844 793.07 156.141 791.352C157.438 789.617 158.086 787.195 158.086 784.086C158.086 781.305 157.422 779.055 156.094 777.336C154.781 775.602 153.031 774.734 150.844 774.734C148.703 774.734 146.977 775.586 145.664 777.289C144.352 778.992 143.695 781.43 143.695 784.602ZM180.117 775.531C179.461 775.422 178.75 775.367 177.984 775.367C175.141 775.367 173.211 776.578 172.195 779V797H167.859V771.641H172.078L172.148 774.57C173.57 772.305 175.586 771.172 178.195 771.172C179.039 771.172 179.68 771.281 180.117 771.5V775.531ZM198.844 797C198.594 796.5 198.391 795.609 198.234 794.328C196.219 796.422 193.812 797.469 191.016 797.469C188.516 797.469 186.461 796.766 184.852 795.359C183.258 793.938 182.461 792.141 182.461 789.969C182.461 787.328 183.461 785.281 185.461 783.828C187.477 782.359 190.305 781.625 193.945 781.625H198.164V779.633C198.164 778.117 197.711 776.914 196.805 776.023C195.898 775.117 194.562 774.664 192.797 774.664C191.25 774.664 189.953 775.055 188.906 775.836C187.859 776.617 187.336 777.562 187.336 778.672H182.977C182.977 777.406 183.422 776.188 184.312 775.016C185.219 773.828 186.438 772.891 187.969 772.203C189.516 771.516 191.211 771.172 193.055 771.172C195.977 771.172 198.266 771.906 199.922 773.375C201.578 774.828 202.438 776.836 202.5 779.398V791.07C202.5 793.398 202.797 795.25 203.391 796.625V797H198.844ZM191.648 793.695C193.008 793.695 194.297 793.344 195.516 792.641C196.734 791.938 197.617 791.023 198.164 789.898V784.695H194.766C189.453 784.695 186.797 786.25 186.797 789.359C186.797 790.719 187.25 791.781 188.156 792.547C189.062 793.312 190.227 793.695 191.648 793.695ZM221.555 775.531C220.898 775.422 220.188 775.367 219.422 775.367C216.578 775.367 214.648 776.578 213.633 779V797H209.297V771.641H213.516L213.586 774.57C215.008 772.305 217.023 771.172 219.633 771.172C220.477 771.172 221.117 771.281 221.555 771.5V775.531ZM230.273 797H225.938V771.641H230.273V797ZM225.586 764.914C225.586 764.211 225.797 763.617 226.219 763.133C226.656 762.648 227.297 762.406 228.141 762.406C228.984 762.406 229.625 762.648 230.062 763.133C230.5 763.617 230.719 764.211 230.719 764.914C230.719 765.617 230.5 766.203 230.062 766.672C229.625 767.141 228.984 767.375 228.141 767.375C227.297 767.375 226.656 767.141 226.219 766.672C225.797 766.203 225.586 765.617 225.586 764.914ZM241.945 797H237.609V761H241.945V797ZM257.203 790.648L263.109 771.641H267.75L257.555 800.914C255.977 805.133 253.469 807.242 250.031 807.242L249.211 807.172L247.594 806.867V803.352L248.766 803.445C250.234 803.445 251.375 803.148 252.188 802.555C253.016 801.961 253.695 800.875 254.227 799.297L255.188 796.719L246.141 771.641H250.875L257.203 790.648ZM269.203 794.727C269.203 793.977 269.422 793.352 269.859 792.852C270.312 792.352 270.984 792.102 271.875 792.102C272.766 792.102 273.438 792.352 273.891 792.852C274.359 793.352 274.594 793.977 274.594 794.727C274.594 795.445 274.359 796.047 273.891 796.531C273.438 797.016 272.766 797.258 271.875 797.258C270.984 797.258 270.312 797.016 269.859 796.531C269.422 796.047 269.203 795.445 269.203 794.727ZM281.859 794.727C281.859 793.977 282.078 793.352 282.516 792.852C282.969 792.352 283.641 792.102 284.531 792.102C285.422 792.102 286.094 792.352 286.547 792.852C287.016 793.352 287.25 793.977 287.25 794.727C287.25 795.445 287.016 796.047 286.547 796.531C286.094 797.016 285.422 797.258 284.531 797.258C283.641 797.258 282.969 797.016 282.516 796.531C282.078 796.047 281.859 795.445 281.859 794.727ZM294.516 794.727C294.516 793.977 294.734 793.352 295.172 792.852C295.625 792.352 296.297 792.102 297.188 792.102C298.078 792.102 298.75 792.352 299.203 792.852C299.672 793.352 299.906 793.977 299.906 794.727C299.906 795.445 299.672 796.047 299.203 796.531C298.75 797.016 298.078 797.258 297.188 797.258C296.297 797.258 295.625 797.016 295.172 796.531C294.734 796.047 294.516 795.445 294.516 794.727Z" fill="black"/>
<path d="M119.898 333.297H101.617V384H94.1562V333.297H75.9141V327.125H119.898V333.297ZM121.383 362.477C121.383 358.336 122.19 354.612 123.805 351.305C125.445 347.997 127.711 345.445 130.602 343.648C133.518 341.852 136.839 340.953 140.562 340.953C146.318 340.953 150.966 342.945 154.508 346.93C158.076 350.914 159.859 356.214 159.859 362.828V363.336C159.859 367.451 159.065 371.148 157.477 374.43C155.914 377.685 153.661 380.224 150.719 382.047C147.802 383.87 144.443 384.781 140.641 384.781C134.911 384.781 130.263 382.789 126.695 378.805C123.154 374.82 121.383 369.547 121.383 362.984V362.477ZM128.648 363.336C128.648 368.023 129.729 371.786 131.891 374.625C134.078 377.464 136.995 378.883 140.641 378.883C144.312 378.883 147.229 377.451 149.391 374.586C151.552 371.695 152.633 367.659 152.633 362.477C152.633 357.841 151.526 354.091 149.312 351.227C147.125 348.336 144.208 346.891 140.562 346.891C136.995 346.891 134.117 348.31 131.93 351.148C129.742 353.987 128.648 358.049 128.648 363.336ZM224.547 363.336C224.547 369.794 223.062 374.99 220.094 378.922C217.125 382.828 213.141 384.781 208.141 384.781C202.802 384.781 198.674 382.893 195.758 379.117L195.406 384H188.766V324H195.992V346.383C198.909 342.763 202.932 340.953 208.062 340.953C213.193 340.953 217.216 342.893 220.133 346.773C223.076 350.654 224.547 355.966 224.547 362.711V363.336ZM217.32 362.516C217.32 357.594 216.37 353.792 214.469 351.109C212.568 348.427 209.833 347.086 206.266 347.086C201.5 347.086 198.076 349.299 195.992 353.727V372.008C198.206 376.435 201.656 378.648 206.344 378.648C209.807 378.648 212.503 377.307 214.43 374.625C216.357 371.943 217.32 367.906 217.32 362.516ZM251.227 384.781C245.497 384.781 240.836 382.906 237.242 379.156C233.648 375.38 231.852 370.341 231.852 364.039V362.711C231.852 358.518 232.646 354.781 234.234 351.5C235.849 348.193 238.089 345.615 240.953 343.766C243.844 341.891 246.969 340.953 250.328 340.953C255.823 340.953 260.094 342.763 263.141 346.383C266.188 350.003 267.711 355.185 267.711 361.93V364.938H239.078C239.182 369.104 240.393 372.477 242.711 375.055C245.055 377.607 248.023 378.883 251.617 378.883C254.169 378.883 256.331 378.362 258.102 377.32C259.872 376.279 261.422 374.898 262.75 373.18L267.164 376.617C263.622 382.06 258.31 384.781 251.227 384.781ZM250.328 346.891C247.411 346.891 244.964 347.958 242.984 350.094C241.005 352.203 239.781 355.172 239.312 359H260.484V358.453C260.276 354.781 259.286 351.943 257.516 349.938C255.745 347.906 253.349 346.891 250.328 346.891ZM312.906 378.883C315.484 378.883 317.737 378.102 319.664 376.539C321.591 374.977 322.659 373.023 322.867 370.68H329.703C329.573 373.102 328.74 375.406 327.203 377.594C325.667 379.781 323.609 381.526 321.031 382.828C318.479 384.13 315.771 384.781 312.906 384.781C307.151 384.781 302.568 382.867 299.156 379.039C295.771 375.185 294.078 369.924 294.078 363.258V362.047C294.078 357.932 294.833 354.273 296.344 351.07C297.854 347.867 300.016 345.38 302.828 343.609C305.667 341.839 309.013 340.953 312.867 340.953C317.607 340.953 321.539 342.372 324.664 345.211C327.815 348.049 329.495 351.734 329.703 356.266H322.867C322.659 353.531 321.617 351.292 319.742 349.547C317.893 347.776 315.602 346.891 312.867 346.891C309.195 346.891 306.344 348.219 304.312 350.875C302.307 353.505 301.305 357.32 301.305 362.32V363.688C301.305 368.557 302.307 372.307 304.312 374.938C306.318 377.568 309.182 378.883 312.906 378.883ZM335.914 362.477C335.914 358.336 336.721 354.612 338.336 351.305C339.977 347.997 342.242 345.445 345.133 343.648C348.049 341.852 351.37 340.953 355.094 340.953C360.849 340.953 365.497 342.945 369.039 346.93C372.607 350.914 374.391 356.214 374.391 362.828V363.336C374.391 367.451 373.596 371.148 372.008 374.43C370.445 377.685 368.193 380.224 365.25 382.047C362.333 383.87 358.974 384.781 355.172 384.781C349.443 384.781 344.794 382.789 341.227 378.805C337.685 374.82 335.914 369.547 335.914 362.984V362.477ZM343.18 363.336C343.18 368.023 344.26 371.786 346.422 374.625C348.609 377.464 351.526 378.883 355.172 378.883C358.844 378.883 361.76 377.451 363.922 374.586C366.083 371.695 367.164 367.659 367.164 362.477C367.164 357.841 366.057 354.091 363.844 351.227C361.656 348.336 358.74 346.891 355.094 346.891C351.526 346.891 348.648 348.31 346.461 351.148C344.273 353.987 343.18 358.049 343.18 363.336ZM390.289 341.734L390.523 347.047C393.753 342.984 397.971 340.953 403.18 340.953C412.112 340.953 416.617 345.992 416.695 356.07V384H409.469V356.031C409.443 352.984 408.74 350.732 407.359 349.273C406.005 347.815 403.883 347.086 400.992 347.086C398.648 347.086 396.591 347.711 394.82 348.961C393.049 350.211 391.669 351.852 390.68 353.883V384H383.453V341.734H390.289ZM437.398 331.5V341.734H445.289V347.32H437.398V373.531C437.398 375.224 437.75 376.5 438.453 377.359C439.156 378.193 440.354 378.609 442.047 378.609C442.88 378.609 444.026 378.453 445.484 378.141V384C443.583 384.521 441.734 384.781 439.938 384.781C436.708 384.781 434.273 383.805 432.633 381.852C430.992 379.898 430.172 377.125 430.172 373.531V347.32H422.477V341.734H430.172V331.5H437.398ZM461.617 384H454.391V341.734H461.617V384ZM453.805 330.523C453.805 329.352 454.156 328.362 454.859 327.555C455.589 326.747 456.656 326.344 458.062 326.344C459.469 326.344 460.536 326.747 461.266 327.555C461.995 328.362 462.359 329.352 462.359 330.523C462.359 331.695 461.995 332.672 461.266 333.453C460.536 334.234 459.469 334.625 458.062 334.625C456.656 334.625 455.589 334.234 454.859 333.453C454.156 332.672 453.805 331.695 453.805 330.523ZM480.055 341.734L480.289 347.047C483.518 342.984 487.737 340.953 492.945 340.953C501.878 340.953 506.383 345.992 506.461 356.07V384H499.234V356.031C499.208 352.984 498.505 350.732 497.125 349.273C495.771 347.815 493.648 347.086 490.758 347.086C488.414 347.086 486.357 347.711 484.586 348.961C482.815 350.211 481.435 351.852 480.445 353.883V384H473.219V341.734H480.055ZM543.453 379.82C540.641 383.128 536.513 384.781 531.07 384.781C526.565 384.781 523.128 383.479 520.758 380.875C518.414 378.245 517.229 374.365 517.203 369.234V341.734H524.43V369.039C524.43 375.445 527.034 378.648 532.242 378.648C537.763 378.648 541.435 376.591 543.258 372.477V341.734H550.484V384H543.609L543.453 379.82ZM579.039 384.781C573.31 384.781 568.648 382.906 565.055 379.156C561.461 375.38 559.664 370.341 559.664 364.039V362.711C559.664 358.518 560.458 354.781 562.047 351.5C563.661 348.193 565.901 345.615 568.766 343.766C571.656 341.891 574.781 340.953 578.141 340.953C583.635 340.953 587.906 342.763 590.953 346.383C594 350.003 595.523 355.185 595.523 361.93V364.938H566.891C566.995 369.104 568.206 372.477 570.523 375.055C572.867 377.607 575.836 378.883 579.43 378.883C581.982 378.883 584.143 378.362 585.914 377.32C587.685 376.279 589.234 374.898 590.562 373.18L594.977 376.617C591.435 382.06 586.122 384.781 579.039 384.781ZM578.141 346.891C575.224 346.891 572.776 347.958 570.797 350.094C568.818 352.203 567.594 355.172 567.125 359H588.297V358.453C588.089 354.781 587.099 351.943 585.328 349.938C583.557 347.906 581.161 346.891 578.141 346.891ZM602.164 362.516C602.164 356.031 603.701 350.823 606.773 346.891C609.846 342.932 613.87 340.953 618.844 340.953C623.792 340.953 627.711 342.646 630.602 346.031V324H637.828V384H631.188L630.836 379.469C627.945 383.01 623.922 384.781 618.766 384.781C613.87 384.781 609.872 382.776 606.773 378.766C603.701 374.755 602.164 369.521 602.164 363.062V362.516ZM609.391 363.336C609.391 368.128 610.38 371.878 612.359 374.586C614.339 377.294 617.073 378.648 620.562 378.648C625.146 378.648 628.492 376.591 630.602 372.477V353.062C628.44 349.078 625.12 347.086 620.641 347.086C617.099 347.086 614.339 348.453 612.359 351.188C610.38 353.922 609.391 357.971 609.391 363.336ZM649.234 380.211C649.234 378.961 649.599 377.919 650.328 377.086C651.083 376.253 652.203 375.836 653.688 375.836C655.172 375.836 656.292 376.253 657.047 377.086C657.828 377.919 658.219 378.961 658.219 380.211C658.219 381.409 657.828 382.411 657.047 383.219C656.292 384.026 655.172 384.43 653.688 384.43C652.203 384.43 651.083 384.026 650.328 383.219C649.599 382.411 649.234 381.409 649.234 380.211ZM670.328 380.211C670.328 378.961 670.693 377.919 671.422 377.086C672.177 376.253 673.297 375.836 674.781 375.836C676.266 375.836 677.385 376.253 678.141 377.086C678.922 377.919 679.312 378.961 679.312 380.211C679.312 381.409 678.922 382.411 678.141 383.219C677.385 384.026 676.266 384.43 674.781 384.43C673.297 384.43 672.177 384.026 671.422 383.219C670.693 382.411 670.328 381.409 670.328 380.211ZM691.422 380.211C691.422 378.961 691.786 377.919 692.516 377.086C693.271 376.253 694.391 375.836 695.875 375.836C697.359 375.836 698.479 376.253 699.234 377.086C700.016 377.919 700.406 378.961 700.406 380.211C700.406 381.409 700.016 382.411 699.234 383.219C698.479 384.026 697.359 384.43 695.875 384.43C694.391 384.43 693.271 384.026 692.516 383.219C691.786 382.411 691.422 381.409 691.422 380.211Z" fill="black"/>
<path d="M67.9014 96.0941C65.2809 96.0941 62.763 95.7637 60.3477 95.1029C57.9551 94.4421 55.8359 93.5648 53.9902 92.4711C52.1445 91.3545 50.6748 90.0785 49.5811 88.6429C48.4873 87.1846 47.9404 85.6807 47.9404 84.1312C47.9404 83.4932 48.0088 82.7526 48.1455 81.9095C48.305 81.0664 48.6696 80.1778 49.2393 79.2435C49.8317 78.3093 50.6862 77.3636 51.8027 76.4066C52.9421 75.4268 54.5029 74.5039 56.4854 73.6381C53.637 72.3392 51.5521 70.6872 50.2305 68.682C48.9089 66.6768 48.248 64.4095 48.248 61.8802C48.248 59.6472 48.5557 57.6989 49.1709 56.0355C49.8089 54.3721 50.652 52.948 51.7002 51.7631C52.7484 50.5554 53.9447 49.5642 55.2891 48.7894C56.6335 48.0147 58.0234 47.3995 59.459 46.9437C60.9173 46.488 62.3529 46.169 63.7656 45.9867C65.2012 45.7816 66.5114 45.6677 67.6963 45.6449H68.1064C70.5674 45.6449 72.9144 45.8955 75.1475 46.3969C77.3805 46.8982 79.3516 47.6843 81.0605 48.7552C82.7695 49.8034 84.1367 51.1706 85.1621 52.8568C86.1875 54.5202 86.7344 56.5254 86.8027 58.8724C86.8027 58.8952 86.7686 59.0889 86.7002 59.4535C86.6546 59.7953 86.5293 60.251 86.3242 60.8207C86.1419 61.3903 85.8685 62.0284 85.5039 62.7347C85.1393 63.4411 84.6494 64.1589 84.0342 64.8881C83.4417 65.6172 82.6898 66.335 81.7783 67.0414C80.8669 67.7478 79.7845 68.363 78.5312 68.8871C80.1263 69.5251 81.4707 70.2543 82.5645 71.0746C83.6582 71.8721 84.5469 72.7494 85.2305 73.7064C85.9141 74.6407 86.404 75.6433 86.7002 76.7142C86.9964 77.7624 87.1445 78.8562 87.1445 79.9955C87.1445 81.7956 86.8825 83.4362 86.3584 84.9174C85.8343 86.3985 85.1165 87.7315 84.2051 88.9164C83.2936 90.1013 82.2113 91.1495 80.958 92.0609C79.7275 92.9496 78.3945 93.6901 76.959 94.2826C75.5462 94.875 74.0651 95.3194 72.5156 95.6156C70.9889 95.9346 69.4736 96.0941 67.9697 96.0941H67.9014ZM67.7646 46.9095C66.6709 46.9779 65.6569 47.3311 64.7227 47.9691C63.7884 48.6071 62.9795 49.4274 62.2959 50.4301C61.6123 51.4099 61.0768 52.5264 60.6895 53.7797C60.3249 55.0101 60.1426 56.2634 60.1426 57.5394C60.1426 58.6104 60.2907 59.6472 60.5869 60.6498C60.9059 61.6524 61.4072 62.5638 62.0908 63.3842C62.7744 64.2045 63.6517 64.8995 64.7227 65.4691C65.7936 66.0388 67.0924 66.4034 68.6191 66.5629C69.2344 66.6312 69.8268 66.7224 70.3965 66.8363C70.9661 66.9274 71.5358 67.03 72.1055 67.1439C72.903 66.2097 73.5296 65.1615 73.9854 63.9994C74.4411 62.8373 74.7829 61.7435 75.0107 60.7181C75.2386 59.67 75.3753 58.7699 75.4209 58.0179C75.4893 57.266 75.5234 56.8444 75.5234 56.7533C75.5234 55.6823 75.3981 54.5658 75.1475 53.4037C74.8968 52.2416 74.4867 51.182 73.917 50.225C73.3473 49.2679 72.584 48.4818 71.627 47.8666C70.6699 47.2286 69.4964 46.9095 68.1064 46.9095H67.7646ZM67.9697 94.8636C69.109 94.8636 70.123 94.6016 71.0117 94.0775C71.9232 93.5306 72.6865 92.8243 73.3018 91.9584C73.9398 91.0925 74.4183 90.1013 74.7373 88.9847C75.0791 87.8454 75.25 86.6947 75.25 85.5326C75.25 84.4616 75.0791 83.4021 74.7373 82.3539C74.3955 81.3057 73.8942 80.3601 73.2334 79.517C72.5726 78.6511 71.7409 77.9219 70.7383 77.3295C69.7357 76.737 68.585 76.3497 67.2861 76.1674C65.3493 76.0306 63.6175 75.7914 62.0908 75.4496C61.5439 76.361 61.1224 77.3864 60.8262 78.5258C60.5527 79.6651 60.3477 80.7474 60.2109 81.7728C60.0742 82.7982 59.9945 83.6755 59.9717 84.4047C59.9489 85.111 59.9375 85.5098 59.9375 85.601C59.9375 86.6947 60.0856 87.7885 60.3818 88.8822C60.6781 89.976 61.1338 90.9672 61.749 91.8558C62.387 92.7217 63.2074 93.4395 64.21 94.0092C65.2354 94.556 66.4658 94.8409 67.9014 94.8636H67.9697Z" fill="black"/>
</svg>
