<svg width="800" height="899" viewBox="0 0 800 899" fill="none" xmlns="http://www.w3.org/2000/svg">
<path d="M2.5 2.5H797.5V674.616H2.5V2.5Z" fill="#FFFFFD" stroke="black" stroke-width="5"/>
<path d="M2.5 675.795H797.5V896.5H2.5V675.795Z" fill="#FFFFFD" stroke="black" stroke-width="5"/>
<path d="M41.0156 725.789C37.1562 724.68 34.3438 723.32 32.5781 721.711C30.8281 720.086 29.9531 718.086 29.9531 715.711C29.9531 713.023 31.0234 710.805 33.1641 709.055C35.3203 707.289 38.1172 706.406 41.5547 706.406C43.8984 706.406 45.9844 706.859 47.8125 707.766C49.6562 708.672 51.0781 709.922 52.0781 711.516C53.0938 713.109 53.6016 714.852 53.6016 716.742H49.0781C49.0781 714.68 48.4219 713.062 47.1094 711.891C45.7969 710.703 43.9453 710.109 41.5547 710.109C39.3359 710.109 37.6016 710.602 36.3516 711.586C35.1172 712.555 34.5 713.906 34.5 715.641C34.5 717.031 35.0859 718.211 36.2578 719.18C37.4453 720.133 39.4531 721.008 42.2812 721.805C45.125 722.602 47.3438 723.484 48.9375 724.453C50.5469 725.406 51.7344 726.523 52.5 727.805C53.2812 729.086 53.6719 730.594 53.6719 732.328C53.6719 735.094 52.5938 737.312 50.4375 738.984C48.2812 740.641 45.3984 741.469 41.7891 741.469C39.4453 741.469 37.2578 741.023 35.2266 740.133C33.1953 739.227 31.625 737.992 30.5156 736.43C29.4219 734.867 28.875 733.094 28.875 731.109H33.3984C33.3984 733.172 34.1562 734.805 35.6719 736.008C37.2031 737.195 39.2422 737.789 41.7891 737.789C44.1641 737.789 45.9844 737.305 47.25 736.336C48.5156 735.367 49.1484 734.047 49.1484 732.375C49.1484 730.703 48.5625 729.414 47.3906 728.508C46.2188 727.586 44.0938 726.68 41.0156 725.789ZM63.1172 718.711C65.0391 716.352 67.5391 715.172 70.6172 715.172C75.9766 715.172 78.6797 718.195 78.7266 724.242V741H74.3906V724.219C74.375 722.391 73.9531 721.039 73.125 720.164C72.3125 719.289 71.0391 718.852 69.3047 718.852C67.8984 718.852 66.6641 719.227 65.6016 719.977C64.5391 720.727 63.7109 721.711 63.1172 722.93V741H58.7812V705H63.1172V718.711ZM95.7422 741.469C92.3047 741.469 89.5078 740.344 87.3516 738.094C85.1953 735.828 84.1172 732.805 84.1172 729.023V728.227C84.1172 725.711 84.5938 723.469 85.5469 721.5C86.5156 719.516 87.8594 717.969 89.5781 716.859C91.3125 715.734 93.1875 715.172 95.2031 715.172C98.5 715.172 101.062 716.258 102.891 718.43C104.719 720.602 105.633 723.711 105.633 727.758V729.562H88.4531C88.5156 732.062 89.2422 734.086 90.6328 735.633C92.0391 737.164 93.8203 737.93 95.9766 737.93C97.5078 737.93 98.8047 737.617 99.8672 736.992C100.93 736.367 101.859 735.539 102.656 734.508L105.305 736.57C103.18 739.836 99.9922 741.469 95.7422 741.469ZM95.2031 718.734C93.4531 718.734 91.9844 719.375 90.7969 720.656C89.6094 721.922 88.875 723.703 88.5938 726H101.297V725.672C101.172 723.469 100.578 721.766 99.5156 720.562C98.4531 719.344 97.0156 718.734 95.2031 718.734ZM121.547 728.109C121.547 724.156 122.461 721.016 124.289 718.688C126.117 716.344 128.539 715.172 131.555 715.172C134.648 715.172 137.062 716.266 138.797 718.453L139.008 715.641H142.969V740.391C142.969 743.672 141.992 746.258 140.039 748.148C138.102 750.039 135.492 750.984 132.211 750.984C130.383 750.984 128.594 750.594 126.844 749.812C125.094 749.031 123.758 747.961 122.836 746.602L125.086 744C126.945 746.297 129.219 747.445 131.906 747.445C134.016 747.445 135.656 746.852 136.828 745.664C138.016 744.477 138.609 742.805 138.609 740.648V738.469C136.875 740.469 134.508 741.469 131.508 741.469C128.539 741.469 126.133 740.273 124.289 737.883C122.461 735.492 121.547 732.234 121.547 728.109ZM125.906 728.602C125.906 731.461 126.492 733.711 127.664 735.352C128.836 736.977 130.477 737.789 132.586 737.789C135.32 737.789 137.328 736.547 138.609 734.062V722.484C137.281 720.062 135.289 718.852 132.633 718.852C130.523 718.852 128.875 719.672 127.688 721.312C126.5 722.953 125.906 725.383 125.906 728.602ZM161.789 719.531C161.133 719.422 160.422 719.367 159.656 719.367C156.812 719.367 154.883 720.578 153.867 723V741H149.531V715.641H153.75L153.82 718.57C155.242 716.305 157.258 715.172 159.867 715.172C160.711 715.172 161.352 715.281 161.789 715.5V719.531ZM180.516 741C180.266 740.5 180.062 739.609 179.906 738.328C177.891 740.422 175.484 741.469 172.688 741.469C170.188 741.469 168.133 740.766 166.523 739.359C164.93 737.938 164.133 736.141 164.133 733.969C164.133 731.328 165.133 729.281 167.133 727.828C169.148 726.359 171.977 725.625 175.617 725.625H179.836V723.633C179.836 722.117 179.383 720.914 178.477 720.023C177.57 719.117 176.234 718.664 174.469 718.664C172.922 718.664 171.625 719.055 170.578 719.836C169.531 720.617 169.008 721.562 169.008 722.672H164.648C164.648 721.406 165.094 720.188 165.984 719.016C166.891 717.828 168.109 716.891 169.641 716.203C171.188 715.516 172.883 715.172 174.727 715.172C177.648 715.172 179.938 715.906 181.594 717.375C183.25 718.828 184.109 720.836 184.172 723.398V735.07C184.172 737.398 184.469 739.25 185.062 740.625V741H180.516ZM173.32 737.695C174.68 737.695 175.969 737.344 177.188 736.641C178.406 735.938 179.289 735.023 179.836 733.898V728.695H176.438C171.125 728.695 168.469 730.25 168.469 733.359C168.469 734.719 168.922 735.781 169.828 736.547C170.734 737.312 171.898 737.695 173.32 737.695ZM189.914 728.109C189.914 724.219 190.836 721.094 192.68 718.734C194.523 716.359 196.938 715.172 199.922 715.172C202.891 715.172 205.242 716.188 206.977 718.219V705H211.312V741H207.328L207.117 738.281C205.383 740.406 202.969 741.469 199.875 741.469C196.938 741.469 194.539 740.266 192.68 737.859C190.836 735.453 189.914 732.312 189.914 728.438V728.109ZM194.25 728.602C194.25 731.477 194.844 733.727 196.031 735.352C197.219 736.977 198.859 737.789 200.953 737.789C203.703 737.789 205.711 736.555 206.977 734.086V722.438C205.68 720.047 203.688 718.852 201 718.852C198.875 718.852 197.219 719.672 196.031 721.312C194.844 722.953 194.25 725.383 194.25 728.602ZM233.719 738.492C232.031 740.477 229.555 741.469 226.289 741.469C223.586 741.469 221.523 740.688 220.102 739.125C218.695 737.547 217.984 735.219 217.969 732.141V715.641H222.305V732.023C222.305 735.867 223.867 737.789 226.992 737.789C230.305 737.789 232.508 736.555 233.602 734.086V715.641H237.938V741H233.812L233.719 738.492ZM260.203 741C259.953 740.5 259.75 739.609 259.594 738.328C257.578 740.422 255.172 741.469 252.375 741.469C249.875 741.469 247.82 740.766 246.211 739.359C244.617 737.938 243.82 736.141 243.82 733.969C243.82 731.328 244.82 729.281 246.82 727.828C248.836 726.359 251.664 725.625 255.305 725.625H259.523V723.633C259.523 722.117 259.07 720.914 258.164 720.023C257.258 719.117 255.922 718.664 254.156 718.664C252.609 718.664 251.312 719.055 250.266 719.836C249.219 720.617 248.695 721.562 248.695 722.672H244.336C244.336 721.406 244.781 720.188 245.672 719.016C246.578 717.828 247.797 716.891 249.328 716.203C250.875 715.516 252.57 715.172 254.414 715.172C257.336 715.172 259.625 715.906 261.281 717.375C262.938 718.828 263.797 720.836 263.859 723.398V735.07C263.859 737.398 264.156 739.25 264.75 740.625V741H260.203ZM253.008 737.695C254.367 737.695 255.656 737.344 256.875 736.641C258.094 735.938 258.977 735.023 259.523 733.898V728.695H256.125C250.812 728.695 248.156 730.25 248.156 733.359C248.156 734.719 248.609 735.781 249.516 736.547C250.422 737.312 251.586 737.695 253.008 737.695ZM276.539 709.5V715.641H281.273V718.992H276.539V734.719C276.539 735.734 276.75 736.5 277.172 737.016C277.594 737.516 278.312 737.766 279.328 737.766C279.828 737.766 280.516 737.672 281.391 737.484V741C280.25 741.312 279.141 741.469 278.062 741.469C276.125 741.469 274.664 740.883 273.68 739.711C272.695 738.539 272.203 736.875 272.203 734.719V718.992H267.586V715.641H272.203V709.5H276.539ZM296.883 741.469C293.445 741.469 290.648 740.344 288.492 738.094C286.336 735.828 285.258 732.805 285.258 729.023V728.227C285.258 725.711 285.734 723.469 286.688 721.5C287.656 719.516 289 717.969 290.719 716.859C292.453 715.734 294.328 715.172 296.344 715.172C299.641 715.172 302.203 716.258 304.031 718.43C305.859 720.602 306.773 723.711 306.773 727.758V729.562H289.594C289.656 732.062 290.383 734.086 291.773 735.633C293.18 737.164 294.961 737.93 297.117 737.93C298.648 737.93 299.945 737.617 301.008 736.992C302.07 736.367 303 735.539 303.797 734.508L306.445 736.57C304.32 739.836 301.133 741.469 296.883 741.469ZM296.344 718.734C294.594 718.734 293.125 719.375 291.938 720.656C290.75 721.922 290.016 723.703 289.734 726H302.438V725.672C302.312 723.469 301.719 721.766 300.656 720.562C299.594 719.344 298.156 718.734 296.344 718.734ZM310.758 728.109C310.758 724.219 311.68 721.094 313.523 718.734C315.367 716.359 317.781 715.172 320.766 715.172C323.734 715.172 326.086 716.188 327.82 718.219V705H332.156V741H328.172L327.961 738.281C326.227 740.406 323.812 741.469 320.719 741.469C317.781 741.469 315.383 740.266 313.523 737.859C311.68 735.453 310.758 732.312 310.758 728.438V728.109ZM315.094 728.602C315.094 731.477 315.688 733.727 316.875 735.352C318.062 736.977 319.703 737.789 321.797 737.789C324.547 737.789 326.555 736.555 327.82 734.086V722.438C326.523 720.047 324.531 718.852 321.844 718.852C319.719 718.852 318.062 719.672 316.875 721.312C315.688 722.953 315.094 725.383 315.094 728.602ZM352.945 741V718.992H348.938V715.641H352.945V713.039C352.945 710.32 353.672 708.219 355.125 706.734C356.578 705.25 358.633 704.508 361.289 704.508C362.289 704.508 363.281 704.641 364.266 704.906L364.031 708.422C363.297 708.281 362.516 708.211 361.688 708.211C360.281 708.211 359.195 708.625 358.43 709.453C357.664 710.266 357.281 711.438 357.281 712.969V715.641H362.695V718.992H357.281V741H352.945ZM379.758 719.531C379.102 719.422 378.391 719.367 377.625 719.367C374.781 719.367 372.852 720.578 371.836 723V741H367.5V715.641H371.719L371.789 718.57C373.211 716.305 375.227 715.172 377.836 715.172C378.68 715.172 379.32 715.281 379.758 715.5V719.531ZM382.148 728.086C382.148 725.602 382.633 723.367 383.602 721.383C384.586 719.398 385.945 717.867 387.68 716.789C389.43 715.711 391.422 715.172 393.656 715.172C397.109 715.172 399.898 716.367 402.023 718.758C404.164 721.148 405.234 724.328 405.234 728.297V728.602C405.234 731.07 404.758 733.289 403.805 735.258C402.867 737.211 401.516 738.734 399.75 739.828C398 740.922 395.984 741.469 393.703 741.469C390.266 741.469 387.477 740.273 385.336 737.883C383.211 735.492 382.148 732.328 382.148 728.391V728.086ZM386.508 728.602C386.508 731.414 387.156 733.672 388.453 735.375C389.766 737.078 391.516 737.93 393.703 737.93C395.906 737.93 397.656 737.07 398.953 735.352C400.25 733.617 400.898 731.195 400.898 728.086C400.898 725.305 400.234 723.055 398.906 721.336C397.594 719.602 395.844 718.734 393.656 718.734C391.516 718.734 389.789 719.586 388.477 721.289C387.164 722.992 386.508 725.43 386.508 728.602ZM414.75 715.641L414.867 718.453C416.727 716.266 419.234 715.172 422.391 715.172C425.938 715.172 428.352 716.531 429.633 719.25C430.477 718.031 431.57 717.047 432.914 716.297C434.273 715.547 435.875 715.172 437.719 715.172C443.281 715.172 446.109 718.117 446.203 724.008V741H441.867V724.266C441.867 722.453 441.453 721.102 440.625 720.211C439.797 719.305 438.406 718.852 436.453 718.852C434.844 718.852 433.508 719.336 432.445 720.305C431.383 721.258 430.766 722.547 430.594 724.172V741H426.234V724.383C426.234 720.695 424.43 718.852 420.82 718.852C417.977 718.852 416.031 720.062 414.984 722.484V741H410.648V715.641H414.75ZM480.328 738.492C478.641 740.477 476.164 741.469 472.898 741.469C470.195 741.469 468.133 740.688 466.711 739.125C465.305 737.547 464.594 735.219 464.578 732.141V715.641H468.914V732.023C468.914 735.867 470.477 737.789 473.602 737.789C476.914 737.789 479.117 736.555 480.211 734.086V715.641H484.547V741H480.422L480.328 738.492ZM495.258 715.641L495.398 718.828C497.336 716.391 499.867 715.172 502.992 715.172C508.352 715.172 511.055 718.195 511.102 724.242V741H506.766V724.219C506.75 722.391 506.328 721.039 505.5 720.164C504.688 719.289 503.414 718.852 501.68 718.852C500.273 718.852 499.039 719.227 497.977 719.977C496.914 720.727 496.086 721.711 495.492 722.93V741H491.156V715.641H495.258ZM522.352 741H518.016V715.641H522.352V741ZM517.664 708.914C517.664 708.211 517.875 707.617 518.297 707.133C518.734 706.648 519.375 706.406 520.219 706.406C521.062 706.406 521.703 706.648 522.141 707.133C522.578 707.617 522.797 708.211 522.797 708.914C522.797 709.617 522.578 710.203 522.141 710.672C521.703 711.141 521.062 711.375 520.219 711.375C519.375 711.375 518.734 711.141 518.297 710.672C517.875 710.203 517.664 709.617 517.664 708.914ZM537.68 735.117L543.961 715.641H548.391L539.297 741H535.992L526.805 715.641H531.234L537.68 735.117ZM562.758 741.469C559.32 741.469 556.523 740.344 554.367 738.094C552.211 735.828 551.133 732.805 551.133 729.023V728.227C551.133 725.711 551.609 723.469 552.562 721.5C553.531 719.516 554.875 717.969 556.594 716.859C558.328 715.734 560.203 715.172 562.219 715.172C565.516 715.172 568.078 716.258 569.906 718.43C571.734 720.602 572.648 723.711 572.648 727.758V729.562H555.469C555.531 732.062 556.258 734.086 557.648 735.633C559.055 737.164 560.836 737.93 562.992 737.93C564.523 737.93 565.82 737.617 566.883 736.992C567.945 736.367 568.875 735.539 569.672 734.508L572.32 736.57C570.195 739.836 567.008 741.469 562.758 741.469ZM562.219 718.734C560.469 718.734 559 719.375 557.812 720.656C556.625 721.922 555.891 723.703 555.609 726H568.312V725.672C568.188 723.469 567.594 721.766 566.531 720.562C565.469 719.344 564.031 718.734 562.219 718.734ZM589.945 719.531C589.289 719.422 588.578 719.367 587.812 719.367C584.969 719.367 583.039 720.578 582.023 723V741H577.688V715.641H581.906L581.977 718.57C583.398 716.305 585.414 715.172 588.023 715.172C588.867 715.172 589.508 715.281 589.945 715.5V719.531ZM608.719 734.273C608.719 733.102 608.273 732.195 607.383 731.555C606.508 730.898 604.969 730.336 602.766 729.867C600.578 729.398 598.836 728.836 597.539 728.18C596.258 727.523 595.305 726.742 594.68 725.836C594.07 724.93 593.766 723.852 593.766 722.602C593.766 720.523 594.641 718.766 596.391 717.328C598.156 715.891 600.406 715.172 603.141 715.172C606.016 715.172 608.344 715.914 610.125 717.398C611.922 718.883 612.82 720.781 612.82 723.094H608.461C608.461 721.906 607.953 720.883 606.938 720.023C605.938 719.164 604.672 718.734 603.141 718.734C601.562 718.734 600.328 719.078 599.438 719.766C598.547 720.453 598.102 721.352 598.102 722.461C598.102 723.508 598.516 724.297 599.344 724.828C600.172 725.359 601.664 725.867 603.82 726.352C605.992 726.836 607.75 727.414 609.094 728.086C610.438 728.758 611.43 729.57 612.07 730.523C612.727 731.461 613.055 732.609 613.055 733.969C613.055 736.234 612.148 738.055 610.336 739.43C608.523 740.789 606.172 741.469 603.281 741.469C601.25 741.469 599.453 741.109 597.891 740.391C596.328 739.672 595.102 738.672 594.211 737.391C593.336 736.094 592.898 734.695 592.898 733.195H597.234C597.312 734.648 597.891 735.805 598.969 736.664C600.062 737.508 601.5 737.93 603.281 737.93C604.922 737.93 606.234 737.602 607.219 736.945C608.219 736.273 608.719 735.383 608.719 734.273ZM623.414 741H619.078V715.641H623.414V741ZM618.727 708.914C618.727 708.211 618.938 707.617 619.359 707.133C619.797 706.648 620.438 706.406 621.281 706.406C622.125 706.406 622.766 706.648 623.203 707.133C623.641 707.617 623.859 708.211 623.859 708.914C623.859 709.617 623.641 710.203 623.203 710.672C622.766 711.141 622.125 711.375 621.281 711.375C620.438 711.375 619.797 711.141 619.359 710.672C618.938 710.203 618.727 709.617 618.727 708.914ZM636.258 709.5V715.641H640.992V718.992H636.258V734.719C636.258 735.734 636.469 736.5 636.891 737.016C637.312 737.516 638.031 737.766 639.047 737.766C639.547 737.766 640.234 737.672 641.109 737.484V741C639.969 741.312 638.859 741.469 637.781 741.469C635.844 741.469 634.383 740.883 633.398 739.711C632.414 738.539 631.922 736.875 631.922 734.719V718.992H627.305V715.641H631.922V709.5H636.258ZM654.375 734.648L660.281 715.641H664.922L654.727 744.914C653.148 749.133 650.641 751.242 647.203 751.242L646.383 751.172L644.766 750.867V747.352L645.938 747.445C647.406 747.445 648.547 747.148 649.359 746.555C650.188 745.961 650.867 744.875 651.398 743.297L652.359 740.719L643.312 715.641H648.047L654.375 734.648ZM685.43 741H681.094V715.641H685.43V741ZM680.742 708.914C680.742 708.211 680.953 707.617 681.375 707.133C681.812 706.648 682.453 706.406 683.297 706.406C684.141 706.406 684.781 706.648 685.219 707.133C685.656 707.617 685.875 708.211 685.875 708.914C685.875 709.617 685.656 710.203 685.219 710.672C684.781 711.141 684.141 711.375 683.297 711.375C682.453 711.375 681.812 711.141 681.375 710.672C680.953 710.203 680.742 709.617 680.742 708.914ZM696.492 715.641L696.633 718.828C698.57 716.391 701.102 715.172 704.227 715.172C709.586 715.172 712.289 718.195 712.336 724.242V741H708V724.219C707.984 722.391 707.562 721.039 706.734 720.164C705.922 719.289 704.648 718.852 702.914 718.852C701.508 718.852 700.273 719.227 699.211 719.977C698.148 720.727 697.32 721.711 696.727 722.93V741H692.391V715.641H696.492ZM52.1953 797H29.8359V793.883L41.6484 780.758C43.3984 778.773 44.6016 777.164 45.2578 775.93C45.9297 774.68 46.2656 773.391 46.2656 772.062C46.2656 770.281 45.7266 768.82 44.6484 767.68C43.5703 766.539 42.1328 765.969 40.3359 765.969C38.1797 765.969 36.5 766.586 35.2969 767.82C34.1094 769.039 33.5156 770.742 33.5156 772.93H29.1797C29.1797 769.789 30.1875 767.25 32.2031 765.312C34.2344 763.375 36.9453 762.406 40.3359 762.406C43.5078 762.406 46.0156 763.242 47.8594 764.914C49.7031 766.57 50.625 768.781 50.625 771.547C50.625 774.906 48.4844 778.906 44.2031 783.547L35.0625 793.461H52.1953V797ZM78.1875 782.445C78.1875 787.523 77.3203 791.297 75.5859 793.766C73.8516 796.234 71.1406 797.469 67.4531 797.469C63.8125 797.469 61.1172 796.266 59.3672 793.859C57.6172 791.438 56.7109 787.828 56.6484 783.031V777.242C56.6484 772.227 57.5156 768.5 59.25 766.062C60.9844 763.625 63.7031 762.406 67.4062 762.406C71.0781 762.406 73.7812 763.586 75.5156 765.945C77.25 768.289 78.1406 771.914 78.1875 776.82V782.445ZM73.8516 776.516C73.8516 772.844 73.3359 770.172 72.3047 768.5C71.2734 766.812 69.6406 765.969 67.4062 765.969C65.1875 765.969 63.5703 766.805 62.5547 768.477C61.5391 770.148 61.0156 772.719 60.9844 776.188V783.125C60.9844 786.812 61.5156 789.539 62.5781 791.305C63.6562 793.055 65.2812 793.93 67.4531 793.93C69.5938 793.93 71.1797 793.102 72.2109 791.445C73.2578 789.789 73.8047 787.18 73.8516 783.617V776.516ZM97.9922 797H93.6328V768.102L84.8906 771.312V767.375L97.3125 762.711H97.9922V797ZM132.727 765.312L118.594 797H114.047L128.133 766.438H109.664V762.875H132.727V765.312ZM172.453 791.023L177.328 771.641H181.664L174.281 797H170.766L164.602 777.781L158.602 797H155.086L147.727 771.641H152.039L157.031 790.625L162.938 771.641H166.43L172.453 791.023ZM190.805 797H186.469V771.641H190.805V797ZM186.117 764.914C186.117 764.211 186.328 763.617 186.75 763.133C187.188 762.648 187.828 762.406 188.672 762.406C189.516 762.406 190.156 762.648 190.594 763.133C191.031 763.617 191.25 764.211 191.25 764.914C191.25 765.617 191.031 766.203 190.594 766.672C190.156 767.141 189.516 767.375 188.672 767.375C187.828 767.375 187.188 767.141 186.75 766.672C186.328 766.203 186.117 765.617 186.117 764.914ZM203.648 765.5V771.641H208.383V774.992H203.648V790.719C203.648 791.734 203.859 792.5 204.281 793.016C204.703 793.516 205.422 793.766 206.438 793.766C206.938 793.766 207.625 793.672 208.5 793.484V797C207.359 797.312 206.25 797.469 205.172 797.469C203.234 797.469 201.773 796.883 200.789 795.711C199.805 794.539 199.312 792.875 199.312 790.719V774.992H194.695V771.641H199.312V765.5H203.648ZM217.805 774.711C219.727 772.352 222.227 771.172 225.305 771.172C230.664 771.172 233.367 774.195 233.414 780.242V797H229.078V780.219C229.062 778.391 228.641 777.039 227.812 776.164C227 775.289 225.727 774.852 223.992 774.852C222.586 774.852 221.352 775.227 220.289 775.977C219.227 776.727 218.398 777.711 217.805 778.93V797H213.469V761H217.805V774.711ZM267.469 797C267.219 796.5 267.016 795.609 266.859 794.328C264.844 796.422 262.438 797.469 259.641 797.469C257.141 797.469 255.086 796.766 253.477 795.359C251.883 793.938 251.086 792.141 251.086 789.969C251.086 787.328 252.086 785.281 254.086 783.828C256.102 782.359 258.93 781.625 262.57 781.625H266.789V779.633C266.789 778.117 266.336 776.914 265.43 776.023C264.523 775.117 263.188 774.664 261.422 774.664C259.875 774.664 258.578 775.055 257.531 775.836C256.484 776.617 255.961 777.562 255.961 778.672H251.602C251.602 777.406 252.047 776.188 252.938 775.016C253.844 773.828 255.062 772.891 256.594 772.203C258.141 771.516 259.836 771.172 261.68 771.172C264.602 771.172 266.891 771.906 268.547 773.375C270.203 774.828 271.062 776.836 271.125 779.398V791.07C271.125 793.398 271.422 795.25 272.016 796.625V797H267.469ZM260.273 793.695C261.633 793.695 262.922 793.344 264.141 792.641C265.359 791.938 266.242 791.023 266.789 789.898V784.695H263.391C258.078 784.695 255.422 786.25 255.422 789.359C255.422 790.719 255.875 791.781 256.781 792.547C257.688 793.312 258.852 793.695 260.273 793.695ZM311.297 784.602C311.297 788.477 310.406 791.594 308.625 793.953C306.844 796.297 304.453 797.469 301.453 797.469C298.25 797.469 295.773 796.336 294.023 794.07L293.812 797H289.828V761H294.164V774.43C295.914 772.258 298.328 771.172 301.406 771.172C304.484 771.172 306.898 772.336 308.648 774.664C310.414 776.992 311.297 780.18 311.297 784.227V784.602ZM306.961 784.109C306.961 781.156 306.391 778.875 305.25 777.266C304.109 775.656 302.469 774.852 300.328 774.852C297.469 774.852 295.414 776.18 294.164 778.836V789.805C295.492 792.461 297.562 793.789 300.375 793.789C302.453 793.789 304.07 792.984 305.227 791.375C306.383 789.766 306.961 787.344 306.961 784.109ZM332.438 797C332.188 796.5 331.984 795.609 331.828 794.328C329.812 796.422 327.406 797.469 324.609 797.469C322.109 797.469 320.055 796.766 318.445 795.359C316.852 793.938 316.055 792.141 316.055 789.969C316.055 787.328 317.055 785.281 319.055 783.828C321.07 782.359 323.898 781.625 327.539 781.625H331.758V779.633C331.758 778.117 331.305 776.914 330.398 776.023C329.492 775.117 328.156 774.664 326.391 774.664C324.844 774.664 323.547 775.055 322.5 775.836C321.453 776.617 320.93 777.562 320.93 778.672H316.57C316.57 777.406 317.016 776.188 317.906 775.016C318.812 773.828 320.031 772.891 321.562 772.203C323.109 771.516 324.805 771.172 326.648 771.172C329.57 771.172 331.859 771.906 333.516 773.375C335.172 774.828 336.031 776.836 336.094 779.398V791.07C336.094 793.398 336.391 795.25 336.984 796.625V797H332.438ZM325.242 793.695C326.602 793.695 327.891 793.344 329.109 792.641C330.328 791.938 331.211 791.023 331.758 789.898V784.695H328.359C323.047 784.695 320.391 786.25 320.391 789.359C320.391 790.719 320.844 791.781 321.75 792.547C322.656 793.312 323.82 793.695 325.242 793.695ZM353.062 793.93C354.609 793.93 355.961 793.461 357.117 792.523C358.273 791.586 358.914 790.414 359.039 789.008H363.141C363.062 790.461 362.562 791.844 361.641 793.156C360.719 794.469 359.484 795.516 357.938 796.297C356.406 797.078 354.781 797.469 353.062 797.469C349.609 797.469 346.859 796.32 344.812 794.023C342.781 791.711 341.766 788.555 341.766 784.555V783.828C341.766 781.359 342.219 779.164 343.125 777.242C344.031 775.32 345.328 773.828 347.016 772.766C348.719 771.703 350.727 771.172 353.039 771.172C355.883 771.172 358.242 772.023 360.117 773.727C362.008 775.43 363.016 777.641 363.141 780.359H359.039C358.914 778.719 358.289 777.375 357.164 776.328C356.055 775.266 354.68 774.734 353.039 774.734C350.836 774.734 349.125 775.531 347.906 777.125C346.703 778.703 346.102 780.992 346.102 783.992V784.812C346.102 787.734 346.703 789.984 347.906 791.562C349.109 793.141 350.828 793.93 353.062 793.93ZM372.352 774.711C374.273 772.352 376.773 771.172 379.852 771.172C385.211 771.172 387.914 774.195 387.961 780.242V797H383.625V780.219C383.609 778.391 383.188 777.039 382.359 776.164C381.547 775.289 380.273 774.852 378.539 774.852C377.133 774.852 375.898 775.227 374.836 775.977C373.773 776.727 372.945 777.711 372.352 778.93V797H368.016V761H372.352V774.711ZM404.977 797.469C401.539 797.469 398.742 796.344 396.586 794.094C394.43 791.828 393.352 788.805 393.352 785.023V784.227C393.352 781.711 393.828 779.469 394.781 777.5C395.75 775.516 397.094 773.969 398.812 772.859C400.547 771.734 402.422 771.172 404.438 771.172C407.734 771.172 410.297 772.258 412.125 774.43C413.953 776.602 414.867 779.711 414.867 783.758V785.562H397.688C397.75 788.062 398.477 790.086 399.867 791.633C401.273 793.164 403.055 793.93 405.211 793.93C406.742 793.93 408.039 793.617 409.102 792.992C410.164 792.367 411.094 791.539 411.891 790.508L414.539 792.57C412.414 795.836 409.227 797.469 404.977 797.469ZM404.438 774.734C402.688 774.734 401.219 775.375 400.031 776.656C398.844 777.922 398.109 779.703 397.828 782H410.531V781.672C410.406 779.469 409.812 777.766 408.75 776.562C407.688 775.344 406.25 774.734 404.438 774.734ZM424.617 797H420.281V761H424.617V797ZM430.43 784.086C430.43 781.602 430.914 779.367 431.883 777.383C432.867 775.398 434.227 773.867 435.961 772.789C437.711 771.711 439.703 771.172 441.938 771.172C445.391 771.172 448.18 772.367 450.305 774.758C452.445 777.148 453.516 780.328 453.516 784.297V784.602C453.516 787.07 453.039 789.289 452.086 791.258C451.148 793.211 449.797 794.734 448.031 795.828C446.281 796.922 444.266 797.469 441.984 797.469C438.547 797.469 435.758 796.273 433.617 793.883C431.492 791.492 430.43 788.328 430.43 784.391V784.086ZM434.789 784.602C434.789 787.414 435.438 789.672 436.734 791.375C438.047 793.078 439.797 793.93 441.984 793.93C444.188 793.93 445.938 793.07 447.234 791.352C448.531 789.617 449.18 787.195 449.18 784.086C449.18 781.305 448.516 779.055 447.188 777.336C445.875 775.602 444.125 774.734 441.938 774.734C439.797 774.734 438.07 775.586 436.758 777.289C435.445 778.992 434.789 781.43 434.789 784.602ZM471.211 775.531C470.555 775.422 469.844 775.367 469.078 775.367C466.234 775.367 464.305 776.578 463.289 779V797H458.953V771.641H463.172L463.242 774.57C464.664 772.305 466.68 771.172 469.289 771.172C470.133 771.172 470.773 771.281 471.211 771.5V775.531ZM475.898 772.484L473.438 770.797C474.891 768.766 475.641 766.625 475.688 764.375V761H479.977V764.047C479.961 765.609 479.57 767.172 478.805 768.734C478.055 770.281 477.086 771.531 475.898 772.484ZM497.344 790.273C497.344 789.102 496.898 788.195 496.008 787.555C495.133 786.898 493.594 786.336 491.391 785.867C489.203 785.398 487.461 784.836 486.164 784.18C484.883 783.523 483.93 782.742 483.305 781.836C482.695 780.93 482.391 779.852 482.391 778.602C482.391 776.523 483.266 774.766 485.016 773.328C486.781 771.891 489.031 771.172 491.766 771.172C494.641 771.172 496.969 771.914 498.75 773.398C500.547 774.883 501.445 776.781 501.445 779.094H497.086C497.086 777.906 496.578 776.883 495.562 776.023C494.562 775.164 493.297 774.734 491.766 774.734C490.188 774.734 488.953 775.078 488.062 775.766C487.172 776.453 486.727 777.352 486.727 778.461C486.727 779.508 487.141 780.297 487.969 780.828C488.797 781.359 490.289 781.867 492.445 782.352C494.617 782.836 496.375 783.414 497.719 784.086C499.062 784.758 500.055 785.57 500.695 786.523C501.352 787.461 501.68 788.609 501.68 789.969C501.68 792.234 500.773 794.055 498.961 795.43C497.148 796.789 494.797 797.469 491.906 797.469C489.875 797.469 488.078 797.109 486.516 796.391C484.953 795.672 483.727 794.672 482.836 793.391C481.961 792.094 481.523 790.695 481.523 789.195H485.859C485.938 790.648 486.516 791.805 487.594 792.664C488.688 793.508 490.125 793.93 491.906 793.93C493.547 793.93 494.859 793.602 495.844 792.945C496.844 792.273 497.344 791.383 497.344 790.273ZM518.18 784.109C518.18 780.219 519.102 777.094 520.945 774.734C522.789 772.359 525.203 771.172 528.188 771.172C531.156 771.172 533.508 772.188 535.242 774.219V761H539.578V797H535.594L535.383 794.281C533.648 796.406 531.234 797.469 528.141 797.469C525.203 797.469 522.805 796.266 520.945 793.859C519.102 791.453 518.18 788.312 518.18 784.438V784.109ZM522.516 784.602C522.516 787.477 523.109 789.727 524.297 791.352C525.484 792.977 527.125 793.789 529.219 793.789C531.969 793.789 533.977 792.555 535.242 790.086V778.438C533.945 776.047 531.953 774.852 529.266 774.852C527.141 774.852 525.484 775.672 524.297 777.312C523.109 778.953 522.516 781.383 522.516 784.602ZM556.852 797.469C553.414 797.469 550.617 796.344 548.461 794.094C546.305 791.828 545.227 788.805 545.227 785.023V784.227C545.227 781.711 545.703 779.469 546.656 777.5C547.625 775.516 548.969 773.969 550.688 772.859C552.422 771.734 554.297 771.172 556.312 771.172C559.609 771.172 562.172 772.258 564 774.43C565.828 776.602 566.742 779.711 566.742 783.758V785.562H549.562C549.625 788.062 550.352 790.086 551.742 791.633C553.148 793.164 554.93 793.93 557.086 793.93C558.617 793.93 559.914 793.617 560.977 792.992C562.039 792.367 562.969 791.539 563.766 790.508L566.414 792.57C564.289 795.836 561.102 797.469 556.852 797.469ZM556.312 774.734C554.562 774.734 553.094 775.375 551.906 776.656C550.719 777.922 549.984 779.703 549.703 782H562.406V781.672C562.281 779.469 561.688 777.766 560.625 776.562C559.562 775.344 558.125 774.734 556.312 774.734ZM570.75 784.109C570.75 780.156 571.664 777.016 573.492 774.688C575.32 772.344 577.742 771.172 580.758 771.172C583.852 771.172 586.266 772.266 588 774.453L588.211 771.641H592.172V796.391C592.172 799.672 591.195 802.258 589.242 804.148C587.305 806.039 584.695 806.984 581.414 806.984C579.586 806.984 577.797 806.594 576.047 805.812C574.297 805.031 572.961 803.961 572.039 802.602L574.289 800C576.148 802.297 578.422 803.445 581.109 803.445C583.219 803.445 584.859 802.852 586.031 801.664C587.219 800.477 587.812 798.805 587.812 796.648V794.469C586.078 796.469 583.711 797.469 580.711 797.469C577.742 797.469 575.336 796.273 573.492 793.883C571.664 791.492 570.75 788.234 570.75 784.109ZM575.109 784.602C575.109 787.461 575.695 789.711 576.867 791.352C578.039 792.977 579.68 793.789 581.789 793.789C584.523 793.789 586.531 792.547 587.812 790.062V778.484C586.484 776.062 584.492 774.852 581.836 774.852C579.727 774.852 578.078 775.672 576.891 777.312C575.703 778.953 575.109 781.383 575.109 784.602ZM610.992 775.531C610.336 775.422 609.625 775.367 608.859 775.367C606.016 775.367 604.086 776.578 603.07 779V797H598.734V771.641H602.953L603.023 774.57C604.445 772.305 606.461 771.172 609.07 771.172C609.914 771.172 610.555 771.281 610.992 771.5V775.531ZM625.055 797.469C621.617 797.469 618.82 796.344 616.664 794.094C614.508 791.828 613.43 788.805 613.43 785.023V784.227C613.43 781.711 613.906 779.469 614.859 777.5C615.828 775.516 617.172 773.969 618.891 772.859C620.625 771.734 622.5 771.172 624.516 771.172C627.812 771.172 630.375 772.258 632.203 774.43C634.031 776.602 634.945 779.711 634.945 783.758V785.562H617.766C617.828 788.062 618.555 790.086 619.945 791.633C621.352 793.164 623.133 793.93 625.289 793.93C626.82 793.93 628.117 793.617 629.18 792.992C630.242 792.367 631.172 791.539 631.969 790.508L634.617 792.57C632.492 795.836 629.305 797.469 625.055 797.469ZM624.516 774.734C622.766 774.734 621.297 775.375 620.109 776.656C618.922 777.922 618.188 779.703 617.906 782H630.609V781.672C630.484 779.469 629.891 777.766 628.828 776.562C627.766 775.344 626.328 774.734 624.516 774.734ZM650.508 797.469C647.07 797.469 644.273 796.344 642.117 794.094C639.961 791.828 638.883 788.805 638.883 785.023V784.227C638.883 781.711 639.359 779.469 640.312 777.5C641.281 775.516 642.625 773.969 644.344 772.859C646.078 771.734 647.953 771.172 649.969 771.172C653.266 771.172 655.828 772.258 657.656 774.43C659.484 776.602 660.398 779.711 660.398 783.758V785.562H643.219C643.281 788.062 644.008 790.086 645.398 791.633C646.805 793.164 648.586 793.93 650.742 793.93C652.273 793.93 653.57 793.617 654.633 792.992C655.695 792.367 656.625 791.539 657.422 790.508L660.07 792.57C657.945 795.836 654.758 797.469 650.508 797.469ZM649.969 774.734C648.219 774.734 646.75 775.375 645.562 776.656C644.375 777.922 643.641 779.703 643.359 782H656.062V781.672C655.938 779.469 655.344 777.766 654.281 776.562C653.219 775.344 651.781 774.734 649.969 774.734ZM682.055 797H677.719V771.641H682.055V797ZM677.367 764.914C677.367 764.211 677.578 763.617 678 763.133C678.438 762.648 679.078 762.406 679.922 762.406C680.766 762.406 681.406 762.648 681.844 763.133C682.281 763.617 682.5 764.211 682.5 764.914C682.5 765.617 682.281 766.203 681.844 766.672C681.406 767.141 680.766 767.375 679.922 767.375C679.078 767.375 678.438 767.141 678 766.672C677.578 766.203 677.367 765.617 677.367 764.914ZM693.117 771.641L693.258 774.828C695.195 772.391 697.727 771.172 700.852 771.172C706.211 771.172 708.914 774.195 708.961 780.242V797H704.625V780.219C704.609 778.391 704.188 777.039 703.359 776.164C702.547 775.289 701.273 774.852 699.539 774.852C698.133 774.852 696.898 775.227 695.836 775.977C694.773 776.727 693.945 777.711 693.352 778.93V797H689.016V771.641H693.117ZM45.9375 853C45.6875 852.5 45.4844 851.609 45.3281 850.328C43.3125 852.422 40.9062 853.469 38.1094 853.469C35.6094 853.469 33.5547 852.766 31.9453 851.359C30.3516 849.938 29.5547 848.141 29.5547 845.969C29.5547 843.328 30.5547 841.281 32.5547 839.828C34.5703 838.359 37.3984 837.625 41.0391 837.625H45.2578V835.633C45.2578 834.117 44.8047 832.914 43.8984 832.023C42.9922 831.117 41.6562 830.664 39.8906 830.664C38.3438 830.664 37.0469 831.055 36 831.836C34.9531 832.617 34.4297 833.562 34.4297 834.672H30.0703C30.0703 833.406 30.5156 832.188 31.4062 831.016C32.3125 829.828 33.5312 828.891 35.0625 828.203C36.6094 827.516 38.3047 827.172 40.1484 827.172C43.0703 827.172 45.3594 827.906 47.0156 829.375C48.6719 830.828 49.5312 832.836 49.5938 835.398V847.07C49.5938 849.398 49.8906 851.25 50.4844 852.625V853H45.9375ZM38.7422 849.695C40.1016 849.695 41.3906 849.344 42.6094 848.641C43.8281 847.938 44.7109 847.023 45.2578 845.898V840.695H41.8594C36.5469 840.695 33.8906 842.25 33.8906 845.359C33.8906 846.719 34.3438 847.781 35.25 848.547C36.1562 849.312 37.3203 849.695 38.7422 849.695ZM77.8125 840.602C77.8125 844.461 76.9297 847.57 75.1641 849.93C73.3984 852.289 71.0078 853.469 67.9922 853.469C64.9141 853.469 62.4922 852.492 60.7266 850.539V862.75H56.3906V827.641H60.3516L60.5625 830.453C62.3281 828.266 64.7812 827.172 67.9219 827.172C70.9688 827.172 73.375 828.32 75.1406 830.617C76.9219 832.914 77.8125 836.109 77.8125 840.203V840.602ZM73.4766 840.109C73.4766 837.25 72.8672 834.992 71.6484 833.336C70.4297 831.68 68.7578 830.852 66.6328 830.852C64.0078 830.852 62.0391 832.016 60.7266 834.344V846.461C62.0234 848.773 64.0078 849.93 66.6797 849.93C68.7578 849.93 70.4062 849.109 71.625 847.469C72.8594 845.812 73.4766 843.359 73.4766 840.109ZM104.766 840.602C104.766 844.461 103.883 847.57 102.117 849.93C100.352 852.289 97.9609 853.469 94.9453 853.469C91.8672 853.469 89.4453 852.492 87.6797 850.539V862.75H83.3438V827.641H87.3047L87.5156 830.453C89.2812 828.266 91.7344 827.172 94.875 827.172C97.9219 827.172 100.328 828.32 102.094 830.617C103.875 832.914 104.766 836.109 104.766 840.203V840.602ZM100.43 840.109C100.43 837.25 99.8203 834.992 98.6016 833.336C97.3828 831.68 95.7109 830.852 93.5859 830.852C90.9609 830.852 88.9922 832.016 87.6797 834.344V846.461C88.9766 848.773 90.9609 849.93 93.6328 849.93C95.7109 849.93 97.3594 849.109 98.5781 847.469C99.8125 845.812 100.43 843.359 100.43 840.109ZM115.008 853H110.672V817H115.008V853ZM126.68 853H122.344V827.641H126.68V853ZM121.992 820.914C121.992 820.211 122.203 819.617 122.625 819.133C123.062 818.648 123.703 818.406 124.547 818.406C125.391 818.406 126.031 818.648 126.469 819.133C126.906 819.617 127.125 820.211 127.125 820.914C127.125 821.617 126.906 822.203 126.469 822.672C126.031 823.141 125.391 823.375 124.547 823.375C123.703 823.375 123.062 823.141 122.625 822.672C122.203 822.203 121.992 821.617 121.992 820.914ZM144.164 853.469C140.727 853.469 137.93 852.344 135.773 850.094C133.617 847.828 132.539 844.805 132.539 841.023V840.227C132.539 837.711 133.016 835.469 133.969 833.5C134.938 831.516 136.281 829.969 138 828.859C139.734 827.734 141.609 827.172 143.625 827.172C146.922 827.172 149.484 828.258 151.312 830.43C153.141 832.602 154.055 835.711 154.055 839.758V841.562H136.875C136.938 844.062 137.664 846.086 139.055 847.633C140.461 849.164 142.242 849.93 144.398 849.93C145.93 849.93 147.227 849.617 148.289 848.992C149.352 848.367 150.281 847.539 151.078 846.508L153.727 848.57C151.602 851.836 148.414 853.469 144.164 853.469ZM143.625 830.734C141.875 830.734 140.406 831.375 139.219 832.656C138.031 833.922 137.297 835.703 137.016 838H149.719V837.672C149.594 835.469 149 833.766 147.938 832.562C146.875 831.344 145.438 830.734 143.625 830.734ZM158.039 840.109C158.039 836.219 158.961 833.094 160.805 830.734C162.648 828.359 165.062 827.172 168.047 827.172C171.016 827.172 173.367 828.188 175.102 830.219V817H179.438V853H175.453L175.242 850.281C173.508 852.406 171.094 853.469 168 853.469C165.062 853.469 162.664 852.266 160.805 849.859C158.961 847.453 158.039 844.312 158.039 840.438V840.109ZM162.375 840.602C162.375 843.477 162.969 845.727 164.156 847.352C165.344 848.977 166.984 849.789 169.078 849.789C171.828 849.789 173.836 848.555 175.102 846.086V834.438C173.805 832.047 171.812 830.852 169.125 830.852C167 830.852 165.344 831.672 164.156 833.312C162.969 834.953 162.375 837.383 162.375 840.602ZM212.859 846.273C212.859 845.102 212.414 844.195 211.523 843.555C210.648 842.898 209.109 842.336 206.906 841.867C204.719 841.398 202.977 840.836 201.68 840.18C200.398 839.523 199.445 838.742 198.82 837.836C198.211 836.93 197.906 835.852 197.906 834.602C197.906 832.523 198.781 830.766 200.531 829.328C202.297 827.891 204.547 827.172 207.281 827.172C210.156 827.172 212.484 827.914 214.266 829.398C216.062 830.883 216.961 832.781 216.961 835.094H212.602C212.602 833.906 212.094 832.883 211.078 832.023C210.078 831.164 208.812 830.734 207.281 830.734C205.703 830.734 204.469 831.078 203.578 831.766C202.688 832.453 202.242 833.352 202.242 834.461C202.242 835.508 202.656 836.297 203.484 836.828C204.312 837.359 205.805 837.867 207.961 838.352C210.133 838.836 211.891 839.414 213.234 840.086C214.578 840.758 215.57 841.57 216.211 842.523C216.867 843.461 217.195 844.609 217.195 845.969C217.195 848.234 216.289 850.055 214.477 851.43C212.664 852.789 210.312 853.469 207.422 853.469C205.391 853.469 203.594 853.109 202.031 852.391C200.469 851.672 199.242 850.672 198.352 849.391C197.477 848.094 197.039 846.695 197.039 845.195H201.375C201.453 846.648 202.031 847.805 203.109 848.664C204.203 849.508 205.641 849.93 207.422 849.93C209.062 849.93 210.375 849.602 211.359 848.945C212.359 848.273 212.859 847.383 212.859 846.273ZM233.016 849.93C234.562 849.93 235.914 849.461 237.07 848.523C238.227 847.586 238.867 846.414 238.992 845.008H243.094C243.016 846.461 242.516 847.844 241.594 849.156C240.672 850.469 239.438 851.516 237.891 852.297C236.359 853.078 234.734 853.469 233.016 853.469C229.562 853.469 226.812 852.32 224.766 850.023C222.734 847.711 221.719 844.555 221.719 840.555V839.828C221.719 837.359 222.172 835.164 223.078 833.242C223.984 831.32 225.281 829.828 226.969 828.766C228.672 827.703 230.68 827.172 232.992 827.172C235.836 827.172 238.195 828.023 240.07 829.727C241.961 831.43 242.969 833.641 243.094 836.359H238.992C238.867 834.719 238.242 833.375 237.117 832.328C236.008 831.266 234.633 830.734 232.992 830.734C230.789 830.734 229.078 831.531 227.859 833.125C226.656 834.703 226.055 836.992 226.055 839.992V840.812C226.055 843.734 226.656 845.984 227.859 847.562C229.062 849.141 230.781 849.93 233.016 849.93ZM252.68 853H248.344V827.641H252.68V853ZM247.992 820.914C247.992 820.211 248.203 819.617 248.625 819.133C249.062 818.648 249.703 818.406 250.547 818.406C251.391 818.406 252.031 818.648 252.469 819.133C252.906 819.617 253.125 820.211 253.125 820.914C253.125 821.617 252.906 822.203 252.469 822.672C252.031 823.141 251.391 823.375 250.547 823.375C249.703 823.375 249.062 823.141 248.625 822.672C248.203 822.203 247.992 821.617 247.992 820.914ZM270.164 853.469C266.727 853.469 263.93 852.344 261.773 850.094C259.617 847.828 258.539 844.805 258.539 841.023V840.227C258.539 837.711 259.016 835.469 259.969 833.5C260.938 831.516 262.281 829.969 264 828.859C265.734 827.734 267.609 827.172 269.625 827.172C272.922 827.172 275.484 828.258 277.312 830.43C279.141 832.602 280.055 835.711 280.055 839.758V841.562H262.875C262.938 844.062 263.664 846.086 265.055 847.633C266.461 849.164 268.242 849.93 270.398 849.93C271.93 849.93 273.227 849.617 274.289 848.992C275.352 848.367 276.281 847.539 277.078 846.508L279.727 848.57C277.602 851.836 274.414 853.469 270.164 853.469ZM269.625 830.734C267.875 830.734 266.406 831.375 265.219 832.656C264.031 833.922 263.297 835.703 263.016 838H275.719V837.672C275.594 835.469 275 833.766 273.938 832.562C272.875 831.344 271.438 830.734 269.625 830.734ZM289.195 827.641L289.336 830.828C291.273 828.391 293.805 827.172 296.93 827.172C302.289 827.172 304.992 830.195 305.039 836.242V853H300.703V836.219C300.688 834.391 300.266 833.039 299.438 832.164C298.625 831.289 297.352 830.852 295.617 830.852C294.211 830.852 292.977 831.227 291.914 831.977C290.852 832.727 290.023 833.711 289.43 834.93V853H285.094V827.641H289.195ZM321.75 849.93C323.297 849.93 324.648 849.461 325.805 848.523C326.961 847.586 327.602 846.414 327.727 845.008H331.828C331.75 846.461 331.25 847.844 330.328 849.156C329.406 850.469 328.172 851.516 326.625 852.297C325.094 853.078 323.469 853.469 321.75 853.469C318.297 853.469 315.547 852.32 313.5 850.023C311.469 847.711 310.453 844.555 310.453 840.555V839.828C310.453 837.359 310.906 835.164 311.812 833.242C312.719 831.32 314.016 829.828 315.703 828.766C317.406 827.703 319.414 827.172 321.727 827.172C324.57 827.172 326.93 828.023 328.805 829.727C330.695 831.43 331.703 833.641 331.828 836.359H327.727C327.602 834.719 326.977 833.375 325.852 832.328C324.742 831.266 323.367 830.734 321.727 830.734C319.523 830.734 317.812 831.531 316.594 833.125C315.391 834.703 314.789 836.992 314.789 839.992V840.812C314.789 843.734 315.391 845.984 316.594 847.562C317.797 849.141 319.516 849.93 321.75 849.93ZM347.227 853.469C343.789 853.469 340.992 852.344 338.836 850.094C336.68 847.828 335.602 844.805 335.602 841.023V840.227C335.602 837.711 336.078 835.469 337.031 833.5C338 831.516 339.344 829.969 341.062 828.859C342.797 827.734 344.672 827.172 346.688 827.172C349.984 827.172 352.547 828.258 354.375 830.43C356.203 832.602 357.117 835.711 357.117 839.758V841.562H339.938C340 844.062 340.727 846.086 342.117 847.633C343.523 849.164 345.305 849.93 347.461 849.93C348.992 849.93 350.289 849.617 351.352 848.992C352.414 848.367 353.344 847.539 354.141 846.508L356.789 848.57C354.664 851.836 351.477 853.469 347.227 853.469ZM346.688 830.734C344.938 830.734 343.469 831.375 342.281 832.656C341.094 833.922 340.359 835.703 340.078 838H352.781V837.672C352.656 835.469 352.062 833.766 351 832.562C349.938 831.344 348.5 830.734 346.688 830.734ZM362.25 850.727C362.25 849.977 362.469 849.352 362.906 848.852C363.359 848.352 364.031 848.102 364.922 848.102C365.812 848.102 366.484 848.352 366.938 848.852C367.406 849.352 367.641 849.977 367.641 850.727C367.641 851.445 367.406 852.047 366.938 852.531C366.484 853.016 365.812 853.258 364.922 853.258C364.031 853.258 363.359 853.016 362.906 852.531C362.469 852.047 362.25 851.445 362.25 850.727Z" fill="black"/>
<path d="M57.2715 89.4302H65.748V73.3315H43.7021L78.5996 39.1519V72.0669H84.7178V73.3315H78.5996V89.4302H84.7178V90.6606H57.2715V89.4302ZM65.748 53.3706C62.5807 56.4468 59.4362 59.5343 56.3145 62.6333C53.1927 65.7323 49.9912 68.8768 46.71 72.0669H65.748V53.3706Z" fill="black"/>
<path d="M222.33 374.745C217.89 357.953 220.694 355.337 222.33 340.045C222.33 340.045 217.444 343.229 201.08 346.527C184.716 349.824 171.909 349.824 164.675 349.824C157.442 349.824 146.702 347.19 133.607 346.527C127.465 346.259 119.851 340.161 112.143 335.379C104.435 330.596 102.192 326.333 94 314.339C107.867 308.649 138.587 310.413 146.888 309.471C155.189 308.529 175.585 307.116 188.629 303.191C201.673 299.265 211.754 287.591 223.048 276.009C244.926 248.243 260.537 256.325 265.418 251.403C270.299 246.482 349.512 242.466 361.986 249.353C374.46 256.24 409.478 261.579 415.35 280.583C431.698 285.161 437.992 298.003 451.036 301.929C464.08 305.854 484.476 307.267 492.777 308.209C501.078 309.152 534.133 296.239 548 301.929C539.808 313.923 535.229 329.334 527.522 334.117C519.814 338.9 512.199 344.997 506.058 345.265C492.962 345.929 482.223 348.562 474.99 348.562C467.756 348.562 454.949 348.562 438.585 345.265C424.199 342.366 417.15 335.948 415.656 334.439C419.363 338.97 419.978 363.247 410.679 379.161C401.129 395.503 396.906 388.773 387.442 391.621C377.977 394.47 336.997 398.987 336.997 395.091C336.997 391.195 307.929 395.091 297.413 395.091C286.896 395.091 259.93 391.621 259.93 391.621C259.93 391.621 226.77 391.536 222.33 374.745Z" fill="#93BE37" fill-opacity="0.8"/>
<path d="M222.33 299.437C222.332 312.446 222.906 318.927 223.033 325.234M223.033 325.234C223.12 329.567 222.996 333.818 222.33 340.045M223.033 325.234C223.082 325.541 223.088 325.852 223.048 326.165M223.033 325.234C222.15 319.677 207.24 315.282 194.071 315.282C180.176 315.282 190.218 311.379 168.032 315.282C145.846 319.184 134.319 320.916 114.318 318.121M222.33 340.045C220.694 355.337 217.89 357.953 222.33 374.745C226.77 391.536 259.93 391.621 259.93 391.621C259.93 391.621 286.896 395.091 297.413 395.091C307.929 395.091 336.997 391.195 336.997 395.091C336.997 398.987 377.977 394.47 387.442 391.621C396.906 388.773 401.129 395.503 410.679 379.161C419.978 363.247 419.363 338.97 415.656 334.439M222.33 340.045C222.33 340.045 217.444 343.229 201.08 346.527C184.716 349.824 171.909 349.824 164.675 349.824C157.442 349.824 146.702 347.19 133.607 346.527C127.465 346.259 119.851 340.161 112.143 335.379C104.435 330.596 102.192 326.333 94 314.339C107.867 308.649 138.587 310.413 146.888 309.471C155.189 308.529 175.585 307.116 188.629 303.191C201.673 299.265 211.754 287.591 223.048 276.009M415.656 334.439C415.556 334.317 415.454 334.21 415.35 334.117M415.656 334.439C417.15 335.948 424.199 342.366 438.585 345.265C454.949 348.562 467.756 348.562 474.989 348.562C482.223 348.562 492.962 345.929 506.058 345.265C512.199 344.997 519.814 338.9 527.522 334.117C535.229 329.334 539.808 313.923 548 301.929C534.133 296.239 501.078 309.152 492.777 308.209C484.476 307.267 464.08 305.854 451.036 301.929C437.992 298.003 431.698 285.161 415.35 280.583M415.656 334.439C415.45 334.232 415.35 334.117 415.35 334.117M415.35 334.117C411.377 330.577 415.35 299.437 415.35 299.437M223.048 276.009C244.926 248.243 260.537 256.325 265.418 251.403C270.299 246.482 349.512 242.466 361.986 249.353C374.46 256.24 409.478 261.579 415.35 280.583M223.048 276.009C220.167 281.326 220.812 283.106 220.812 288.784M415.35 280.583C417.036 285.34 415.95 286.415 416.167 290.204M413.943 315.282C413.189 309.293 429.271 307.901 443.166 307.901C457.062 307.901 461.474 314.377 483.66 318.279C505.846 322.181 512.586 315.239 532.586 312.443" stroke="black" stroke-width="5"/>
<path d="M314.795 329.739C313.641 330.821 312.959 330.902 311.659 329.739C312.444 323.601 312.799 325.022 314.795 322.972C316.79 320.921 328.765 320.921 330.832 322.972C332.899 325.022 333.063 323.05 333.611 329.021C332.568 330.434 332.168 331.023 330.832 329.739" stroke="black" stroke-width="5"/>
<path d="M282.212 299.437C287.692 305.542 289.918 310.951 294.005 322.15C292.936 325.438 292.371 327.67 289.918 330.824C287.466 333.979 280.46 340.446 274.855 341.55C269.25 342.654 255.705 341.708 249.399 338.395C243.094 335.083 237.022 328.301 238.54 317.418C240.058 306.535 245.079 302.276 248.232 299.437C251.384 296.598 256.126 294.659 261.543 292.339C268.908 291.053 272.734 291.264 282.212 299.437Z" fill="black"/>
<path d="M248.232 299.437C251.384 296.598 256.126 294.659 261.543 292.339C268.908 291.053 272.734 291.264 282.212 299.437C287.692 305.542 289.918 310.951 294.005 322.15C292.936 325.438 292.371 327.67 289.918 330.824M248.232 299.437C245.079 302.276 240.058 306.535 238.54 317.418C237.022 328.301 243.094 335.083 249.399 338.395M248.232 299.437C244.332 306.148 240.31 317.807 241.363 324.531C242.416 331.254 245.776 333.546 249.399 338.395M249.399 338.395C255.705 341.708 269.25 342.654 274.855 341.55C280.46 340.446 287.466 333.979 289.918 330.824M289.918 330.824C291.252 327.683 291.34 324.673 291.457 322.15C291.574 319.626 290.999 316.485 290.64 313.334" stroke="black" stroke-width="5"/>
<path d="M270.204 316.94C270.358 316.311 270.999 315.54 271.586 315.141C272.19 314.664 272.2 314.691 273.121 314.601C274.042 314.511 274.273 314.691 274.887 315.141C275.501 315.591 275.654 316.491 275.808 317.3C275.961 318.11 275.923 317.997 275.923 319.077C275.923 320.157 275.846 319.999 275.539 320.539C275.232 321.079 274.58 321.259 274.042 321.439C273.505 321.619 272.584 321.439 272.584 321.439C272.584 321.439 271.24 320.989 271.01 320.539C270.78 320.089 270.358 319.819 270.204 318.65C270.05 317.48 270.05 317.57 270.204 316.94Z" fill="#FFFFFD"/>
<path d="M254.612 309.725C254.84 308.579 255.789 307.178 256.657 306.453C257.551 305.586 257.566 305.635 258.93 305.472C260.293 305.308 260.634 305.635 261.543 306.453C262.452 307.271 262.679 308.907 262.906 310.379C263.133 311.851 263.077 311.647 263.077 313.609C263.077 315.572 262.963 315.286 262.508 316.268C262.054 317.249 261.088 317.576 260.293 317.903C259.498 318.23 258.134 317.903 258.134 317.903C258.134 317.903 256.146 317.085 255.805 316.268C255.464 315.45 254.84 314.959 254.612 312.832C254.385 310.706 254.385 310.87 254.612 309.725Z" fill="#FFFFFD"/>
<path d="M238.562 317.418C240.08 306.535 245.101 302.276 248.254 299.437C244.354 306.148 240.332 317.807 241.385 324.531C242.438 331.254 245.798 333.546 249.421 338.395C243.116 335.083 237.044 328.301 238.562 317.418Z" fill="#FFFFFD" stroke="black" stroke-width="5"/>
<path d="M288.655 309.058C292.021 317.874 289.822 310.951 293.909 322.15C292.84 325.438 291.691 328.143 289.239 331.298C290.572 328.156 290.66 323.71 290.777 321.186C290.894 318.663 289.014 312.21 288.655 309.058Z" fill="#FFFFFD" stroke="black" stroke-width="5"/>
<path d="M358.483 300.498C353.003 306.602 350.776 312.012 346.689 323.21C347.759 326.499 348.324 328.731 350.776 331.885C353.229 335.04 360.235 341.506 365.84 342.61C371.445 343.714 384.99 342.768 391.295 339.456C397.601 336.144 403.673 329.361 402.155 318.478C400.637 307.595 395.616 303.337 392.463 300.498C389.31 297.659 384.569 295.72 379.151 293.4C371.787 292.113 367.961 292.325 358.483 300.498Z" fill="black"/>
<path d="M392.463 300.498C389.31 297.659 384.569 295.72 379.151 293.4C371.787 292.113 367.961 292.325 358.483 300.498C353.003 306.602 350.776 312.012 346.689 323.21C347.759 326.499 348.324 328.731 350.776 331.885M392.463 300.498C395.616 303.337 400.637 307.595 402.155 318.478C403.673 329.361 397.601 336.144 391.295 339.456M392.463 300.498C396.363 307.208 400.385 318.867 399.332 325.591C398.279 332.315 394.918 334.607 391.295 339.456M391.295 339.456C384.99 342.768 371.445 343.714 365.84 342.61C360.235 341.506 353.229 335.04 350.776 331.885M350.776 331.885C349.443 328.744 349.355 325.734 349.238 323.21C349.121 320.687 349.696 317.546 350.055 314.394" stroke="black" stroke-width="5"/>
<path d="M386.042 318.833C385.889 318.203 385.247 317.432 384.66 317.034C384.056 316.557 384.046 316.584 383.125 316.494C382.204 316.404 381.973 316.584 381.359 317.034C380.745 317.484 380.592 318.383 380.438 319.193C380.285 320.003 380.323 319.89 380.323 320.97C380.323 322.049 380.4 321.892 380.707 322.432C381.014 322.972 381.666 323.151 382.204 323.331C382.741 323.511 383.662 323.331 383.662 323.331C383.662 323.331 385.006 322.882 385.236 322.432C385.466 321.982 385.889 321.712 386.042 320.542C386.196 319.373 386.196 319.463 386.042 318.833Z" fill="#FFFFFD"/>
<path d="M374.978 311.201C374.708 309.999 373.579 308.527 372.546 307.766C371.483 306.855 371.465 306.907 369.844 306.735C368.223 306.564 367.817 306.907 366.736 307.766C365.656 308.625 365.385 310.342 365.115 311.888C364.845 313.434 364.912 313.219 364.912 315.28C364.912 317.341 365.048 317.041 365.588 318.071C366.128 319.102 367.277 319.445 368.223 319.789C369.168 320.132 370.79 319.789 370.79 319.789C370.79 319.789 373.154 318.93 373.559 318.071C373.965 317.212 374.708 316.697 374.978 314.464C375.248 312.232 375.248 312.403 374.978 311.201Z" fill="#FFFFFD"/>
<path d="M402.132 318.478C400.614 307.595 395.593 303.337 392.44 300.498C396.34 307.208 400.362 318.867 399.309 325.591C398.256 332.315 394.895 334.607 391.272 339.456C397.578 336.144 403.65 329.361 402.132 318.478Z" fill="#FFFFFD" stroke="black" stroke-width="5"/>
<path d="M352.04 310.119C348.674 318.935 350.872 312.012 346.785 323.21C347.854 326.499 349.004 329.204 351.456 332.358C350.123 329.217 350.034 324.77 349.918 322.247C349.801 319.723 351.681 313.27 352.04 310.119Z" fill="#FFFFFD" stroke="black" stroke-width="5"/>
<path d="M230.153 300.528C240.537 291.148 246.91 289.362 254.757 287.127C262.604 284.891 272.612 286.031 277.777 287.961C282.941 289.89 295.38 300.946 297.702 307.152" stroke="black" stroke-width="5"/>
<path d="M410.347 296.995C399.708 288.152 393.29 286.693 385.386 284.86C377.481 283.027 367.513 284.677 362.406 286.869C357.299 289.061 345.178 300.745 343.032 307.064" stroke="black" stroke-width="5"/>
<path d="M297.721 354.924C300.477 351.15 304.476 350.589 309.694 347.942C314.913 345.294 326.35 343.769 330.58 345.023C334.811 346.277 339.696 345.035 346.304 350.075" stroke="black" stroke-width="5"/>
<path d="M302.32 236.662C301.66 242.7 302.317 245.292 305.12 248.649" stroke="black" stroke-width="5"/>
<path d="M313.119 235.724C311.493 241.622 311.934 244.435 314.867 248.665" stroke="black" stroke-width="5"/>
<path d="M322.505 235.121C324.181 241.388 324.957 245.65 322.051 250.084" stroke="black" stroke-width="5"/>
<path d="M305.703 240.763L307.338 246.757" stroke="black" stroke-width="5"/>
<path d="M316.563 246.757L318.198 252.75" stroke="black" stroke-width="5"/>
<path d="M330.342 236.662L328.707 247.703" stroke="black" stroke-width="5"/>
<path d="M333.215 444.816C333.435 442.871 333.64 441.041 333.832 439.315L333.215 444.816Z" fill="#E07E24" fill-opacity="0.8"/>
<path d="M258.996 391.978C258.996 391.978 225.836 391.893 221.396 375.101C221.396 375.101 215.77 371.947 213.318 384.407C210.866 396.867 211.489 404.282 213.318 411.063C215.147 417.843 221.142 423.838 221.142 423.838L282.679 441.504C302.566 443.217 325.3 447.813 333.215 444.816L333.832 439.315C336.78 412.776 336.981 411.943 336.067 395.508C336.065 395.488 336.064 395.468 336.064 395.448C336.064 391.552 306.995 395.448 296.479 395.448C285.963 395.448 258.996 391.978 258.996 391.978Z" fill="#E07E24" fill-opacity="0.8"/>
<path d="M409.841 380.622C400.292 396.963 395.973 389.129 386.508 391.978C377.093 394.811 336.493 399.296 336.067 395.508C336.981 411.943 336.78 412.776 333.832 439.315C337.825 439.525 374.065 441.31 393.026 438.034C413.111 434.564 410.857 435.352 418.386 423.838C425.916 412.324 423.524 408.539 418.386 395.763C413.248 382.987 409.841 380.622 409.841 380.622Z" fill="#E07E24" fill-opacity="0.8"/>
<path d="M336.064 395.448C336.064 391.552 306.995 395.448 296.479 395.448C285.963 395.448 258.996 391.978 258.996 391.978C258.996 391.978 225.836 391.893 221.396 375.101C221.396 375.101 215.77 371.947 213.318 384.407C210.866 396.867 211.489 404.282 213.318 411.063C215.147 417.843 221.142 423.838 221.142 423.838L282.679 441.504C302.566 443.217 325.3 447.813 333.215 444.816M336.064 395.448C336.064 395.468 336.065 395.488 336.067 395.508M336.064 395.448C336.065 395.468 336.066 395.488 336.067 395.508M333.215 444.816C333.435 442.871 333.64 441.041 333.832 439.315M333.215 444.816L333.832 439.315M333.832 439.315C337.825 439.525 374.065 441.31 393.026 438.034C413.111 434.564 410.857 435.352 418.386 423.838C425.916 412.324 423.524 408.539 418.386 395.763C413.248 382.987 409.841 380.622 409.841 380.622C400.292 396.963 395.973 389.129 386.508 391.978C377.093 394.811 336.493 399.296 336.067 395.508M333.832 439.315C336.78 412.776 336.981 411.943 336.067 395.508" stroke="black" stroke-width="5"/>
<path d="M333.215 445.112C333.435 443.167 333.64 441.337 333.832 439.61L333.215 445.112Z" fill="#BD722D" fill-opacity="0.9"/>
<path d="M237.018 513.858C237.816 511.157 238.561 507.21 239.249 502.483L211.337 493.452C215.54 494.77 239.249 502.483 239.249 502.483C238.561 507.21 237.816 511.157 237.018 513.858C231.998 530.852 233.049 530.852 223.943 549.134C214.838 567.416 201.646 562.009 206.783 578.23C211.919 594.452 231.998 599.216 244.956 605.138C257.914 611.061 300.641 619.686 308.462 617.627C316.284 615.567 327.45 613.901 362.629 614.665C397.808 615.43 392.469 606.357 412.009 604.237C460.632 598.963 461.156 578.23 448.665 568.703C436.174 559.176 437.809 559.691 430.221 539.864C422.633 520.038 418.969 517.546 415.467 502.483C415.467 502.483 428.239 494.197 435.318 490.884L415.467 502.483C418.969 517.546 422.633 520.038 430.221 539.864C437.809 559.691 436.174 559.176 448.665 568.703C461.156 578.23 460.632 598.963 412.009 604.237C392.469 606.357 397.808 615.43 362.629 614.665C327.45 613.901 316.284 615.567 308.462 617.627C300.641 619.686 257.914 611.061 244.956 605.138C231.998 599.216 211.919 594.452 206.783 578.23C201.646 562.009 214.838 567.416 223.943 549.134C233.049 530.852 231.998 530.852 237.018 513.858Z" fill="#BD722D" fill-opacity="0.9"/>
<path d="M244.933 431.079L227.001 425.986C227.001 425.986 221.279 464.313 219.878 471.568C218.476 478.824 211.337 493.452 211.337 493.452C215.54 494.77 239.249 502.483 239.249 502.483C242.667 479.006 244.696 436.262 244.933 431.079Z" fill="#BD722D" fill-opacity="0.9"/>
<path d="M333.215 445.112C325.3 448.108 302.566 443.513 282.679 441.799L244.933 431.079C244.696 436.262 242.667 479.006 239.249 502.483C238.561 507.21 237.816 511.157 237.018 513.858C231.998 530.852 233.049 530.852 223.943 549.134C214.838 567.416 201.646 562.009 206.783 578.23C211.919 594.452 231.998 599.216 244.956 605.138C257.914 611.061 300.641 619.686 308.462 617.627C316.284 615.567 327.45 613.901 362.629 614.665C397.808 615.43 392.469 606.357 412.009 604.237C460.632 598.963 461.156 578.23 448.665 568.703C436.174 559.176 437.809 559.691 430.221 539.864C422.633 520.038 418.969 517.546 415.467 502.483C415.467 502.483 428.239 494.197 435.318 490.884C435.318 490.884 431.814 478.981 429.012 466.994C426.353 455.622 419.857 425.543 419.203 422.516C419.51 422.047 418.929 422.96 419.203 422.516C411.674 434.03 413.111 434.859 393.026 438.329C374.065 441.605 337.824 439.82 333.832 439.61C333.64 441.337 333.435 443.167 333.215 445.112Z" fill="#BD722D" fill-opacity="0.9"/>
<path d="M415.467 502.483C417.233 510.079 419.04 514.479 421.371 519.517C421.371 519.517 429.012 516.047 432.632 513.997C436.252 511.946 442.324 509.738 443.024 506.899C443.725 504.06 442.441 492.619 438.937 490.884C437.896 490.369 438.311 489.483 435.318 490.884L415.467 502.483Z" fill="#BD722D" fill-opacity="0.9"/>
<path d="M237.018 513.858C237.816 511.157 238.561 507.21 239.249 502.483L211.337 493.452C207.133 492.135 204.66 511.813 206.783 514.449C208.905 517.085 231.089 523.3 234.853 521.41C235.447 519.287 236.139 516.833 237.018 513.858Z" fill="#BD722D" fill-opacity="0.9"/>
<path d="M333.215 445.112C325.3 448.108 302.566 443.513 282.679 441.799L244.933 431.079M333.215 445.112C333.435 443.167 333.64 441.337 333.832 439.61M333.215 445.112L333.832 439.61M333.832 439.61C337.824 439.82 374.065 441.605 393.026 438.329C413.111 434.859 411.674 434.03 419.203 422.516M419.203 422.516C419.857 425.543 426.353 455.622 429.012 466.994C431.814 478.981 435.318 490.884 435.318 490.884M419.203 422.516C418.929 422.96 419.51 422.047 419.203 422.516ZM244.956 430.56C244.956 430.56 244.948 430.738 244.933 431.079M239.249 502.483C238.561 507.21 237.816 511.157 237.018 513.858M239.249 502.483L211.337 493.452M239.249 502.483C239.249 502.483 215.54 494.77 211.337 493.452M239.249 502.483C242.667 479.006 244.696 436.262 244.933 431.079M237.018 513.858C231.998 530.852 233.049 530.852 223.943 549.134C214.838 567.416 201.646 562.009 206.783 578.23C211.919 594.452 231.998 599.216 244.956 605.138C257.914 611.061 300.641 619.686 308.462 617.627C316.284 615.567 327.45 613.901 362.629 614.665C397.808 615.43 392.469 606.357 412.009 604.237C460.632 598.963 461.156 578.23 448.665 568.703C436.174 559.176 437.809 559.691 430.221 539.864C422.633 520.038 418.969 517.546 415.467 502.483M237.018 513.858C236.139 516.833 235.447 519.287 234.853 521.41C231.089 523.3 208.905 517.085 206.783 514.449C204.66 511.813 207.133 492.135 211.337 493.452M415.467 502.483C411.965 487.419 406.406 436.225 406.406 436.225M415.467 502.483L435.318 490.884M415.467 502.483C415.467 502.483 428.239 494.197 435.318 490.884M415.467 502.483C417.233 510.079 419.04 514.479 421.371 519.517C421.371 519.517 429.012 516.047 432.632 513.997C436.252 511.946 442.324 509.738 443.024 506.899C443.725 504.06 442.441 492.619 438.937 490.884C437.896 490.369 438.311 489.483 435.318 490.884M211.337 493.452C211.337 493.452 218.476 478.824 219.878 471.568C221.279 464.313 227.001 425.986 227.001 425.986L244.933 431.079" stroke="black" stroke-width="5"/>
<path d="M230.153 521.569C222.297 520.627 208.778 516.478 207.144 514.449C204.558 519.926 204.825 528.054 204.008 531.681C203.191 535.309 204.475 545.877 207.044 548.716C209.613 551.555 214.167 552.501 215.685 551.555C217.203 550.609 221.045 546.35 222.096 542.407C222.096 542.407 223.508 544.142 225.26 542.407C227.012 540.672 230.503 533.416 230.737 529.631C230.966 525.916 232.111 526.492 232.722 521.76L230.153 521.569Z" fill="#93BE37" fill-opacity="0.8"/>
<path d="M421.733 519.517C423.278 522.856 424.587 525.639 426.732 530.655C428.504 533.556 431.171 535.131 432.218 537.817C433.36 540.744 434.36 540.141 436.61 540.559C438.861 540.976 439.643 539.121 439.643 539.121C441.68 541.716 445.355 541.816 447.173 541.727C448.992 541.639 449.772 540.925 451.797 537.188C453.823 533.451 452.668 524.192 450.951 521.721C449.233 519.249 446.686 510.206 442.674 507.234C441.973 510.073 436.613 511.946 432.993 513.997C429.373 516.047 421.733 519.517 421.733 519.517Z" fill="#93BE37" fill-opacity="0.8"/>
<path d="M222.096 542.407C221.045 546.35 217.203 550.609 215.685 551.555C214.167 552.501 209.613 551.555 207.044 548.716C204.475 545.877 203.191 535.309 204.008 531.681C204.825 528.054 204.558 519.926 207.144 514.449C208.778 516.478 222.297 520.627 230.153 521.569M222.096 542.407C222.096 542.407 222.989 535.159 222.68 531.681M222.096 542.407C222.096 542.407 223.508 544.142 225.26 542.407C227.012 540.672 230.503 533.416 230.737 529.631C230.966 525.916 232.111 526.492 232.722 521.76M230.153 521.569L232.722 521.76M230.153 521.569C230.141 521.661 232.734 521.67 232.722 521.76M439.643 539.121C441.68 541.716 445.355 541.816 447.173 541.727C448.992 541.639 449.772 540.925 451.797 537.188C453.823 533.451 452.668 524.192 450.951 521.721C449.233 519.249 446.686 510.206 442.674 507.234C441.973 510.073 436.613 511.946 432.993 513.997C429.373 516.047 421.733 519.517 421.733 519.517C423.278 522.856 424.587 525.639 426.732 530.655M439.643 539.121C439.643 539.121 435.556 528.679 435.057 525.696M439.643 539.121C439.643 539.121 438.861 540.976 436.61 540.559C434.36 540.141 433.36 540.744 432.218 537.817C431.171 535.131 428.504 533.556 426.732 530.655M426.732 530.655C426.573 530.395 426.883 530.953 426.732 530.655ZM419.565 422.516C419.29 422.96 419.871 422.047 419.565 422.516Z" stroke="black" stroke-width="5"/>
<path d="M157 209.027L173.252 178H430.434L467 209.027C357.039 220.18 289.2 220.217 157 209.027Z" fill="black"/>
<path d="M416.214 213.588C346.203 218.91 288.575 218.674 205.755 212.838V276.464C301.316 285.903 347.007 284.423 422.308 276.464L416.214 213.588Z" fill="black"/>
<path d="M157 209.027L173.252 178H430.434L467 209.027C357.039 220.18 289.2 220.217 157 209.027Z" stroke="black" stroke-width="3"/>
<path d="M416.214 213.588C346.203 218.91 288.575 218.674 205.755 212.838V276.464C301.316 285.903 347.007 284.423 422.308 276.464L416.214 213.588Z" stroke="black" stroke-width="3"/>
<path d="M646.888 318.666C633.8 323.602 618.392 322.525 606.775 307.74M646.888 318.666C646.888 318.666 601.4 519.154 596.346 533.34C591.292 547.525 554.638 542.611 557.062 521.721C559.485 500.831 601.572 317.263 606.775 307.74M646.888 318.666C650.482 310.349 647.841 307.049 643.131 301.27C638.421 295.49 627.878 293.393 620.949 295.789C614.019 298.186 609.55 299.682 606.775 307.74" stroke="black" stroke-width="3"/>
<path d="M579.963 410.664C596.68 418.447 605.962 420.151 625.356 418L622.169 433.727C603.248 434.017 593.619 431.722 577.384 423.506L562.947 427.574L548.51 431.642L562.058 422.104L547.818 419.302L570.551 416.458L557.007 402.487L572.144 410.759L564.655 392.615L579.963 410.664Z" fill="#F81D1D"/>
<path d="M579.963 410.664C596.68 418.447 605.962 420.151 625.356 418L622.169 433.727C603.248 434.017 593.619 431.722 577.384 423.506M579.963 410.664C577.552 416.841 577.124 419.54 577.384 423.506M579.963 410.664L564.655 392.615L572.144 410.759L557.007 402.487L577.384 423.506M577.384 423.506L562.947 427.574L548.51 431.642L562.058 422.104L547.818 419.302L570.551 416.458" stroke="black" stroke-width="3"/>
</svg>
