<svg width="794" height="899" viewBox="0 0 794 899" fill="none" xmlns="http://www.w3.org/2000/svg">
<path d="M2.5 2.5H791.327V674.019H2.5V2.5Z" fill="#FFFFFD" stroke="black" stroke-width="5"/>
<path d="M2.5 675.201H791.327V895.708H2.5V675.201Z" fill="#FFFFFD" stroke="black" stroke-width="5"/>
<path d="M36.9697 706.261L48.126 734.105L59.2822 706.261H65.1182V740.386H60.6182V727.097L61.04 712.753L49.8369 740.386H46.3916L35.2119 712.823L35.6572 727.097V740.386H31.1572V706.261H36.9697ZM77.0947 740.386H72.7588V715.027H77.0947V740.386ZM72.4072 708.3C72.4072 707.597 72.6182 707.003 73.04 706.519C73.4775 706.034 74.1182 705.792 74.9619 705.792C75.8057 705.792 76.4463 706.034 76.8838 706.519C77.3213 707.003 77.54 707.597 77.54 708.3C77.54 709.003 77.3213 709.589 76.8838 710.058C76.4463 710.527 75.8057 710.761 74.9619 710.761C74.1182 710.761 73.4775 710.527 73.04 710.058C72.6182 709.589 72.4072 709.003 72.4072 708.3ZM99.7119 740.386C99.4619 739.886 99.2588 738.995 99.1025 737.714C97.0869 739.808 94.6807 740.855 91.8838 740.855C89.3838 740.855 87.3291 740.152 85.7197 738.745C84.126 737.323 83.3291 735.527 83.3291 733.355C83.3291 730.714 84.3291 728.667 86.3291 727.214C88.3447 725.745 91.1729 725.011 94.8135 725.011H99.0322V723.019C99.0322 721.503 98.5791 720.3 97.6729 719.409C96.7666 718.503 95.4307 718.05 93.665 718.05C92.1182 718.05 90.8213 718.441 89.7744 719.222C88.7275 720.003 88.2041 720.948 88.2041 722.058H83.8447C83.8447 720.792 84.29 719.573 85.1807 718.402C86.0869 717.214 87.3057 716.277 88.8369 715.589C90.3838 714.902 92.0791 714.558 93.9229 714.558C96.8447 714.558 99.1338 715.292 100.79 716.761C102.446 718.214 103.306 720.222 103.368 722.784V734.456C103.368 736.784 103.665 738.636 104.259 740.011V740.386H99.7119ZM92.5166 737.081C93.876 737.081 95.165 736.73 96.3838 736.027C97.6025 735.323 98.4854 734.409 99.0322 733.284V728.081H95.6338C90.3213 728.081 87.665 729.636 87.665 732.745C87.665 734.105 88.1182 735.167 89.0244 735.933C89.9307 736.698 91.0947 737.081 92.5166 737.081ZM144.524 734.409L149.399 715.027H153.735L146.353 740.386H142.837L136.673 721.167L130.673 740.386H127.157L119.798 715.027H124.11L129.103 734.011L135.009 715.027H138.501L144.524 734.409ZM173.821 740.386C173.571 739.886 173.368 738.995 173.212 737.714C171.196 739.808 168.79 740.855 165.993 740.855C163.493 740.855 161.438 740.152 159.829 738.745C158.235 737.323 157.438 735.527 157.438 733.355C157.438 730.714 158.438 728.667 160.438 727.214C162.454 725.745 165.282 725.011 168.923 725.011H173.142V723.019C173.142 721.503 172.688 720.3 171.782 719.409C170.876 718.503 169.54 718.05 167.774 718.05C166.228 718.05 164.931 718.441 163.884 719.222C162.837 720.003 162.313 720.948 162.313 722.058H157.954C157.954 720.792 158.399 719.573 159.29 718.402C160.196 717.214 161.415 716.277 162.946 715.589C164.493 714.902 166.188 714.558 168.032 714.558C170.954 714.558 173.243 715.292 174.899 716.761C176.556 718.214 177.415 720.222 177.478 722.784V734.456C177.478 736.784 177.774 738.636 178.368 740.011V740.386H173.821ZM166.626 737.081C167.985 737.081 169.274 736.73 170.493 736.027C171.712 735.323 172.595 734.409 173.142 733.284V728.081H169.743C164.431 728.081 161.774 729.636 161.774 732.745C161.774 734.105 162.228 735.167 163.134 735.933C164.04 736.698 165.204 737.081 166.626 737.081ZM199.04 733.659C199.04 732.487 198.595 731.581 197.704 730.941C196.829 730.284 195.29 729.722 193.087 729.253C190.899 728.784 189.157 728.222 187.86 727.566C186.579 726.909 185.626 726.128 185.001 725.222C184.392 724.316 184.087 723.237 184.087 721.987C184.087 719.909 184.962 718.152 186.712 716.714C188.478 715.277 190.728 714.558 193.462 714.558C196.337 714.558 198.665 715.3 200.446 716.784C202.243 718.269 203.142 720.167 203.142 722.48H198.782C198.782 721.292 198.274 720.269 197.259 719.409C196.259 718.55 194.993 718.12 193.462 718.12C191.884 718.12 190.649 718.464 189.759 719.152C188.868 719.839 188.423 720.737 188.423 721.847C188.423 722.894 188.837 723.683 189.665 724.214C190.493 724.745 191.985 725.253 194.142 725.737C196.313 726.222 198.071 726.8 199.415 727.472C200.759 728.144 201.751 728.956 202.392 729.909C203.048 730.847 203.376 731.995 203.376 733.355C203.376 735.62 202.47 737.441 200.657 738.816C198.845 740.175 196.493 740.855 193.603 740.855C191.571 740.855 189.774 740.495 188.212 739.777C186.649 739.058 185.423 738.058 184.532 736.777C183.657 735.48 183.22 734.081 183.22 732.581H187.556C187.634 734.034 188.212 735.191 189.29 736.05C190.384 736.894 191.821 737.316 193.603 737.316C195.243 737.316 196.556 736.987 197.54 736.331C198.54 735.659 199.04 734.769 199.04 733.659ZM242.399 727.987C242.399 731.862 241.509 734.98 239.728 737.339C237.946 739.683 235.556 740.855 232.556 740.855C229.353 740.855 226.876 739.722 225.126 737.456L224.915 740.386H220.931V704.386H225.267V717.816C227.017 715.644 229.431 714.558 232.509 714.558C235.587 714.558 238.001 715.722 239.751 718.05C241.517 720.378 242.399 723.566 242.399 727.612V727.987ZM238.063 727.495C238.063 724.542 237.493 722.261 236.353 720.652C235.212 719.042 233.571 718.237 231.431 718.237C228.571 718.237 226.517 719.566 225.267 722.222V733.191C226.595 735.847 228.665 737.175 231.478 737.175C233.556 737.175 235.173 736.37 236.329 734.761C237.485 733.152 238.063 730.73 238.063 727.495ZM246.735 727.472C246.735 724.987 247.22 722.753 248.188 720.769C249.173 718.784 250.532 717.253 252.267 716.175C254.017 715.097 256.009 714.558 258.243 714.558C261.696 714.558 264.485 715.753 266.61 718.144C268.751 720.534 269.821 723.714 269.821 727.683V727.987C269.821 730.456 269.345 732.675 268.392 734.644C267.454 736.597 266.103 738.12 264.337 739.214C262.587 740.308 260.571 740.855 258.29 740.855C254.853 740.855 252.063 739.659 249.923 737.269C247.798 734.878 246.735 731.714 246.735 727.777V727.472ZM251.095 727.987C251.095 730.8 251.743 733.058 253.04 734.761C254.353 736.464 256.103 737.316 258.29 737.316C260.493 737.316 262.243 736.456 263.54 734.737C264.837 733.003 265.485 730.581 265.485 727.472C265.485 724.691 264.821 722.441 263.493 720.722C262.181 718.987 260.431 718.12 258.243 718.12C256.103 718.12 254.376 718.972 253.063 720.675C251.751 722.378 251.095 724.816 251.095 727.987ZM287.517 718.917C286.86 718.808 286.149 718.753 285.384 718.753C282.54 718.753 280.61 719.964 279.595 722.386V740.386H275.259V715.027H279.478L279.548 717.956C280.97 715.691 282.985 714.558 285.595 714.558C286.438 714.558 287.079 714.667 287.517 714.886V718.917ZM295.626 715.027L295.767 718.214C297.704 715.777 300.235 714.558 303.36 714.558C308.72 714.558 311.423 717.581 311.47 723.628V740.386H307.134V723.605C307.118 721.777 306.696 720.425 305.868 719.55C305.056 718.675 303.782 718.237 302.048 718.237C300.642 718.237 299.407 718.612 298.345 719.362C297.282 720.112 296.454 721.097 295.86 722.316V740.386H291.524V715.027H295.626ZM334.626 740.386H330.29V715.027H334.626V740.386ZM329.938 708.3C329.938 707.597 330.149 707.003 330.571 706.519C331.009 706.034 331.649 705.792 332.493 705.792C333.337 705.792 333.978 706.034 334.415 706.519C334.853 707.003 335.071 707.597 335.071 708.3C335.071 709.003 334.853 709.589 334.415 710.058C333.978 710.527 333.337 710.761 332.493 710.761C331.649 710.761 331.009 710.527 330.571 710.058C330.149 709.589 329.938 709.003 329.938 708.3ZM345.688 715.027L345.829 718.214C347.767 715.777 350.298 714.558 353.423 714.558C358.782 714.558 361.485 717.581 361.532 723.628V740.386H357.196V723.605C357.181 721.777 356.759 720.425 355.931 719.55C355.118 718.675 353.845 718.237 352.11 718.237C350.704 718.237 349.47 718.612 348.407 719.362C347.345 720.112 346.517 721.097 345.923 722.316V740.386H341.587V715.027H345.688ZM393.782 740.386H389.423V711.487L380.681 714.698V710.761L393.103 706.097H393.782V740.386ZM423.103 725.386C422.196 726.464 421.11 727.331 419.845 727.987C418.595 728.644 417.22 728.972 415.72 728.972C413.751 728.972 412.032 728.487 410.563 727.519C409.11 726.55 407.985 725.191 407.188 723.441C406.392 721.675 405.993 719.73 405.993 717.605C405.993 715.323 406.423 713.269 407.282 711.441C408.157 709.612 409.392 708.214 410.985 707.245C412.579 706.277 414.438 705.792 416.563 705.792C419.938 705.792 422.595 707.058 424.532 709.589C426.485 712.105 427.462 715.542 427.462 719.902V721.167C427.462 727.808 426.149 732.659 423.524 735.722C420.899 738.769 416.938 740.331 411.642 740.409H410.798V736.753H411.712C415.29 736.691 418.04 735.761 419.962 733.964C421.884 732.152 422.931 729.292 423.103 725.386ZM416.423 725.386C417.876 725.386 419.212 724.941 420.431 724.05C421.665 723.159 422.563 722.058 423.126 720.745V719.011C423.126 716.167 422.509 713.855 421.274 712.073C420.04 710.292 418.478 709.402 416.587 709.402C414.681 709.402 413.149 710.136 411.993 711.605C410.837 713.058 410.259 714.98 410.259 717.37C410.259 719.698 410.813 721.62 411.923 723.136C413.048 724.636 414.548 725.386 416.423 725.386ZM450.056 725.386C449.149 726.464 448.063 727.331 446.798 727.987C445.548 728.644 444.173 728.972 442.673 728.972C440.704 728.972 438.985 728.487 437.517 727.519C436.063 726.55 434.938 725.191 434.142 723.441C433.345 721.675 432.946 719.73 432.946 717.605C432.946 715.323 433.376 713.269 434.235 711.441C435.11 709.612 436.345 708.214 437.938 707.245C439.532 706.277 441.392 705.792 443.517 705.792C446.892 705.792 449.548 707.058 451.485 709.589C453.438 712.105 454.415 715.542 454.415 719.902V721.167C454.415 727.808 453.103 732.659 450.478 735.722C447.853 738.769 443.892 740.331 438.595 740.409H437.751V736.753H438.665C442.243 736.691 444.993 735.761 446.915 733.964C448.837 732.152 449.884 729.292 450.056 725.386ZM443.376 725.386C444.829 725.386 446.165 724.941 447.384 724.05C448.618 723.159 449.517 722.058 450.079 720.745V719.011C450.079 716.167 449.462 713.855 448.228 712.073C446.993 710.292 445.431 709.402 443.54 709.402C441.634 709.402 440.103 710.136 438.946 711.605C437.79 713.058 437.212 714.98 437.212 717.37C437.212 719.698 437.767 721.62 438.876 723.136C440.001 724.636 441.501 725.386 443.376 725.386ZM478.696 728.925H483.431V732.464H478.696V740.386H474.337V732.464H458.798V729.909L474.079 706.261H478.696V728.925ZM463.72 728.925H474.337V712.191L473.821 713.128L463.72 728.925ZM487.884 738.112C487.884 737.362 488.103 736.737 488.54 736.237C488.993 735.737 489.665 735.487 490.556 735.487C491.446 735.487 492.118 735.737 492.571 736.237C493.04 736.737 493.274 737.362 493.274 738.112C493.274 738.831 493.04 739.433 492.571 739.917C492.118 740.402 491.446 740.644 490.556 740.644C489.665 740.644 488.993 740.402 488.54 739.917C488.103 739.433 487.884 738.831 487.884 738.112Z" fill="black"/>
<path d="M28.2056 50.8413L49.0894 42.5015L49.9097 43.1509C49.7957 44.6548 49.6818 47.3094 49.5679 51.1147C49.5223 52.7326 49.4653 54.6922 49.397 56.9937C49.3286 59.2723 49.2489 61.9611 49.1577 65.0601C49.0894 68.159 49.0096 71.7023 48.9185 75.6899C48.8501 79.6776 48.7817 84.1779 48.7134 89.1909H57.1216V90.4556H27.8638V89.1909H35.9302L36.3403 48.8931L28.6499 51.9692L28.2056 50.8413Z" fill="black"/>
<path d="M468.436 273.747C468.306 273.645 468.174 273.556 468.039 273.479C468.039 273.479 468.169 273.574 468.436 273.747Z" fill="#93BE37" fill-opacity="0.8"/>
<path d="M217.617 278.412C215.494 291.137 211.856 293.313 217.617 307.286C223.377 321.259 266.398 321.33 266.398 321.33C266.398 321.33 301.385 324.217 315.028 324.217C328.672 324.217 366.385 320.976 366.385 324.217C366.385 327.459 419.552 323.7 431.832 321.33C444.111 318.96 449.59 324.56 461.979 310.961C472.444 299.475 473.231 282.753 470.117 276.059C469.087 274.606 468.436 273.747 468.436 273.747C468.169 273.574 468.039 273.479 468.039 273.479C468.174 273.556 468.306 273.645 468.436 273.747C469.074 274.247 469.641 275.036 470.117 276.059C473.764 281.205 482.159 293.793 483.196 302.02C484.525 312.57 484.335 318.514 487.752 331.145C491.17 343.776 510.916 371.267 519.459 377.211C528.003 383.155 535 388.004 535 388.004C535 388.004 521.971 337.08 519.459 314.899C516.948 292.718 510.912 287.993 496.369 260.168C481.825 232.343 468.039 228.931 468.039 228.931C460.421 213.117 414.989 208.674 398.805 202.944C382.622 197.213 279.851 200.554 273.519 204.65C267.186 208.745 246.933 202.02 218.549 225.125C203.896 234.763 199.134 262.799 185.045 278.412C170.956 294.025 172.622 311.064 170.047 334.061C167.472 357.058 169.593 395.092 177.016 393.254C184.439 391.417 186.804 374.966 188.075 364.728C189.346 354.491 189.136 350.73 193.074 337.08C197.013 323.43 202.77 312.799 206.709 307.286C210.648 301.774 217.617 278.412 217.617 278.412Z" fill="#93BE37" fill-opacity="0.8"/>
<path d="M217.617 244.62C217.62 255.445 218.365 260.839 218.529 266.087M218.529 266.087C218.642 269.693 218.481 273.23 217.617 278.412M218.529 266.087C218.592 266.343 218.6 266.601 218.549 266.862M217.617 278.412C215.494 291.137 211.856 293.313 217.617 307.286C223.377 321.259 266.398 321.33 266.398 321.33C266.398 321.33 301.385 324.217 315.028 324.217C328.672 324.217 366.385 320.976 366.385 324.217C366.385 327.459 419.552 323.7 431.832 321.33C444.111 318.96 449.59 324.56 461.979 310.961C472.444 299.475 473.231 282.753 470.117 276.059M217.617 278.412C217.617 278.412 210.648 301.774 206.709 307.286C202.77 312.799 197.013 323.43 193.074 337.08C189.136 350.73 189.346 354.491 188.075 364.728C186.804 374.966 184.439 391.417 177.016 393.254C169.593 395.092 167.472 357.058 170.047 334.061C172.622 311.064 170.956 294.025 185.045 278.412C199.134 262.799 203.896 234.763 218.549 225.125M468.436 273.747C468.306 273.645 468.174 273.556 468.039 273.479M468.436 273.747C468.169 273.574 468.039 273.479 468.039 273.479M468.436 273.747C468.436 273.747 469.087 274.606 470.117 276.059M468.436 273.747C469.074 274.247 469.641 275.036 470.117 276.059M468.039 273.479C462.885 270.533 468.039 244.62 468.039 244.62M218.549 225.125C246.933 202.02 267.186 208.745 273.519 204.65C279.851 200.554 382.622 197.213 398.805 202.944C414.989 208.674 460.421 213.117 468.039 228.931M218.549 225.125C214.81 229.55 215.647 231.031 215.647 235.756M468.039 228.931C470.227 232.889 468.818 233.784 469.099 236.937M468.039 228.931C468.039 228.931 481.825 232.343 496.369 260.168C510.912 287.993 516.948 292.718 519.459 314.899C521.971 337.08 535 388.004 535 388.004C535 388.004 528.003 383.155 519.459 377.211C510.916 371.267 491.17 343.776 487.752 331.145C484.335 318.514 484.525 312.57 483.196 302.02C482.159 293.793 473.764 281.205 470.117 276.059" stroke="black" stroke-width="5"/>
<path d="M337.579 269.836C336.082 270.736 335.198 270.804 333.511 269.836C334.529 264.728 334.99 265.911 337.579 264.204C340.169 262.498 355.704 262.498 358.386 264.204C361.067 265.911 361.281 264.27 361.992 269.239C360.638 270.414 360.119 270.904 358.386 269.836" stroke="black" stroke-width="5"/>
<path d="M227.766 245.528C241.239 237.723 249.506 236.236 259.687 234.376C269.868 232.516 282.852 233.465 289.552 235.07C296.253 236.676 312.391 245.876 315.403 251.04" stroke="black" stroke-width="5"/>
<path d="M461.548 242.588C447.745 235.23 439.418 234.015 429.163 232.49C418.909 230.965 405.976 232.338 399.35 234.162C392.724 235.986 376.999 245.708 374.215 250.967" stroke="black" stroke-width="5"/>
<path d="M315.429 290.793C319.004 287.652 324.193 287.186 330.963 284.983C337.733 282.78 352.571 281.511 358.06 282.554C363.549 283.598 369.887 282.564 378.461 286.758" stroke="black" stroke-width="5"/>
<path d="M321.395 192.383C320.539 197.408 321.391 199.564 325.027 202.358" stroke="black" stroke-width="5"/>
<path d="M335.406 191.602C333.296 196.51 333.868 198.852 337.673 202.371" stroke="black" stroke-width="5"/>
<path d="M347.583 191.101C349.758 196.315 350.764 199.862 346.994 203.552" stroke="black" stroke-width="5"/>
<path d="M325.785 195.796L327.906 200.783" stroke="black" stroke-width="5"/>
<path d="M339.874 200.783L341.995 205.771" stroke="black" stroke-width="5"/>
<path d="M357.75 192.383L355.63 201.571" stroke="black" stroke-width="5"/>
<path d="M231.099 260.299C231.099 260.299 248.218 265.418 258.217 265.418C268.216 265.418 286.547 265.418 286.547 265.418H307.15" stroke="black" stroke-width="10"/>
<path d="M458.04 260.037C458.04 260.037 440.921 265.156 430.922 265.156C420.924 265.156 402.593 265.156 402.593 265.156H381.989" stroke="black" stroke-width="10"/>
<path d="M361.478 365.595C361.763 363.977 362.03 362.454 362.279 361.017L361.478 365.595Z" fill="#BD722D" fill-opacity="0.9"/>
<path d="M265.187 321.627C265.187 321.627 222.166 321.556 216.405 307.583C216.405 307.583 209.106 304.958 205.925 315.327C202.743 325.695 203.552 331.866 205.925 337.508C208.298 343.15 217.92 347.186 217.92 347.186L295.913 362.839C321.714 364.264 351.209 368.089 361.478 365.595L362.279 361.017C366.103 338.933 366.364 338.241 365.178 324.564C365.175 324.548 365.174 324.531 365.174 324.514C365.174 321.272 327.46 324.514 313.817 324.514C300.173 324.514 265.187 321.627 265.187 321.627Z" fill="#BD722D" fill-opacity="0.9"/>
<path d="M460.892 312.177C448.502 325.775 442.899 319.256 430.62 321.627C418.405 323.985 365.73 327.716 365.178 324.564C366.364 338.241 366.103 338.933 362.279 361.017C367.458 361.192 414.476 362.677 439.077 359.951C464.914 357.088 462.257 357.709 471.733 348.38C471.814 348.3 471.896 348.22 471.978 348.139C481.747 338.558 478.644 335.408 471.978 324.777C465.312 314.145 460.892 312.177 460.892 312.177Z" fill="#BD722D" fill-opacity="0.9"/>
<path d="M295.913 362.839L217.92 347.186C213.981 354.536 210.345 342.728 204.447 374.617C198.548 406.506 195.953 410.185 195.953 424.623C195.953 439.06 197.771 467.279 210.345 483.816C222.919 500.353 223.525 506.916 249.431 519.384C275.337 531.853 320.786 539.203 320.786 539.203C320.786 539.203 383.353 545.372 406.987 539.203C430.62 533.034 439.558 535.528 466.979 513.741C494.4 491.953 494.248 474.235 497.581 464.522C500.914 454.81 511.064 412.142 494.4 380.261C477.735 348.38 470.559 350.838 471.733 348.38C462.257 357.709 464.914 357.088 439.077 359.951C414.476 362.677 367.458 361.192 362.279 361.017C362.03 362.454 361.763 363.977 361.478 365.595C351.209 368.089 321.714 364.264 295.913 362.839Z" fill="#BD722D" fill-opacity="0.9"/>
<path d="M365.174 324.514C365.174 321.272 327.46 324.514 313.817 324.514C300.173 324.514 265.187 321.627 265.187 321.627C265.187 321.627 222.166 321.556 216.405 307.583C216.405 307.583 209.106 304.958 205.925 315.327C202.743 325.695 203.552 331.866 205.925 337.508C208.298 343.15 217.92 347.186 217.92 347.186M365.174 324.514C365.174 324.531 365.175 324.548 365.178 324.564M365.174 324.514C365.175 324.531 365.177 324.548 365.178 324.564M217.92 347.186L295.913 362.839C321.714 364.264 351.209 368.089 361.478 365.595M217.92 347.186C213.981 354.536 210.345 342.728 204.447 374.617C198.548 406.506 195.953 410.185 195.953 424.623C195.953 439.06 197.771 467.279 210.345 483.816C222.919 500.353 223.525 506.916 249.431 519.384C275.337 531.853 320.786 539.203 320.786 539.203C320.786 539.203 383.353 545.372 406.987 539.203C430.62 533.034 439.558 535.528 466.979 513.741C494.4 491.953 494.248 474.235 497.581 464.522C500.914 454.81 511.064 412.142 494.4 380.261C477.735 348.38 470.559 350.838 471.733 348.38M361.478 365.595C361.763 363.977 362.03 362.454 362.279 361.017M361.478 365.595L362.279 361.017M362.279 361.017C367.458 361.192 414.476 362.677 439.077 359.951C464.914 357.088 462.257 357.709 471.733 348.38M362.279 361.017C366.103 338.933 366.364 338.241 365.178 324.564M471.978 348.139C481.747 338.558 478.644 335.408 471.978 324.777C465.312 314.145 460.892 312.177 460.892 312.177C448.502 325.775 442.899 319.256 430.62 321.627C418.405 323.985 365.73 327.716 365.178 324.564M471.978 348.139C471.863 348.197 471.782 348.277 471.733 348.38M471.978 348.139C471.896 348.22 471.814 348.3 471.733 348.38" stroke="black" stroke-width="5"/>
<path d="M361.78 365.595C362.065 363.977 362.332 362.454 362.581 361.017L361.78 365.595Z" fill="#E07E24" fill-opacity="0.8"/>
<path fill-rule="evenodd" clip-rule="evenodd" d="M472.281 348.139C472.165 348.197 472.084 348.277 472.036 348.38C472.033 348.382 472.03 348.385 472.028 348.387C472.111 348.305 472.195 348.222 472.281 348.139Z" fill="#E07E24" fill-opacity="0.8"/>
<path fill-rule="evenodd" clip-rule="evenodd" d="M362.581 361.017C367.761 361.192 414.778 362.677 439.379 359.951C455.159 358.203 460.311 357.754 464.089 355.543C466.396 354.194 468.191 352.188 471.581 348.829C471.6 348.81 471.619 348.791 471.638 348.772L471.639 348.771L471.639 348.771C471.676 348.735 471.713 348.698 471.75 348.662L471.863 348.55C471.917 348.496 471.972 348.442 472.028 348.387C472.03 348.385 472.033 348.382 472.036 348.38C472.084 348.277 472.165 348.197 472.281 348.139C482.049 338.558 478.946 335.408 472.281 324.777C465.615 314.145 461.194 312.177 461.194 312.177C452.642 321.564 447.323 321.365 440.81 321.12C437.888 321.011 434.725 320.892 430.922 321.627C418.707 323.985 366.033 327.716 365.48 324.564C366.621 337.721 366.423 338.862 363.001 358.592C362.866 359.371 362.726 360.179 362.581 361.017Z" fill="#E07E24" fill-opacity="0.8"/>
<path d="M265.489 321.627C265.489 321.627 222.468 321.556 216.707 307.583C216.707 307.583 209.409 304.958 206.227 315.327C203.046 325.695 203.854 331.866 206.227 337.508C208.6 343.15 218.222 347.186 218.222 347.186L296.216 362.839C322.017 364.264 351.512 368.089 361.78 365.595L362.581 361.017C362.726 360.179 362.866 359.371 363.001 358.592C366.423 338.862 366.621 337.721 365.48 324.564C365.478 324.548 365.476 324.531 365.476 324.514C365.476 321.272 327.763 324.514 314.119 324.514C300.476 324.514 265.489 321.627 265.489 321.627Z" fill="#E07E24" fill-opacity="0.8"/>
<path d="M365.476 324.514C365.476 321.272 327.763 324.514 314.119 324.514C300.476 324.514 265.489 321.627 265.489 321.627C265.489 321.627 222.468 321.556 216.707 307.583C216.707 307.583 209.409 304.958 206.227 315.327C203.046 325.695 203.854 331.866 206.227 337.508C208.6 343.15 218.222 347.186 218.222 347.186L296.216 362.839C322.017 364.264 351.512 368.089 361.78 365.595M365.476 324.514C365.476 324.531 365.478 324.548 365.481 324.564M365.476 324.514C365.478 324.531 365.479 324.548 365.481 324.564M361.78 365.595C362.065 363.977 362.332 362.454 362.581 361.017M361.78 365.595L362.581 361.017M362.581 361.017C367.761 361.192 414.778 362.677 439.379 359.951C455.159 358.203 460.311 357.754 464.089 355.543C466.396 354.194 468.191 352.188 471.581 348.829C471.6 348.81 471.619 348.791 471.638 348.772M362.581 361.017C362.726 360.179 362.866 359.371 363.001 358.592C366.423 338.862 366.621 337.721 365.481 324.564M472.281 348.139C482.049 338.558 478.946 335.408 472.281 324.777C465.615 314.145 461.194 312.177 461.194 312.177C452.642 321.564 447.323 321.365 440.81 321.12C437.888 321.011 434.725 320.892 430.922 321.627C418.707 323.985 366.033 327.716 365.481 324.564M472.281 348.139C472.165 348.197 472.084 348.277 472.036 348.38M472.281 348.139C472.198 348.22 472.116 348.3 472.036 348.38M472.281 348.139C472.195 348.222 472.111 348.305 472.028 348.387M472.036 348.38C472.033 348.382 472.03 348.385 472.028 348.387M471.863 348.55C471.825 348.587 471.787 348.624 471.75 348.662M471.863 348.55C471.917 348.496 471.972 348.442 472.028 348.387M471.863 348.55L471.75 348.662M471.75 348.662C471.713 348.698 471.676 348.735 471.639 348.771M471.639 348.771C471.639 348.771 471.638 348.772 471.638 348.772M471.639 348.771L471.639 348.771L471.638 348.772" stroke="black" stroke-width="5"/>
</svg>
