<svg width="800" height="899" viewBox="0 0 800 899" fill="none" xmlns="http://www.w3.org/2000/svg">
<path d="M2.5 2.5H797.5V674.616H2.5V2.5Z" fill="#FFFFFD" stroke="black" stroke-width="5"/>
<path d="M2.5 675.795H797.5V896.5H2.5V675.795Z" fill="#FFFFFD" stroke="black" stroke-width="5"/>
<path d="M41.0156 725.789C37.1562 724.68 34.3438 723.32 32.5781 721.711C30.8281 720.086 29.9531 718.086 29.9531 715.711C29.9531 713.023 31.0234 710.805 33.1641 709.055C35.3203 707.289 38.1172 706.406 41.5547 706.406C43.8984 706.406 45.9844 706.859 47.8125 707.766C49.6562 708.672 51.0781 709.922 52.0781 711.516C53.0938 713.109 53.6016 714.852 53.6016 716.742H49.0781C49.0781 714.68 48.4219 713.062 47.1094 711.891C45.7969 710.703 43.9453 710.109 41.5547 710.109C39.3359 710.109 37.6016 710.602 36.3516 711.586C35.1172 712.555 34.5 713.906 34.5 715.641C34.5 717.031 35.0859 718.211 36.2578 719.18C37.4453 720.133 39.4531 721.008 42.2812 721.805C45.125 722.602 47.3438 723.484 48.9375 724.453C50.5469 725.406 51.7344 726.523 52.5 727.805C53.2812 729.086 53.6719 730.594 53.6719 732.328C53.6719 735.094 52.5938 737.312 50.4375 738.984C48.2812 740.641 45.3984 741.469 41.7891 741.469C39.4453 741.469 37.2578 741.023 35.2266 740.133C33.1953 739.227 31.625 737.992 30.5156 736.43C29.4219 734.867 28.875 733.094 28.875 731.109H33.3984C33.3984 733.172 34.1562 734.805 35.6719 736.008C37.2031 737.195 39.2422 737.789 41.7891 737.789C44.1641 737.789 45.9844 737.305 47.25 736.336C48.5156 735.367 49.1484 734.047 49.1484 732.375C49.1484 730.703 48.5625 729.414 47.3906 728.508C46.2188 727.586 44.0938 726.68 41.0156 725.789ZM63.1172 718.711C65.0391 716.352 67.5391 715.172 70.6172 715.172C75.9766 715.172 78.6797 718.195 78.7266 724.242V741H74.3906V724.219C74.375 722.391 73.9531 721.039 73.125 720.164C72.3125 719.289 71.0391 718.852 69.3047 718.852C67.8984 718.852 66.6641 719.227 65.6016 719.977C64.5391 720.727 63.7109 721.711 63.1172 722.93V741H58.7812V705H63.1172V718.711ZM95.7422 741.469C92.3047 741.469 89.5078 740.344 87.3516 738.094C85.1953 735.828 84.1172 732.805 84.1172 729.023V728.227C84.1172 725.711 84.5938 723.469 85.5469 721.5C86.5156 719.516 87.8594 717.969 89.5781 716.859C91.3125 715.734 93.1875 715.172 95.2031 715.172C98.5 715.172 101.062 716.258 102.891 718.43C104.719 720.602 105.633 723.711 105.633 727.758V729.562H88.4531C88.5156 732.062 89.2422 734.086 90.6328 735.633C92.0391 737.164 93.8203 737.93 95.9766 737.93C97.5078 737.93 98.8047 737.617 99.8672 736.992C100.93 736.367 101.859 735.539 102.656 734.508L105.305 736.57C103.18 739.836 99.9922 741.469 95.7422 741.469ZM95.2031 718.734C93.4531 718.734 91.9844 719.375 90.7969 720.656C89.6094 721.922 88.875 723.703 88.5938 726H101.297V725.672C101.172 723.469 100.578 721.766 99.5156 720.562C98.4531 719.344 97.0156 718.734 95.2031 718.734ZM121.547 728.109C121.547 724.156 122.461 721.016 124.289 718.688C126.117 716.344 128.539 715.172 131.555 715.172C134.648 715.172 137.062 716.266 138.797 718.453L139.008 715.641H142.969V740.391C142.969 743.672 141.992 746.258 140.039 748.148C138.102 750.039 135.492 750.984 132.211 750.984C130.383 750.984 128.594 750.594 126.844 749.812C125.094 749.031 123.758 747.961 122.836 746.602L125.086 744C126.945 746.297 129.219 747.445 131.906 747.445C134.016 747.445 135.656 746.852 136.828 745.664C138.016 744.477 138.609 742.805 138.609 740.648V738.469C136.875 740.469 134.508 741.469 131.508 741.469C128.539 741.469 126.133 740.273 124.289 737.883C122.461 735.492 121.547 732.234 121.547 728.109ZM125.906 728.602C125.906 731.461 126.492 733.711 127.664 735.352C128.836 736.977 130.477 737.789 132.586 737.789C135.32 737.789 137.328 736.547 138.609 734.062V722.484C137.281 720.062 135.289 718.852 132.633 718.852C130.523 718.852 128.875 719.672 127.688 721.312C126.5 722.953 125.906 725.383 125.906 728.602ZM161.789 719.531C161.133 719.422 160.422 719.367 159.656 719.367C156.812 719.367 154.883 720.578 153.867 723V741H149.531V715.641H153.75L153.82 718.57C155.242 716.305 157.258 715.172 159.867 715.172C160.711 715.172 161.352 715.281 161.789 715.5V719.531ZM175.852 741.469C172.414 741.469 169.617 740.344 167.461 738.094C165.305 735.828 164.227 732.805 164.227 729.023V728.227C164.227 725.711 164.703 723.469 165.656 721.5C166.625 719.516 167.969 717.969 169.688 716.859C171.422 715.734 173.297 715.172 175.312 715.172C178.609 715.172 181.172 716.258 183 718.43C184.828 720.602 185.742 723.711 185.742 727.758V729.562H168.562C168.625 732.062 169.352 734.086 170.742 735.633C172.148 737.164 173.93 737.93 176.086 737.93C177.617 737.93 178.914 737.617 179.977 736.992C181.039 736.367 181.969 735.539 182.766 734.508L185.414 736.57C183.289 739.836 180.102 741.469 175.852 741.469ZM175.312 718.734C173.562 718.734 172.094 719.375 170.906 720.656C169.719 721.922 168.984 723.703 168.703 726H181.406V725.672C181.281 723.469 180.688 721.766 179.625 720.562C178.562 719.344 177.125 718.734 175.312 718.734ZM213.234 735.023L218.109 715.641H222.445L215.062 741H211.547L205.383 721.781L199.383 741H195.867L188.508 715.641H192.82L197.812 734.625L203.719 715.641H207.211L213.234 735.023ZM254.438 738.492C252.75 740.477 250.273 741.469 247.008 741.469C244.305 741.469 242.242 740.688 240.82 739.125C239.414 737.547 238.703 735.219 238.688 732.141V715.641H243.023V732.023C243.023 735.867 244.586 737.789 247.711 737.789C251.023 737.789 253.227 736.555 254.32 734.086V715.641H258.656V741H254.531L254.438 738.492ZM286.688 728.602C286.688 732.461 285.805 735.57 284.039 737.93C282.273 740.289 279.883 741.469 276.867 741.469C273.789 741.469 271.367 740.492 269.602 738.539V750.75H265.266V715.641H269.227L269.438 718.453C271.203 716.266 273.656 715.172 276.797 715.172C279.844 715.172 282.25 716.32 284.016 718.617C285.797 720.914 286.688 724.109 286.688 728.203V728.602ZM282.352 728.109C282.352 725.25 281.742 722.992 280.523 721.336C279.305 719.68 277.633 718.852 275.508 718.852C272.883 718.852 270.914 720.016 269.602 722.344V734.461C270.898 736.773 272.883 737.93 275.555 737.93C277.633 737.93 279.281 737.109 280.5 735.469C281.734 733.812 282.352 731.359 282.352 728.109ZM308.836 741H304.5V715.641H308.836V741ZM304.148 708.914C304.148 708.211 304.359 707.617 304.781 707.133C305.219 706.648 305.859 706.406 306.703 706.406C307.547 706.406 308.188 706.648 308.625 707.133C309.062 707.617 309.281 708.211 309.281 708.914C309.281 709.617 309.062 710.203 308.625 710.672C308.188 711.141 307.547 711.375 306.703 711.375C305.859 711.375 305.219 711.141 304.781 710.672C304.359 710.203 304.148 709.617 304.148 708.914ZM319.898 715.641L320.039 718.828C321.977 716.391 324.508 715.172 327.633 715.172C332.992 715.172 335.695 718.195 335.742 724.242V741H331.406V724.219C331.391 722.391 330.969 721.039 330.141 720.164C329.328 719.289 328.055 718.852 326.32 718.852C324.914 718.852 323.68 719.227 322.617 719.977C321.555 720.727 320.727 721.711 320.133 722.93V741H315.797V715.641H319.898ZM379.969 730.172C379.547 733.781 378.211 736.57 375.961 738.539C373.727 740.492 370.75 741.469 367.031 741.469C363 741.469 359.766 740.023 357.328 737.133C354.906 734.242 353.695 730.375 353.695 725.531V722.25C353.695 719.078 354.258 716.289 355.383 713.883C356.523 711.477 358.133 709.633 360.211 708.352C362.289 707.055 364.695 706.406 367.43 706.406C371.055 706.406 373.961 707.422 376.148 709.453C378.336 711.469 379.609 714.266 379.969 717.844H375.445C375.055 715.125 374.203 713.156 372.891 711.938C371.594 710.719 369.773 710.109 367.43 710.109C364.555 710.109 362.297 711.172 360.656 713.297C359.031 715.422 358.219 718.445 358.219 722.367V725.672C358.219 729.375 358.992 732.32 360.539 734.508C362.086 736.695 364.25 737.789 367.031 737.789C369.531 737.789 371.445 737.227 372.773 736.102C374.117 734.961 375.008 732.984 375.445 730.172H379.969ZM389.789 718.711C391.711 716.352 394.211 715.172 397.289 715.172C402.648 715.172 405.352 718.195 405.398 724.242V741H401.062V724.219C401.047 722.391 400.625 721.039 399.797 720.164C398.984 719.289 397.711 718.852 395.977 718.852C394.57 718.852 393.336 719.227 392.273 719.977C391.211 720.727 390.383 721.711 389.789 722.93V741H385.453V705H389.789V718.711ZM422.414 741.469C418.977 741.469 416.18 740.344 414.023 738.094C411.867 735.828 410.789 732.805 410.789 729.023V728.227C410.789 725.711 411.266 723.469 412.219 721.5C413.188 719.516 414.531 717.969 416.25 716.859C417.984 715.734 419.859 715.172 421.875 715.172C425.172 715.172 427.734 716.258 429.562 718.43C431.391 720.602 432.305 723.711 432.305 727.758V729.562H415.125C415.188 732.062 415.914 734.086 417.305 735.633C418.711 737.164 420.492 737.93 422.648 737.93C424.18 737.93 425.477 737.617 426.539 736.992C427.602 736.367 428.531 735.539 429.328 734.508L431.977 736.57C429.852 739.836 426.664 741.469 422.414 741.469ZM421.875 718.734C420.125 718.734 418.656 719.375 417.469 720.656C416.281 721.922 415.547 723.703 415.266 726H427.969V725.672C427.844 723.469 427.25 721.766 426.188 720.562C425.125 719.344 423.688 718.734 421.875 718.734ZM441.445 715.641L441.586 718.828C443.523 716.391 446.055 715.172 449.18 715.172C454.539 715.172 457.242 718.195 457.289 724.242V741H452.953V724.219C452.938 722.391 452.516 721.039 451.688 720.164C450.875 719.289 449.602 718.852 447.867 718.852C446.461 718.852 445.227 719.227 444.164 719.977C443.102 720.727 442.273 721.711 441.68 722.93V741H437.344V715.641H441.445ZM462.797 728.109C462.797 724.156 463.711 721.016 465.539 718.688C467.367 716.344 469.789 715.172 472.805 715.172C475.898 715.172 478.312 716.266 480.047 718.453L480.258 715.641H484.219V740.391C484.219 743.672 483.242 746.258 481.289 748.148C479.352 750.039 476.742 750.984 473.461 750.984C471.633 750.984 469.844 750.594 468.094 749.812C466.344 749.031 465.008 747.961 464.086 746.602L466.336 744C468.195 746.297 470.469 747.445 473.156 747.445C475.266 747.445 476.906 746.852 478.078 745.664C479.266 744.477 479.859 742.805 479.859 740.648V738.469C478.125 740.469 475.758 741.469 472.758 741.469C469.789 741.469 467.383 740.273 465.539 737.883C463.711 735.492 462.797 732.234 462.797 728.109ZM467.156 728.602C467.156 731.461 467.742 733.711 468.914 735.352C470.086 736.977 471.727 737.789 473.836 737.789C476.57 737.789 478.578 736.547 479.859 734.062V722.484C478.531 720.062 476.539 718.852 473.883 718.852C471.773 718.852 470.125 719.672 468.938 721.312C467.75 722.953 467.156 725.383 467.156 728.602ZM489.727 728.109C489.727 724.219 490.648 721.094 492.492 718.734C494.336 716.359 496.75 715.172 499.734 715.172C502.703 715.172 505.055 716.188 506.789 718.219V705H511.125V741H507.141L506.93 738.281C505.195 740.406 502.781 741.469 499.688 741.469C496.75 741.469 494.352 740.266 492.492 737.859C490.648 735.453 489.727 732.312 489.727 728.438V728.109ZM494.062 728.602C494.062 731.477 494.656 733.727 495.844 735.352C497.031 736.977 498.672 737.789 500.766 737.789C503.516 737.789 505.523 736.555 506.789 734.086V722.438C505.492 720.047 503.5 718.852 500.812 718.852C498.688 718.852 497.031 719.672 495.844 721.312C494.656 722.953 494.062 725.383 494.062 728.602ZM533.531 738.492C531.844 740.477 529.367 741.469 526.102 741.469C523.398 741.469 521.336 740.688 519.914 739.125C518.508 737.547 517.797 735.219 517.781 732.141V715.641H522.117V732.023C522.117 735.867 523.68 737.789 526.805 737.789C530.117 737.789 532.32 736.555 533.414 734.086V715.641H537.75V741H533.625L533.531 738.492ZM571.922 741C571.672 740.5 571.469 739.609 571.312 738.328C569.297 740.422 566.891 741.469 564.094 741.469C561.594 741.469 559.539 740.766 557.93 739.359C556.336 737.938 555.539 736.141 555.539 733.969C555.539 731.328 556.539 729.281 558.539 727.828C560.555 726.359 563.383 725.625 567.023 725.625H571.242V723.633C571.242 722.117 570.789 720.914 569.883 720.023C568.977 719.117 567.641 718.664 565.875 718.664C564.328 718.664 563.031 719.055 561.984 719.836C560.938 720.617 560.414 721.562 560.414 722.672H556.055C556.055 721.406 556.5 720.188 557.391 719.016C558.297 717.828 559.516 716.891 561.047 716.203C562.594 715.516 564.289 715.172 566.133 715.172C569.055 715.172 571.344 715.906 573 717.375C574.656 718.828 575.516 720.836 575.578 723.398V735.07C575.578 737.398 575.875 739.25 576.469 740.625V741H571.922ZM564.727 737.695C566.086 737.695 567.375 737.344 568.594 736.641C569.812 735.938 570.695 735.023 571.242 733.898V728.695H567.844C562.531 728.695 559.875 730.25 559.875 733.359C559.875 734.719 560.328 735.781 561.234 736.547C562.141 737.312 563.305 737.695 564.727 737.695ZM586.477 715.641L586.617 718.828C588.555 716.391 591.086 715.172 594.211 715.172C599.57 715.172 602.273 718.195 602.32 724.242V741H597.984V724.219C597.969 722.391 597.547 721.039 596.719 720.164C595.906 719.289 594.633 718.852 592.898 718.852C591.492 718.852 590.258 719.227 589.195 719.977C588.133 720.727 587.305 721.711 586.711 722.93V741H582.375V715.641H586.477ZM607.805 728.109C607.805 724.219 608.727 721.094 610.57 718.734C612.414 716.359 614.828 715.172 617.812 715.172C620.781 715.172 623.133 716.188 624.867 718.219V705H629.203V741H625.219L625.008 738.281C623.273 740.406 620.859 741.469 617.766 741.469C614.828 741.469 612.43 740.266 610.57 737.859C608.727 735.453 607.805 732.312 607.805 728.438V728.109ZM612.141 728.602C612.141 731.477 612.734 733.727 613.922 735.352C615.109 736.977 616.75 737.789 618.844 737.789C621.594 737.789 623.602 736.555 624.867 734.086V722.438C623.57 720.047 621.578 718.852 618.891 718.852C616.766 718.852 615.109 719.672 613.922 721.312C612.734 722.953 612.141 725.383 612.141 728.602ZM652.57 741H648.234V705H652.57V741ZM658.383 728.086C658.383 725.602 658.867 723.367 659.836 721.383C660.82 719.398 662.18 717.867 663.914 716.789C665.664 715.711 667.656 715.172 669.891 715.172C673.344 715.172 676.133 716.367 678.258 718.758C680.398 721.148 681.469 724.328 681.469 728.297V728.602C681.469 731.07 680.992 733.289 680.039 735.258C679.102 737.211 677.75 738.734 675.984 739.828C674.234 740.922 672.219 741.469 669.938 741.469C666.5 741.469 663.711 740.273 661.57 737.883C659.445 735.492 658.383 732.328 658.383 728.391V728.086ZM662.742 728.602C662.742 731.414 663.391 733.672 664.688 735.375C666 737.078 667.75 737.93 669.938 737.93C672.141 737.93 673.891 737.07 675.188 735.352C676.484 733.617 677.133 731.195 677.133 728.086C677.133 725.305 676.469 723.055 675.141 721.336C673.828 719.602 672.078 718.734 669.891 718.734C667.75 718.734 666.023 719.586 664.711 721.289C663.398 722.992 662.742 725.43 662.742 728.602ZM694.898 735.117L701.18 715.641H705.609L696.516 741H693.211L684.023 715.641H688.453L694.898 735.117ZM719.977 741.469C716.539 741.469 713.742 740.344 711.586 738.094C709.43 735.828 708.352 732.805 708.352 729.023V728.227C708.352 725.711 708.828 723.469 709.781 721.5C710.75 719.516 712.094 717.969 713.812 716.859C715.547 715.734 717.422 715.172 719.438 715.172C722.734 715.172 725.297 716.258 727.125 718.43C728.953 720.602 729.867 723.711 729.867 727.758V729.562H712.688C712.75 732.062 713.477 734.086 714.867 735.633C716.273 737.164 718.055 737.93 720.211 737.93C721.742 737.93 723.039 737.617 724.102 736.992C725.164 736.367 726.094 735.539 726.891 734.508L729.539 736.57C727.414 739.836 724.227 741.469 719.977 741.469ZM719.438 718.734C717.688 718.734 716.219 719.375 715.031 720.656C713.844 721.922 713.109 723.703 712.828 726H725.531V725.672C725.406 723.469 724.812 721.766 723.75 720.562C722.688 719.344 721.25 718.734 719.438 718.734ZM733.852 728.109C733.852 724.219 734.773 721.094 736.617 718.734C738.461 716.359 740.875 715.172 743.859 715.172C746.828 715.172 749.18 716.188 750.914 718.219V705H755.25V741H751.266L751.055 738.281C749.32 740.406 746.906 741.469 743.812 741.469C740.875 741.469 738.477 740.266 736.617 737.859C734.773 735.453 733.852 732.312 733.852 728.438V728.109ZM738.188 728.602C738.188 731.477 738.781 733.727 739.969 735.352C741.156 736.977 742.797 737.789 744.891 737.789C747.641 737.789 749.648 736.555 750.914 734.086V722.438C749.617 720.047 747.625 718.852 744.938 718.852C742.812 718.852 741.156 719.672 739.969 721.312C738.781 722.953 738.188 725.383 738.188 728.602ZM45.0469 790.273C45.0469 789.102 44.6016 788.195 43.7109 787.555C42.8359 786.898 41.2969 786.336 39.0938 785.867C36.9062 785.398 35.1641 784.836 33.8672 784.18C32.5859 783.523 31.6328 782.742 31.0078 781.836C30.3984 780.93 30.0938 779.852 30.0938 778.602C30.0938 776.523 30.9688 774.766 32.7188 773.328C34.4844 771.891 36.7344 771.172 39.4688 771.172C42.3438 771.172 44.6719 771.914 46.4531 773.398C48.25 774.883 49.1484 776.781 49.1484 779.094H44.7891C44.7891 777.906 44.2812 776.883 43.2656 776.023C42.2656 775.164 41 774.734 39.4688 774.734C37.8906 774.734 36.6562 775.078 35.7656 775.766C34.875 776.453 34.4297 777.352 34.4297 778.461C34.4297 779.508 34.8438 780.297 35.6719 780.828C36.5 781.359 37.9922 781.867 40.1484 782.352C42.3203 782.836 44.0781 783.414 45.4219 784.086C46.7656 784.758 47.7578 785.57 48.3984 786.523C49.0547 787.461 49.3828 788.609 49.3828 789.969C49.3828 792.234 48.4766 794.055 46.6641 795.43C44.8516 796.789 42.5 797.469 39.6094 797.469C37.5781 797.469 35.7812 797.109 34.2188 796.391C32.6562 795.672 31.4297 794.672 30.5391 793.391C29.6641 792.094 29.2266 790.695 29.2266 789.195H33.5625C33.6406 790.648 34.2188 791.805 35.2969 792.664C36.3906 793.508 37.8281 793.93 39.6094 793.93C41.25 793.93 42.5625 793.602 43.5469 792.945C44.5469 792.273 45.0469 791.383 45.0469 790.273ZM76.4531 784.602C76.4531 788.461 75.5703 791.57 73.8047 793.93C72.0391 796.289 69.6484 797.469 66.6328 797.469C63.5547 797.469 61.1328 796.492 59.3672 794.539V806.75H55.0312V771.641H58.9922L59.2031 774.453C60.9688 772.266 63.4219 771.172 66.5625 771.172C69.6094 771.172 72.0156 772.32 73.7812 774.617C75.5625 776.914 76.4531 780.109 76.4531 784.203V784.602ZM72.1172 784.109C72.1172 781.25 71.5078 778.992 70.2891 777.336C69.0703 775.68 67.3984 774.852 65.2734 774.852C62.6484 774.852 60.6797 776.016 59.3672 778.344V790.461C60.6641 792.773 62.6484 793.93 65.3203 793.93C67.3984 793.93 69.0469 793.109 70.2656 791.469C71.5 789.812 72.1172 787.359 72.1172 784.109ZM86.6953 797H82.3594V771.641H86.6953V797ZM82.0078 764.914C82.0078 764.211 82.2188 763.617 82.6406 763.133C83.0781 762.648 83.7188 762.406 84.5625 762.406C85.4062 762.406 86.0469 762.648 86.4844 763.133C86.9219 763.617 87.1406 764.211 87.1406 764.914C87.1406 765.617 86.9219 766.203 86.4844 766.672C86.0469 767.141 85.4062 767.375 84.5625 767.375C83.7188 767.375 83.0781 767.141 82.6406 766.672C82.2188 766.203 82.0078 765.617 82.0078 764.914ZM103.828 793.93C105.375 793.93 106.727 793.461 107.883 792.523C109.039 791.586 109.68 790.414 109.805 789.008H113.906C113.828 790.461 113.328 791.844 112.406 793.156C111.484 794.469 110.25 795.516 108.703 796.297C107.172 797.078 105.547 797.469 103.828 797.469C100.375 797.469 97.625 796.32 95.5781 794.023C93.5469 791.711 92.5312 788.555 92.5312 784.555V783.828C92.5312 781.359 92.9844 779.164 93.8906 777.242C94.7969 775.32 96.0938 773.828 97.7812 772.766C99.4844 771.703 101.492 771.172 103.805 771.172C106.648 771.172 109.008 772.023 110.883 773.727C112.773 775.43 113.781 777.641 113.906 780.359H109.805C109.68 778.719 109.055 777.375 107.93 776.328C106.82 775.266 105.445 774.734 103.805 774.734C101.602 774.734 99.8906 775.531 98.6719 777.125C97.4688 778.703 96.8672 780.992 96.8672 783.992V784.812C96.8672 787.734 97.4688 789.984 98.6719 791.562C99.875 793.141 101.594 793.93 103.828 793.93ZM127.078 790.648L132.984 771.641H137.625L127.43 800.914C125.852 805.133 123.344 807.242 119.906 807.242L119.086 807.172L117.469 806.867V803.352L118.641 803.445C120.109 803.445 121.25 803.148 122.062 802.555C122.891 801.961 123.57 800.875 124.102 799.297L125.062 796.719L116.016 771.641H120.75L127.078 790.648ZM155.555 797V774.992H151.547V771.641H155.555V769.039C155.555 766.32 156.281 764.219 157.734 762.734C159.188 761.25 161.242 760.508 163.898 760.508C164.898 760.508 165.891 760.641 166.875 760.906L166.641 764.422C165.906 764.281 165.125 764.211 164.297 764.211C162.891 764.211 161.805 764.625 161.039 765.453C160.273 766.266 159.891 767.438 159.891 768.969V771.641H165.305V774.992H159.891V797H155.555ZM168.961 784.086C168.961 781.602 169.445 779.367 170.414 777.383C171.398 775.398 172.758 773.867 174.492 772.789C176.242 771.711 178.234 771.172 180.469 771.172C183.922 771.172 186.711 772.367 188.836 774.758C190.977 777.148 192.047 780.328 192.047 784.297V784.602C192.047 787.07 191.57 789.289 190.617 791.258C189.68 793.211 188.328 794.734 186.562 795.828C184.812 796.922 182.797 797.469 180.516 797.469C177.078 797.469 174.289 796.273 172.148 793.883C170.023 791.492 168.961 788.328 168.961 784.391V784.086ZM173.32 784.602C173.32 787.414 173.969 789.672 175.266 791.375C176.578 793.078 178.328 793.93 180.516 793.93C182.719 793.93 184.469 793.07 185.766 791.352C187.062 789.617 187.711 787.195 187.711 784.086C187.711 781.305 187.047 779.055 185.719 777.336C184.406 775.602 182.656 774.734 180.469 774.734C178.328 774.734 176.602 775.586 175.289 777.289C173.977 778.992 173.32 781.43 173.32 784.602ZM196.336 784.086C196.336 781.602 196.82 779.367 197.789 777.383C198.773 775.398 200.133 773.867 201.867 772.789C203.617 771.711 205.609 771.172 207.844 771.172C211.297 771.172 214.086 772.367 216.211 774.758C218.352 777.148 219.422 780.328 219.422 784.297V784.602C219.422 787.07 218.945 789.289 217.992 791.258C217.055 793.211 215.703 794.734 213.938 795.828C212.188 796.922 210.172 797.469 207.891 797.469C204.453 797.469 201.664 796.273 199.523 793.883C197.398 791.492 196.336 788.328 196.336 784.391V784.086ZM200.695 784.602C200.695 787.414 201.344 789.672 202.641 791.375C203.953 793.078 205.703 793.93 207.891 793.93C210.094 793.93 211.844 793.07 213.141 791.352C214.438 789.617 215.086 787.195 215.086 784.086C215.086 781.305 214.422 779.055 213.094 777.336C211.781 775.602 210.031 774.734 207.844 774.734C205.703 774.734 203.977 775.586 202.664 777.289C201.352 778.992 200.695 781.43 200.695 784.602ZM223.805 784.109C223.805 780.219 224.727 777.094 226.57 774.734C228.414 772.359 230.828 771.172 233.812 771.172C236.781 771.172 239.133 772.188 240.867 774.219V761H245.203V797H241.219L241.008 794.281C239.273 796.406 236.859 797.469 233.766 797.469C230.828 797.469 228.43 796.266 226.57 793.859C224.727 791.453 223.805 788.312 223.805 784.438V784.109ZM228.141 784.602C228.141 787.477 228.734 789.727 229.922 791.352C231.109 792.977 232.75 793.789 234.844 793.789C237.594 793.789 239.602 792.555 240.867 790.086V778.438C239.57 776.047 237.578 774.852 234.891 774.852C232.766 774.852 231.109 775.672 229.922 777.312C228.734 778.953 228.141 781.383 228.141 784.602ZM278.625 790.273C278.625 789.102 278.18 788.195 277.289 787.555C276.414 786.898 274.875 786.336 272.672 785.867C270.484 785.398 268.742 784.836 267.445 784.18C266.164 783.523 265.211 782.742 264.586 781.836C263.977 780.93 263.672 779.852 263.672 778.602C263.672 776.523 264.547 774.766 266.297 773.328C268.062 771.891 270.312 771.172 273.047 771.172C275.922 771.172 278.25 771.914 280.031 773.398C281.828 774.883 282.727 776.781 282.727 779.094H278.367C278.367 777.906 277.859 776.883 276.844 776.023C275.844 775.164 274.578 774.734 273.047 774.734C271.469 774.734 270.234 775.078 269.344 775.766C268.453 776.453 268.008 777.352 268.008 778.461C268.008 779.508 268.422 780.297 269.25 780.828C270.078 781.359 271.57 781.867 273.727 782.352C275.898 782.836 277.656 783.414 279 784.086C280.344 784.758 281.336 785.57 281.977 786.523C282.633 787.461 282.961 788.609 282.961 789.969C282.961 792.234 282.055 794.055 280.242 795.43C278.43 796.789 276.078 797.469 273.188 797.469C271.156 797.469 269.359 797.109 267.797 796.391C266.234 795.672 265.008 794.672 264.117 793.391C263.242 792.094 262.805 790.695 262.805 789.195H267.141C267.219 790.648 267.797 791.805 268.875 792.664C269.969 793.508 271.406 793.93 273.188 793.93C274.828 793.93 276.141 793.602 277.125 792.945C278.125 792.273 278.625 791.383 278.625 790.273ZM293.32 797H288.984V771.641H293.32V797ZM288.633 764.914C288.633 764.211 288.844 763.617 289.266 763.133C289.703 762.648 290.344 762.406 291.188 762.406C292.031 762.406 292.672 762.648 293.109 763.133C293.547 763.617 293.766 764.211 293.766 764.914C293.766 765.617 293.547 766.203 293.109 766.672C292.672 767.141 292.031 767.375 291.188 767.375C290.344 767.375 289.703 767.141 289.266 766.672C288.844 766.203 288.633 765.617 288.633 764.914ZM304.383 771.641L304.523 774.828C306.461 772.391 308.992 771.172 312.117 771.172C317.477 771.172 320.18 774.195 320.227 780.242V797H315.891V780.219C315.875 778.391 315.453 777.039 314.625 776.164C313.812 775.289 312.539 774.852 310.805 774.852C309.398 774.852 308.164 775.227 307.102 775.977C306.039 776.727 305.211 777.711 304.617 778.93V797H300.281V771.641H304.383ZM336.938 793.93C338.484 793.93 339.836 793.461 340.992 792.523C342.148 791.586 342.789 790.414 342.914 789.008H347.016C346.938 790.461 346.438 791.844 345.516 793.156C344.594 794.469 343.359 795.516 341.812 796.297C340.281 797.078 338.656 797.469 336.938 797.469C333.484 797.469 330.734 796.32 328.688 794.023C326.656 791.711 325.641 788.555 325.641 784.555V783.828C325.641 781.359 326.094 779.164 327 777.242C327.906 775.32 329.203 773.828 330.891 772.766C332.594 771.703 334.602 771.172 336.914 771.172C339.758 771.172 342.117 772.023 343.992 773.727C345.883 775.43 346.891 777.641 347.016 780.359H342.914C342.789 778.719 342.164 777.375 341.039 776.328C339.93 775.266 338.555 774.734 336.914 774.734C334.711 774.734 333 775.531 331.781 777.125C330.578 778.703 329.977 780.992 329.977 783.992V784.812C329.977 787.734 330.578 789.984 331.781 791.562C332.984 793.141 334.703 793.93 336.938 793.93ZM362.414 797.469C358.977 797.469 356.18 796.344 354.023 794.094C351.867 791.828 350.789 788.805 350.789 785.023V784.227C350.789 781.711 351.266 779.469 352.219 777.5C353.188 775.516 354.531 773.969 356.25 772.859C357.984 771.734 359.859 771.172 361.875 771.172C365.172 771.172 367.734 772.258 369.562 774.43C371.391 776.602 372.305 779.711 372.305 783.758V785.562H355.125C355.188 788.062 355.914 790.086 357.305 791.633C358.711 793.164 360.492 793.93 362.648 793.93C364.18 793.93 365.477 793.617 366.539 792.992C367.602 792.367 368.531 791.539 369.328 790.508L371.977 792.57C369.852 795.836 366.664 797.469 362.414 797.469ZM361.875 774.734C360.125 774.734 358.656 775.375 357.469 776.656C356.281 777.922 355.547 779.703 355.266 782H367.969V781.672C367.844 779.469 367.25 777.766 366.188 776.562C365.125 775.344 363.688 774.734 361.875 774.734ZM395.109 777.828H398.367C400.414 777.797 402.023 777.258 403.195 776.211C404.367 775.164 404.953 773.75 404.953 771.969C404.953 767.969 402.961 765.969 398.977 765.969C397.102 765.969 395.602 766.508 394.477 767.586C393.367 768.648 392.812 770.062 392.812 771.828H388.477C388.477 769.125 389.461 766.883 391.43 765.102C393.414 763.305 395.93 762.406 398.977 762.406C402.195 762.406 404.719 763.258 406.547 764.961C408.375 766.664 409.289 769.031 409.289 772.062C409.289 773.547 408.805 774.984 407.836 776.375C406.883 777.766 405.578 778.805 403.922 779.492C405.797 780.086 407.242 781.07 408.258 782.445C409.289 783.82 409.805 785.5 409.805 787.484C409.805 790.547 408.805 792.977 406.805 794.773C404.805 796.57 402.203 797.469 399 797.469C395.797 797.469 393.188 796.602 391.172 794.867C389.172 793.133 388.172 790.844 388.172 788H392.531C392.531 789.797 393.117 791.234 394.289 792.312C395.461 793.391 397.031 793.93 399 793.93C401.094 793.93 402.695 793.383 403.805 792.289C404.914 791.195 405.469 789.625 405.469 787.578C405.469 785.594 404.859 784.07 403.641 783.008C402.422 781.945 400.664 781.398 398.367 781.367H395.109V777.828ZM436.406 790.648L442.312 771.641H446.953L436.758 800.914C435.18 805.133 432.672 807.242 429.234 807.242L428.414 807.172L426.797 806.867V803.352L427.969 803.445C429.438 803.445 430.578 803.148 431.391 802.555C432.219 801.961 432.898 800.875 433.43 799.297L434.391 796.719L425.344 771.641H430.078L436.406 790.648ZM461.039 797.469C457.602 797.469 454.805 796.344 452.648 794.094C450.492 791.828 449.414 788.805 449.414 785.023V784.227C449.414 781.711 449.891 779.469 450.844 777.5C451.812 775.516 453.156 773.969 454.875 772.859C456.609 771.734 458.484 771.172 460.5 771.172C463.797 771.172 466.359 772.258 468.188 774.43C470.016 776.602 470.93 779.711 470.93 783.758V785.562H453.75C453.812 788.062 454.539 790.086 455.93 791.633C457.336 793.164 459.117 793.93 461.273 793.93C462.805 793.93 464.102 793.617 465.164 792.992C466.227 792.367 467.156 791.539 467.953 790.508L470.602 792.57C468.477 795.836 465.289 797.469 461.039 797.469ZM460.5 774.734C458.75 774.734 457.281 775.375 456.094 776.656C454.906 777.922 454.172 779.703 453.891 782H466.594V781.672C466.469 779.469 465.875 777.766 464.812 776.562C463.75 775.344 462.312 774.734 460.5 774.734ZM491.625 797C491.375 796.5 491.172 795.609 491.016 794.328C489 796.422 486.594 797.469 483.797 797.469C481.297 797.469 479.242 796.766 477.633 795.359C476.039 793.938 475.242 792.141 475.242 789.969C475.242 787.328 476.242 785.281 478.242 783.828C480.258 782.359 483.086 781.625 486.727 781.625H490.945V779.633C490.945 778.117 490.492 776.914 489.586 776.023C488.68 775.117 487.344 774.664 485.578 774.664C484.031 774.664 482.734 775.055 481.688 775.836C480.641 776.617 480.117 777.562 480.117 778.672H475.758C475.758 777.406 476.203 776.188 477.094 775.016C478 773.828 479.219 772.891 480.75 772.203C482.297 771.516 483.992 771.172 485.836 771.172C488.758 771.172 491.047 771.906 492.703 773.375C494.359 774.828 495.219 776.836 495.281 779.398V791.07C495.281 793.398 495.578 795.25 496.172 796.625V797H491.625ZM484.43 793.695C485.789 793.695 487.078 793.344 488.297 792.641C489.516 791.938 490.398 791.023 490.945 789.898V784.695H487.547C482.234 784.695 479.578 786.25 479.578 789.359C479.578 790.719 480.031 791.781 480.938 792.547C481.844 793.312 483.008 793.695 484.43 793.695ZM514.336 775.531C513.68 775.422 512.969 775.367 512.203 775.367C509.359 775.367 507.43 776.578 506.414 779V797H502.078V771.641H506.297L506.367 774.57C507.789 772.305 509.805 771.172 512.414 771.172C513.258 771.172 513.898 771.281 514.336 771.5V775.531ZM533.109 790.273C533.109 789.102 532.664 788.195 531.773 787.555C530.898 786.898 529.359 786.336 527.156 785.867C524.969 785.398 523.227 784.836 521.93 784.18C520.648 783.523 519.695 782.742 519.07 781.836C518.461 780.93 518.156 779.852 518.156 778.602C518.156 776.523 519.031 774.766 520.781 773.328C522.547 771.891 524.797 771.172 527.531 771.172C530.406 771.172 532.734 771.914 534.516 773.398C536.312 774.883 537.211 776.781 537.211 779.094H532.852C532.852 777.906 532.344 776.883 531.328 776.023C530.328 775.164 529.062 774.734 527.531 774.734C525.953 774.734 524.719 775.078 523.828 775.766C522.938 776.453 522.492 777.352 522.492 778.461C522.492 779.508 522.906 780.297 523.734 780.828C524.562 781.359 526.055 781.867 528.211 782.352C530.383 782.836 532.141 783.414 533.484 784.086C534.828 784.758 535.82 785.57 536.461 786.523C537.117 787.461 537.445 788.609 537.445 789.969C537.445 792.234 536.539 794.055 534.727 795.43C532.914 796.789 530.562 797.469 527.672 797.469C525.641 797.469 523.844 797.109 522.281 796.391C520.719 795.672 519.492 794.672 518.602 793.391C517.727 792.094 517.289 790.695 517.289 789.195H521.625C521.703 790.648 522.281 791.805 523.359 792.664C524.453 793.508 525.891 793.93 527.672 793.93C529.312 793.93 530.625 793.602 531.609 792.945C532.609 792.273 533.109 791.383 533.109 790.273ZM553.852 784.086C553.852 781.602 554.336 779.367 555.305 777.383C556.289 775.398 557.648 773.867 559.383 772.789C561.133 771.711 563.125 771.172 565.359 771.172C568.812 771.172 571.602 772.367 573.727 774.758C575.867 777.148 576.938 780.328 576.938 784.297V784.602C576.938 787.07 576.461 789.289 575.508 791.258C574.57 793.211 573.219 794.734 571.453 795.828C569.703 796.922 567.688 797.469 565.406 797.469C561.969 797.469 559.18 796.273 557.039 793.883C554.914 791.492 553.852 788.328 553.852 784.391V784.086ZM558.211 784.602C558.211 787.414 558.859 789.672 560.156 791.375C561.469 793.078 563.219 793.93 565.406 793.93C567.609 793.93 569.359 793.07 570.656 791.352C571.953 789.617 572.602 787.195 572.602 784.086C572.602 781.305 571.938 779.055 570.609 777.336C569.297 775.602 567.547 774.734 565.359 774.734C563.219 774.734 561.492 775.586 560.18 777.289C558.867 778.992 558.211 781.43 558.211 784.602ZM587.086 797H582.75V761H587.086V797ZM592.992 784.109C592.992 780.219 593.914 777.094 595.758 774.734C597.602 772.359 600.016 771.172 603 771.172C605.969 771.172 608.32 772.188 610.055 774.219V761H614.391V797H610.406L610.195 794.281C608.461 796.406 606.047 797.469 602.953 797.469C600.016 797.469 597.617 796.266 595.758 793.859C593.914 791.453 592.992 788.312 592.992 784.438V784.109ZM597.328 784.602C597.328 787.477 597.922 789.727 599.109 791.352C600.297 792.977 601.938 793.789 604.031 793.789C606.781 793.789 608.789 792.555 610.055 790.086V778.438C608.758 776.047 606.766 774.852 604.078 774.852C601.953 774.852 600.297 775.672 599.109 777.312C597.922 778.953 597.328 781.383 597.328 784.602ZM621.234 794.727C621.234 793.977 621.453 793.352 621.891 792.852C622.344 792.352 623.016 792.102 623.906 792.102C624.797 792.102 625.469 792.352 625.922 792.852C626.391 793.352 626.625 793.977 626.625 794.727C626.625 795.445 626.391 796.047 625.922 796.531C625.469 797.016 624.797 797.258 623.906 797.258C623.016 797.258 622.344 797.016 621.891 796.531C621.453 796.047 621.234 795.445 621.234 794.727Z" fill="black"/>
<path d="M79.7041 70.8022L79.2256 90.4556L39.0986 90.5923C39.0986 87.8807 39.3379 85.3856 39.8164 83.1069C40.2949 80.8055 41.2178 78.6522 42.585 76.647C43.9521 74.6418 45.8662 72.7505 48.3271 70.9731C50.8109 69.1958 54.0352 67.4754 58 65.812C59.6406 65.1284 61.042 64.3081 62.2041 63.3511C63.389 62.3713 64.346 61.3117 65.0752 60.1724C65.8044 59.0103 66.3398 57.814 66.6816 56.5835C67.0234 55.3302 67.1943 54.0998 67.1943 52.8921C67.1943 51.5933 67.012 50.3514 66.6475 49.1665C66.2829 47.9816 65.7702 46.9448 65.1094 46.0562C64.4714 45.1675 63.6852 44.4725 62.751 43.9712C61.8395 43.4471 60.8255 43.1965 59.709 43.2192C58.2279 43.2648 56.986 43.561 55.9834 44.1079C55.0036 44.632 54.2061 45.327 53.5908 46.1929C52.9756 47.036 52.5312 47.993 52.2578 49.064C52.0072 50.1349 51.8704 51.2173 51.8477 52.311C51.8477 53.5643 51.6768 54.7264 51.335 55.7974C50.9932 56.8455 50.5146 57.757 49.8994 58.5317C49.2842 59.2837 48.555 59.8761 47.7119 60.3091C46.8916 60.742 46.0029 60.9471 45.0459 60.9243C44.2484 60.9243 43.485 60.799 42.7559 60.5483C42.0495 60.2977 41.4229 59.9331 40.876 59.4546C40.3291 58.9533 39.8962 58.3381 39.5771 57.6089C39.2581 56.8569 39.0986 56.0024 39.0986 55.0454C39.0986 54.134 39.2467 53.1997 39.543 52.2427C39.9759 50.7388 40.7962 49.3716 42.0039 48.1411C43.2116 46.8879 44.7041 45.8169 46.4814 44.9282C48.2816 44.0168 50.2982 43.3104 52.5312 42.8091C54.7871 42.285 57.1797 42.0002 59.709 41.9546H60.0508C61.1445 41.9546 62.318 42.0116 63.5713 42.1255C64.8245 42.2166 66.0892 42.4217 67.3652 42.7407C68.6641 43.0369 69.9287 43.4585 71.1592 44.0054C72.4124 44.5295 73.5632 45.2131 74.6113 46.0562C75.6823 46.8765 76.6165 47.8791 77.4141 49.064C78.2344 50.2261 78.861 51.5933 79.2939 53.1655C79.4762 53.8719 79.613 54.5783 79.7041 55.2847C79.7952 55.9683 79.8408 56.6632 79.8408 57.3696C79.8408 59.3521 79.4421 61.2547 78.6445 63.0776C77.8698 64.9006 76.6621 66.5526 75.0215 68.0337C73.3809 69.492 71.2959 70.7339 68.7666 71.7593C66.2601 72.7619 63.2637 73.4455 59.7773 73.8101C57.1797 73.924 54.7529 74.2088 52.4971 74.6646C51.54 74.8696 50.5716 75.1203 49.5918 75.4165C48.6348 75.6899 47.7233 76.0431 46.8574 76.4761C45.9915 76.8862 45.2168 77.3761 44.5332 77.9458C43.8496 78.4927 43.3255 79.1193 42.9609 79.8257L78.2344 78.4927L78.4395 70.8022H79.7041Z" fill="black"/>
<path d="M153.527 365.578C148.803 349.047 151.787 346.472 153.527 331.416C153.527 331.416 148.329 334.551 130.92 337.797C113.51 341.044 99.8852 341.044 92.1896 341.044C84.494 341.044 73.0689 338.451 59.1365 337.797C52.6029 337.534 44.5022 331.531 36.302 326.822C28.1018 322.114 25.7154 317.917 17 306.109C31.7526 300.507 64.4351 302.244 73.266 301.317C82.097 300.389 103.796 298.998 117.673 295.133C131.551 291.269 142.276 279.775 154.292 268.373C177.567 241.038 194.175 248.994 199.367 244.149C204.56 239.304 288.833 235.351 302.104 242.13C315.375 248.91 352.63 254.167 358.877 272.876C376.269 277.383 382.965 290.027 396.842 293.891C410.719 297.756 432.418 299.147 441.249 300.074C450.08 301.002 485.247 288.29 500 293.891C491.285 305.7 486.414 320.871 478.213 325.58C470.013 330.289 461.913 336.292 455.379 336.555C441.447 337.209 430.021 339.801 422.326 339.801C414.63 339.801 401.005 339.801 383.596 336.555C368.291 333.701 360.791 327.383 359.202 325.897C363.146 330.357 363.801 354.259 353.907 369.926C343.748 386.014 339.255 379.388 329.186 382.193C319.117 384.997 275.519 389.444 275.519 385.609C275.519 381.774 244.594 385.609 233.406 385.609C222.218 385.609 193.529 382.193 193.529 382.193C193.529 382.193 158.251 382.109 153.527 365.578Z" fill="#93BE37" fill-opacity="0.8"/>
<path d="M153.527 291.438C153.529 304.245 154.14 310.626 154.275 316.835M154.275 316.835C154.368 321.101 154.236 325.285 153.527 331.416M154.275 316.835C154.327 317.137 154.334 317.443 154.292 317.752M154.275 316.835C153.335 311.364 137.473 307.037 123.464 307.037C108.681 307.037 119.364 303.195 95.7608 307.037C72.1574 310.878 59.8941 312.584 38.6157 309.832M153.527 331.416C151.787 346.472 148.803 349.047 153.527 365.578C158.251 382.109 193.529 382.193 193.529 382.193C193.529 382.193 222.218 385.609 233.406 385.609C244.594 385.609 275.519 381.774 275.519 385.609C275.519 389.444 319.117 384.997 329.186 382.193C339.255 379.388 343.748 386.014 353.907 369.926C363.801 354.259 363.146 330.357 359.202 325.897M153.527 331.416C153.527 331.416 148.329 334.551 130.92 337.797C113.51 341.044 99.8852 341.044 92.1896 341.044C84.494 341.044 73.0689 338.451 59.1365 337.797C52.6029 337.534 44.5022 331.531 36.302 326.822C28.1018 322.114 25.7154 317.917 17 306.109C31.7526 300.507 64.4351 302.244 73.266 301.317C82.097 300.389 103.796 298.998 117.673 295.133C131.551 291.269 142.276 279.775 154.292 268.373M359.202 325.897C359.096 325.777 358.987 325.671 358.877 325.58M359.202 325.897C360.791 327.383 368.291 333.701 383.596 336.555C401.005 339.801 414.63 339.801 422.326 339.801C430.021 339.801 441.447 337.209 455.379 336.555C461.913 336.292 470.013 330.289 478.213 325.58C486.414 320.871 491.285 305.7 500 293.891C485.247 288.29 450.08 301.002 441.249 300.074C432.418 299.147 410.719 297.756 396.842 293.891C382.965 290.027 376.269 277.383 358.877 272.876M359.202 325.897C358.983 325.693 358.877 325.58 358.877 325.58M358.877 325.58C354.65 322.095 358.877 291.438 358.877 291.438M154.292 268.373C177.567 241.038 194.175 248.994 199.367 244.149C204.56 239.304 288.833 235.351 302.104 242.13C315.375 248.91 352.63 254.167 358.877 272.876M154.292 268.373C151.226 273.608 151.912 275.36 151.912 280.95M358.877 272.876C360.671 277.559 359.516 278.617 359.746 282.348M357.38 307.037C356.578 301.141 373.687 299.771 388.47 299.771C403.253 299.771 407.947 306.146 431.55 309.988C455.154 313.829 462.323 306.995 483.602 304.242" stroke="black" stroke-width="5"/>
<path d="M251.898 321.27C250.67 322.336 249.946 322.416 248.562 321.27C249.397 315.228 249.775 316.627 251.898 314.608C254.022 312.589 266.761 312.589 268.96 314.608C271.159 316.627 271.334 314.685 271.917 320.564C270.807 321.954 270.381 322.535 268.96 321.27" stroke="black" stroke-width="5"/>
<path d="M161.85 292.512C172.898 283.278 179.677 281.519 188.026 279.318C196.374 277.118 207.021 278.24 212.516 280.14C218.01 282.039 231.244 292.924 233.714 299.033" stroke="black" stroke-width="5"/>
<path d="M353.554 289.034C342.235 280.328 335.408 278.891 326.998 277.087C318.589 275.283 307.984 276.907 302.551 279.065C297.118 281.223 284.223 292.725 281.94 298.947" stroke="black" stroke-width="5"/>
<path d="M233.734 346.065C236.666 342.349 240.921 341.797 246.472 339.19C252.024 336.584 264.192 335.083 268.693 336.317C273.193 337.552 278.39 336.329 285.421 341.29" stroke="black" stroke-width="5"/>
<path d="M238.627 229.637C237.924 235.581 238.623 238.132 241.605 241.438" stroke="black" stroke-width="5"/>
<path d="M250.116 228.713C248.386 234.519 248.854 237.289 251.975 241.453" stroke="black" stroke-width="5"/>
<path d="M260.101 228.119C261.884 234.289 262.709 238.485 259.618 242.85" stroke="black" stroke-width="5"/>
<path d="M242.226 233.674L243.965 239.575" stroke="black" stroke-width="5"/>
<path d="M253.779 239.574L255.518 245.475" stroke="black" stroke-width="5"/>
<path d="M268.438 229.637L266.699 240.506" stroke="black" stroke-width="5"/>
<path d="M271.495 434.563C271.729 432.648 271.948 430.847 272.152 429.147L271.495 434.563Z" fill="#E07E24" fill-opacity="0.8"/>
<path d="M192.535 382.544C192.535 382.544 157.257 382.46 152.534 365.929C152.534 365.929 146.548 362.823 143.94 375.09C141.331 387.357 141.994 394.658 143.94 401.333C145.886 408.008 152.263 413.91 152.263 413.91L217.731 431.302C238.889 432.988 263.075 437.513 271.495 434.563L272.152 429.147C275.288 403.019 275.502 402.2 274.529 386.02C274.527 386 274.526 385.98 274.526 385.96C274.526 382.125 243.6 385.96 232.412 385.96C221.225 385.96 192.535 382.544 192.535 382.544Z" fill="#E07E24" fill-opacity="0.8"/>
<path d="M353.016 371.364C342.857 387.452 338.262 379.739 328.193 382.544C318.176 385.333 274.982 389.749 274.529 386.02C275.502 402.2 275.288 403.019 272.152 429.147C276.399 429.353 314.954 431.111 335.127 427.886C356.494 424.469 354.096 425.246 362.107 413.91C370.118 402.575 367.573 398.848 362.107 386.271C356.641 373.693 353.016 371.364 353.016 371.364Z" fill="#E07E24" fill-opacity="0.8"/>
<path d="M274.526 385.96C274.526 382.125 243.6 385.96 232.412 385.96C221.225 385.96 192.535 382.544 192.535 382.544C192.535 382.544 157.257 382.46 152.534 365.929C152.534 365.929 146.548 362.823 143.94 375.09C141.331 387.357 141.994 394.658 143.94 401.333C145.886 408.008 152.263 413.91 152.263 413.91L217.731 431.302C238.889 432.988 263.075 437.513 271.495 434.563M274.526 385.96C274.526 385.98 274.527 386 274.529 386.02M274.526 385.96C274.527 385.98 274.528 386 274.529 386.02M271.495 434.563C271.729 432.648 271.948 430.847 272.152 429.147M271.495 434.563L272.152 429.147M272.152 429.147C276.399 429.353 314.954 431.111 335.127 427.886C356.494 424.469 354.096 425.246 362.107 413.91C370.118 402.575 367.573 398.848 362.107 386.271C356.641 373.693 353.016 371.364 353.016 371.364C342.857 387.452 338.262 379.739 328.193 382.544C318.176 385.333 274.982 389.749 274.529 386.02M272.152 429.147C275.288 403.019 275.502 402.2 274.529 386.02" stroke="black" stroke-width="5"/>
<path d="M271.495 434.854C271.729 432.94 271.947 431.138 272.151 429.438L271.495 434.854Z" fill="#BD722D" fill-opacity="0.9"/>
<path d="M169.153 502.534C170.002 499.875 170.794 495.99 171.527 491.335L141.832 482.445C146.304 483.742 171.527 491.335 171.527 491.335C170.794 495.99 170.002 499.875 169.153 502.534C163.813 519.265 164.931 519.265 155.243 537.263C145.556 555.262 131.522 549.938 136.987 565.909C142.451 581.879 163.813 586.569 177.599 592.399C191.384 598.23 236.84 606.722 245.161 604.694C253.482 602.666 265.361 601.026 302.788 601.779C340.214 602.531 334.534 593.599 355.322 591.512C407.051 586.319 407.609 565.909 394.32 556.529C381.031 547.15 382.77 547.657 374.697 528.137C366.624 508.618 362.727 506.165 359.001 491.335C359.001 491.335 372.589 483.178 380.119 479.917L359.001 491.335C362.727 506.165 366.624 508.618 374.697 528.137C382.77 547.657 381.031 547.15 394.32 556.529C407.609 565.909 407.051 586.319 355.322 591.512C334.534 593.599 340.214 602.531 302.788 601.779C265.361 601.026 253.482 602.666 245.161 604.694C236.84 606.722 191.384 598.23 177.599 592.399C163.813 586.569 142.451 581.879 136.987 565.909C131.522 549.938 145.556 555.262 155.243 537.263C164.931 519.265 163.813 519.265 169.153 502.534Z" fill="#BD722D" fill-opacity="0.9"/>
<path d="M177.574 421.039L158.496 416.024C158.496 416.024 152.409 453.757 150.918 460.9C149.427 468.043 141.832 482.445 141.832 482.445C146.304 483.742 171.527 491.335 171.527 491.335C175.163 468.222 177.321 426.141 177.574 421.039Z" fill="#BD722D" fill-opacity="0.9"/>
<path d="M271.495 434.854C263.074 437.804 238.888 433.28 217.731 431.593L177.574 421.039C177.321 426.141 175.163 468.222 171.527 491.335C170.794 495.99 170.002 499.875 169.153 502.534C163.813 519.265 164.931 519.265 155.243 537.263C145.556 555.262 131.522 549.938 136.987 565.909C142.451 581.879 163.813 586.569 177.599 592.399C191.384 598.23 236.84 606.722 245.161 604.694C253.482 602.666 265.361 601.026 302.788 601.779C340.214 602.531 334.534 593.599 355.322 591.512C407.051 586.319 407.609 565.909 394.32 556.529C381.031 547.15 382.77 547.657 374.697 528.137C366.624 508.618 362.727 506.165 359.001 491.335C359.001 491.335 372.589 483.178 380.119 479.917C380.119 479.917 376.393 468.198 373.411 456.397C370.582 445.201 363.671 415.589 362.976 412.608C363.302 412.147 362.684 413.046 362.976 412.608C354.965 423.944 356.494 424.76 335.127 428.177C314.954 431.402 276.399 429.644 272.151 429.438C271.947 431.138 271.729 432.94 271.495 434.854Z" fill="#BD722D" fill-opacity="0.9"/>
<path d="M359.001 491.335C360.88 498.814 362.803 503.145 365.283 508.105C365.283 508.105 373.411 504.689 377.262 502.671C381.113 500.652 387.573 498.478 388.319 495.683C389.064 492.888 387.697 481.625 383.971 479.917C382.863 479.409 383.305 478.537 380.119 479.917L359.001 491.335Z" fill="#BD722D" fill-opacity="0.9"/>
<path d="M169.153 502.534C170.002 499.875 170.794 495.99 171.527 491.335L141.832 482.445C137.359 481.148 134.729 500.521 136.987 503.116C139.245 505.711 162.845 511.83 166.85 509.969C167.481 507.879 168.218 505.463 169.153 502.534Z" fill="#BD722D" fill-opacity="0.9"/>
<path d="M271.495 434.854C263.074 437.804 238.888 433.28 217.731 431.593L177.574 421.039M271.495 434.854C271.729 432.94 271.947 431.138 272.151 429.438M271.495 434.854L272.151 429.438M272.151 429.438C276.399 429.644 314.954 431.402 335.127 428.177C356.494 424.76 354.965 423.944 362.976 412.608M362.976 412.608C363.671 415.589 370.582 445.201 373.411 456.397C376.393 468.198 380.119 479.917 380.119 479.917M362.976 412.608C362.684 413.046 363.302 412.147 362.976 412.608ZM177.599 420.528C177.599 420.528 177.59 420.703 177.574 421.039M171.527 491.335C170.794 495.99 170.002 499.875 169.153 502.534M171.527 491.335L141.832 482.445M171.527 491.335C171.527 491.335 146.304 483.742 141.832 482.445M171.527 491.335C175.163 468.222 177.321 426.141 177.574 421.039M169.153 502.534C163.813 519.265 164.931 519.265 155.243 537.263C145.556 555.262 131.522 549.938 136.987 565.909C142.451 581.879 163.813 586.569 177.599 592.399C191.384 598.23 236.84 606.722 245.161 604.694C253.482 602.666 265.361 601.026 302.788 601.779C340.214 602.531 334.534 593.599 355.322 591.512C407.051 586.319 407.609 565.909 394.32 556.529C381.031 547.15 382.77 547.657 374.697 528.137C366.624 508.618 362.727 506.165 359.001 491.335M169.153 502.534C168.218 505.463 167.481 507.879 166.85 509.969C162.845 511.83 139.245 505.711 136.987 503.116C134.729 500.521 137.359 481.148 141.832 482.445M359.001 491.335C355.275 476.506 349.361 426.104 349.361 426.104M359.001 491.335L380.119 479.917M359.001 491.335C359.001 491.335 372.589 483.178 380.119 479.917M359.001 491.335C360.88 498.814 362.803 503.145 365.283 508.105C365.283 508.105 373.411 504.689 377.262 502.671C381.113 500.652 387.573 498.478 388.319 495.683C389.064 492.888 387.697 481.625 383.971 479.917C382.863 479.409 383.305 478.537 380.119 479.917M141.832 482.445C141.832 482.445 149.427 468.043 150.918 460.9C152.409 453.757 158.496 416.024 158.496 416.024L177.574 421.039" stroke="black" stroke-width="5"/>
<path d="M161.85 510.125C153.492 509.198 139.109 505.113 137.371 503.116C134.621 508.508 134.904 516.51 134.035 520.081C133.165 523.653 134.532 534.056 137.265 536.852C139.998 539.647 144.843 540.578 146.458 539.647C148.073 538.715 152.16 534.522 153.278 530.64C153.278 530.64 154.781 532.348 156.644 530.64C158.508 528.932 162.223 521.789 162.471 518.063C162.715 514.406 163.934 514.972 164.583 510.314L161.85 510.125Z" fill="#93BE37" fill-opacity="0.8"/>
<path d="M365.667 508.105C367.311 511.392 368.704 514.132 370.986 519.071C372.871 521.927 375.708 523.478 376.823 526.122C378.037 529.003 379.101 528.41 381.495 528.821C383.889 529.232 384.721 527.405 384.721 527.405C386.889 529.96 390.798 530.058 392.733 529.971C394.667 529.884 395.497 529.181 397.652 525.502C399.807 521.823 398.579 512.708 396.751 510.275C394.924 507.842 392.215 498.939 387.946 496.013C387.2 498.808 381.498 500.652 377.647 502.671C373.796 504.689 365.667 508.105 365.667 508.105Z" fill="#93BE37" fill-opacity="0.8"/>
<path d="M153.278 530.64C152.16 534.522 148.073 538.715 146.458 539.647C144.843 540.578 139.998 539.647 137.265 536.852C134.532 534.056 133.165 523.653 134.035 520.081C134.904 516.51 134.621 508.508 137.371 503.116C139.109 505.113 153.492 509.198 161.85 510.125M153.278 530.64C153.278 530.64 154.228 523.505 153.899 520.081M153.278 530.64C153.278 530.64 154.781 532.348 156.644 530.64C158.508 528.932 162.223 521.789 162.471 518.063C162.715 514.406 163.934 514.972 164.583 510.314M161.85 510.125L164.583 510.314M161.85 510.125C161.837 510.216 164.595 510.225 164.583 510.314M384.721 527.405C386.889 529.96 390.798 530.058 392.733 529.971C394.667 529.884 395.497 529.181 397.652 525.502C399.807 521.823 398.579 512.708 396.751 510.275C394.924 507.842 392.215 498.939 387.946 496.013C387.2 498.808 381.498 500.652 377.647 502.671C373.796 504.689 365.667 508.105 365.667 508.105C367.311 511.392 368.704 514.132 370.986 519.071M384.721 527.405C384.721 527.405 380.374 517.125 379.842 514.188M384.721 527.405C384.721 527.405 383.889 529.232 381.495 528.821C379.101 528.41 378.037 529.003 376.823 526.122C375.708 523.478 372.871 521.927 370.986 519.071M370.986 519.071C370.817 518.815 371.147 519.364 370.986 519.071ZM363.361 412.608C363.069 413.046 363.687 412.147 363.361 412.608Z" stroke="black" stroke-width="5"/>
<path d="M164.583 309.988C164.583 309.988 178.621 316.044 186.82 316.044C195.019 316.044 210.051 316.044 210.051 316.044H226.946" stroke="black" stroke-width="10"/>
<path d="M350.678 309.677C350.678 309.677 336.64 315.733 328.441 315.733C320.242 315.733 305.21 315.733 305.21 315.733H288.315" stroke="black" stroke-width="10"/>
<path d="M649.986 117.288C652.44 118.953 656.668 117.966 657.654 116.903C657.971 116.562 658.147 116.44 658.274 116.352C658.543 116.167 658.591 116.134 659.274 114.506C660.282 112.109 660.874 107.169 660.874 107.169C660.874 107.169 660.261 115.366 662.715 117.288C665.117 119.169 666.49 118.594 668.274 117.848L668.389 117.8C670.229 117.032 671.176 112.993 671.609 108.834C671.609 108.834 672.069 114.982 672.682 116.903C673.296 118.825 675.289 120.106 677.743 120.746C680.197 121.387 683.11 119.081 684.03 118.312C684.2 118.171 684.471 118.029 684.829 117.842C686.413 117.013 689.706 115.29 693.538 108.707C695.171 105.801 695.839 103.71 693.385 101.02C690.931 98.3305 679.909 98.1295 673.765 97.5854C676.366 87.1129 676.228 80.9103 673.765 73.9934C671.302 67.0766 665.647 70.535 665.484 73.9934C665.484 73.9934 667.468 81.0384 667.468 86.2901C667.468 91.5417 665.935 97.9462 665.935 97.9462C658.501 97.786 652.9 98.4586 651.673 99.099C650.446 99.7395 649.066 99.4833 647.839 106.553C647.836 107.14 647.831 107.696 647.826 108.222C647.776 113.503 647.755 115.773 649.986 117.288Z" fill="#78C23E"/>
<path d="M647.839 106.553C647.839 106.553 645.079 126.511 636.338 143.418C627.597 160.325 598 185.305 598 185.305C600.255 186.546 629.591 178.387 643.699 167.115C646.078 165.214 648.2 163.557 650.157 162.029C659.806 154.494 665.454 150.085 678.203 134.964C693.538 116.777 693.538 108.707 693.538 108.707M647.839 106.553C649.066 99.4833 650.446 99.7395 651.673 99.099C652.9 98.4586 658.501 97.786 665.935 97.9462C665.935 97.9462 667.468 91.5417 667.468 86.2901C667.468 81.0384 665.484 73.9934 665.484 73.9934C665.647 70.535 671.302 67.0766 673.765 73.9934C676.228 80.9103 676.366 87.1129 673.765 97.5854C679.909 98.1295 690.931 98.3305 693.385 101.02C695.839 103.71 695.171 105.801 693.538 108.707M647.839 106.553C647.836 107.14 647.831 107.696 647.826 108.222C647.776 113.503 647.755 115.773 649.986 117.288C652.44 118.953 656.668 117.966 657.654 116.903C657.971 116.562 658.147 116.44 658.274 116.352C658.543 116.167 658.591 116.134 659.274 114.506C660.282 112.109 660.874 107.169 660.874 107.169C660.874 107.169 660.261 115.366 662.715 117.288C665.117 119.169 666.49 118.594 668.274 117.848M693.538 108.707C689.706 115.29 686.413 117.013 684.829 117.842C684.471 118.029 684.2 118.171 684.03 118.312C683.11 119.081 680.197 121.387 677.743 120.746C675.289 120.106 673.296 118.825 672.682 116.903C672.069 114.982 671.609 108.834 671.609 108.834C671.176 112.993 670.229 117.032 668.389 117.8M668.389 117.8C668.35 117.816 668.312 117.832 668.274 117.848M668.389 117.8L668.274 117.848" stroke="#8D3939" stroke-width="5"/>
<path fill-rule="evenodd" clip-rule="evenodd" d="M647.839 106.704C647.839 106.704 645.079 126.662 636.338 143.569C627.597 160.475 598 185.455 598 185.455C600.255 186.696 629.591 178.537 643.699 167.265C646.078 165.364 648.2 163.708 650.157 162.179C659.806 154.645 665.454 150.235 678.203 135.115C693.538 116.927 693.538 108.858 693.538 108.858C689.706 115.441 686.413 117.164 684.829 117.992C684.471 118.18 684.2 118.321 684.03 118.463C683.11 119.232 680.197 121.537 677.743 120.897C675.289 120.256 673.296 118.976 672.682 117.054C672.069 115.133 671.609 108.985 671.609 108.985C671.176 113.144 670.229 117.182 668.389 117.951L668.274 117.999C666.49 118.745 665.117 119.32 662.715 117.438C660.261 115.517 660.874 107.319 660.874 107.319C660.874 107.319 660.282 112.26 659.274 114.657C658.591 116.284 658.543 116.317 658.274 116.503C658.147 116.591 657.971 116.713 657.654 117.054C656.668 118.117 652.44 119.104 649.986 117.438C647.755 115.924 647.776 113.654 647.826 108.372C647.831 107.847 647.836 107.291 647.839 106.704Z" fill="#F43131"/>
<path d="M647.839 106.704C647.839 106.704 645.079 126.662 636.338 143.569C627.597 160.475 598 185.455 598 185.455C600.255 186.696 629.591 178.537 643.699 167.265C646.078 165.364 648.2 163.708 650.157 162.179C659.806 154.645 665.454 150.235 678.203 135.115C693.538 116.927 693.538 108.858 693.538 108.858M647.839 106.704C649.066 99.634 650.446 99.8902 651.673 99.2497C652.9 98.6093 658.501 97.9367 665.935 98.0969C665.935 98.0969 667.468 91.6924 667.468 86.4408C667.468 81.1891 665.484 74.1441 665.484 74.1441C665.647 70.6857 671.302 67.2273 673.765 74.1441C676.228 81.061 676.366 87.2636 673.765 97.7361C679.909 98.2802 690.931 98.4812 693.385 101.171C695.839 103.861 695.171 105.952 693.538 108.858M647.839 106.704C647.836 107.291 647.831 107.847 647.826 108.372C647.776 113.654 647.755 115.924 649.986 117.438C652.44 119.104 656.668 118.117 657.654 117.054C657.971 116.713 658.147 116.591 658.274 116.503C658.543 116.317 658.591 116.284 659.274 114.657C660.282 112.26 660.874 107.319 660.874 107.319C660.874 107.319 660.261 115.517 662.715 117.438C665.117 119.32 666.49 118.745 668.274 117.999M693.538 108.858C689.706 115.441 686.413 117.164 684.829 117.992C684.471 118.18 684.2 118.321 684.03 118.463C683.11 119.232 680.197 121.537 677.743 120.897C675.289 120.256 673.296 118.976 672.682 117.054C672.069 115.133 671.609 108.985 671.609 108.985C671.176 113.144 670.229 117.182 668.389 117.951M668.389 117.951C668.35 117.967 668.312 117.983 668.274 117.999M668.389 117.951L668.274 117.999" stroke="#8D3939" stroke-width="5"/>
<path d="M788.5 128C788.5 150.462 773.318 171.054 748.223 186.111C723.158 201.15 688.435 210.5 650 210.5C611.565 210.5 576.842 201.15 551.777 186.111C526.682 171.054 511.5 150.462 511.5 128C511.5 105.538 526.682 84.9461 551.777 69.8893C576.842 54.8504 611.565 45.5 650 45.5C688.435 45.5 723.158 54.8504 748.223 69.8893C773.318 84.9461 788.5 105.538 788.5 128Z" stroke="black" stroke-width="3"/>
<path d="M522.5 186C522.5 191.894 518.511 197.485 511.513 201.684C504.544 205.865 494.821 208.5 484 208.5C473.179 208.5 463.456 205.865 456.487 201.684C449.489 197.485 445.5 191.894 445.5 186C445.5 180.106 449.489 174.515 456.487 170.316C463.456 166.135 473.179 163.5 484 163.5C494.821 163.5 504.544 166.135 511.513 170.316C518.511 174.515 522.5 180.106 522.5 186Z" stroke="black" stroke-width="3"/>
<path d="M437.5 225C437.5 228.408 435.19 231.75 430.906 234.32C426.652 236.873 420.678 238.5 414 238.5C407.322 238.5 401.348 236.873 397.094 234.32C392.81 231.75 390.5 228.408 390.5 225C390.5 221.592 392.81 218.25 397.094 215.68C401.348 213.127 407.322 211.5 414 211.5C420.678 211.5 426.652 213.127 430.906 215.68C435.19 218.25 437.5 221.592 437.5 225Z" stroke="black" stroke-width="3"/>
</svg>
