<svg width="800" height="899" viewBox="0 0 800 899" fill="none" xmlns="http://www.w3.org/2000/svg">
<path d="M2.5 2.5H797.5V674.616H2.5V2.5Z" fill="#FFFFFD" stroke="black" stroke-width="5"/>
<path d="M2.5 675.795H797.5V896.5H2.5V675.795Z" fill="#FFFFFD" stroke="black" stroke-width="5"/>
<path d="M36.7734 706.875L47.9297 734.719L59.0859 706.875H64.9219V741H60.4219V727.711L60.8438 713.367L49.6406 741H46.1953L35.0156 713.438L35.4609 727.711V741H30.9609V706.875H36.7734ZM76.8984 741H72.5625V715.641H76.8984V741ZM72.2109 708.914C72.2109 708.211 72.4219 707.617 72.8438 707.133C73.2812 706.648 73.9219 706.406 74.7656 706.406C75.6094 706.406 76.25 706.648 76.6875 707.133C77.125 707.617 77.3438 708.211 77.3438 708.914C77.3438 709.617 77.125 710.203 76.6875 710.672C76.25 711.141 75.6094 711.375 74.7656 711.375C73.9219 711.375 73.2812 711.141 72.8438 710.672C72.4219 710.203 72.2109 709.617 72.2109 708.914ZM99.5156 741C99.2656 740.5 99.0625 739.609 98.9062 738.328C96.8906 740.422 94.4844 741.469 91.6875 741.469C89.1875 741.469 87.1328 740.766 85.5234 739.359C83.9297 737.938 83.1328 736.141 83.1328 733.969C83.1328 731.328 84.1328 729.281 86.1328 727.828C88.1484 726.359 90.9766 725.625 94.6172 725.625H98.8359V723.633C98.8359 722.117 98.3828 720.914 97.4766 720.023C96.5703 719.117 95.2344 718.664 93.4688 718.664C91.9219 718.664 90.625 719.055 89.5781 719.836C88.5312 720.617 88.0078 721.562 88.0078 722.672H83.6484C83.6484 721.406 84.0938 720.188 84.9844 719.016C85.8906 717.828 87.1094 716.891 88.6406 716.203C90.1875 715.516 91.8828 715.172 93.7266 715.172C96.6484 715.172 98.9375 715.906 100.594 717.375C102.25 718.828 103.109 720.836 103.172 723.398V735.07C103.172 737.398 103.469 739.25 104.062 740.625V741H99.5156ZM92.3203 737.695C93.6797 737.695 94.9688 737.344 96.1875 736.641C97.4062 735.938 98.2891 735.023 98.8359 733.898V728.695H95.4375C90.125 728.695 87.4688 730.25 87.4688 733.359C87.4688 734.719 87.9219 735.781 88.8281 736.547C89.7344 737.312 90.8984 737.695 92.3203 737.695ZM120.844 728.109C120.844 724.156 121.758 721.016 123.586 718.688C125.414 716.344 127.836 715.172 130.852 715.172C133.945 715.172 136.359 716.266 138.094 718.453L138.305 715.641H142.266V740.391C142.266 743.672 141.289 746.258 139.336 748.148C137.398 750.039 134.789 750.984 131.508 750.984C129.68 750.984 127.891 750.594 126.141 749.812C124.391 749.031 123.055 747.961 122.133 746.602L124.383 744C126.242 746.297 128.516 747.445 131.203 747.445C133.312 747.445 134.953 746.852 136.125 745.664C137.312 744.477 137.906 742.805 137.906 740.648V738.469C136.172 740.469 133.805 741.469 130.805 741.469C127.836 741.469 125.43 740.273 123.586 737.883C121.758 735.492 120.844 732.234 120.844 728.109ZM125.203 728.602C125.203 731.461 125.789 733.711 126.961 735.352C128.133 736.977 129.773 737.789 131.883 737.789C134.617 737.789 136.625 736.547 137.906 734.062V722.484C136.578 720.062 134.586 718.852 131.93 718.852C129.82 718.852 128.172 719.672 126.984 721.312C125.797 722.953 125.203 725.383 125.203 728.602ZM147.68 728.086C147.68 725.602 148.164 723.367 149.133 721.383C150.117 719.398 151.477 717.867 153.211 716.789C154.961 715.711 156.953 715.172 159.188 715.172C162.641 715.172 165.43 716.367 167.555 718.758C169.695 721.148 170.766 724.328 170.766 728.297V728.602C170.766 731.07 170.289 733.289 169.336 735.258C168.398 737.211 167.047 738.734 165.281 739.828C163.531 740.922 161.516 741.469 159.234 741.469C155.797 741.469 153.008 740.273 150.867 737.883C148.742 735.492 147.68 732.328 147.68 728.391V728.086ZM152.039 728.602C152.039 731.414 152.688 733.672 153.984 735.375C155.297 737.078 157.047 737.93 159.234 737.93C161.438 737.93 163.188 737.07 164.484 735.352C165.781 733.617 166.43 731.195 166.43 728.086C166.43 725.305 165.766 723.055 164.438 721.336C163.125 719.602 161.375 718.734 159.188 718.734C157.047 718.734 155.32 719.586 154.008 721.289C152.695 722.992 152.039 725.43 152.039 728.602ZM182.086 709.5V715.641H186.82V718.992H182.086V734.719C182.086 735.734 182.297 736.5 182.719 737.016C183.141 737.516 183.859 737.766 184.875 737.766C185.375 737.766 186.062 737.672 186.938 737.484V741C185.797 741.312 184.688 741.469 183.609 741.469C181.672 741.469 180.211 740.883 179.227 739.711C178.242 738.539 177.75 736.875 177.75 734.719V718.992H173.133V715.641H177.75V709.5H182.086ZM214.336 741.469C210.898 741.469 208.102 740.344 205.945 738.094C203.789 735.828 202.711 732.805 202.711 729.023V728.227C202.711 725.711 203.188 723.469 204.141 721.5C205.109 719.516 206.453 717.969 208.172 716.859C209.906 715.734 211.781 715.172 213.797 715.172C217.094 715.172 219.656 716.258 221.484 718.43C223.312 720.602 224.227 723.711 224.227 727.758V729.562H207.047C207.109 732.062 207.836 734.086 209.227 735.633C210.633 737.164 212.414 737.93 214.57 737.93C216.102 737.93 217.398 737.617 218.461 736.992C219.523 736.367 220.453 735.539 221.25 734.508L223.898 736.57C221.773 739.836 218.586 741.469 214.336 741.469ZM213.797 718.734C212.047 718.734 210.578 719.375 209.391 720.656C208.203 721.922 207.469 723.703 207.188 726H219.891V725.672C219.766 723.469 219.172 721.766 218.109 720.562C217.047 719.344 215.609 718.734 213.797 718.734ZM233.367 715.641L233.508 718.828C235.445 716.391 237.977 715.172 241.102 715.172C246.461 715.172 249.164 718.195 249.211 724.242V741H244.875V724.219C244.859 722.391 244.438 721.039 243.609 720.164C242.797 719.289 241.523 718.852 239.789 718.852C238.383 718.852 237.148 719.227 236.086 719.977C235.023 720.727 234.195 721.711 233.602 722.93V741H229.266V715.641H233.367ZM254.719 728.109C254.719 724.156 255.633 721.016 257.461 718.688C259.289 716.344 261.711 715.172 264.727 715.172C267.82 715.172 270.234 716.266 271.969 718.453L272.18 715.641H276.141V740.391C276.141 743.672 275.164 746.258 273.211 748.148C271.273 750.039 268.664 750.984 265.383 750.984C263.555 750.984 261.766 750.594 260.016 749.812C258.266 749.031 256.93 747.961 256.008 746.602L258.258 744C260.117 746.297 262.391 747.445 265.078 747.445C267.188 747.445 268.828 746.852 270 745.664C271.188 744.477 271.781 742.805 271.781 740.648V738.469C270.047 740.469 267.68 741.469 264.68 741.469C261.711 741.469 259.305 740.273 257.461 737.883C255.633 735.492 254.719 732.234 254.719 728.109ZM259.078 728.602C259.078 731.461 259.664 733.711 260.836 735.352C262.008 736.977 263.648 737.789 265.758 737.789C268.492 737.789 270.5 736.547 271.781 734.062V722.484C270.453 720.062 268.461 718.852 265.805 718.852C263.695 718.852 262.047 719.672 260.859 721.312C259.672 722.953 259.078 725.383 259.078 728.602ZM298.359 741C298.109 740.5 297.906 739.609 297.75 738.328C295.734 740.422 293.328 741.469 290.531 741.469C288.031 741.469 285.977 740.766 284.367 739.359C282.773 737.938 281.977 736.141 281.977 733.969C281.977 731.328 282.977 729.281 284.977 727.828C286.992 726.359 289.82 725.625 293.461 725.625H297.68V723.633C297.68 722.117 297.227 720.914 296.32 720.023C295.414 719.117 294.078 718.664 292.312 718.664C290.766 718.664 289.469 719.055 288.422 719.836C287.375 720.617 286.852 721.562 286.852 722.672H282.492C282.492 721.406 282.938 720.188 283.828 719.016C284.734 717.828 285.953 716.891 287.484 716.203C289.031 715.516 290.727 715.172 292.57 715.172C295.492 715.172 297.781 715.906 299.438 717.375C301.094 718.828 301.953 720.836 302.016 723.398V735.07C302.016 737.398 302.312 739.25 302.906 740.625V741H298.359ZM291.164 737.695C292.523 737.695 293.812 737.344 295.031 736.641C296.25 735.938 297.133 735.023 297.68 733.898V728.695H294.281C288.969 728.695 286.312 730.25 286.312 733.359C286.312 734.719 286.766 735.781 287.672 736.547C288.578 737.312 289.742 737.695 291.164 737.695ZM307.781 728.109C307.781 724.156 308.695 721.016 310.523 718.688C312.352 716.344 314.773 715.172 317.789 715.172C320.883 715.172 323.297 716.266 325.031 718.453L325.242 715.641H329.203V740.391C329.203 743.672 328.227 746.258 326.273 748.148C324.336 750.039 321.727 750.984 318.445 750.984C316.617 750.984 314.828 750.594 313.078 749.812C311.328 749.031 309.992 747.961 309.07 746.602L311.32 744C313.18 746.297 315.453 747.445 318.141 747.445C320.25 747.445 321.891 746.852 323.062 745.664C324.25 744.477 324.844 742.805 324.844 740.648V738.469C323.109 740.469 320.742 741.469 317.742 741.469C314.773 741.469 312.367 740.273 310.523 737.883C308.695 735.492 307.781 732.234 307.781 728.109ZM312.141 728.602C312.141 731.461 312.727 733.711 313.898 735.352C315.07 736.977 316.711 737.789 318.82 737.789C321.555 737.789 323.562 736.547 324.844 734.062V722.484C323.516 720.062 321.523 718.852 318.867 718.852C316.758 718.852 315.109 719.672 313.922 721.312C312.734 722.953 312.141 725.383 312.141 728.602ZM346.289 741.469C342.852 741.469 340.055 740.344 337.898 738.094C335.742 735.828 334.664 732.805 334.664 729.023V728.227C334.664 725.711 335.141 723.469 336.094 721.5C337.062 719.516 338.406 717.969 340.125 716.859C341.859 715.734 343.734 715.172 345.75 715.172C349.047 715.172 351.609 716.258 353.438 718.43C355.266 720.602 356.18 723.711 356.18 727.758V729.562H339C339.062 732.062 339.789 734.086 341.18 735.633C342.586 737.164 344.367 737.93 346.523 737.93C348.055 737.93 349.352 737.617 350.414 736.992C351.477 736.367 352.406 735.539 353.203 734.508L355.852 736.57C353.727 739.836 350.539 741.469 346.289 741.469ZM345.75 718.734C344 718.734 342.531 719.375 341.344 720.656C340.156 721.922 339.422 723.703 339.141 726H351.844V725.672C351.719 723.469 351.125 721.766 350.062 720.562C349 719.344 347.562 718.734 345.75 718.734ZM360.164 728.109C360.164 724.219 361.086 721.094 362.93 718.734C364.773 716.359 367.188 715.172 370.172 715.172C373.141 715.172 375.492 716.188 377.227 718.219V705H381.562V741H377.578L377.367 738.281C375.633 740.406 373.219 741.469 370.125 741.469C367.188 741.469 364.789 740.266 362.93 737.859C361.086 735.453 360.164 732.312 360.164 728.438V728.109ZM364.5 728.602C364.5 731.477 365.094 733.727 366.281 735.352C367.469 736.977 369.109 737.789 371.203 737.789C373.953 737.789 375.961 736.555 377.227 734.086V722.438C375.93 720.047 373.938 718.852 371.25 718.852C369.125 718.852 367.469 719.672 366.281 721.312C365.094 722.953 364.5 725.383 364.5 728.602ZM415.875 741C415.625 740.5 415.422 739.609 415.266 738.328C413.25 740.422 410.844 741.469 408.047 741.469C405.547 741.469 403.492 740.766 401.883 739.359C400.289 737.938 399.492 736.141 399.492 733.969C399.492 731.328 400.492 729.281 402.492 727.828C404.508 726.359 407.336 725.625 410.977 725.625H415.195V723.633C415.195 722.117 414.742 720.914 413.836 720.023C412.93 719.117 411.594 718.664 409.828 718.664C408.281 718.664 406.984 719.055 405.938 719.836C404.891 720.617 404.367 721.562 404.367 722.672H400.008C400.008 721.406 400.453 720.188 401.344 719.016C402.25 717.828 403.469 716.891 405 716.203C406.547 715.516 408.242 715.172 410.086 715.172C413.008 715.172 415.297 715.906 416.953 717.375C418.609 718.828 419.469 720.836 419.531 723.398V735.07C419.531 737.398 419.828 739.25 420.422 740.625V741H415.875ZM408.68 737.695C410.039 737.695 411.328 737.344 412.547 736.641C413.766 735.938 414.648 735.023 415.195 733.898V728.695H411.797C406.484 728.695 403.828 730.25 403.828 733.359C403.828 734.719 404.281 735.781 405.188 736.547C406.094 737.312 407.258 737.695 408.68 737.695ZM428.461 741V718.992H424.453V715.641H428.461V713.039C428.461 710.32 429.188 708.219 430.641 706.734C432.094 705.25 434.148 704.508 436.805 704.508C437.805 704.508 438.797 704.641 439.781 704.906L439.547 708.422C438.812 708.281 438.031 708.211 437.203 708.211C435.797 708.211 434.711 708.625 433.945 709.453C433.18 710.266 432.797 711.438 432.797 712.969V715.641H438.211V718.992H432.797V741H428.461ZM448.898 709.5V715.641H453.633V718.992H448.898V734.719C448.898 735.734 449.109 736.5 449.531 737.016C449.953 737.516 450.672 737.766 451.688 737.766C452.188 737.766 452.875 737.672 453.75 737.484V741C452.609 741.312 451.5 741.469 450.422 741.469C448.484 741.469 447.023 740.883 446.039 739.711C445.055 738.539 444.562 736.875 444.562 734.719V718.992H439.945V715.641H444.562V709.5H448.898ZM469.242 741.469C465.805 741.469 463.008 740.344 460.852 738.094C458.695 735.828 457.617 732.805 457.617 729.023V728.227C457.617 725.711 458.094 723.469 459.047 721.5C460.016 719.516 461.359 717.969 463.078 716.859C464.812 715.734 466.688 715.172 468.703 715.172C472 715.172 474.562 716.258 476.391 718.43C478.219 720.602 479.133 723.711 479.133 727.758V729.562H461.953C462.016 732.062 462.742 734.086 464.133 735.633C465.539 737.164 467.32 737.93 469.477 737.93C471.008 737.93 472.305 737.617 473.367 736.992C474.43 736.367 475.359 735.539 476.156 734.508L478.805 736.57C476.68 739.836 473.492 741.469 469.242 741.469ZM468.703 718.734C466.953 718.734 465.484 719.375 464.297 720.656C463.109 721.922 462.375 723.703 462.094 726H474.797V725.672C474.672 723.469 474.078 721.766 473.016 720.562C471.953 719.344 470.516 718.734 468.703 718.734ZM496.43 719.531C495.773 719.422 495.062 719.367 494.297 719.367C491.453 719.367 489.523 720.578 488.508 723V741H484.172V715.641H488.391L488.461 718.57C489.883 716.305 491.898 715.172 494.508 715.172C495.352 715.172 495.992 715.281 496.43 715.5V719.531ZM533.812 728.602C533.812 732.477 532.922 735.594 531.141 737.953C529.359 740.297 526.969 741.469 523.969 741.469C520.766 741.469 518.289 740.336 516.539 738.07L516.328 741H512.344V705H516.68V718.43C518.43 716.258 520.844 715.172 523.922 715.172C527 715.172 529.414 716.336 531.164 718.664C532.93 720.992 533.812 724.18 533.812 728.227V728.602ZM529.477 728.109C529.477 725.156 528.906 722.875 527.766 721.266C526.625 719.656 524.984 718.852 522.844 718.852C519.984 718.852 517.93 720.18 516.68 722.836V733.805C518.008 736.461 520.078 737.789 522.891 737.789C524.969 737.789 526.586 736.984 527.742 735.375C528.898 733.766 529.477 731.344 529.477 728.109ZM549.82 741.469C546.383 741.469 543.586 740.344 541.43 738.094C539.273 735.828 538.195 732.805 538.195 729.023V728.227C538.195 725.711 538.672 723.469 539.625 721.5C540.594 719.516 541.938 717.969 543.656 716.859C545.391 715.734 547.266 715.172 549.281 715.172C552.578 715.172 555.141 716.258 556.969 718.43C558.797 720.602 559.711 723.711 559.711 727.758V729.562H542.531C542.594 732.062 543.32 734.086 544.711 735.633C546.117 737.164 547.898 737.93 550.055 737.93C551.586 737.93 552.883 737.617 553.945 736.992C555.008 736.367 555.938 735.539 556.734 734.508L559.383 736.57C557.258 739.836 554.07 741.469 549.82 741.469ZM549.281 718.734C547.531 718.734 546.062 719.375 544.875 720.656C543.688 721.922 542.953 723.703 542.672 726H555.375V725.672C555.25 723.469 554.656 721.766 553.594 720.562C552.531 719.344 551.094 718.734 549.281 718.734ZM569.461 741H565.125V715.641H569.461V741ZM564.773 708.914C564.773 708.211 564.984 707.617 565.406 707.133C565.844 706.648 566.484 706.406 567.328 706.406C568.172 706.406 568.812 706.648 569.25 707.133C569.688 707.617 569.906 708.211 569.906 708.914C569.906 709.617 569.688 710.203 569.25 710.672C568.812 711.141 568.172 711.375 567.328 711.375C566.484 711.375 565.844 711.141 565.406 710.672C564.984 710.203 564.773 709.617 564.773 708.914ZM580.523 715.641L580.664 718.828C582.602 716.391 585.133 715.172 588.258 715.172C593.617 715.172 596.32 718.195 596.367 724.242V741H592.031V724.219C592.016 722.391 591.594 721.039 590.766 720.164C589.953 719.289 588.68 718.852 586.945 718.852C585.539 718.852 584.305 719.227 583.242 719.977C582.18 720.727 581.352 721.711 580.758 722.93V741H576.422V715.641H580.523ZM601.875 728.109C601.875 724.156 602.789 721.016 604.617 718.688C606.445 716.344 608.867 715.172 611.883 715.172C614.977 715.172 617.391 716.266 619.125 718.453L619.336 715.641H623.297V740.391C623.297 743.672 622.32 746.258 620.367 748.148C618.43 750.039 615.82 750.984 612.539 750.984C610.711 750.984 608.922 750.594 607.172 749.812C605.422 749.031 604.086 747.961 603.164 746.602L605.414 744C607.273 746.297 609.547 747.445 612.234 747.445C614.344 747.445 615.984 746.852 617.156 745.664C618.344 744.477 618.938 742.805 618.938 740.648V738.469C617.203 740.469 614.836 741.469 611.836 741.469C608.867 741.469 606.461 740.273 604.617 737.883C602.789 735.492 601.875 732.234 601.875 728.109ZM606.234 728.602C606.234 731.461 606.82 733.711 607.992 735.352C609.164 736.977 610.805 737.789 612.914 737.789C615.648 737.789 617.656 736.547 618.938 734.062V722.484C617.609 720.062 615.617 718.852 612.961 718.852C610.852 718.852 609.203 719.672 608.016 721.312C606.828 722.953 606.234 725.383 606.234 728.602ZM36.1641 765.5V771.641H40.8984V774.992H36.1641V790.719C36.1641 791.734 36.375 792.5 36.7969 793.016C37.2188 793.516 37.9375 793.766 38.9531 793.766C39.4531 793.766 40.1406 793.672 41.0156 793.484V797C39.875 797.312 38.7656 797.469 37.6875 797.469C35.75 797.469 34.2891 796.883 33.3047 795.711C32.3203 794.539 31.8281 792.875 31.8281 790.719V774.992H27.2109V771.641H31.8281V765.5H36.1641ZM44.3672 784.086C44.3672 781.602 44.8516 779.367 45.8203 777.383C46.8047 775.398 48.1641 773.867 49.8984 772.789C51.6484 771.711 53.6406 771.172 55.875 771.172C59.3281 771.172 62.1172 772.367 64.2422 774.758C66.3828 777.148 67.4531 780.328 67.4531 784.297V784.602C67.4531 787.07 66.9766 789.289 66.0234 791.258C65.0859 793.211 63.7344 794.734 61.9688 795.828C60.2188 796.922 58.2031 797.469 55.9219 797.469C52.4844 797.469 49.6953 796.273 47.5547 793.883C45.4297 791.492 44.3672 788.328 44.3672 784.391V784.086ZM48.7266 784.602C48.7266 787.414 49.375 789.672 50.6719 791.375C51.9844 793.078 53.7344 793.93 55.9219 793.93C58.125 793.93 59.875 793.07 61.1719 791.352C62.4688 789.617 63.1172 787.195 63.1172 784.086C63.1172 781.305 62.4531 779.055 61.125 777.336C59.8125 775.602 58.0625 774.734 55.875 774.734C53.7344 774.734 52.0078 775.586 50.6953 777.289C49.3828 778.992 48.7266 781.43 48.7266 784.602ZM71.8594 784.109C71.8594 780.156 72.7734 777.016 74.6016 774.688C76.4297 772.344 78.8516 771.172 81.8672 771.172C84.9609 771.172 87.375 772.266 89.1094 774.453L89.3203 771.641H93.2812V796.391C93.2812 799.672 92.3047 802.258 90.3516 804.148C88.4141 806.039 85.8047 806.984 82.5234 806.984C80.6953 806.984 78.9062 806.594 77.1562 805.812C75.4062 805.031 74.0703 803.961 73.1484 802.602L75.3984 800C77.2578 802.297 79.5312 803.445 82.2188 803.445C84.3281 803.445 85.9688 802.852 87.1406 801.664C88.3281 800.477 88.9219 798.805 88.9219 796.648V794.469C87.1875 796.469 84.8203 797.469 81.8203 797.469C78.8516 797.469 76.4453 796.273 74.6016 793.883C72.7734 791.492 71.8594 788.234 71.8594 784.109ZM76.2188 784.602C76.2188 787.461 76.8047 789.711 77.9766 791.352C79.1484 792.977 80.7891 793.789 82.8984 793.789C85.6328 793.789 87.6406 792.547 88.9219 790.062V778.484C87.5938 776.062 85.6016 774.852 82.9453 774.852C80.8359 774.852 79.1875 775.672 78 777.312C76.8125 778.953 76.2188 781.383 76.2188 784.602ZM110.367 797.469C106.93 797.469 104.133 796.344 101.977 794.094C99.8203 791.828 98.7422 788.805 98.7422 785.023V784.227C98.7422 781.711 99.2188 779.469 100.172 777.5C101.141 775.516 102.484 773.969 104.203 772.859C105.938 771.734 107.812 771.172 109.828 771.172C113.125 771.172 115.688 772.258 117.516 774.43C119.344 776.602 120.258 779.711 120.258 783.758V785.562H103.078C103.141 788.062 103.867 790.086 105.258 791.633C106.664 793.164 108.445 793.93 110.602 793.93C112.133 793.93 113.43 793.617 114.492 792.992C115.555 792.367 116.484 791.539 117.281 790.508L119.93 792.57C117.805 795.836 114.617 797.469 110.367 797.469ZM109.828 774.734C108.078 774.734 106.609 775.375 105.422 776.656C104.234 777.922 103.5 779.703 103.219 782H115.922V781.672C115.797 779.469 115.203 777.766 114.141 776.562C113.078 775.344 111.641 774.734 109.828 774.734ZM131.18 765.5V771.641H135.914V774.992H131.18V790.719C131.18 791.734 131.391 792.5 131.812 793.016C132.234 793.516 132.953 793.766 133.969 793.766C134.469 793.766 135.156 793.672 136.031 793.484V797C134.891 797.312 133.781 797.469 132.703 797.469C130.766 797.469 129.305 796.883 128.32 795.711C127.336 794.539 126.844 792.875 126.844 790.719V774.992H122.227V771.641H126.844V765.5H131.18ZM145.336 774.711C147.258 772.352 149.758 771.172 152.836 771.172C158.195 771.172 160.898 774.195 160.945 780.242V797H156.609V780.219C156.594 778.391 156.172 777.039 155.344 776.164C154.531 775.289 153.258 774.852 151.523 774.852C150.117 774.852 148.883 775.227 147.82 775.977C146.758 776.727 145.93 777.711 145.336 778.93V797H141V761H145.336V774.711ZM177.961 797.469C174.523 797.469 171.727 796.344 169.57 794.094C167.414 791.828 166.336 788.805 166.336 785.023V784.227C166.336 781.711 166.812 779.469 167.766 777.5C168.734 775.516 170.078 773.969 171.797 772.859C173.531 771.734 175.406 771.172 177.422 771.172C180.719 771.172 183.281 772.258 185.109 774.43C186.938 776.602 187.852 779.711 187.852 783.758V785.562H170.672C170.734 788.062 171.461 790.086 172.852 791.633C174.258 793.164 176.039 793.93 178.195 793.93C179.727 793.93 181.023 793.617 182.086 792.992C183.148 792.367 184.078 791.539 184.875 790.508L187.523 792.57C185.398 795.836 182.211 797.469 177.961 797.469ZM177.422 774.734C175.672 774.734 174.203 775.375 173.016 776.656C171.828 777.922 171.094 779.703 170.812 782H183.516V781.672C183.391 779.469 182.797 777.766 181.734 776.562C180.672 775.344 179.234 774.734 177.422 774.734ZM205.148 775.531C204.492 775.422 203.781 775.367 203.016 775.367C200.172 775.367 198.242 776.578 197.227 779V797H192.891V771.641H197.109L197.18 774.57C198.602 772.305 200.617 771.172 203.227 771.172C204.07 771.172 204.711 771.281 205.148 771.5V775.531ZM243.516 791.023L248.391 771.641H252.727L245.344 797H241.828L235.664 777.781L229.664 797H226.148L218.789 771.641H223.102L228.094 790.625L234 771.641H237.492L243.516 791.023ZM261.867 797H257.531V771.641H261.867V797ZM257.18 764.914C257.18 764.211 257.391 763.617 257.812 763.133C258.25 762.648 258.891 762.406 259.734 762.406C260.578 762.406 261.219 762.648 261.656 763.133C262.094 763.617 262.312 764.211 262.312 764.914C262.312 765.617 262.094 766.203 261.656 766.672C261.219 767.141 260.578 767.375 259.734 767.375C258.891 767.375 258.25 767.141 257.812 766.672C257.391 766.203 257.18 765.617 257.18 764.914ZM274.711 765.5V771.641H279.445V774.992H274.711V790.719C274.711 791.734 274.922 792.5 275.344 793.016C275.766 793.516 276.484 793.766 277.5 793.766C278 793.766 278.688 793.672 279.562 793.484V797C278.422 797.312 277.312 797.469 276.234 797.469C274.297 797.469 272.836 796.883 271.852 795.711C270.867 794.539 270.375 792.875 270.375 790.719V774.992H265.758V771.641H270.375V765.5H274.711ZM288.867 774.711C290.789 772.352 293.289 771.172 296.367 771.172C301.727 771.172 304.43 774.195 304.477 780.242V797H300.141V780.219C300.125 778.391 299.703 777.039 298.875 776.164C298.062 775.289 296.789 774.852 295.055 774.852C293.648 774.852 292.414 775.227 291.352 775.977C290.289 776.727 289.461 777.711 288.867 778.93V797H284.531V761H288.867V774.711ZM342.844 781.227H328.055V793.32H345.234V797H323.555V762.875H345V766.578H328.055V777.547H342.844V781.227ZM362.414 775.531C361.758 775.422 361.047 775.367 360.281 775.367C357.438 775.367 355.508 776.578 354.492 779V797H350.156V771.641H354.375L354.445 774.57C355.867 772.305 357.883 771.172 360.492 771.172C361.336 771.172 361.977 771.281 362.414 771.5V775.531ZM371.133 797H366.797V771.641H371.133V797ZM366.445 764.914C366.445 764.211 366.656 763.617 367.078 763.133C367.516 762.648 368.156 762.406 369 762.406C369.844 762.406 370.484 762.648 370.922 763.133C371.359 763.617 371.578 764.211 371.578 764.914C371.578 765.617 371.359 766.203 370.922 766.672C370.484 767.141 369.844 767.375 369 767.375C368.156 767.375 367.516 767.141 367.078 766.672C366.656 766.203 366.445 765.617 366.445 764.914ZM388.266 793.93C389.812 793.93 391.164 793.461 392.32 792.523C393.477 791.586 394.117 790.414 394.242 789.008H398.344C398.266 790.461 397.766 791.844 396.844 793.156C395.922 794.469 394.688 795.516 393.141 796.297C391.609 797.078 389.984 797.469 388.266 797.469C384.812 797.469 382.062 796.32 380.016 794.023C377.984 791.711 376.969 788.555 376.969 784.555V783.828C376.969 781.359 377.422 779.164 378.328 777.242C379.234 775.32 380.531 773.828 382.219 772.766C383.922 771.703 385.93 771.172 388.242 771.172C391.086 771.172 393.445 772.023 395.32 773.727C397.211 775.43 398.219 777.641 398.344 780.359H394.242C394.117 778.719 393.492 777.375 392.367 776.328C391.258 775.266 389.883 774.734 388.242 774.734C386.039 774.734 384.328 775.531 383.109 777.125C381.906 778.703 381.305 780.992 381.305 783.992V784.812C381.305 787.734 381.906 789.984 383.109 791.562C384.312 793.141 386.031 793.93 388.266 793.93ZM417.258 797V774.992H413.25V771.641H417.258V769.039C417.258 766.32 417.984 764.219 419.438 762.734C420.891 761.25 422.945 760.508 425.602 760.508C426.602 760.508 427.594 760.641 428.578 760.906L428.344 764.422C427.609 764.281 426.828 764.211 426 764.211C424.594 764.211 423.508 764.625 422.742 765.453C421.977 766.266 421.594 767.438 421.594 768.969V771.641H427.008V774.992H421.594V797H417.258ZM430.664 784.086C430.664 781.602 431.148 779.367 432.117 777.383C433.102 775.398 434.461 773.867 436.195 772.789C437.945 771.711 439.938 771.172 442.172 771.172C445.625 771.172 448.414 772.367 450.539 774.758C452.68 777.148 453.75 780.328 453.75 784.297V784.602C453.75 787.07 453.273 789.289 452.32 791.258C451.383 793.211 450.031 794.734 448.266 795.828C446.516 796.922 444.5 797.469 442.219 797.469C438.781 797.469 435.992 796.273 433.852 793.883C431.727 791.492 430.664 788.328 430.664 784.391V784.086ZM435.023 784.602C435.023 787.414 435.672 789.672 436.969 791.375C438.281 793.078 440.031 793.93 442.219 793.93C444.422 793.93 446.172 793.07 447.469 791.352C448.766 789.617 449.414 787.195 449.414 784.086C449.414 781.305 448.75 779.055 447.422 777.336C446.109 775.602 444.359 774.734 442.172 774.734C440.031 774.734 438.305 775.586 436.992 777.289C435.68 778.992 435.023 781.43 435.023 784.602ZM471.445 775.531C470.789 775.422 470.078 775.367 469.312 775.367C466.469 775.367 464.539 776.578 463.523 779V797H459.188V771.641H463.406L463.477 774.57C464.898 772.305 466.914 771.172 469.523 771.172C470.367 771.172 471.008 771.281 471.445 771.5V775.531ZM488.906 779.891L490.641 762.875H508.125V766.883H494.32L493.289 776.188C494.961 775.203 496.859 774.711 498.984 774.711C502.094 774.711 504.562 775.742 506.391 777.805C508.219 779.852 509.133 782.625 509.133 786.125C509.133 789.641 508.18 792.414 506.273 794.445C504.383 796.461 501.734 797.469 498.328 797.469C495.312 797.469 492.852 796.633 490.945 794.961C489.039 793.289 487.953 790.977 487.688 788.023H491.789C492.055 789.977 492.75 791.453 493.875 792.453C495 793.438 496.484 793.93 498.328 793.93C500.344 793.93 501.922 793.242 503.062 791.867C504.219 790.492 504.797 788.594 504.797 786.172C504.797 783.891 504.172 782.062 502.922 780.688C501.688 779.297 500.039 778.602 497.977 778.602C496.086 778.602 494.602 779.016 493.523 779.844L492.375 780.781L488.906 779.891ZM534.562 771.781C534.562 773.484 534.109 775 533.203 776.328C532.312 777.656 531.102 778.695 529.57 779.445C531.352 780.211 532.758 781.328 533.789 782.797C534.836 784.266 535.359 785.93 535.359 787.789C535.359 790.742 534.359 793.094 532.359 794.844C530.375 796.594 527.758 797.469 524.508 797.469C521.227 797.469 518.594 796.594 516.609 794.844C514.641 793.078 513.656 790.727 513.656 787.789C513.656 785.945 514.156 784.281 515.156 782.797C516.172 781.312 517.57 780.188 519.352 779.422C517.836 778.672 516.641 777.633 515.766 776.305C514.891 774.977 514.453 773.469 514.453 771.781C514.453 768.906 515.375 766.625 517.219 764.938C519.062 763.25 521.492 762.406 524.508 762.406C527.508 762.406 529.93 763.25 531.773 764.938C533.633 766.625 534.562 768.906 534.562 771.781ZM531.023 787.695C531.023 785.789 530.414 784.234 529.195 783.031C527.992 781.828 526.414 781.227 524.461 781.227C522.508 781.227 520.938 781.82 519.75 783.008C518.578 784.195 517.992 785.758 517.992 787.695C517.992 789.633 518.562 791.156 519.703 792.266C520.859 793.375 522.461 793.93 524.508 793.93C526.539 793.93 528.133 793.375 529.289 792.266C530.445 791.141 531.023 789.617 531.023 787.695ZM524.508 765.969C522.805 765.969 521.422 766.5 520.359 767.562C519.312 768.609 518.789 770.039 518.789 771.852C518.789 773.586 519.305 774.992 520.336 776.07C521.383 777.133 522.773 777.664 524.508 777.664C526.242 777.664 527.625 777.133 528.656 776.07C529.703 774.992 530.227 773.586 530.227 771.852C530.227 770.117 529.688 768.703 528.609 767.609C527.531 766.516 526.164 765.969 524.508 765.969ZM557.25 771.641L557.367 774.453C559.227 772.266 561.734 771.172 564.891 771.172C568.438 771.172 570.852 772.531 572.133 775.25C572.977 774.031 574.07 773.047 575.414 772.297C576.773 771.547 578.375 771.172 580.219 771.172C585.781 771.172 588.609 774.117 588.703 780.008V797H584.367V780.266C584.367 778.453 583.953 777.102 583.125 776.211C582.297 775.305 580.906 774.852 578.953 774.852C577.344 774.852 576.008 775.336 574.945 776.305C573.883 777.258 573.266 778.547 573.094 780.172V797H568.734V780.383C568.734 776.695 566.93 774.852 563.32 774.852C560.477 774.852 558.531 776.062 557.484 778.484V797H553.148V771.641H557.25ZM594.117 784.086C594.117 781.602 594.602 779.367 595.57 777.383C596.555 775.398 597.914 773.867 599.648 772.789C601.398 771.711 603.391 771.172 605.625 771.172C609.078 771.172 611.867 772.367 613.992 774.758C616.133 777.148 617.203 780.328 617.203 784.297V784.602C617.203 787.07 616.727 789.289 615.773 791.258C614.836 793.211 613.484 794.734 611.719 795.828C609.969 796.922 607.953 797.469 605.672 797.469C602.234 797.469 599.445 796.273 597.305 793.883C595.18 791.492 594.117 788.328 594.117 784.391V784.086ZM598.477 784.602C598.477 787.414 599.125 789.672 600.422 791.375C601.734 793.078 603.484 793.93 605.672 793.93C607.875 793.93 609.625 793.07 610.922 791.352C612.219 789.617 612.867 787.195 612.867 784.086C612.867 781.305 612.203 779.055 610.875 777.336C609.562 775.602 607.812 774.734 605.625 774.734C603.484 774.734 601.758 775.586 600.445 777.289C599.133 778.992 598.477 781.43 598.477 784.602ZM626.742 771.641L626.883 774.828C628.82 772.391 631.352 771.172 634.477 771.172C639.836 771.172 642.539 774.195 642.586 780.242V797H638.25V780.219C638.234 778.391 637.812 777.039 636.984 776.164C636.172 775.289 634.898 774.852 633.164 774.852C631.758 774.852 630.523 775.227 629.461 775.977C628.398 776.727 627.57 777.711 626.977 778.93V797H622.641V771.641H626.742ZM655.008 765.5V771.641H659.742V774.992H655.008V790.719C655.008 791.734 655.219 792.5 655.641 793.016C656.062 793.516 656.781 793.766 657.797 793.766C658.297 793.766 658.984 793.672 659.859 793.484V797C658.719 797.312 657.609 797.469 656.531 797.469C654.594 797.469 653.133 796.883 652.148 795.711C651.164 794.539 650.672 792.875 650.672 790.719V774.992H646.055V771.641H650.672V765.5H655.008ZM669.164 774.711C671.086 772.352 673.586 771.172 676.664 771.172C682.023 771.172 684.727 774.195 684.773 780.242V797H680.438V780.219C680.422 778.391 680 777.039 679.172 776.164C678.359 775.289 677.086 774.852 675.352 774.852C673.945 774.852 672.711 775.227 671.648 775.977C670.586 776.727 669.758 777.711 669.164 778.93V797H664.828V761H669.164V774.711ZM706.031 790.273C706.031 789.102 705.586 788.195 704.695 787.555C703.82 786.898 702.281 786.336 700.078 785.867C697.891 785.398 696.148 784.836 694.852 784.18C693.57 783.523 692.617 782.742 691.992 781.836C691.383 780.93 691.078 779.852 691.078 778.602C691.078 776.523 691.953 774.766 693.703 773.328C695.469 771.891 697.719 771.172 700.453 771.172C703.328 771.172 705.656 771.914 707.438 773.398C709.234 774.883 710.133 776.781 710.133 779.094H705.773C705.773 777.906 705.266 776.883 704.25 776.023C703.25 775.164 701.984 774.734 700.453 774.734C698.875 774.734 697.641 775.078 696.75 775.766C695.859 776.453 695.414 777.352 695.414 778.461C695.414 779.508 695.828 780.297 696.656 780.828C697.484 781.359 698.977 781.867 701.133 782.352C703.305 782.836 705.062 783.414 706.406 784.086C707.75 784.758 708.742 785.57 709.383 786.523C710.039 787.461 710.367 788.609 710.367 789.969C710.367 792.234 709.461 794.055 707.648 795.43C705.836 796.789 703.484 797.469 700.594 797.469C698.562 797.469 696.766 797.109 695.203 796.391C693.641 795.672 692.414 794.672 691.523 793.391C690.648 792.094 690.211 790.695 690.211 789.195H694.547C694.625 790.648 695.203 791.805 696.281 792.664C697.375 793.508 698.812 793.93 700.594 793.93C702.234 793.93 703.547 793.602 704.531 792.945C705.531 792.273 706.031 791.383 706.031 790.273ZM716.109 794.727C716.109 793.977 716.328 793.352 716.766 792.852C717.219 792.352 717.891 792.102 718.781 792.102C719.672 792.102 720.344 792.352 720.797 792.852C721.266 793.352 721.5 793.977 721.5 794.727C721.5 795.445 721.266 796.047 720.797 796.531C720.344 797.016 719.672 797.258 718.781 797.258C717.891 797.258 717.219 797.016 716.766 796.531C716.328 796.047 716.109 795.445 716.109 794.727Z" fill="black"/>
<path d="M70.6045 78.389C70.6045 80.9639 70.0576 83.2881 68.9639 85.3617C67.8929 87.4125 66.4574 89.1556 64.6572 90.5912C62.8571 92.0267 60.7721 93.1319 58.4023 93.9066C56.0553 94.6814 53.6058 95.0687 51.0537 95.0687H50.7119C48.1826 95.0004 45.79 94.7041 43.5342 94.1801C41.3011 93.6788 39.2959 92.9838 37.5186 92.0951C35.7412 91.2064 34.2373 90.1582 33.0068 88.9506C31.7992 87.7201 30.9788 86.3529 30.5459 84.849C30.2725 83.8692 30.1357 82.9122 30.1357 81.9779C30.1357 81.0209 30.2952 80.1778 30.6143 79.4486C30.9333 78.6967 31.3548 78.0814 31.8789 77.6029C32.4258 77.1016 33.0524 76.7256 33.7588 76.475C34.4652 76.2015 35.2171 76.0534 36.0146 76.0306C36.9717 76.0306 37.8717 76.2471 38.7148 76.6801C39.5579 77.113 40.2871 77.7168 40.9023 78.4916C41.5176 79.2663 41.9961 80.1892 42.3379 81.2601C42.7025 82.3083 42.8848 83.459 42.8848 84.7123C42.8848 85.7832 43.0101 86.8542 43.2607 87.9252C43.5342 88.9733 43.9671 89.9304 44.5596 90.7963C45.1748 91.6622 45.9837 92.3799 46.9863 92.9496C47.9889 93.4965 49.2308 93.7813 50.7119 93.8041C51.8057 93.8497 52.7969 93.5079 53.6855 92.7787C54.597 92.0495 55.3717 91.0811 56.0098 89.8734C56.6478 88.6657 57.1377 87.2872 57.4795 85.7377C57.8213 84.1654 57.9922 82.559 57.9922 80.9183C57.9922 79.0498 57.7301 77.2725 57.2061 75.5863C56.682 73.9001 55.8958 72.4304 54.8477 71.1771C53.8223 69.9011 52.5234 68.8985 50.9512 68.1693C49.4017 67.4174 47.6016 67.0414 45.5508 67.0414C44.7305 67.0414 43.8532 67.1211 42.9189 67.2806C41.9847 67.4401 40.9935 67.725 39.9453 68.1351C38.9199 68.5453 37.8376 69.1036 36.6982 69.8099C35.5589 70.4935 34.374 71.3708 33.1436 72.4418L38.0996 46.4652L68.2119 45.5082L68.3486 57.266L37.6211 57.0609L35.2627 68.3744C36.083 67.5769 36.9375 66.8705 37.8262 66.2552C38.7148 65.64 39.5921 65.1045 40.458 64.6488C41.3467 64.1931 42.2126 63.8057 43.0557 63.4867C43.9215 63.1677 44.7305 62.9056 45.4824 62.7006C47.2598 62.222 49.0029 61.9258 50.7119 61.8119C53.8109 61.8575 56.5908 62.3018 59.0518 63.1449C61.5127 63.9652 63.5977 65.1045 65.3066 66.5629C67.0156 67.9984 68.3258 69.7302 69.2373 71.7582C70.1488 73.7634 70.6045 75.9737 70.6045 78.389Z" fill="black"/>
<path d="M130.738 351.739C127.149 335.909 129.416 333.444 130.738 319.027C130.738 319.027 126.789 322.029 113.56 325.138C100.332 328.246 89.979 328.246 84.1316 328.246C78.2843 328.246 69.6031 325.763 59.0167 325.138C54.0523 324.885 47.8971 319.137 41.6663 314.628C35.4355 310.119 33.6222 306.101 27 294.794C38.2095 289.43 63.0428 291.093 69.7529 290.205C76.463 289.317 92.9506 287.985 103.495 284.284C114.039 280.584 122.189 269.578 131.319 258.659C149.004 232.485 161.623 240.103 165.569 235.464C169.514 230.824 233.548 227.039 243.632 233.531C253.716 240.023 282.023 245.056 286.77 262.971C299.985 267.287 305.073 279.394 315.617 283.095C326.162 286.795 342.649 288.127 349.359 289.015C356.069 289.904 382.79 277.731 394 283.095C387.378 294.402 383.677 308.93 377.446 313.439C371.215 317.947 365.06 323.696 360.095 323.948C349.509 324.574 340.828 327.057 334.98 327.057C329.133 327.057 318.78 327.057 305.552 323.948C293.923 321.215 288.225 315.165 287.017 313.743C290.014 318.013 290.511 340.9 282.994 355.902C275.274 371.308 271.86 364.963 264.21 367.649C256.559 370.334 223.432 374.593 223.432 370.92C223.432 367.247 199.934 370.92 191.433 370.92C182.932 370.92 161.132 367.649 161.132 367.649C161.132 367.649 134.327 367.569 130.738 351.739Z" fill="#93BE37" fill-opacity="0.8"/>
<path d="M130.738 280.746C130.74 293.009 131.204 299.119 131.306 305.065M131.306 305.065C131.377 309.15 131.276 313.157 130.738 319.027M131.306 305.065C131.346 305.354 131.351 305.647 131.319 305.943M131.306 305.065C130.592 299.827 118.54 295.682 107.895 295.682C96.662 295.682 104.78 292.004 86.8452 295.682C68.9105 299.361 59.5924 300.994 43.4244 298.359M130.738 319.027C129.416 333.444 127.149 335.909 130.738 351.739C134.327 367.569 161.132 367.649 161.132 367.649C161.132 367.649 182.932 370.92 191.433 370.92C199.934 370.92 223.432 367.247 223.432 370.92C223.432 374.593 256.559 370.334 264.21 367.649C271.86 364.963 275.274 371.308 282.994 355.902C290.511 340.9 290.014 318.013 287.017 313.743M130.738 319.027C130.738 319.027 126.789 322.029 113.56 325.138C100.332 328.246 89.979 328.246 84.1317 328.246C78.2843 328.246 69.6031 325.763 59.0167 325.138C54.0523 324.885 47.8971 319.137 41.6663 314.628C35.4355 310.119 33.6222 306.101 27 294.794C38.2095 289.43 63.0428 291.093 69.7529 290.205C76.463 289.317 92.9506 287.985 103.495 284.284C114.039 280.584 122.189 269.578 131.319 258.659M287.017 313.743C286.936 313.628 286.854 313.526 286.77 313.439M287.017 313.743C288.225 315.165 293.923 321.215 305.552 323.948C318.78 327.057 329.133 327.057 334.981 327.057C340.828 327.057 349.509 324.574 360.095 323.948C365.06 323.696 371.215 317.947 377.446 313.439C383.677 308.93 387.378 294.402 394 283.095C382.79 277.731 356.069 289.904 349.359 289.015C342.649 288.127 326.162 286.795 315.617 283.095C305.073 279.394 299.985 267.287 286.77 262.971M287.017 313.743C286.851 313.547 286.77 313.439 286.77 313.439M286.77 313.439C283.558 310.102 286.77 280.746 286.77 280.746M131.319 258.659C149.004 232.485 161.623 240.103 165.569 235.464C169.514 230.824 233.548 227.039 243.632 233.531C253.716 240.023 282.023 245.056 286.77 262.971M131.319 258.659C128.989 263.672 129.511 265.35 129.511 270.703M286.77 262.971C288.133 267.456 287.255 268.469 287.43 272.041M285.632 295.682C285.023 290.037 298.023 288.725 309.255 288.725C320.488 288.725 324.055 294.83 341.989 298.508C359.924 302.187 365.372 295.642 381.54 293.007" stroke="black" stroke-width="5"/>
<path d="M205.483 309.312C204.55 310.332 204 310.409 202.948 309.312C203.583 303.526 203.87 304.865 205.483 302.932C207.097 300.999 216.776 300.999 218.447 302.932C220.118 304.865 220.251 303.006 220.694 308.635C219.851 309.967 219.527 310.523 218.447 309.312" stroke="black" stroke-width="5"/>
<path d="M179.145 280.746C183.575 286.501 185.375 291.6 188.679 302.157C187.815 305.257 187.358 307.361 185.375 310.335C183.393 313.309 177.729 319.405 173.199 320.446C168.668 321.487 157.718 320.595 152.621 317.472C147.524 314.35 142.615 307.956 143.842 297.696C145.069 287.437 149.128 283.422 151.677 280.746C154.226 278.069 158.058 276.241 162.438 274.055C168.391 272.842 171.484 273.041 179.145 280.746Z" fill="black"/>
<path d="M151.677 280.746C154.226 278.069 158.058 276.241 162.438 274.055C168.391 272.842 171.484 273.041 179.145 280.746C183.575 286.501 185.375 291.6 188.679 302.157C187.815 305.257 187.358 307.361 185.375 310.335M151.677 280.746C149.128 283.422 145.069 287.437 143.842 297.696C142.615 307.956 147.524 314.35 152.621 317.472M151.677 280.746C148.525 287.072 145.273 298.063 146.124 304.402C146.976 310.74 149.692 312.9 152.621 317.472M152.621 317.472C157.718 320.595 168.668 321.487 173.199 320.446C177.729 319.405 183.393 313.309 185.375 310.335M185.375 310.335C186.453 307.374 186.525 304.536 186.619 302.157C186.713 299.778 186.249 296.817 185.958 293.846" stroke="black" stroke-width="5"/>
<path d="M169.438 297.246C169.562 296.652 170.08 295.926 170.555 295.55C171.043 295.1 171.051 295.126 171.796 295.041C172.541 294.956 172.727 295.126 173.223 295.55C173.72 295.974 173.844 296.822 173.968 297.585C174.092 298.349 174.061 298.243 174.061 299.26C174.061 300.278 173.999 300.13 173.751 300.639C173.502 301.148 172.975 301.317 172.541 301.487C172.106 301.656 171.362 301.487 171.362 301.487C171.362 301.487 170.276 301.063 170.089 300.639C169.903 300.215 169.562 299.96 169.438 298.858C169.314 297.755 169.314 297.84 169.438 297.246Z" fill="#FFFFFD"/>
<path d="M156.834 290.444C157.018 289.364 157.785 288.043 158.487 287.36C159.21 286.542 159.222 286.589 160.324 286.434C161.426 286.28 161.702 286.589 162.436 287.36C163.171 288.131 163.355 289.673 163.539 291.061C163.722 292.448 163.676 292.256 163.676 294.106C163.676 295.956 163.584 295.687 163.217 296.612C162.85 297.537 162.069 297.846 161.426 298.154C160.783 298.462 159.681 298.154 159.681 298.154C159.681 298.154 158.074 297.383 157.798 296.612C157.523 295.841 157.018 295.378 156.834 293.374C156.65 291.369 156.65 291.523 156.834 290.444Z" fill="#FFFFFD"/>
<path d="M143.86 297.696C145.087 287.437 149.146 283.422 151.695 280.746C148.542 287.072 145.291 298.063 146.142 304.401C146.993 310.74 149.71 312.9 152.638 317.472C147.541 314.349 142.633 307.956 143.86 297.696Z" fill="#FFFFFD" stroke="black" stroke-width="5"/>
<path d="M184.354 289.816C187.074 298.126 185.297 291.6 188.601 302.157C187.737 305.257 186.808 307.807 184.825 310.781C185.903 307.82 185.975 303.628 186.069 301.249C186.164 298.87 184.644 292.787 184.354 289.816Z" fill="#FFFFFD" stroke="black" stroke-width="5"/>
<path d="M240.8 281.745C236.37 287.501 234.57 292.6 231.266 303.157C232.13 306.257 232.588 308.361 234.57 311.335C236.552 314.309 242.216 320.405 246.747 321.446C251.278 322.486 262.227 321.594 267.324 318.472C272.422 315.349 277.33 308.956 276.103 298.696C274.876 288.437 270.817 284.422 268.268 281.745C265.72 279.069 261.887 277.241 257.508 275.054C251.554 273.841 248.462 274.041 240.8 281.745Z" fill="black"/>
<path d="M268.268 281.745C265.72 279.069 261.887 277.241 257.508 275.054C251.554 273.841 248.462 274.041 240.8 281.745C236.37 287.501 234.57 292.6 231.266 303.157C232.13 306.257 232.588 308.361 234.57 311.335M268.268 281.745C270.817 284.422 274.876 288.437 276.103 298.696C277.33 308.956 272.422 315.349 267.324 318.472M268.268 281.745C271.421 288.072 274.672 299.063 273.821 305.401C272.97 311.74 270.253 313.9 267.324 318.472M267.324 318.472C262.227 321.594 251.278 322.486 246.747 321.446C242.216 320.405 236.552 314.309 234.57 311.335M234.57 311.335C233.492 308.373 233.421 305.536 233.326 303.157C233.232 300.778 233.697 297.817 233.987 294.846" stroke="black" stroke-width="5"/>
<path d="M263.078 299.03C262.954 298.437 262.435 297.71 261.961 297.334C261.473 296.884 261.464 296.91 260.72 296.825C259.975 296.74 259.789 296.91 259.292 297.334C258.796 297.758 258.672 298.606 258.548 299.37C258.424 300.133 258.455 300.027 258.455 301.045C258.455 302.062 258.517 301.914 258.765 302.423C259.013 302.932 259.541 303.101 259.975 303.271C260.409 303.441 261.154 303.271 261.154 303.271C261.154 303.271 262.24 302.847 262.426 302.423C262.612 301.999 262.954 301.744 263.078 300.642C263.202 299.539 263.202 299.624 263.078 299.03Z" fill="#FFFFFD"/>
<path d="M254.134 291.836C253.916 290.702 253.003 289.315 252.168 288.597C251.309 287.739 251.294 287.788 249.984 287.626C248.673 287.464 248.346 287.788 247.472 288.597C246.598 289.407 246.38 291.026 246.161 292.483C245.943 293.94 245.997 293.738 245.997 295.681C245.997 297.624 246.107 297.341 246.543 298.312C246.98 299.284 247.909 299.608 248.673 299.931C249.438 300.255 250.748 299.931 250.748 299.931C250.748 299.931 252.66 299.122 252.987 298.312C253.315 297.503 253.916 297.017 254.134 294.912C254.352 292.807 254.352 292.969 254.134 291.836Z" fill="#FFFFFD"/>
<path d="M276.085 298.696C274.858 288.436 270.799 284.422 268.25 281.745C271.403 288.072 274.654 299.063 273.803 305.401C272.952 311.74 270.235 313.9 267.306 318.472C272.404 315.349 277.312 308.956 276.085 298.696Z" fill="#FFFFFD" stroke="black" stroke-width="5"/>
<path d="M235.592 290.816C232.871 299.126 234.648 292.6 231.345 303.157C232.209 306.257 233.138 308.807 235.12 311.781C234.043 308.819 233.971 304.628 233.877 302.249C233.782 299.87 235.302 293.786 235.592 290.816Z" fill="#FFFFFD" stroke="black" stroke-width="5"/>
<path d="M137.062 281.774C145.456 272.931 150.608 271.248 156.951 269.14C163.295 267.033 171.384 268.108 175.559 269.927C179.734 271.746 189.79 282.168 191.666 288.018" stroke="black" stroke-width="5"/>
<path d="M282.725 278.444C274.125 270.107 268.937 268.732 262.547 267.004C256.158 265.276 248.1 266.831 243.971 268.898C239.843 270.964 230.045 281.978 228.31 287.936" stroke="black" stroke-width="5"/>
<path d="M199.42 329.52C213.966 337.235 216.773 330.497 224.349 331.859" stroke="black" stroke-width="5"/>
<path d="M195.4 221.567C194.866 227.259 195.397 229.702 197.663 232.868" stroke="black" stroke-width="5"/>
<path d="M204.129 220.682C202.815 226.243 203.171 228.895 205.542 232.882" stroke="black" stroke-width="5"/>
<path d="M211.717 220.114C213.07 226.022 213.695 230.04 211.346 234.222" stroke="black" stroke-width="5"/>
<path d="M198.135 225.433L199.456 231.083" stroke="black" stroke-width="5"/>
<path d="M206.913 231.083L208.235 236.734" stroke="black" stroke-width="5"/>
<path d="M218.052 221.567L216.73 231.975" stroke="black" stroke-width="5"/>
<path d="M220.374 417.796C220.552 415.963 220.718 414.238 220.873 412.61L220.374 417.796Z" fill="#E07E24" fill-opacity="0.8"/>
<path d="M160.378 367.985C160.378 367.985 133.572 367.905 129.983 352.075C129.983 352.075 125.435 349.101 123.453 360.848C121.471 372.594 121.974 379.585 123.453 385.976C124.932 392.368 129.777 398.02 129.777 398.02L179.523 414.673C195.599 416.289 213.976 420.621 220.374 417.796L220.873 412.61C223.256 387.591 223.419 386.807 222.68 371.313C222.678 371.294 222.677 371.275 222.677 371.256C222.677 367.583 199.179 371.256 190.678 371.256C182.177 371.256 160.378 367.985 160.378 367.985Z" fill="#E07E24" fill-opacity="0.8"/>
<path d="M282.317 357.279C274.597 372.685 271.106 365.299 263.455 367.985C255.844 370.656 223.024 374.884 222.68 371.313C223.419 386.807 223.256 387.591 220.873 412.61C224.101 412.808 253.396 414.491 268.724 411.402C284.96 408.131 283.137 408.875 289.224 398.02C295.311 387.166 293.377 383.597 289.224 371.553C285.071 359.51 282.317 357.279 282.317 357.279Z" fill="#E07E24" fill-opacity="0.8"/>
<path d="M222.677 371.256C222.677 367.583 199.179 371.256 190.678 371.256C182.177 371.256 160.378 367.985 160.378 367.985C160.378 367.985 133.572 367.905 129.983 352.075C129.983 352.075 125.435 349.101 123.453 360.848C121.471 372.594 121.974 379.585 123.453 385.976C124.932 392.368 129.777 398.02 129.777 398.02L179.523 414.673C195.599 416.289 213.976 420.621 220.374 417.796M222.677 371.256C222.677 371.275 222.678 371.294 222.68 371.313M222.677 371.256C222.678 371.275 222.679 371.294 222.68 371.313M220.374 417.796C220.552 415.963 220.718 414.238 220.873 412.61M220.374 417.796L220.873 412.61M220.873 412.61C224.101 412.808 253.396 414.491 268.724 411.402C284.96 408.131 283.137 408.875 289.224 398.02C295.311 387.166 293.377 383.597 289.224 371.553C285.071 359.51 282.317 357.279 282.317 357.279C274.597 372.685 271.106 365.299 263.455 367.985C255.844 370.656 223.024 374.884 222.68 371.313M220.873 412.61C223.256 387.591 223.419 386.807 222.68 371.313" stroke="black" stroke-width="5"/>
<path d="M220.374 418.075C220.552 416.242 220.718 414.517 220.873 412.889L220.374 418.075Z" fill="#BD722D" fill-opacity="0.9"/>
<path d="M149.01 404.846L134.514 400.045C134.514 400.045 129.888 436.176 128.756 443.016C127.623 449.856 121.851 463.646 121.851 463.646C125.25 464.888 144.415 472.159 144.415 472.159C147.178 450.027 148.818 409.732 149.01 404.846Z" fill="#BD722D" fill-opacity="0.9"/>
<path d="M142.611 482.883C143.256 480.337 143.858 476.616 144.415 472.159L121.851 463.646C118.453 462.404 116.454 480.955 118.17 483.44C119.886 485.925 137.819 491.784 140.861 490.002C140.914 489.783 140.967 489.561 141.021 489.335C141.465 487.49 141.979 485.381 142.611 482.883Z" fill="#BD722D" fill-opacity="0.9"/>
<path d="M134.514 400.045C134.514 400.045 129.888 436.176 128.756 443.016C127.623 449.856 121.851 463.646 121.851 463.646C125.25 464.888 144.415 472.159 144.415 472.159C147.178 450.027 148.818 409.732 149.01 404.846L134.514 400.045Z" fill="#BD722D" fill-opacity="0.9"/>
<path d="M220.374 418.075C213.976 420.9 195.598 416.567 179.522 414.952L149.01 404.846C148.818 409.732 147.178 450.027 144.415 472.159C143.858 476.616 143.256 480.337 142.611 482.883C141.979 485.381 141.465 487.49 141.021 489.335C140.967 489.561 140.914 489.783 140.861 490.002C138.599 499.432 138.114 501.921 132.042 516.138C124.682 533.373 114.018 528.275 118.17 543.568C122.322 558.86 138.554 563.351 149.028 568.934C159.503 574.517 194.042 582.649 200.365 580.707C206.687 578.765 215.714 577.195 244.151 577.915C272.589 578.636 268.273 570.083 284.069 568.084C323.374 563.112 323.798 543.568 313.701 534.586C303.603 525.605 304.924 526.09 298.791 507.399C295.75 498.135 293.489 492.885 291.637 488.218C289.753 483.468 288.292 479.321 286.864 472.159C284.033 457.959 279.54 409.697 279.54 409.697L268.724 411.681C253.396 414.769 224.1 413.087 220.873 412.889C220.718 414.517 220.552 416.242 220.374 418.075Z" fill="#BD722D" fill-opacity="0.9"/>
<path d="M220.374 418.075C213.976 420.9 195.598 416.567 179.522 414.952L149.01 404.846M220.374 418.075C220.552 416.242 220.718 414.517 220.873 412.889M220.374 418.075L220.873 412.889M220.873 412.889C224.1 413.087 253.396 414.769 268.724 411.681L279.54 409.697C279.54 409.697 284.033 457.959 286.864 472.159M149.028 404.357C149.028 404.357 149.022 404.525 149.01 404.846M144.415 472.159C143.858 476.616 143.256 480.337 142.611 482.883C141.979 485.381 141.465 487.49 141.021 489.335M144.415 472.159L121.851 463.646M144.415 472.159C144.415 472.159 125.25 464.888 121.851 463.646M144.415 472.159C147.178 450.027 148.818 409.732 149.01 404.846M132.042 516.138C124.682 533.373 114.018 528.275 118.17 543.568C122.322 558.86 138.554 563.351 149.028 568.934C159.503 574.517 194.042 582.649 200.365 580.707C206.687 578.765 215.714 577.195 244.151 577.915C272.589 578.636 268.273 570.083 284.069 568.084C323.374 563.112 323.798 543.568 313.701 534.586C303.603 525.605 304.924 526.09 298.791 507.399M132.042 516.138C138.114 501.921 138.599 499.432 140.861 490.002M132.042 516.138C138.255 501.591 138.619 499.323 141.021 489.335M298.791 507.399C292.657 488.709 289.695 486.359 286.864 472.159M298.791 507.399C295.75 498.135 293.489 492.885 291.637 488.218C289.753 483.468 288.292 479.321 286.864 472.159M121.851 463.646C121.851 463.646 127.623 449.856 128.756 443.016C129.888 436.176 134.514 400.045 134.514 400.045L149.01 404.846M121.851 463.646C118.453 462.404 116.454 480.955 118.17 483.44C119.886 485.925 137.819 491.784 140.861 490.002M140.861 490.002C140.914 489.783 140.967 489.561 141.021 489.335" stroke="black" stroke-width="5"/>
<path d="M281.594 408.809C281.594 408.809 320.861 450.716 330.424 461.878C330.424 461.878 335.595 450.268 339.061 444.893C339.061 444.893 330.982 436.347 323.361 427.47C316.131 419.048 294.048 394.453 292.162 392.191C293.029 401.941 284.846 406.567 281.594 408.809Z" fill="#BD722D" fill-opacity="0.9"/>
<path d="M339.061 444.893L330.424 461.878C335.247 467.507 338.597 470.475 342.618 473.777C342.618 473.777 346.41 468.063 348.015 465.019C349.62 461.975 352.891 457.888 352.054 455.278C351.218 452.668 344.931 443.679 341.629 443.546C340.648 443.507 340.527 442.62 339.061 444.893Z" fill="#BD722D" fill-opacity="0.9"/>
<path d="M292.162 392.191C294.048 394.453 316.131 419.048 323.361 427.47C330.982 436.347 339.061 444.893 339.061 444.893M292.162 392.191C292.176 392.66 292.159 391.688 292.162 392.191ZM292.162 392.191C293.029 401.941 284.846 406.567 281.594 408.809C281.594 408.809 320.861 450.716 330.424 461.878M330.424 461.878L339.061 444.893M330.424 461.878C330.424 461.878 335.595 450.268 339.061 444.893M330.424 461.878C335.247 467.507 338.597 470.475 342.618 473.777C342.618 473.777 346.41 468.063 348.015 465.019C349.62 461.975 352.891 457.888 352.054 455.278C351.218 452.668 344.931 443.679 341.629 443.546C340.648 443.507 340.527 442.62 339.061 444.893" stroke="black" stroke-width="5"/>
<path d="M137.062 490.152C130.711 489.264 119.783 485.353 118.462 483.44C116.372 488.603 116.588 496.265 115.927 499.685C115.267 503.105 116.305 513.067 118.382 515.744C120.458 518.42 124.14 519.312 125.367 518.42C126.594 517.528 129.7 513.513 130.549 509.796C130.549 509.796 131.691 511.432 133.107 509.796C134.523 508.161 137.346 501.321 137.534 497.752C137.72 494.25 138.645 494.793 139.139 490.332L137.062 490.152Z" fill="#93BE37" fill-opacity="0.8"/>
<path d="M130.549 509.796C129.7 513.513 126.594 517.528 125.367 518.42C124.14 519.312 120.458 518.42 118.382 515.744C116.305 513.067 115.267 503.105 115.927 499.685C116.588 496.265 116.372 488.603 118.462 483.44C119.783 485.353 130.711 489.264 137.062 490.152M130.549 509.796C130.549 509.796 131.271 502.964 131.021 499.685M130.549 509.796C130.549 509.796 131.691 511.432 133.107 509.796C134.523 508.161 137.346 501.321 137.534 497.752C137.72 494.25 138.645 494.793 139.139 490.332M137.062 490.152L139.139 490.332M137.062 490.152C137.053 490.239 139.148 490.247 139.139 490.332M290.177 396.773C289.955 397.192 290.425 396.331 290.177 396.773Z" stroke="black" stroke-width="5"/>
<path d="M342.984 474.273C345.668 476.439 347.921 478.237 351.83 481.557C354.466 483.277 357.101 483.567 359.122 485.383C361.326 487.362 361.744 486.488 363.533 485.982C365.321 485.475 364.988 483.651 364.988 483.651C367.666 485.019 370.309 483.712 371.551 482.952C372.793 482.192 373.003 481.309 372.65 477.466C372.297 473.623 367.064 466.433 364.672 465.046C362.279 463.66 356.165 457.174 351.913 456.242C352.772 458.845 349.881 462.414 348.302 465.471C346.724 468.527 342.984 474.273 342.984 474.273Z" fill="#93BE37" fill-opacity="0.8"/>
<path d="M364.988 483.651C367.666 485.019 370.309 483.712 371.551 482.952C372.793 482.192 373.003 481.309 372.65 477.466C372.297 473.623 367.064 466.433 364.672 465.046C362.279 463.66 356.165 457.174 351.913 456.242C352.772 458.845 349.881 462.414 348.302 465.471C346.724 468.527 342.984 474.273 342.984 474.273C345.668 476.439 347.921 478.237 351.83 481.557M364.988 483.651C364.988 483.651 357.119 476.595 355.343 474.327M364.988 483.651C364.988 483.651 365.321 485.475 363.533 485.982C361.744 486.488 361.326 487.362 359.122 485.383C357.101 483.567 354.466 483.277 351.83 481.557M351.83 481.557C351.594 481.403 352.079 481.746 351.83 481.557ZM295.164 395.197C295.182 395.667 295.157 394.695 295.164 395.197Z" stroke="black" stroke-width="5"/>
<path d="M598.262 353.739C601.851 337.909 599.584 335.444 598.262 321.027C598.262 321.027 602.211 324.029 615.44 327.138C628.668 330.246 639.021 330.246 644.868 330.246C650.716 330.246 659.397 327.763 669.983 327.138C674.948 326.885 681.103 321.137 687.334 316.628C693.564 312.119 695.378 308.101 702 296.794C690.79 291.43 665.957 293.093 659.247 292.205C652.537 291.317 636.049 289.985 625.505 286.284C614.961 282.584 606.811 271.578 597.681 260.659C579.996 234.485 567.377 242.103 563.431 237.464C559.486 232.824 495.452 229.039 485.368 235.531C475.284 242.023 446.977 247.056 442.23 264.971C429.015 269.287 423.927 281.394 413.383 285.095C402.838 288.795 386.351 290.127 379.641 291.015C372.931 291.904 346.21 279.731 335 285.095C341.622 296.402 345.323 310.93 351.554 315.439C357.785 319.947 363.94 325.696 368.905 325.948C379.491 326.574 388.172 329.057 394.02 329.057C399.867 329.057 410.22 329.057 423.448 325.948C435.077 323.215 440.775 317.165 441.983 315.743C438.986 320.013 438.489 342.9 446.006 357.902C453.726 373.308 457.14 366.963 464.79 369.649C472.441 372.334 505.568 376.593 505.568 372.92C505.568 369.247 529.066 372.92 537.567 372.92C546.068 372.92 567.868 369.649 567.868 369.649C567.868 369.649 594.673 369.569 598.262 353.739Z" fill="#93BE37" fill-opacity="0.8"/>
<path d="M598.262 282.746C598.26 295.009 597.796 301.119 597.694 307.065M597.694 307.065C597.623 311.15 597.724 315.157 598.262 321.027M597.694 307.065C597.654 307.354 597.649 307.647 597.681 307.943M597.694 307.065C598.408 301.827 610.46 297.682 621.105 297.682C632.338 297.682 624.22 294.004 642.155 297.682C660.09 301.361 669.408 302.994 685.576 300.359M598.262 321.027C599.584 335.444 601.851 337.909 598.262 353.739C594.673 369.569 567.868 369.649 567.868 369.649C567.868 369.649 546.068 372.92 537.567 372.92C529.066 372.92 505.568 369.247 505.568 372.92C505.568 376.593 472.441 372.334 464.79 369.649C457.14 366.963 453.726 373.308 446.006 357.902C438.489 342.9 438.986 320.013 441.983 315.743M598.262 321.027C598.262 321.027 602.211 324.029 615.44 327.138C628.668 330.246 639.021 330.246 644.868 330.246C650.716 330.246 659.397 327.763 669.983 327.138C674.948 326.885 681.103 321.137 687.334 316.628C693.564 312.119 695.378 308.101 702 296.794C690.79 291.43 665.957 293.093 659.247 292.205C652.537 291.317 636.049 289.985 625.505 286.284C614.961 282.584 606.811 271.578 597.681 260.659M441.983 315.743C442.064 315.628 442.146 315.526 442.23 315.439M441.983 315.743C440.775 317.165 435.077 323.215 423.448 325.948C410.22 329.057 399.867 329.057 394.019 329.057C388.172 329.057 379.491 326.574 368.905 325.948C363.94 325.696 357.785 319.947 351.554 315.439C345.323 310.93 341.622 296.402 335 285.095C346.21 279.731 372.931 291.904 379.641 291.015C386.351 290.127 402.838 288.795 413.383 285.095C423.927 281.394 429.015 269.287 442.23 264.971M441.983 315.743C442.149 315.547 442.23 315.439 442.23 315.439M442.23 315.439C445.442 312.102 442.23 282.746 442.23 282.746M597.681 260.659C579.996 234.485 567.377 242.103 563.431 237.464C559.486 232.824 495.452 229.039 485.368 235.531C475.284 242.023 446.977 247.056 442.23 264.971M597.681 260.659C600.011 265.672 599.489 267.35 599.489 272.703M442.23 264.971C440.867 269.456 441.745 270.469 441.57 274.041M443.368 297.682C443.977 292.037 430.977 290.725 419.745 290.725C408.512 290.725 404.945 296.83 387.011 300.508C369.076 304.187 363.628 297.642 347.46 295.007" stroke="black" stroke-width="5"/>
<path d="M523.517 311.312C524.45 312.332 525 312.409 526.052 311.312C525.417 305.526 525.13 306.865 523.517 304.932C521.903 302.999 512.224 302.999 510.553 304.932C508.882 306.865 508.749 305.006 508.306 310.635C509.149 311.967 509.473 312.523 510.553 311.312" stroke="black" stroke-width="5"/>
<path d="M549.855 282.746C545.425 288.501 543.625 293.6 540.321 304.157C541.185 307.257 541.642 309.361 543.625 312.335C545.607 315.309 551.271 321.405 555.801 322.446C560.332 323.487 571.282 322.595 576.379 319.472C581.476 316.35 586.385 309.956 585.158 299.696C583.931 289.437 579.872 285.422 577.323 282.746C574.774 280.069 570.942 278.241 566.562 276.055C560.609 274.842 557.516 275.041 549.855 282.746Z" fill="black"/>
<path d="M577.323 282.746C574.774 280.069 570.942 278.241 566.562 276.055C560.609 274.842 557.516 275.041 549.855 282.746C545.425 288.501 543.625 293.6 540.321 304.157C541.185 307.257 541.642 309.361 543.625 312.335M577.323 282.746C579.872 285.422 583.931 289.437 585.158 299.696C586.385 309.956 581.476 316.35 576.379 319.472M577.323 282.746C580.475 289.072 583.727 300.063 582.876 306.402C582.024 312.74 579.308 314.9 576.379 319.472M576.379 319.472C571.282 322.595 560.332 323.487 555.801 322.446C551.271 321.405 545.607 315.309 543.625 312.335M543.625 312.335C542.547 309.374 542.475 306.536 542.381 304.157C542.287 301.778 542.751 298.817 543.042 295.846" stroke="black" stroke-width="5"/>
<path d="M559.562 299.246C559.438 298.652 558.92 297.926 558.445 297.55C557.957 297.1 557.949 297.126 557.204 297.041C556.459 296.956 556.273 297.126 555.777 297.55C555.28 297.974 555.156 298.822 555.032 299.585C554.908 300.349 554.939 300.243 554.939 301.26C554.939 302.278 555.001 302.13 555.249 302.639C555.498 303.148 556.025 303.317 556.459 303.487C556.894 303.656 557.638 303.487 557.638 303.487C557.638 303.487 558.724 303.063 558.911 302.639C559.097 302.215 559.438 301.96 559.562 300.858C559.686 299.755 559.686 299.84 559.562 299.246Z" fill="#FFFFFD"/>
<path d="M572.166 292.444C571.982 291.364 571.215 290.043 570.513 289.36C569.79 288.542 569.778 288.589 568.676 288.434C567.574 288.28 567.298 288.589 566.564 289.36C565.829 290.131 565.645 291.673 565.461 293.061C565.278 294.448 565.324 294.256 565.324 296.106C565.324 297.956 565.416 297.687 565.783 298.612C566.15 299.537 566.931 299.846 567.574 300.154C568.217 300.462 569.319 300.154 569.319 300.154C569.319 300.154 570.926 299.383 571.202 298.612C571.477 297.841 571.982 297.378 572.166 295.374C572.35 293.369 572.35 293.523 572.166 292.444Z" fill="#FFFFFD"/>
<path d="M585.14 299.696C583.913 289.437 579.854 285.422 577.305 282.746C580.458 289.072 583.709 300.063 582.858 306.401C582.007 312.74 579.29 314.9 576.362 319.472C581.459 316.349 586.367 309.956 585.14 299.696Z" fill="#FFFFFD" stroke="black" stroke-width="5"/>
<path d="M544.646 291.816C541.926 300.126 543.703 293.6 540.399 304.157C541.263 307.257 542.192 309.807 544.175 312.781C543.097 309.82 543.025 305.628 542.931 303.249C542.836 300.87 544.356 294.787 544.646 291.816Z" fill="#FFFFFD" stroke="black" stroke-width="5"/>
<path d="M488.2 283.745C492.63 289.501 494.43 294.6 497.734 305.157C496.87 308.257 496.412 310.361 494.43 313.335C492.448 316.309 486.784 322.405 482.253 323.446C477.722 324.486 466.773 323.594 461.676 320.472C456.578 317.349 451.67 310.956 452.897 300.696C454.124 290.437 458.183 286.422 460.732 283.745C463.28 281.069 467.113 279.241 471.492 277.054C477.446 275.841 480.538 276.041 488.2 283.745Z" fill="black"/>
<path d="M460.732 283.745C463.28 281.069 467.113 279.241 471.492 277.054C477.446 275.841 480.538 276.041 488.2 283.745C492.63 289.501 494.43 294.6 497.734 305.157C496.87 308.257 496.412 310.361 494.43 313.335M460.732 283.745C458.183 286.422 454.124 290.437 452.897 300.696C451.67 310.956 456.578 317.349 461.676 320.472M460.732 283.745C457.579 290.072 454.328 301.063 455.179 307.401C456.03 313.74 458.747 315.9 461.676 320.472M461.676 320.472C466.773 323.594 477.722 324.486 482.253 323.446C486.784 322.405 492.448 316.309 494.43 313.335M494.43 313.335C495.508 310.373 495.579 307.536 495.674 305.157C495.768 302.778 495.303 299.817 495.013 296.846" stroke="black" stroke-width="5"/>
<path d="M465.922 301.03C466.046 300.437 466.565 299.71 467.039 299.334C467.527 298.884 467.536 298.91 468.28 298.825C469.025 298.74 469.211 298.91 469.708 299.334C470.204 299.758 470.328 300.606 470.452 301.37C470.576 302.133 470.545 302.027 470.545 303.045C470.545 304.062 470.483 303.914 470.235 304.423C469.987 304.932 469.459 305.101 469.025 305.271C468.591 305.441 467.846 305.271 467.846 305.271C467.846 305.271 466.76 304.847 466.574 304.423C466.388 303.999 466.046 303.744 465.922 302.642C465.798 301.539 465.798 301.624 465.922 301.03Z" fill="#FFFFFD"/>
<path d="M474.866 293.836C475.084 292.702 475.997 291.315 476.832 290.597C477.691 289.739 477.706 289.788 479.016 289.626C480.327 289.464 480.654 289.788 481.528 290.597C482.402 291.407 482.62 293.026 482.839 294.483C483.057 295.94 483.003 295.738 483.003 297.681C483.003 299.624 482.893 299.341 482.457 300.312C482.02 301.284 481.091 301.608 480.327 301.931C479.562 302.255 478.252 301.931 478.252 301.931C478.252 301.931 476.34 301.122 476.013 300.312C475.685 299.503 475.084 299.017 474.866 296.912C474.648 294.807 474.648 294.969 474.866 293.836Z" fill="#FFFFFD"/>
<path d="M452.915 300.696C454.142 290.436 458.201 286.422 460.75 283.745C457.597 290.072 454.346 301.063 455.197 307.401C456.048 313.74 458.765 315.9 461.694 320.472C456.596 317.349 451.688 310.956 452.915 300.696Z" fill="#FFFFFD" stroke="black" stroke-width="5"/>
<path d="M493.408 292.816C496.129 301.126 494.352 294.6 497.655 305.157C496.791 308.257 495.862 310.807 493.88 313.781C494.957 310.819 495.029 306.628 495.123 304.249C495.218 301.87 493.698 295.786 493.408 292.816Z" fill="#FFFFFD" stroke="black" stroke-width="5"/>
<path d="M591.938 283.774C583.544 274.931 578.392 273.248 572.049 271.14C565.705 269.033 557.616 270.108 553.441 271.927C549.266 273.746 539.21 284.168 537.334 290.018" stroke="black" stroke-width="5"/>
<path d="M446.275 280.444C454.875 272.107 460.063 270.732 466.453 269.004C472.842 267.276 480.9 268.831 485.029 270.898C489.157 272.964 498.955 283.978 500.69 289.936" stroke="black" stroke-width="5"/>
<path d="M529.58 331.52C515.034 339.235 512.227 332.497 504.651 333.859" stroke="black" stroke-width="5"/>
<path d="M533.6 223.567C534.134 229.259 533.603 231.702 531.337 234.868" stroke="black" stroke-width="5"/>
<path d="M524.871 222.682C526.185 228.243 525.829 230.895 523.458 234.882" stroke="black" stroke-width="5"/>
<path d="M517.283 222.114C515.93 228.022 515.305 232.04 517.654 236.222" stroke="black" stroke-width="5"/>
<path d="M530.865 227.433L529.544 233.083" stroke="black" stroke-width="5"/>
<path d="M522.087 233.083L520.765 238.734" stroke="black" stroke-width="5"/>
<path d="M510.948 223.567L512.27 233.975" stroke="black" stroke-width="5"/>
<path d="M508.626 419.796C508.448 417.963 508.282 416.238 508.127 414.61L508.626 419.796Z" fill="#E07E24" fill-opacity="0.8"/>
<path d="M568.622 369.985C568.622 369.985 595.428 369.905 599.017 354.075C599.017 354.075 603.565 351.101 605.547 362.848C607.529 374.594 607.026 381.585 605.547 387.976C604.068 394.368 599.223 400.02 599.223 400.02L549.477 416.673C533.401 418.289 515.024 422.621 508.626 419.796L508.127 414.61C505.744 389.591 505.581 388.807 506.32 373.313C506.322 373.294 506.323 373.275 506.323 373.256C506.323 369.583 529.821 373.256 538.322 373.256C546.823 373.256 568.622 369.985 568.622 369.985Z" fill="#E07E24" fill-opacity="0.8"/>
<path d="M446.683 359.279C454.403 374.685 457.894 367.299 465.545 369.985C473.156 372.656 505.976 376.884 506.32 373.313C505.581 388.807 505.744 389.591 508.127 414.61C504.899 414.808 475.604 416.491 460.276 413.402C444.04 410.131 445.863 410.875 439.776 400.02C433.689 389.166 435.623 385.597 439.776 373.553C443.929 361.51 446.683 359.279 446.683 359.279Z" fill="#E07E24" fill-opacity="0.8"/>
<path d="M506.323 373.256C506.323 369.583 529.821 373.256 538.322 373.256C546.823 373.256 568.622 369.985 568.622 369.985C568.622 369.985 595.428 369.905 599.017 354.075C599.017 354.075 603.565 351.101 605.547 362.848C607.529 374.594 607.026 381.585 605.547 387.976C604.068 394.368 599.223 400.02 599.223 400.02L549.477 416.673C533.401 418.289 515.024 422.621 508.626 419.796M506.323 373.256C506.323 373.275 506.322 373.294 506.32 373.313M506.323 373.256C506.322 373.275 506.321 373.294 506.32 373.313M508.626 419.796C508.448 417.963 508.282 416.238 508.127 414.61M508.626 419.796L508.127 414.61M508.127 414.61C504.899 414.808 475.604 416.491 460.276 413.402C444.04 410.131 445.863 410.875 439.776 400.02C433.689 389.166 435.623 385.597 439.776 373.553C443.929 361.51 446.683 359.279 446.683 359.279C454.403 374.685 457.894 367.299 465.545 369.985C473.156 372.656 505.976 376.884 506.32 373.313M508.127 414.61C505.744 389.591 505.581 388.807 506.32 373.313" stroke="black" stroke-width="5"/>
<path d="M508.626 420.075C508.448 418.242 508.282 416.517 508.127 414.889L508.626 420.075Z" fill="#BD722D" fill-opacity="0.9"/>
<path d="M579.99 406.846L594.486 402.045C594.486 402.045 599.112 438.176 600.244 445.016C601.377 451.856 607.149 465.646 607.149 465.646C603.75 466.888 584.585 474.159 584.585 474.159C581.822 452.027 580.182 411.732 579.99 406.846Z" fill="#BD722D" fill-opacity="0.9"/>
<path d="M586.389 484.883C585.744 482.337 585.142 478.616 584.585 474.159L607.149 465.646C610.547 464.404 612.546 482.955 610.83 485.44C609.114 487.925 591.181 493.784 588.139 492.002C588.086 491.783 588.033 491.561 587.979 491.335C587.535 489.49 587.021 487.381 586.389 484.883Z" fill="#BD722D" fill-opacity="0.9"/>
<path d="M594.486 402.045C594.486 402.045 599.112 438.176 600.244 445.016C601.377 451.856 607.149 465.646 607.149 465.646C603.75 466.888 584.585 474.159 584.585 474.159C581.822 452.027 580.182 411.732 579.99 406.846L594.486 402.045Z" fill="#BD722D" fill-opacity="0.9"/>
<path d="M508.626 420.075C515.024 422.9 533.402 418.567 549.478 416.952L579.99 406.846C580.182 411.732 581.822 452.027 584.585 474.159C585.142 478.616 585.744 482.337 586.389 484.883C587.021 487.381 587.535 489.49 587.979 491.335C588.033 491.561 588.086 491.783 588.139 492.002C590.401 501.432 590.886 503.921 596.958 518.138C604.318 535.373 614.982 530.275 610.83 545.568C606.678 560.86 590.446 565.351 579.972 570.934C569.497 576.517 534.958 584.649 528.635 582.707C522.313 580.765 513.286 579.195 484.849 579.915C456.411 580.636 460.727 572.083 444.931 570.084C405.626 565.112 405.202 545.568 415.299 536.586C425.397 527.605 424.076 528.09 430.209 509.399C433.25 500.135 435.511 494.885 437.363 490.218C439.247 485.468 440.708 481.321 442.136 474.159C444.967 459.959 449.46 411.697 449.46 411.697L460.276 413.681C475.604 416.769 504.9 415.087 508.127 414.889C508.282 416.517 508.448 418.242 508.626 420.075Z" fill="#BD722D" fill-opacity="0.9"/>
<path d="M508.626 420.075C515.024 422.9 533.402 418.567 549.478 416.952L579.99 406.846M508.626 420.075C508.448 418.242 508.282 416.517 508.127 414.889M508.626 420.075L508.127 414.889M508.127 414.889C504.9 415.087 475.604 416.769 460.276 413.681L449.46 411.697C449.46 411.697 444.967 459.959 442.136 474.159M579.972 406.357C579.972 406.357 579.978 406.525 579.99 406.846M584.585 474.159C585.142 478.616 585.744 482.337 586.389 484.883C587.021 487.381 587.535 489.49 587.979 491.335M584.585 474.159L607.149 465.646M584.585 474.159C584.585 474.159 603.75 466.888 607.149 465.646M584.585 474.159C581.822 452.027 580.182 411.732 579.99 406.846M596.958 518.138C604.318 535.373 614.982 530.275 610.83 545.568C606.678 560.86 590.446 565.351 579.972 570.934C569.497 576.517 534.958 584.649 528.635 582.707C522.313 580.765 513.286 579.195 484.849 579.915C456.411 580.636 460.727 572.083 444.931 570.084C405.626 565.112 405.202 545.568 415.299 536.586C425.397 527.605 424.076 528.09 430.209 509.399M596.958 518.138C590.886 503.921 590.401 501.432 588.139 492.002M596.958 518.138C590.745 503.591 590.381 501.323 587.979 491.335M430.209 509.399C436.343 490.709 439.305 488.359 442.136 474.159M430.209 509.399C433.25 500.135 435.511 494.885 437.363 490.218C439.247 485.468 440.708 481.321 442.136 474.159M607.149 465.646C607.149 465.646 601.377 451.856 600.244 445.016C599.112 438.176 594.486 402.045 594.486 402.045L579.99 406.846M607.149 465.646C610.547 464.404 612.546 482.955 610.83 485.44C609.114 487.925 591.181 493.784 588.139 492.002M588.139 492.002C588.086 491.783 588.033 491.561 587.979 491.335" stroke="black" stroke-width="5"/>
<path d="M447.406 410.809C447.406 410.809 408.139 452.716 398.576 463.878C398.576 463.878 393.405 452.268 389.939 446.893C389.939 446.893 398.018 438.347 405.639 429.47C412.869 421.048 434.952 396.453 436.838 394.191C435.971 403.941 444.154 408.567 447.406 410.809Z" fill="#BD722D" fill-opacity="0.9"/>
<path d="M389.939 446.893L398.576 463.878C393.753 469.507 390.403 472.475 386.382 475.777C386.382 475.777 382.59 470.063 380.985 467.019C379.38 463.975 376.109 459.888 376.946 457.278C377.782 454.668 384.069 445.679 387.371 445.546C388.352 445.507 388.473 444.62 389.939 446.893Z" fill="#BD722D" fill-opacity="0.9"/>
<path d="M436.838 394.191C434.952 396.453 412.869 421.048 405.639 429.47C398.018 438.347 389.939 446.893 389.939 446.893M436.838 394.191C436.824 394.66 436.841 393.688 436.838 394.191ZM436.838 394.191C435.971 403.941 444.154 408.567 447.406 410.809C447.406 410.809 408.139 452.716 398.576 463.878M398.576 463.878L389.939 446.893M398.576 463.878C398.576 463.878 393.405 452.268 389.939 446.893M398.576 463.878C393.753 469.507 390.403 472.475 386.382 475.777C386.382 475.777 382.59 470.063 380.985 467.019C379.38 463.975 376.109 459.888 376.946 457.278C377.782 454.668 384.069 445.679 387.371 445.546C388.352 445.507 388.473 444.62 389.939 446.893" stroke="black" stroke-width="5"/>
<path d="M591.938 492.152C598.289 491.264 609.217 487.353 610.538 485.44C612.628 490.603 612.412 498.265 613.073 501.685C613.733 505.105 612.695 515.067 610.618 517.744C608.542 520.42 604.86 521.312 603.633 520.42C602.406 519.528 599.3 515.513 598.451 511.796C598.451 511.796 597.309 513.432 595.893 511.796C594.477 510.161 591.654 503.321 591.466 499.752C591.28 496.25 590.355 496.793 589.861 492.332L591.938 492.152Z" fill="#93BE37" fill-opacity="0.8"/>
<path d="M598.451 511.796C599.3 515.513 602.406 519.528 603.633 520.42C604.86 521.312 608.542 520.42 610.618 517.744C612.695 515.067 613.733 505.105 613.073 501.685C612.412 498.265 612.628 490.603 610.538 485.44C609.217 487.353 598.289 491.264 591.938 492.152M598.451 511.796C598.451 511.796 597.729 504.964 597.979 501.685M598.451 511.796C598.451 511.796 597.309 513.432 595.893 511.796C594.477 510.161 591.654 503.321 591.466 499.752C591.28 496.25 590.355 496.793 589.861 492.332M591.938 492.152L589.861 492.332M591.938 492.152C591.947 492.239 589.852 492.247 589.861 492.332M438.823 398.773C439.045 399.192 438.575 398.331 438.823 398.773Z" stroke="black" stroke-width="5"/>
<path d="M386.016 476.273C383.332 478.439 381.079 480.237 377.17 483.557C374.534 485.277 371.899 485.567 369.878 487.383C367.674 489.362 367.256 488.488 365.467 487.982C363.679 487.475 364.012 485.651 364.012 485.651C361.334 487.019 358.691 485.712 357.449 484.952C356.207 484.192 355.997 483.309 356.35 479.466C356.703 475.623 361.936 468.433 364.328 467.046C366.721 465.66 372.835 459.174 377.087 458.242C376.228 460.845 379.119 464.414 380.698 467.471C382.276 470.527 386.016 476.273 386.016 476.273Z" fill="#93BE37" fill-opacity="0.8"/>
<path d="M364.012 485.651C361.334 487.019 358.691 485.712 357.449 484.952C356.207 484.192 355.997 483.309 356.35 479.466C356.703 475.623 361.936 468.433 364.328 467.046C366.721 465.66 372.835 459.174 377.087 458.242C376.228 460.845 379.119 464.414 380.698 467.471C382.276 470.527 386.016 476.273 386.016 476.273C383.332 478.439 381.079 480.237 377.17 483.557M364.012 485.651C364.012 485.651 371.881 478.595 373.657 476.327M364.012 485.651C364.012 485.651 363.679 487.475 365.467 487.982C367.256 488.488 367.674 489.362 369.878 487.383C371.899 485.567 374.534 485.277 377.17 483.557M377.17 483.557C377.406 483.403 376.921 483.746 377.17 483.557ZM433.836 397.197C433.818 397.667 433.843 396.695 433.836 397.197Z" stroke="black" stroke-width="5"/>
<path d="M295.947 112.282C329.973 109.236 337.647 122.398 346.764 151.841C353.343 115.605 366.373 90.6792 388.897 91.7571C411.421 92.8349 426.091 127.234 426.091 127.234C426.091 127.234 433.286 152.219 420.955 171.94C408.624 191.661 409.902 189.292 396.92 205.919C383.937 222.546 360.678 241.012 360.678 241.012C360.678 241.012 335.801 234.127 321.543 222.424C307.286 210.72 296.815 205.49 286.645 193.25C276.476 181.009 266.495 162.751 271.261 143.167C276.027 123.583 279.665 120.987 295.947 112.282Z" fill="#F50F0F" stroke="#F74848" stroke-width="5"/>
</svg>
