<svg width="800" height="899" viewBox="0 0 800 899" fill="none" xmlns="http://www.w3.org/2000/svg">
<path d="M2.5 2.5H797.5V674.616H2.5V2.5Z" fill="#FFFFFD" stroke="black" stroke-width="5"/>
<path d="M2.5 675.795H797.5V896.5H2.5V675.795Z" fill="#FFFFFD" stroke="black" stroke-width="5"/>
<path d="M41.0156 725.789C37.1562 724.68 34.3438 723.32 32.5781 721.711C30.8281 720.086 29.9531 718.086 29.9531 715.711C29.9531 713.023 31.0234 710.805 33.1641 709.055C35.3203 707.289 38.1172 706.406 41.5547 706.406C43.8984 706.406 45.9844 706.859 47.8125 707.766C49.6562 708.672 51.0781 709.922 52.0781 711.516C53.0938 713.109 53.6016 714.852 53.6016 716.742H49.0781C49.0781 714.68 48.4219 713.062 47.1094 711.891C45.7969 710.703 43.9453 710.109 41.5547 710.109C39.3359 710.109 37.6016 710.602 36.3516 711.586C35.1172 712.555 34.5 713.906 34.5 715.641C34.5 717.031 35.0859 718.211 36.2578 719.18C37.4453 720.133 39.4531 721.008 42.2812 721.805C45.125 722.602 47.3438 723.484 48.9375 724.453C50.5469 725.406 51.7344 726.523 52.5 727.805C53.2812 729.086 53.6719 730.594 53.6719 732.328C53.6719 735.094 52.5938 737.312 50.4375 738.984C48.2812 740.641 45.3984 741.469 41.7891 741.469C39.4453 741.469 37.2578 741.023 35.2266 740.133C33.1953 739.227 31.625 737.992 30.5156 736.43C29.4219 734.867 28.875 733.094 28.875 731.109H33.3984C33.3984 733.172 34.1562 734.805 35.6719 736.008C37.2031 737.195 39.2422 737.789 41.7891 737.789C44.1641 737.789 45.9844 737.305 47.25 736.336C48.5156 735.367 49.1484 734.047 49.1484 732.375C49.1484 730.703 48.5625 729.414 47.3906 728.508C46.2188 727.586 44.0938 726.68 41.0156 725.789ZM63.1172 718.711C65.0391 716.352 67.5391 715.172 70.6172 715.172C75.9766 715.172 78.6797 718.195 78.7266 724.242V741H74.3906V724.219C74.375 722.391 73.9531 721.039 73.125 720.164C72.3125 719.289 71.0391 718.852 69.3047 718.852C67.8984 718.852 66.6641 719.227 65.6016 719.977C64.5391 720.727 63.7109 721.711 63.1172 722.93V741H58.7812V705H63.1172V718.711ZM95.7422 741.469C92.3047 741.469 89.5078 740.344 87.3516 738.094C85.1953 735.828 84.1172 732.805 84.1172 729.023V728.227C84.1172 725.711 84.5938 723.469 85.5469 721.5C86.5156 719.516 87.8594 717.969 89.5781 716.859C91.3125 715.734 93.1875 715.172 95.2031 715.172C98.5 715.172 101.062 716.258 102.891 718.43C104.719 720.602 105.633 723.711 105.633 727.758V729.562H88.4531C88.5156 732.062 89.2422 734.086 90.6328 735.633C92.0391 737.164 93.8203 737.93 95.9766 737.93C97.5078 737.93 98.8047 737.617 99.8672 736.992C100.93 736.367 101.859 735.539 102.656 734.508L105.305 736.57C103.18 739.836 99.9922 741.469 95.7422 741.469ZM95.2031 718.734C93.4531 718.734 91.9844 719.375 90.7969 720.656C89.6094 721.922 88.875 723.703 88.5938 726H101.297V725.672C101.172 723.469 100.578 721.766 99.5156 720.562C98.4531 719.344 97.0156 718.734 95.2031 718.734ZM126.656 715.641L126.773 718.453C128.633 716.266 131.141 715.172 134.297 715.172C137.844 715.172 140.258 716.531 141.539 719.25C142.383 718.031 143.477 717.047 144.82 716.297C146.18 715.547 147.781 715.172 149.625 715.172C155.188 715.172 158.016 718.117 158.109 724.008V741H153.773V724.266C153.773 722.453 153.359 721.102 152.531 720.211C151.703 719.305 150.312 718.852 148.359 718.852C146.75 718.852 145.414 719.336 144.352 720.305C143.289 721.258 142.672 722.547 142.5 724.172V741H138.141V724.383C138.141 720.695 136.336 718.852 132.727 718.852C129.883 718.852 127.938 720.062 126.891 722.484V741H122.555V715.641H126.656ZM163.523 728.086C163.523 725.602 164.008 723.367 164.977 721.383C165.961 719.398 167.32 717.867 169.055 716.789C170.805 715.711 172.797 715.172 175.031 715.172C178.484 715.172 181.273 716.367 183.398 718.758C185.539 721.148 186.609 724.328 186.609 728.297V728.602C186.609 731.07 186.133 733.289 185.18 735.258C184.242 737.211 182.891 738.734 181.125 739.828C179.375 740.922 177.359 741.469 175.078 741.469C171.641 741.469 168.852 740.273 166.711 737.883C164.586 735.492 163.523 732.328 163.523 728.391V728.086ZM167.883 728.602C167.883 731.414 168.531 733.672 169.828 735.375C171.141 737.078 172.891 737.93 175.078 737.93C177.281 737.93 179.031 737.07 180.328 735.352C181.625 733.617 182.273 731.195 182.273 728.086C182.273 725.305 181.609 723.055 180.281 721.336C178.969 719.602 177.219 718.734 175.031 718.734C172.891 718.734 171.164 719.586 169.852 721.289C168.539 722.992 167.883 725.43 167.883 728.602ZM200.039 735.117L206.32 715.641H210.75L201.656 741H198.352L189.164 715.641H193.594L200.039 735.117ZM225.117 741.469C221.68 741.469 218.883 740.344 216.727 738.094C214.57 735.828 213.492 732.805 213.492 729.023V728.227C213.492 725.711 213.969 723.469 214.922 721.5C215.891 719.516 217.234 717.969 218.953 716.859C220.688 715.734 222.562 715.172 224.578 715.172C227.875 715.172 230.438 716.258 232.266 718.43C234.094 720.602 235.008 723.711 235.008 727.758V729.562H217.828C217.891 732.062 218.617 734.086 220.008 735.633C221.414 737.164 223.195 737.93 225.352 737.93C226.883 737.93 228.18 737.617 229.242 736.992C230.305 736.367 231.234 735.539 232.031 734.508L234.68 736.57C232.555 739.836 229.367 741.469 225.117 741.469ZM224.578 718.734C222.828 718.734 221.359 719.375 220.172 720.656C218.984 721.922 218.25 723.703 217.969 726H230.672V725.672C230.547 723.469 229.953 721.766 228.891 720.562C227.828 719.344 226.391 718.734 224.578 718.734ZM238.992 728.109C238.992 724.219 239.914 721.094 241.758 718.734C243.602 716.359 246.016 715.172 249 715.172C251.969 715.172 254.32 716.188 256.055 718.219V705H260.391V741H256.406L256.195 738.281C254.461 740.406 252.047 741.469 248.953 741.469C246.016 741.469 243.617 740.266 241.758 737.859C239.914 735.453 238.992 732.312 238.992 728.438V728.109ZM243.328 728.602C243.328 731.477 243.922 733.727 245.109 735.352C246.297 736.977 247.938 737.789 250.031 737.789C252.781 737.789 254.789 736.555 256.055 734.086V722.438C254.758 720.047 252.766 718.852 250.078 718.852C247.953 718.852 246.297 719.672 245.109 721.312C243.922 722.953 243.328 725.383 243.328 728.602ZM284.93 709.5V715.641H289.664V718.992H284.93V734.719C284.93 735.734 285.141 736.5 285.562 737.016C285.984 737.516 286.703 737.766 287.719 737.766C288.219 737.766 288.906 737.672 289.781 737.484V741C288.641 741.312 287.531 741.469 286.453 741.469C284.516 741.469 283.055 740.883 282.07 739.711C281.086 738.539 280.594 736.875 280.594 734.719V718.992H275.977V715.641H280.594V709.5H284.93ZM293.133 728.086C293.133 725.602 293.617 723.367 294.586 721.383C295.57 719.398 296.93 717.867 298.664 716.789C300.414 715.711 302.406 715.172 304.641 715.172C308.094 715.172 310.883 716.367 313.008 718.758C315.148 721.148 316.219 724.328 316.219 728.297V728.602C316.219 731.07 315.742 733.289 314.789 735.258C313.852 737.211 312.5 738.734 310.734 739.828C308.984 740.922 306.969 741.469 304.688 741.469C301.25 741.469 298.461 740.273 296.32 737.883C294.195 735.492 293.133 732.328 293.133 728.391V728.086ZM297.492 728.602C297.492 731.414 298.141 733.672 299.438 735.375C300.75 737.078 302.5 737.93 304.688 737.93C306.891 737.93 308.641 737.07 309.938 735.352C311.234 733.617 311.883 731.195 311.883 728.086C311.883 725.305 311.219 723.055 309.891 721.336C308.578 719.602 306.828 718.734 304.641 718.734C302.5 718.734 300.773 719.586 299.461 721.289C298.148 722.992 297.492 725.43 297.492 728.602ZM359.344 730.172C358.922 733.781 357.586 736.57 355.336 738.539C353.102 740.492 350.125 741.469 346.406 741.469C342.375 741.469 339.141 740.023 336.703 737.133C334.281 734.242 333.07 730.375 333.07 725.531V722.25C333.07 719.078 333.633 716.289 334.758 713.883C335.898 711.477 337.508 709.633 339.586 708.352C341.664 707.055 344.07 706.406 346.805 706.406C350.43 706.406 353.336 707.422 355.523 709.453C357.711 711.469 358.984 714.266 359.344 717.844H354.82C354.43 715.125 353.578 713.156 352.266 711.938C350.969 710.719 349.148 710.109 346.805 710.109C343.93 710.109 341.672 711.172 340.031 713.297C338.406 715.422 337.594 718.445 337.594 722.367V725.672C337.594 729.375 338.367 732.32 339.914 734.508C341.461 736.695 343.625 737.789 346.406 737.789C348.906 737.789 350.82 737.227 352.148 736.102C353.492 734.961 354.383 732.984 354.82 730.172H359.344ZM380.484 741C380.234 740.5 380.031 739.609 379.875 738.328C377.859 740.422 375.453 741.469 372.656 741.469C370.156 741.469 368.102 740.766 366.492 739.359C364.898 737.938 364.102 736.141 364.102 733.969C364.102 731.328 365.102 729.281 367.102 727.828C369.117 726.359 371.945 725.625 375.586 725.625H379.805V723.633C379.805 722.117 379.352 720.914 378.445 720.023C377.539 719.117 376.203 718.664 374.438 718.664C372.891 718.664 371.594 719.055 370.547 719.836C369.5 720.617 368.977 721.562 368.977 722.672H364.617C364.617 721.406 365.062 720.188 365.953 719.016C366.859 717.828 368.078 716.891 369.609 716.203C371.156 715.516 372.852 715.172 374.695 715.172C377.617 715.172 379.906 715.906 381.562 717.375C383.219 718.828 384.078 720.836 384.141 723.398V735.07C384.141 737.398 384.438 739.25 385.031 740.625V741H380.484ZM373.289 737.695C374.648 737.695 375.938 737.344 377.156 736.641C378.375 735.938 379.258 735.023 379.805 733.898V728.695H376.406C371.094 728.695 368.438 730.25 368.438 733.359C368.438 734.719 368.891 735.781 369.797 736.547C370.703 737.312 371.867 737.695 373.289 737.695ZM395.039 715.641L395.18 718.828C397.117 716.391 399.648 715.172 402.773 715.172C408.133 715.172 410.836 718.195 410.883 724.242V741H406.547V724.219C406.531 722.391 406.109 721.039 405.281 720.164C404.469 719.289 403.195 718.852 401.461 718.852C400.055 718.852 398.82 719.227 397.758 719.977C396.695 720.727 395.867 721.711 395.273 722.93V741H390.938V715.641H395.039ZM433.078 741C432.828 740.5 432.625 739.609 432.469 738.328C430.453 740.422 428.047 741.469 425.25 741.469C422.75 741.469 420.695 740.766 419.086 739.359C417.492 737.938 416.695 736.141 416.695 733.969C416.695 731.328 417.695 729.281 419.695 727.828C421.711 726.359 424.539 725.625 428.18 725.625H432.398V723.633C432.398 722.117 431.945 720.914 431.039 720.023C430.133 719.117 428.797 718.664 427.031 718.664C425.484 718.664 424.188 719.055 423.141 719.836C422.094 720.617 421.57 721.562 421.57 722.672H417.211C417.211 721.406 417.656 720.188 418.547 719.016C419.453 717.828 420.672 716.891 422.203 716.203C423.75 715.516 425.445 715.172 427.289 715.172C430.211 715.172 432.5 715.906 434.156 717.375C435.812 718.828 436.672 720.836 436.734 723.398V735.07C436.734 737.398 437.031 739.25 437.625 740.625V741H433.078ZM425.883 737.695C427.242 737.695 428.531 737.344 429.75 736.641C430.969 735.938 431.852 735.023 432.398 733.898V728.695H429C423.688 728.695 421.031 730.25 421.031 733.359C421.031 734.719 421.484 735.781 422.391 736.547C423.297 737.312 424.461 737.695 425.883 737.695ZM442.477 728.109C442.477 724.219 443.398 721.094 445.242 718.734C447.086 716.359 449.5 715.172 452.484 715.172C455.453 715.172 457.805 716.188 459.539 718.219V705H463.875V741H459.891L459.68 738.281C457.945 740.406 455.531 741.469 452.438 741.469C449.5 741.469 447.102 740.266 445.242 737.859C443.398 735.453 442.477 732.312 442.477 728.438V728.109ZM446.812 728.602C446.812 731.477 447.406 733.727 448.594 735.352C449.781 736.977 451.422 737.789 453.516 737.789C456.266 737.789 458.273 736.555 459.539 734.086V722.438C458.242 720.047 456.25 718.852 453.562 718.852C451.438 718.852 449.781 719.672 448.594 721.312C447.406 722.953 446.812 725.383 446.812 728.602ZM486.281 741C486.031 740.5 485.828 739.609 485.672 738.328C483.656 740.422 481.25 741.469 478.453 741.469C475.953 741.469 473.898 740.766 472.289 739.359C470.695 737.938 469.898 736.141 469.898 733.969C469.898 731.328 470.898 729.281 472.898 727.828C474.914 726.359 477.742 725.625 481.383 725.625H485.602V723.633C485.602 722.117 485.148 720.914 484.242 720.023C483.336 719.117 482 718.664 480.234 718.664C478.688 718.664 477.391 719.055 476.344 719.836C475.297 720.617 474.773 721.562 474.773 722.672H470.414C470.414 721.406 470.859 720.188 471.75 719.016C472.656 717.828 473.875 716.891 475.406 716.203C476.953 715.516 478.648 715.172 480.492 715.172C483.414 715.172 485.703 715.906 487.359 717.375C489.016 718.828 489.875 720.836 489.938 723.398V735.07C489.938 737.398 490.234 739.25 490.828 740.625V741H486.281ZM479.086 737.695C480.445 737.695 481.734 737.344 482.953 736.641C484.172 735.938 485.055 735.023 485.602 733.898V728.695H482.203C476.891 728.695 474.234 730.25 474.234 733.359C474.234 734.719 474.688 735.781 475.594 736.547C476.5 737.312 477.664 737.695 479.086 737.695ZM510.773 741V718.992H506.766V715.641H510.773V713.039C510.773 710.32 511.5 708.219 512.953 706.734C514.406 705.25 516.461 704.508 519.117 704.508C520.117 704.508 521.109 704.641 522.094 704.906L521.859 708.422C521.125 708.281 520.344 708.211 519.516 708.211C518.109 708.211 517.023 708.625 516.258 709.453C515.492 710.266 515.109 711.438 515.109 712.969V715.641H520.523V718.992H515.109V741H510.773ZM524.18 728.086C524.18 725.602 524.664 723.367 525.633 721.383C526.617 719.398 527.977 717.867 529.711 716.789C531.461 715.711 533.453 715.172 535.688 715.172C539.141 715.172 541.93 716.367 544.055 718.758C546.195 721.148 547.266 724.328 547.266 728.297V728.602C547.266 731.07 546.789 733.289 545.836 735.258C544.898 737.211 543.547 738.734 541.781 739.828C540.031 740.922 538.016 741.469 535.734 741.469C532.297 741.469 529.508 740.273 527.367 737.883C525.242 735.492 524.18 732.328 524.18 728.391V728.086ZM528.539 728.602C528.539 731.414 529.188 733.672 530.484 735.375C531.797 737.078 533.547 737.93 535.734 737.93C537.938 737.93 539.688 737.07 540.984 735.352C542.281 733.617 542.93 731.195 542.93 728.086C542.93 725.305 542.266 723.055 540.938 721.336C539.625 719.602 537.875 718.734 535.688 718.734C533.547 718.734 531.82 719.586 530.508 721.289C529.195 722.992 528.539 725.43 528.539 728.602ZM564.961 719.531C564.305 719.422 563.594 719.367 562.828 719.367C559.984 719.367 558.055 720.578 557.039 723V741H552.703V715.641H556.922L556.992 718.57C558.414 716.305 560.43 715.172 563.039 715.172C563.883 715.172 564.523 715.281 564.961 715.5V719.531ZM596.531 738.492C594.844 740.477 592.367 741.469 589.102 741.469C586.398 741.469 584.336 740.688 582.914 739.125C581.508 737.547 580.797 735.219 580.781 732.141V715.641H585.117V732.023C585.117 735.867 586.68 737.789 589.805 737.789C593.117 737.789 595.32 736.555 596.414 734.086V715.641H600.75V741H596.625L596.531 738.492ZM611.461 715.641L611.602 718.828C613.539 716.391 616.07 715.172 619.195 715.172C624.555 715.172 627.258 718.195 627.305 724.242V741H622.969V724.219C622.953 722.391 622.531 721.039 621.703 720.164C620.891 719.289 619.617 718.852 617.883 718.852C616.477 718.852 615.242 719.227 614.18 719.977C613.117 720.727 612.289 721.711 611.695 722.93V741H607.359V715.641H611.461ZM638.555 741H634.219V715.641H638.555V741ZM633.867 708.914C633.867 708.211 634.078 707.617 634.5 707.133C634.938 706.648 635.578 706.406 636.422 706.406C637.266 706.406 637.906 706.648 638.344 707.133C638.781 707.617 639 708.211 639 708.914C639 709.617 638.781 710.203 638.344 710.672C637.906 711.141 637.266 711.375 636.422 711.375C635.578 711.375 634.938 711.141 634.5 710.672C634.078 710.203 633.867 709.617 633.867 708.914ZM653.883 735.117L660.164 715.641H664.594L655.5 741H652.195L643.008 715.641H647.438L653.883 735.117ZM678.961 741.469C675.523 741.469 672.727 740.344 670.57 738.094C668.414 735.828 667.336 732.805 667.336 729.023V728.227C667.336 725.711 667.812 723.469 668.766 721.5C669.734 719.516 671.078 717.969 672.797 716.859C674.531 715.734 676.406 715.172 678.422 715.172C681.719 715.172 684.281 716.258 686.109 718.43C687.938 720.602 688.852 723.711 688.852 727.758V729.562H671.672C671.734 732.062 672.461 734.086 673.852 735.633C675.258 737.164 677.039 737.93 679.195 737.93C680.727 737.93 682.023 737.617 683.086 736.992C684.148 736.367 685.078 735.539 685.875 734.508L688.523 736.57C686.398 739.836 683.211 741.469 678.961 741.469ZM678.422 718.734C676.672 718.734 675.203 719.375 674.016 720.656C672.828 721.922 672.094 723.703 671.812 726H684.516V725.672C684.391 723.469 683.797 721.766 682.734 720.562C681.672 719.344 680.234 718.734 678.422 718.734ZM706.148 719.531C705.492 719.422 704.781 719.367 704.016 719.367C701.172 719.367 699.242 720.578 698.227 723V741H693.891V715.641H698.109L698.18 718.57C699.602 716.305 701.617 715.172 704.227 715.172C705.07 715.172 705.711 715.281 706.148 715.5V719.531ZM724.922 734.273C724.922 733.102 724.477 732.195 723.586 731.555C722.711 730.898 721.172 730.336 718.969 729.867C716.781 729.398 715.039 728.836 713.742 728.18C712.461 727.523 711.508 726.742 710.883 725.836C710.273 724.93 709.969 723.852 709.969 722.602C709.969 720.523 710.844 718.766 712.594 717.328C714.359 715.891 716.609 715.172 719.344 715.172C722.219 715.172 724.547 715.914 726.328 717.398C728.125 718.883 729.023 720.781 729.023 723.094H724.664C724.664 721.906 724.156 720.883 723.141 720.023C722.141 719.164 720.875 718.734 719.344 718.734C717.766 718.734 716.531 719.078 715.641 719.766C714.75 720.453 714.305 721.352 714.305 722.461C714.305 723.508 714.719 724.297 715.547 724.828C716.375 725.359 717.867 725.867 720.023 726.352C722.195 726.836 723.953 727.414 725.297 728.086C726.641 728.758 727.633 729.57 728.273 730.523C728.93 731.461 729.258 732.609 729.258 733.969C729.258 736.234 728.352 738.055 726.539 739.43C724.727 740.789 722.375 741.469 719.484 741.469C717.453 741.469 715.656 741.109 714.094 740.391C712.531 739.672 711.305 738.672 710.414 737.391C709.539 736.094 709.102 734.695 709.102 733.195H713.438C713.516 734.648 714.094 735.805 715.172 736.664C716.266 737.508 717.703 737.93 719.484 737.93C721.125 737.93 722.438 737.602 723.422 736.945C724.422 736.273 724.922 735.383 724.922 734.273ZM739.617 741H735.281V715.641H739.617V741ZM734.93 708.914C734.93 708.211 735.141 707.617 735.562 707.133C736 706.648 736.641 706.406 737.484 706.406C738.328 706.406 738.969 706.648 739.406 707.133C739.844 707.617 740.062 708.211 740.062 708.914C740.062 709.617 739.844 710.203 739.406 710.672C738.969 711.141 738.328 711.375 737.484 711.375C736.641 711.375 736 711.141 735.562 710.672C735.141 710.203 734.93 709.617 734.93 708.914ZM752.461 709.5V715.641H757.195V718.992H752.461V734.719C752.461 735.734 752.672 736.5 753.094 737.016C753.516 737.516 754.234 737.766 755.25 737.766C755.75 737.766 756.438 737.672 757.312 737.484V741C756.172 741.312 755.062 741.469 753.984 741.469C752.047 741.469 750.586 740.883 749.602 739.711C748.617 738.539 748.125 736.875 748.125 734.719V718.992H743.508V715.641H748.125V709.5H752.461ZM770.578 734.648L776.484 715.641H781.125L770.93 744.914C769.352 749.133 766.844 751.242 763.406 751.242L762.586 751.172L760.969 750.867V747.352L762.141 747.445C763.609 747.445 764.75 747.148 765.562 746.555C766.391 745.961 767.07 744.875 767.602 743.297L768.562 740.719L759.516 715.641H764.25L770.578 734.648ZM45.9375 797C45.6875 796.5 45.4844 795.609 45.3281 794.328C43.3125 796.422 40.9062 797.469 38.1094 797.469C35.6094 797.469 33.5547 796.766 31.9453 795.359C30.3516 793.938 29.5547 792.141 29.5547 789.969C29.5547 787.328 30.5547 785.281 32.5547 783.828C34.5703 782.359 37.3984 781.625 41.0391 781.625H45.2578V779.633C45.2578 778.117 44.8047 776.914 43.8984 776.023C42.9922 775.117 41.6562 774.664 39.8906 774.664C38.3438 774.664 37.0469 775.055 36 775.836C34.9531 776.617 34.4297 777.562 34.4297 778.672H30.0703C30.0703 777.406 30.5156 776.188 31.4062 775.016C32.3125 773.828 33.5312 772.891 35.0625 772.203C36.6094 771.516 38.3047 771.172 40.1484 771.172C43.0703 771.172 45.3594 771.906 47.0156 773.375C48.6719 774.828 49.5312 776.836 49.5938 779.398V791.07C49.5938 793.398 49.8906 795.25 50.4844 796.625V797H45.9375ZM38.7422 793.695C40.1016 793.695 41.3906 793.344 42.6094 792.641C43.8281 791.938 44.7109 791.023 45.2578 789.898V784.695H41.8594C36.5469 784.695 33.8906 786.25 33.8906 789.359C33.8906 790.719 34.3438 791.781 35.25 792.547C36.1562 793.312 37.3203 793.695 38.7422 793.695ZM62.2734 765.5V771.641H67.0078V774.992H62.2734V790.719C62.2734 791.734 62.4844 792.5 62.9062 793.016C63.3281 793.516 64.0469 793.766 65.0625 793.766C65.5625 793.766 66.25 793.672 67.125 793.484V797C65.9844 797.312 64.875 797.469 63.7969 797.469C61.8594 797.469 60.3984 796.883 59.4141 795.711C58.4297 794.539 57.9375 792.875 57.9375 790.719V774.992H53.3203V771.641H57.9375V765.5H62.2734ZM89.8828 765.5V771.641H94.6172V774.992H89.8828V790.719C89.8828 791.734 90.0938 792.5 90.5156 793.016C90.9375 793.516 91.6562 793.766 92.6719 793.766C93.1719 793.766 93.8594 793.672 94.7344 793.484V797C93.5938 797.312 92.4844 797.469 91.4062 797.469C89.4688 797.469 88.0078 796.883 87.0234 795.711C86.0391 794.539 85.5469 792.875 85.5469 790.719V774.992H80.9297V771.641H85.5469V765.5H89.8828ZM104.039 774.711C105.961 772.352 108.461 771.172 111.539 771.172C116.898 771.172 119.602 774.195 119.648 780.242V797H115.312V780.219C115.297 778.391 114.875 777.039 114.047 776.164C113.234 775.289 111.961 774.852 110.227 774.852C108.82 774.852 107.586 775.227 106.523 775.977C105.461 776.727 104.633 777.711 104.039 778.93V797H99.7031V761H104.039V774.711ZM136.664 797.469C133.227 797.469 130.43 796.344 128.273 794.094C126.117 791.828 125.039 788.805 125.039 785.023V784.227C125.039 781.711 125.516 779.469 126.469 777.5C127.438 775.516 128.781 773.969 130.5 772.859C132.234 771.734 134.109 771.172 136.125 771.172C139.422 771.172 141.984 772.258 143.812 774.43C145.641 776.602 146.555 779.711 146.555 783.758V785.562H129.375C129.438 788.062 130.164 790.086 131.555 791.633C132.961 793.164 134.742 793.93 136.898 793.93C138.43 793.93 139.727 793.617 140.789 792.992C141.852 792.367 142.781 791.539 143.578 790.508L146.227 792.57C144.102 795.836 140.914 797.469 136.664 797.469ZM136.125 774.734C134.375 774.734 132.906 775.375 131.719 776.656C130.531 777.922 129.797 779.703 129.516 782H142.219V781.672C142.094 779.469 141.5 777.766 140.438 776.562C139.375 775.344 137.938 774.734 136.125 774.734ZM179.156 797C178.906 796.5 178.703 795.609 178.547 794.328C176.531 796.422 174.125 797.469 171.328 797.469C168.828 797.469 166.773 796.766 165.164 795.359C163.57 793.938 162.773 792.141 162.773 789.969C162.773 787.328 163.773 785.281 165.773 783.828C167.789 782.359 170.617 781.625 174.258 781.625H178.477V779.633C178.477 778.117 178.023 776.914 177.117 776.023C176.211 775.117 174.875 774.664 173.109 774.664C171.562 774.664 170.266 775.055 169.219 775.836C168.172 776.617 167.648 777.562 167.648 778.672H163.289C163.289 777.406 163.734 776.188 164.625 775.016C165.531 773.828 166.75 772.891 168.281 772.203C169.828 771.516 171.523 771.172 173.367 771.172C176.289 771.172 178.578 771.906 180.234 773.375C181.891 774.828 182.75 776.836 182.812 779.398V791.07C182.812 793.398 183.109 795.25 183.703 796.625V797H179.156ZM171.961 793.695C173.32 793.695 174.609 793.344 175.828 792.641C177.047 791.938 177.93 791.023 178.477 789.898V784.695H175.078C169.766 784.695 167.109 786.25 167.109 789.359C167.109 790.719 167.562 791.781 168.469 792.547C169.375 793.312 170.539 793.695 171.961 793.695ZM188.578 784.109C188.578 780.156 189.492 777.016 191.32 774.688C193.148 772.344 195.57 771.172 198.586 771.172C201.68 771.172 204.094 772.266 205.828 774.453L206.039 771.641H210V796.391C210 799.672 209.023 802.258 207.07 804.148C205.133 806.039 202.523 806.984 199.242 806.984C197.414 806.984 195.625 806.594 193.875 805.812C192.125 805.031 190.789 803.961 189.867 802.602L192.117 800C193.977 802.297 196.25 803.445 198.938 803.445C201.047 803.445 202.688 802.852 203.859 801.664C205.047 800.477 205.641 798.805 205.641 796.648V794.469C203.906 796.469 201.539 797.469 198.539 797.469C195.57 797.469 193.164 796.273 191.32 793.883C189.492 791.492 188.578 788.234 188.578 784.109ZM192.938 784.602C192.938 787.461 193.523 789.711 194.695 791.352C195.867 792.977 197.508 793.789 199.617 793.789C202.352 793.789 204.359 792.547 205.641 790.062V778.484C204.312 776.062 202.32 774.852 199.664 774.852C197.555 774.852 195.906 775.672 194.719 777.312C193.531 778.953 192.938 781.383 192.938 784.602ZM227.086 797.469C223.648 797.469 220.852 796.344 218.695 794.094C216.539 791.828 215.461 788.805 215.461 785.023V784.227C215.461 781.711 215.938 779.469 216.891 777.5C217.859 775.516 219.203 773.969 220.922 772.859C222.656 771.734 224.531 771.172 226.547 771.172C229.844 771.172 232.406 772.258 234.234 774.43C236.062 776.602 236.977 779.711 236.977 783.758V785.562H219.797C219.859 788.062 220.586 790.086 221.977 791.633C223.383 793.164 225.164 793.93 227.32 793.93C228.852 793.93 230.148 793.617 231.211 792.992C232.273 792.367 233.203 791.539 234 790.508L236.648 792.57C234.523 795.836 231.336 797.469 227.086 797.469ZM226.547 774.734C224.797 774.734 223.328 775.375 222.141 776.656C220.953 777.922 220.219 779.703 219.938 782H232.641V781.672C232.516 779.469 231.922 777.766 230.859 776.562C229.797 775.344 228.359 774.734 226.547 774.734ZM252.773 784.086C252.773 781.602 253.258 779.367 254.227 777.383C255.211 775.398 256.57 773.867 258.305 772.789C260.055 771.711 262.047 771.172 264.281 771.172C267.734 771.172 270.523 772.367 272.648 774.758C274.789 777.148 275.859 780.328 275.859 784.297V784.602C275.859 787.07 275.383 789.289 274.43 791.258C273.492 793.211 272.141 794.734 270.375 795.828C268.625 796.922 266.609 797.469 264.328 797.469C260.891 797.469 258.102 796.273 255.961 793.883C253.836 791.492 252.773 788.328 252.773 784.391V784.086ZM257.133 784.602C257.133 787.414 257.781 789.672 259.078 791.375C260.391 793.078 262.141 793.93 264.328 793.93C266.531 793.93 268.281 793.07 269.578 791.352C270.875 789.617 271.523 787.195 271.523 784.086C271.523 781.305 270.859 779.055 269.531 777.336C268.219 775.602 266.469 774.734 264.281 774.734C262.141 774.734 260.414 775.586 259.102 777.289C257.789 778.992 257.133 781.43 257.133 784.602ZM283.43 797V774.992H279.422V771.641H283.43V769.039C283.43 766.32 284.156 764.219 285.609 762.734C287.062 761.25 289.117 760.508 291.773 760.508C292.773 760.508 293.766 760.641 294.75 760.906L294.516 764.422C293.781 764.281 293 764.211 292.172 764.211C290.766 764.211 289.68 764.625 288.914 765.453C288.148 766.266 287.766 767.438 287.766 768.969V771.641H293.18V774.992H287.766V797H283.43ZM323.695 797H319.336V768.102L310.594 771.312V767.375L323.016 762.711H323.695V797ZM357.094 771.781C357.094 773.484 356.641 775 355.734 776.328C354.844 777.656 353.633 778.695 352.102 779.445C353.883 780.211 355.289 781.328 356.32 782.797C357.367 784.266 357.891 785.93 357.891 787.789C357.891 790.742 356.891 793.094 354.891 794.844C352.906 796.594 350.289 797.469 347.039 797.469C343.758 797.469 341.125 796.594 339.141 794.844C337.172 793.078 336.188 790.727 336.188 787.789C336.188 785.945 336.688 784.281 337.688 782.797C338.703 781.312 340.102 780.188 341.883 779.422C340.367 778.672 339.172 777.633 338.297 776.305C337.422 774.977 336.984 773.469 336.984 771.781C336.984 768.906 337.906 766.625 339.75 764.938C341.594 763.25 344.023 762.406 347.039 762.406C350.039 762.406 352.461 763.25 354.305 764.938C356.164 766.625 357.094 768.906 357.094 771.781ZM353.555 787.695C353.555 785.789 352.945 784.234 351.727 783.031C350.523 781.828 348.945 781.227 346.992 781.227C345.039 781.227 343.469 781.82 342.281 783.008C341.109 784.195 340.523 785.758 340.523 787.695C340.523 789.633 341.094 791.156 342.234 792.266C343.391 793.375 344.992 793.93 347.039 793.93C349.07 793.93 350.664 793.375 351.82 792.266C352.977 791.141 353.555 789.617 353.555 787.695ZM347.039 765.969C345.336 765.969 343.953 766.5 342.891 767.562C341.844 768.609 341.32 770.039 341.32 771.852C341.32 773.586 341.836 774.992 342.867 776.07C343.914 777.133 345.305 777.664 347.039 777.664C348.773 777.664 350.156 777.133 351.188 776.07C352.234 774.992 352.758 773.586 352.758 771.852C352.758 770.117 352.219 768.703 351.141 767.609C350.062 766.516 348.695 765.969 347.039 765.969ZM363.891 794.727C363.891 793.977 364.109 793.352 364.547 792.852C365 792.352 365.672 792.102 366.562 792.102C367.453 792.102 368.125 792.352 368.578 792.852C369.047 793.352 369.281 793.977 369.281 794.727C369.281 795.445 369.047 796.047 368.578 796.531C368.125 797.016 367.453 797.258 366.562 797.258C365.672 797.258 365 797.016 364.547 796.531C364.109 796.047 363.891 795.445 363.891 794.727Z" fill="black"/>
<path d="M81.666 81.1675C81.2331 82.7625 80.6064 84.1525 79.7861 85.3374C78.9658 86.4995 78.0202 87.5021 76.9492 88.3452C75.901 89.1655 74.7617 89.8491 73.5312 90.396C72.3008 90.9201 71.0361 91.3302 69.7373 91.6265C68.4613 91.9227 67.1966 92.1278 65.9434 92.2417C64.6901 92.3556 63.5166 92.4012 62.4229 92.3784H62.0811C59.5518 92.3101 57.1592 92.0138 54.9033 91.4897C52.6702 90.9884 50.6536 90.3049 48.8535 89.439C47.0762 88.5503 45.5837 87.4907 44.376 86.2603C43.1683 85.0298 42.348 83.6626 41.915 82.1587C41.6188 81.2017 41.4707 80.2446 41.4707 79.2876C41.4707 78.3306 41.6302 77.4875 41.9492 76.7583C42.2682 76.0063 42.6898 75.3911 43.2139 74.9126C43.7607 74.4113 44.3874 74.0353 45.0938 73.7847C45.8001 73.5112 46.5521 73.3631 47.3496 73.3403C48.3066 73.3403 49.2067 73.5568 50.0498 73.9897C50.8929 74.4227 51.6221 75.0265 52.2373 75.8013C52.8525 76.576 53.3311 77.4989 53.6729 78.5698C54.0374 79.618 54.2197 80.7687 54.2197 82.022C54.2197 83.1157 54.3451 84.1981 54.5957 85.269C54.8691 86.34 55.3021 87.3084 55.8945 88.1743C56.5098 89.0174 57.3187 89.7124 58.3213 90.2593C59.3239 90.8062 60.5771 91.091 62.0811 91.1138H62.3545C63.3571 91.0682 64.3141 90.715 65.2256 90.0542C66.137 89.3934 66.9346 88.5389 67.6182 87.4907C68.3018 86.4198 68.8372 85.2235 69.2246 83.9019C69.6348 82.5575 69.8398 81.1789 69.8398 79.7661C69.8398 78.3989 69.612 77.0545 69.1562 75.7329C68.7233 74.3885 67.9941 73.1808 66.9688 72.1099C65.9661 71.0389 64.6559 70.1502 63.0381 69.4438C61.4202 68.7147 59.4378 68.2817 57.0908 68.145C56.8402 68.145 56.5895 68.145 56.3389 68.145C56.111 68.145 55.8717 68.1222 55.6211 68.0767H55.5527L55.6211 66.812H55.6895C55.9857 66.812 56.2591 66.812 56.5098 66.812C56.7832 66.812 57.0452 66.8348 57.2959 66.8804C59.5518 66.8576 61.4658 66.5158 63.0381 65.855C64.6104 65.1942 65.875 64.3511 66.832 63.3257C67.8118 62.2775 68.5182 61.0926 68.9512 59.771C69.4069 58.4266 69.6348 57.048 69.6348 55.6353C69.6348 54.1997 69.4297 52.7983 69.0195 51.4312C68.6322 50.0412 68.0967 48.8107 67.4131 47.7397C66.7295 46.6688 65.932 45.8143 65.0205 45.1763C64.109 44.5155 63.1292 44.1965 62.0811 44.2192C60.5771 44.2648 59.3239 44.561 58.3213 45.1079C57.3187 45.632 56.5098 46.327 55.8945 47.1929C55.3021 48.036 54.8691 48.993 54.5957 50.064C54.3451 51.1349 54.2197 52.2173 54.2197 53.311C54.2197 54.5643 54.0374 55.7264 53.6729 56.7974C53.3311 57.8455 52.8525 58.757 52.2373 59.5317C51.6221 60.2837 50.8929 60.8761 50.0498 61.3091C49.2067 61.742 48.3066 61.9471 47.3496 61.9243C46.5521 61.9243 45.8001 61.799 45.0938 61.5483C44.3874 61.2977 43.7607 60.9331 43.2139 60.4546C42.6898 59.9533 42.2682 59.3381 41.9492 58.6089C41.6302 57.8569 41.4707 57.0024 41.4707 56.0454C41.4707 55.134 41.6188 54.1997 41.915 53.2427C42.348 51.7388 43.1683 50.3716 44.376 49.1411C45.5837 47.8879 47.0762 46.8169 48.8535 45.9282C50.6536 45.0168 52.6702 44.3104 54.9033 43.8091C57.1592 43.285 59.5518 43.0002 62.0811 42.9546H62.4229C63.5166 42.9546 64.6901 43.0116 65.9434 43.1255C67.1966 43.2166 68.4613 43.4217 69.7373 43.7407C71.0361 44.0369 72.3008 44.4585 73.5312 45.0054C74.7617 45.5295 75.901 46.2131 76.9492 47.0562C78.0202 47.8765 78.9658 48.8791 79.7861 50.064C80.6064 51.2261 81.2331 52.5933 81.666 54.1655C81.8483 54.8263 81.9736 55.4871 82.042 56.1479C82.1104 56.8088 82.1445 57.4696 82.1445 58.1304C82.1445 60.2723 81.5863 62.2205 80.4697 63.9751C79.3532 65.7297 77.5075 67.1196 74.9326 68.145C77.2796 69.1476 79.0456 70.5262 80.2305 72.2808C81.4154 74.0125 82.0078 75.9494 82.0078 78.0913C82.0078 78.6154 81.985 79.1395 81.9395 79.6636C81.8939 80.1877 81.8027 80.689 81.666 81.1675Z" fill="black"/>
<path d="M166.898 345.086C161.988 325.97 165.089 322.993 166.898 305.584C166.898 305.584 161.496 309.209 143.401 312.962C125.307 316.716 111.146 316.716 103.147 316.716C95.1491 316.716 83.2745 313.718 68.794 312.962C62.0034 312.658 53.5841 305.716 45.0613 300.271C36.5385 294.827 34.0582 289.974 25 276.32C40.3329 269.843 74.301 271.851 83.4794 270.778C92.6578 269.706 115.21 268.097 129.634 263.629C144.057 259.16 155.204 245.869 167.692 232.684C191.883 201.076 209.144 210.276 214.541 204.674C219.938 199.071 307.526 194.5 321.319 202.34C335.112 210.179 373.833 216.257 380.325 237.891C398.401 243.103 405.361 257.723 419.784 262.192C434.207 266.661 456.76 268.269 465.938 269.342C475.117 270.414 511.667 255.715 527 262.192C517.942 275.847 512.879 293.39 504.356 298.835C495.834 304.28 487.414 311.221 480.624 311.526C466.143 312.282 454.269 315.28 446.27 315.28C438.272 315.28 424.111 315.28 406.017 311.526C390.109 308.226 382.315 300.92 380.663 299.202C384.762 304.359 385.443 331.997 375.16 350.113C364.601 368.717 359.932 361.055 349.467 364.298C339.001 367.541 293.689 372.683 293.689 368.248C293.689 363.814 261.547 368.248 249.919 368.248C238.291 368.248 208.473 364.298 208.473 364.298C208.473 364.298 171.807 364.201 166.898 345.086Z" fill="#93BE37" fill-opacity="0.8"/>
<path d="M166.898 259.355C166.9 274.164 167.535 281.543 167.675 288.723M167.675 288.723C167.772 293.656 167.634 298.494 166.898 305.584M167.675 288.723C167.729 289.073 167.736 289.426 167.692 289.783M167.675 288.723C166.699 282.397 150.212 277.393 135.652 277.393C120.287 277.393 131.391 272.951 106.859 277.393C82.3272 281.835 69.5815 283.808 47.466 280.625M166.898 305.584C165.089 322.993 161.988 325.97 166.898 345.086C171.807 364.201 208.473 364.298 208.473 364.298C208.473 364.298 238.291 368.248 249.919 368.248C261.547 368.248 293.689 363.814 293.689 368.248C293.689 372.683 339.001 367.541 349.467 364.298C359.932 361.055 364.601 368.717 375.16 350.113C385.443 331.997 384.762 304.359 380.663 299.202M166.898 305.584C166.898 305.584 161.496 309.209 143.401 312.962C125.307 316.716 111.146 316.716 103.147 316.716C95.1491 316.716 83.2745 313.718 68.794 312.962C62.0034 312.658 53.5841 305.716 45.0613 300.271C36.5385 294.827 34.0582 289.974 25 276.32C40.3329 269.843 74.301 271.851 83.4794 270.778C92.6578 269.706 115.21 268.097 129.634 263.629C144.057 259.16 155.204 245.869 167.692 232.684M380.663 299.202C380.553 299.063 380.44 298.941 380.325 298.835M380.663 299.202C382.315 300.92 390.109 308.226 406.017 311.526C424.111 315.28 438.272 315.28 446.27 315.28C454.269 315.28 466.143 312.282 480.624 311.526C487.414 311.221 495.834 304.28 504.356 298.835C512.879 293.39 517.942 275.847 527 262.192C511.667 255.715 475.117 270.414 465.938 269.342C456.76 268.269 434.207 266.661 419.784 262.192C405.361 257.723 398.401 243.103 380.325 237.891M380.663 299.202C380.436 298.966 380.325 298.835 380.325 298.835M380.325 298.835C375.932 294.805 380.325 259.355 380.325 259.355M167.692 232.684C191.883 201.076 209.144 210.276 214.541 204.674C219.938 199.071 307.526 194.5 321.319 202.34C335.112 210.179 373.833 216.257 380.325 237.891M167.692 232.684C164.506 238.738 165.219 240.764 165.219 247.228M380.325 237.891C382.19 243.307 380.989 244.53 381.229 248.844M378.769 277.393C377.936 270.575 395.718 268.991 411.082 268.991C426.447 268.991 431.326 276.363 455.858 280.805C480.389 285.247 487.841 277.344 509.957 274.162" stroke="black" stroke-width="5"/>
<path d="M269.139 293.852C267.862 295.083 267.109 295.176 265.671 293.852C266.539 286.864 266.932 288.482 269.139 286.147C271.345 283.813 284.585 283.813 286.871 286.147C289.156 288.482 289.338 286.237 289.945 293.034C288.791 294.643 288.349 295.314 286.871 293.852" stroke="black" stroke-width="5"/>
<path d="M233.111 259.355C239.17 266.305 241.632 272.463 246.151 285.211C244.969 288.955 244.344 291.496 241.632 295.087C238.921 298.678 231.174 306.04 224.976 307.297C218.779 308.554 203.802 307.476 196.829 303.706C189.857 299.935 183.143 292.214 184.822 279.825C186.5 267.435 192.052 262.587 195.538 259.355C199.024 256.123 204.267 253.916 210.257 251.275C218.4 249.811 222.631 250.051 233.111 259.355Z" fill="black"/>
<path d="M195.538 259.355C199.024 256.123 204.267 253.916 210.257 251.275C218.4 249.811 222.631 250.051 233.111 259.355C239.17 266.305 241.632 272.463 246.151 285.211C244.969 288.955 244.344 291.496 241.632 295.087M195.538 259.355C192.052 262.587 186.5 267.435 184.822 279.825C183.143 292.214 189.857 299.935 196.829 303.706M195.538 259.355C191.226 266.995 186.779 280.268 187.943 287.922C189.108 295.576 192.823 298.185 196.829 303.706M196.829 303.706C203.802 307.476 218.779 308.554 224.976 307.297C231.174 306.04 238.921 298.678 241.632 295.087M241.632 295.087C243.107 291.511 243.204 288.084 243.334 285.211C243.463 282.339 242.827 278.763 242.43 275.176" stroke="black" stroke-width="5"/>
<path d="M219.833 279.281C220.003 278.564 220.712 277.687 221.361 277.233C222.029 276.69 222.04 276.721 223.059 276.618C224.077 276.516 224.332 276.721 225.011 277.233C225.69 277.745 225.86 278.769 226.03 279.691C226.2 280.613 226.157 280.485 226.157 281.714C226.157 282.943 226.072 282.763 225.733 283.378C225.393 283.992 224.672 284.197 224.077 284.402C223.483 284.607 222.465 284.402 222.465 284.402C222.465 284.402 220.979 283.89 220.725 283.378C220.47 282.866 220.003 282.559 219.833 281.227C219.664 279.896 219.664 279.998 219.833 279.281Z" fill="#FFFFFD"/>
<path d="M202.593 271.067C202.844 269.763 203.894 268.167 204.854 267.342C205.843 266.355 205.859 266.411 207.367 266.225C208.875 266.039 209.251 266.411 210.256 267.342C211.261 268.273 211.513 270.136 211.764 271.811C212.015 273.487 211.952 273.255 211.952 275.489C211.952 277.724 211.827 277.398 211.324 278.515C210.822 279.632 209.754 280.005 208.875 280.377C207.995 280.75 206.488 280.377 206.488 280.377C206.488 280.377 204.289 279.446 203.912 278.515C203.535 277.584 202.844 277.025 202.593 274.605C202.342 272.184 202.342 272.37 202.593 271.067Z" fill="#FFFFFD"/>
<path d="M184.846 279.825C186.525 267.435 192.077 262.587 195.563 259.355C191.251 266.995 186.803 280.268 187.968 287.922C189.132 295.576 192.848 298.185 196.854 303.706C189.882 299.935 183.168 292.214 184.846 279.825Z" fill="#FFFFFD" stroke="black" stroke-width="5"/>
<path d="M240.235 270.308C243.957 280.344 241.526 272.463 246.045 285.211C244.863 288.955 243.592 292.034 240.88 295.626C242.355 292.05 242.453 286.988 242.582 284.115C242.711 281.242 240.632 273.896 240.235 270.308Z" fill="#FFFFFD" stroke="black" stroke-width="5"/>
<path d="M317.446 260.563C311.386 267.512 308.924 273.67 304.405 286.419C305.587 290.163 306.213 292.703 308.924 296.294C311.636 299.885 319.383 307.247 325.58 308.504C331.778 309.761 346.755 308.684 353.727 304.913C360.7 301.142 367.414 293.421 365.735 281.032C364.057 268.643 358.505 263.795 355.018 260.563C351.532 257.331 346.29 255.123 340.299 252.483C332.156 251.018 327.926 251.258 317.446 260.563Z" fill="black"/>
<path d="M355.018 260.563C351.532 257.331 346.29 255.123 340.299 252.483C332.156 251.018 327.926 251.258 317.446 260.563C311.386 267.512 308.924 273.67 304.405 286.419C305.587 290.163 306.213 292.703 308.924 296.294M355.018 260.563C358.505 263.795 364.057 268.643 365.735 281.032C367.414 293.421 360.7 301.142 353.727 304.913M355.018 260.563C359.33 268.202 363.778 281.475 362.613 289.129C361.449 296.783 357.733 299.392 353.727 304.913M353.727 304.913C346.755 308.684 331.778 309.761 325.58 308.504C319.383 307.247 311.636 299.885 308.924 296.294M308.924 296.294C307.45 292.718 307.352 289.292 307.223 286.419C307.094 283.546 307.73 279.971 308.127 276.383" stroke="black" stroke-width="5"/>
<path d="M347.919 281.436C347.749 280.719 347.04 279.841 346.391 279.387C345.723 278.844 345.712 278.875 344.693 278.773C343.674 278.671 343.42 278.875 342.741 279.387C342.062 279.9 341.892 280.924 341.722 281.846C341.552 282.767 341.595 282.639 341.595 283.868C341.595 285.097 341.68 284.918 342.019 285.533C342.359 286.147 343.08 286.352 343.674 286.557C344.269 286.762 345.287 286.557 345.287 286.557C345.287 286.557 346.773 286.045 347.027 285.533C347.282 285.021 347.749 284.713 347.919 283.382C348.088 282.05 348.088 282.153 347.919 281.436Z" fill="#FFFFFD"/>
<path d="M335.685 272.747C335.386 271.379 334.138 269.703 332.996 268.837C331.821 267.8 331.801 267.859 330.008 267.664C328.215 267.468 327.767 267.859 326.572 268.837C325.377 269.815 325.078 271.77 324.779 273.53C324.481 275.289 324.555 275.045 324.555 277.391C324.555 279.738 324.705 279.395 325.302 280.569C325.9 281.742 327.17 282.133 328.215 282.524C329.261 282.915 331.054 282.524 331.054 282.524C331.054 282.524 333.668 281.546 334.116 280.569C334.565 279.591 335.386 279.004 335.685 276.462C335.984 273.921 335.984 274.116 335.685 272.747Z" fill="#FFFFFD"/>
<path d="M365.71 281.032C364.031 268.643 358.479 263.795 354.993 260.563C359.305 268.202 363.752 281.475 362.588 289.129C361.424 296.783 357.708 299.392 353.702 304.913C360.674 301.142 367.388 293.421 365.71 281.032Z" fill="#FFFFFD" stroke="black" stroke-width="5"/>
<path d="M310.322 271.516C306.6 281.551 309.031 273.67 304.512 286.419C305.694 290.163 306.965 293.242 309.676 296.833C308.202 293.257 308.104 288.195 307.975 285.322C307.846 282.449 309.924 275.103 310.322 271.516Z" fill="#FFFFFD" stroke="black" stroke-width="5"/>
<path d="M175.548 260.597C187.03 249.919 194.077 247.886 202.754 245.341C211.43 242.797 222.496 244.094 228.207 246.291C233.917 248.487 247.672 261.073 250.239 268.138" stroke="black" stroke-width="5"/>
<path d="M374.794 256.576C363.029 246.509 355.933 244.847 347.193 242.761C338.453 240.675 327.431 242.553 321.784 245.048C316.137 247.544 302.735 260.844 300.362 268.039" stroke="black" stroke-width="5"/>
<path d="M250.26 322.522C253.307 318.226 257.729 317.587 263.499 314.573C269.269 311.559 281.915 309.823 286.593 311.251C291.271 312.679 296.673 311.264 303.98 317.001" stroke="black" stroke-width="5"/>
<path d="M255.345 187.892C254.615 194.766 255.341 197.716 258.44 201.539" stroke="black" stroke-width="5"/>
<path d="M267.286 186.824C265.488 193.539 265.975 196.741 269.219 201.556" stroke="black" stroke-width="5"/>
<path d="M277.664 186.138C279.517 193.272 280.375 198.124 277.162 203.172" stroke="black" stroke-width="5"/>
<path d="M259.086 192.561L260.894 199.384" stroke="black" stroke-width="5"/>
<path d="M271.094 199.384L272.901 206.207" stroke="black" stroke-width="5"/>
<path d="M286.33 187.892L284.522 200.461" stroke="black" stroke-width="5"/>
<path d="M289.506 424.855C289.749 422.642 289.977 420.558 290.189 418.593L289.506 424.855Z" fill="#E07E24" fill-opacity="0.8"/>
<path d="M207.44 364.704C207.44 364.704 170.775 364.607 165.865 345.492C165.865 345.492 159.644 341.901 156.933 356.085C154.222 370.27 154.91 378.712 156.933 386.43C158.956 394.149 165.584 400.974 165.584 400.974L233.627 421.084C255.617 423.035 280.755 428.267 289.506 424.855L290.189 418.593C293.448 388.381 293.67 387.433 292.66 368.723C292.657 368.701 292.656 368.678 292.656 368.654C292.656 364.219 260.514 368.654 248.886 368.654C237.258 368.654 207.44 364.704 207.44 364.704Z" fill="#E07E24" fill-opacity="0.8"/>
<path d="M374.234 351.776C363.675 370.38 358.899 361.461 348.434 364.704C338.024 367.93 293.13 373.035 292.66 368.723C293.67 387.433 293.448 388.381 290.189 418.593C294.603 418.832 334.675 420.864 355.641 417.134C377.849 413.184 375.357 414.082 383.682 400.974C392.008 387.867 389.363 383.557 383.682 369.013C378.001 354.469 374.234 351.776 374.234 351.776Z" fill="#E07E24" fill-opacity="0.8"/>
<path d="M292.656 368.654C292.656 364.219 260.514 368.654 248.886 368.654C237.258 368.654 207.44 364.704 207.44 364.704C207.44 364.704 170.775 364.607 165.865 345.492C165.865 345.492 159.644 341.901 156.933 356.085C154.222 370.27 154.91 378.712 156.933 386.43C158.956 394.149 165.584 400.974 165.584 400.974L233.627 421.084C255.617 423.035 280.755 428.267 289.506 424.855M292.656 368.654C292.656 368.678 292.657 368.701 292.66 368.723M292.656 368.654C292.657 368.677 292.659 368.7 292.66 368.723M289.506 424.855C289.749 422.642 289.977 420.558 290.189 418.593M289.506 424.855L290.189 418.593M290.189 418.593C294.603 418.832 334.675 420.864 355.641 417.134C377.849 413.184 375.357 414.082 383.682 400.974C392.008 387.867 389.363 383.557 383.682 369.013C378.001 354.469 374.234 351.776 374.234 351.776C363.675 370.38 358.899 361.461 348.434 364.704C338.024 367.93 293.13 373.035 292.66 368.723M290.189 418.593C293.448 388.381 293.67 387.433 292.66 368.723" stroke="black" stroke-width="5"/>
<path d="M289.506 425.192C289.75 422.978 289.977 420.895 290.189 418.929L289.506 425.192Z" fill="#BD722D" fill-opacity="0.9"/>
<path d="M183.139 503.453C184.021 500.378 184.845 495.885 185.606 490.503L154.743 480.223C159.391 481.723 185.606 490.503 185.606 490.503C184.845 495.885 184.021 500.378 183.139 503.453C177.589 522.799 178.75 522.799 168.682 543.611C158.614 564.423 144.028 558.268 149.707 576.735C155.387 595.202 177.589 600.625 191.917 607.367C206.245 614.109 253.488 623.928 262.137 621.583C270.785 619.238 283.132 617.342 322.03 618.212C360.929 619.083 355.025 608.754 376.632 606.341C430.395 600.336 430.975 576.735 417.163 565.889C403.351 555.043 405.159 555.63 396.768 533.059C388.378 510.488 384.327 507.651 380.455 490.503C380.455 490.503 394.578 481.071 402.404 477.3L380.455 490.503C384.327 507.651 388.378 510.488 396.768 533.059C405.159 555.63 403.351 555.043 417.163 565.889C430.975 576.735 430.395 600.336 376.632 606.341C355.025 608.754 360.929 619.083 322.03 618.212C283.132 617.342 270.785 619.238 262.137 621.583C253.488 623.928 206.245 614.109 191.917 607.367C177.589 600.625 155.387 595.202 149.707 576.735C144.028 558.268 158.614 564.423 168.682 543.611C178.75 522.799 177.589 522.799 183.139 503.453Z" fill="#BD722D" fill-opacity="0.9"/>
<path d="M191.891 409.217L172.063 403.419C172.063 403.419 165.736 447.051 164.187 455.31C162.637 463.57 154.743 480.223 154.743 480.223C159.391 481.723 185.606 490.503 185.606 490.503C189.386 463.777 191.629 415.117 191.891 409.217Z" fill="#BD722D" fill-opacity="0.9"/>
<path d="M289.506 425.192C280.755 428.603 255.617 423.372 233.628 421.421L191.891 409.217C191.629 415.117 189.386 463.777 185.606 490.503C184.845 495.885 184.021 500.378 183.139 503.453C177.589 522.799 178.75 522.799 168.682 543.611C158.614 564.423 144.028 558.268 149.707 576.735C155.387 595.202 177.589 600.625 191.917 607.367C206.245 614.109 253.488 623.928 262.137 621.583C270.785 619.238 283.132 617.342 322.03 618.212C360.929 619.083 355.025 608.754 376.632 606.341C430.395 600.336 430.975 576.735 417.163 565.889C403.351 555.043 405.159 555.63 396.768 533.059C388.378 510.488 384.327 507.651 380.455 490.503C380.455 490.503 394.578 481.071 402.404 477.3C402.404 477.3 398.531 463.749 395.432 450.103C392.492 437.156 385.309 402.915 384.586 399.469C384.925 398.935 384.283 399.975 384.586 399.469C376.261 412.576 377.849 413.521 355.642 417.471C334.675 421.2 294.604 419.168 290.189 418.929C289.977 420.895 289.75 422.978 289.506 425.192Z" fill="#BD722D" fill-opacity="0.9"/>
<path d="M380.455 490.503C382.408 499.151 384.406 504.16 386.984 509.895C386.984 509.895 395.432 505.945 399.435 503.611C403.437 501.276 410.151 498.763 410.926 495.531C411.701 492.299 410.28 479.275 406.407 477.3C405.255 476.712 405.715 475.705 402.404 477.3L380.455 490.503Z" fill="#BD722D" fill-opacity="0.9"/>
<path d="M183.139 503.453C184.021 500.378 184.845 495.885 185.606 490.503L154.743 480.223C150.095 478.723 147.36 501.125 149.707 504.126C152.054 507.126 176.583 514.202 180.745 512.05C181.402 509.633 182.168 506.84 183.139 503.453Z" fill="#BD722D" fill-opacity="0.9"/>
<path d="M289.506 425.192C280.755 428.603 255.617 423.372 233.628 421.421L191.891 409.217M289.506 425.192C289.75 422.978 289.977 420.895 290.189 418.929M289.506 425.192L290.189 418.929M290.189 418.929C294.604 419.168 334.675 421.2 355.642 417.471C377.849 413.521 376.261 412.576 384.586 399.469M384.586 399.469C385.309 402.915 392.492 437.156 395.432 450.103C398.531 463.749 402.404 477.3 402.404 477.3M384.586 399.469C384.283 399.975 384.925 398.935 384.586 399.469ZM191.917 408.626C191.917 408.626 191.908 408.829 191.891 409.217M185.606 490.503C184.845 495.885 184.021 500.378 183.139 503.453M185.606 490.503L154.743 480.223M185.606 490.503C185.606 490.503 159.391 481.723 154.743 480.223M185.606 490.503C189.386 463.777 191.629 415.117 191.891 409.217M183.139 503.453C177.589 522.799 178.75 522.799 168.682 543.611C158.614 564.423 144.028 558.268 149.707 576.735C155.387 595.202 177.589 600.625 191.917 607.367C206.245 614.109 253.488 623.928 262.137 621.583C270.785 619.238 283.132 617.342 322.03 618.212C360.929 619.083 355.025 608.754 376.632 606.341C430.395 600.336 430.975 576.735 417.163 565.889C403.351 555.043 405.159 555.63 396.768 533.059C388.378 510.488 384.327 507.651 380.455 490.503M183.139 503.453C182.168 506.84 181.402 509.633 180.745 512.05C176.583 514.202 152.054 507.126 149.707 504.126C147.36 501.125 150.095 478.723 154.743 480.223M380.455 490.503C376.582 473.355 370.436 415.075 370.436 415.075M380.455 490.503L402.404 477.3M380.455 490.503C380.455 490.503 394.578 481.071 402.404 477.3M380.455 490.503C382.408 499.151 384.406 504.16 386.984 509.895C386.984 509.895 395.432 505.945 399.435 503.611C403.437 501.276 410.151 498.763 410.926 495.531C411.701 492.299 410.28 479.275 406.407 477.3C405.255 476.712 405.715 475.705 402.404 477.3M154.743 480.223C154.743 480.223 162.637 463.57 164.187 455.31C165.736 447.051 172.063 403.419 172.063 403.419L191.891 409.217" stroke="black" stroke-width="5"/>
<path d="M175.548 512.231C166.861 511.159 151.913 506.435 150.106 504.126C147.248 510.361 147.543 519.614 146.639 523.743C145.735 527.873 147.155 539.903 149.996 543.135C152.836 546.367 157.872 547.445 159.55 546.367C161.229 545.29 165.477 540.442 166.639 535.953C166.639 535.953 168.201 537.928 170.138 535.953C172.075 533.978 175.936 525.718 176.194 521.409C176.447 517.18 177.714 517.836 178.389 512.449L175.548 512.231Z" fill="#93BE37" fill-opacity="0.8"/>
<path d="M387.383 509.895C389.091 513.696 390.539 516.864 392.911 522.575C394.87 525.877 397.819 527.671 398.977 530.728C400.24 534.06 401.345 533.374 403.834 533.849C406.322 534.325 407.187 532.212 407.187 532.212C409.44 535.167 413.503 535.28 415.513 535.18C417.524 535.079 418.387 534.266 420.626 530.012C422.866 525.758 421.589 515.218 419.69 512.404C417.791 509.591 414.975 499.295 410.538 495.912C409.763 499.144 403.836 501.276 399.834 503.611C395.831 505.945 387.383 509.895 387.383 509.895Z" fill="#93BE37" fill-opacity="0.8"/>
<path d="M166.639 535.953C165.477 540.442 161.229 545.29 159.55 546.367C157.872 547.445 152.836 546.367 149.996 543.135C147.155 539.903 145.735 527.873 146.639 523.743C147.543 519.614 147.248 510.361 150.106 504.126C151.913 506.435 166.861 511.159 175.548 512.231M166.639 535.953C166.639 535.953 167.626 527.703 167.285 523.743M166.639 535.953C166.639 535.953 168.201 537.928 170.138 535.953C172.075 533.978 175.936 525.718 176.194 521.409C176.447 517.18 177.714 517.836 178.389 512.449M175.548 512.231L178.389 512.449M175.548 512.231C175.535 512.335 178.402 512.346 178.389 512.449M407.187 532.212C409.44 535.166 413.503 535.28 415.513 535.18C417.524 535.079 418.387 534.266 420.626 530.012C422.866 525.758 421.589 515.218 419.69 512.404C417.791 509.591 414.975 499.295 410.538 495.912C409.763 499.144 403.836 501.276 399.834 503.611C395.831 505.945 387.383 509.895 387.383 509.895C389.091 513.696 390.539 516.864 392.911 522.575M407.187 532.212C407.187 532.212 402.668 520.325 402.116 516.929M407.187 532.212C407.187 532.212 406.322 534.325 403.834 533.849C401.345 533.374 400.24 534.06 398.977 530.728C397.819 527.671 394.87 525.877 392.911 522.575M392.911 522.575C392.735 522.278 393.078 522.914 392.911 522.575ZM384.986 399.469C384.682 399.975 385.325 398.935 384.986 399.469Z" stroke="black" stroke-width="5"/>
<path d="M485.762 475.135C485.762 514.24 481.797 581.995 485.762 597.157C489.728 612.319 501.461 607.218 512.189 607.934C586.32 611.524 627.039 612.141 696.472 607.934L697.358 607.93C720.927 607.808 722.03 607.802 727.479 597.157C732.996 586.379 731.272 483.027 727.479 475.135C723.686 467.244 710.259 464.607 696.472 465.845H512.189C502.582 465.845 492.305 468.882 485.762 475.135Z" fill="#C0A795"/>
<path d="M510.59 592.569C505.072 596.369 510.59 503.515 510.59 495.749C510.589 487.984 511.089 487.929 515.934 486.497H693.343C700.565 487.738 700.067 484.68 704.032 495.749C707.997 506.819 714.376 592.569 704.032 592.569M485.762 597.157C481.797 581.995 485.762 514.24 485.762 475.135C492.305 468.882 502.582 465.845 512.189 465.845H696.472C710.259 464.607 723.686 467.244 727.479 475.135C731.272 483.027 732.996 586.379 727.479 597.157C722.03 607.802 720.927 607.808 697.358 607.93L696.472 607.934C627.039 612.141 586.32 611.524 512.189 607.934C501.461 607.218 489.728 612.319 485.762 597.157ZM570.587 465.845C570.587 465.845 562.484 429.826 570.587 423.878C578.691 417.931 637.309 416.278 642.654 423.878C647.999 431.479 642.654 465.845 642.654 465.845H651.965C651.965 465.845 658.171 416.278 651.965 413.304C645.759 410.33 566.278 408.017 560.588 413.304C554.899 418.591 560.588 465.845 560.588 465.845H570.587Z" stroke="black" stroke-width="3"/>
<path fill-rule="evenodd" clip-rule="evenodd" d="M561.737 465.697H571.736C571.736 465.697 563.633 429.678 571.736 423.73C579.84 417.783 638.458 416.13 643.803 423.73C649.148 431.331 643.803 465.697 643.803 465.697H653.114C653.114 465.697 659.32 416.13 653.114 413.156C646.908 410.182 567.427 407.869 561.737 413.156C556.048 418.443 561.737 465.697 561.737 465.697Z" fill="black"/>
<path d="M571.736 465.697C571.736 465.697 563.633 429.678 571.736 423.73C579.84 417.783 638.458 416.13 643.803 423.73C649.148 431.331 643.803 465.697 643.803 465.697M571.736 465.697H561.737C561.737 465.697 556.048 418.443 561.737 413.156C567.427 407.869 646.908 410.182 653.114 413.156C659.32 416.13 653.114 465.697 653.114 465.697H643.803M571.736 465.697H643.803" stroke="black" stroke-width="3"/>
</svg>
