<svg width="800" height="899" viewBox="0 0 800 899" fill="none" xmlns="http://www.w3.org/2000/svg">
<path d="M2.5 2.5H797.5V674.616H2.5V2.5Z" fill="#FFFFFD" stroke="black" stroke-width="5"/>
<path d="M2.5 675.795H797.5V896.5H2.5V675.795Z" fill="#FFFFFD" stroke="black" stroke-width="5"/>
<path d="M50.25 725.227H35.4609V737.32H52.6406V741H30.9609V706.875H52.4062V710.578H35.4609V721.547H50.25V725.227ZM69.8203 719.531C69.1641 719.422 68.4531 719.367 67.6875 719.367C64.8438 719.367 62.9141 720.578 61.8984 723V741H57.5625V715.641H61.7812L61.8516 718.57C63.2734 716.305 65.2891 715.172 67.8984 715.172C68.7422 715.172 69.3828 715.281 69.8203 715.5V719.531ZM78.5391 741H74.2031V715.641H78.5391V741ZM73.8516 708.914C73.8516 708.211 74.0625 707.617 74.4844 707.133C74.9219 706.648 75.5625 706.406 76.4062 706.406C77.25 706.406 77.8906 706.648 78.3281 707.133C78.7656 707.617 78.9844 708.211 78.9844 708.914C78.9844 709.617 78.7656 710.203 78.3281 710.672C77.8906 711.141 77.25 711.375 76.4062 711.375C75.5625 711.375 74.9219 711.141 74.4844 710.672C74.0625 710.203 73.8516 709.617 73.8516 708.914ZM95.6719 737.93C97.2188 737.93 98.5703 737.461 99.7266 736.523C100.883 735.586 101.523 734.414 101.648 733.008H105.75C105.672 734.461 105.172 735.844 104.25 737.156C103.328 738.469 102.094 739.516 100.547 740.297C99.0156 741.078 97.3906 741.469 95.6719 741.469C92.2188 741.469 89.4688 740.32 87.4219 738.023C85.3906 735.711 84.375 732.555 84.375 728.555V727.828C84.375 725.359 84.8281 723.164 85.7344 721.242C86.6406 719.32 87.9375 717.828 89.625 716.766C91.3281 715.703 93.3359 715.172 95.6484 715.172C98.4922 715.172 100.852 716.023 102.727 717.727C104.617 719.43 105.625 721.641 105.75 724.359H101.648C101.523 722.719 100.898 721.375 99.7734 720.328C98.6641 719.266 97.2891 718.734 95.6484 718.734C93.4453 718.734 91.7344 719.531 90.5156 721.125C89.3125 722.703 88.7109 724.992 88.7109 727.992V728.812C88.7109 731.734 89.3125 733.984 90.5156 735.562C91.7188 737.141 93.4375 737.93 95.6719 737.93ZM138.188 741C137.938 740.5 137.734 739.609 137.578 738.328C135.562 740.422 133.156 741.469 130.359 741.469C127.859 741.469 125.805 740.766 124.195 739.359C122.602 737.938 121.805 736.141 121.805 733.969C121.805 731.328 122.805 729.281 124.805 727.828C126.82 726.359 129.648 725.625 133.289 725.625H137.508V723.633C137.508 722.117 137.055 720.914 136.148 720.023C135.242 719.117 133.906 718.664 132.141 718.664C130.594 718.664 129.297 719.055 128.25 719.836C127.203 720.617 126.68 721.562 126.68 722.672H122.32C122.32 721.406 122.766 720.188 123.656 719.016C124.562 717.828 125.781 716.891 127.312 716.203C128.859 715.516 130.555 715.172 132.398 715.172C135.32 715.172 137.609 715.906 139.266 717.375C140.922 718.828 141.781 720.836 141.844 723.398V735.07C141.844 737.398 142.141 739.25 142.734 740.625V741H138.188ZM130.992 737.695C132.352 737.695 133.641 737.344 134.859 736.641C136.078 735.938 136.961 735.023 137.508 733.898V728.695H134.109C128.797 728.695 126.141 730.25 126.141 733.359C126.141 734.719 126.594 735.781 127.5 736.547C128.406 737.312 129.57 737.695 130.992 737.695ZM152.742 715.641L152.883 718.828C154.82 716.391 157.352 715.172 160.477 715.172C165.836 715.172 168.539 718.195 168.586 724.242V741H164.25V724.219C164.234 722.391 163.812 721.039 162.984 720.164C162.172 719.289 160.898 718.852 159.164 718.852C157.758 718.852 156.523 719.227 155.461 719.977C154.398 720.727 153.57 721.711 152.977 722.93V741H148.641V715.641H152.742ZM174.07 728.109C174.07 724.219 174.992 721.094 176.836 718.734C178.68 716.359 181.094 715.172 184.078 715.172C187.047 715.172 189.398 716.188 191.133 718.219V705H195.469V741H191.484L191.273 738.281C189.539 740.406 187.125 741.469 184.031 741.469C181.094 741.469 178.695 740.266 176.836 737.859C174.992 735.453 174.07 732.312 174.07 728.438V728.109ZM178.406 728.602C178.406 731.477 179 733.727 180.188 735.352C181.375 736.977 183.016 737.789 185.109 737.789C187.859 737.789 189.867 736.555 191.133 734.086V722.438C189.836 720.047 187.844 718.852 185.156 718.852C183.031 718.852 181.375 719.672 180.188 721.312C179 722.953 178.406 725.383 178.406 728.602ZM220.617 706.875L231.773 734.719L242.93 706.875H248.766V741H244.266V727.711L244.688 713.367L233.484 741H230.039L218.859 713.438L219.305 727.711V741H214.805V706.875H220.617ZM260.742 741H256.406V715.641H260.742V741ZM256.055 708.914C256.055 708.211 256.266 707.617 256.688 707.133C257.125 706.648 257.766 706.406 258.609 706.406C259.453 706.406 260.094 706.648 260.531 707.133C260.969 707.617 261.188 708.211 261.188 708.914C261.188 709.617 260.969 710.203 260.531 710.672C260.094 711.141 259.453 711.375 258.609 711.375C257.766 711.375 257.125 711.141 256.688 710.672C256.266 710.203 256.055 709.617 256.055 708.914ZM283.359 741C283.109 740.5 282.906 739.609 282.75 738.328C280.734 740.422 278.328 741.469 275.531 741.469C273.031 741.469 270.977 740.766 269.367 739.359C267.773 737.938 266.977 736.141 266.977 733.969C266.977 731.328 267.977 729.281 269.977 727.828C271.992 726.359 274.82 725.625 278.461 725.625H282.68V723.633C282.68 722.117 282.227 720.914 281.32 720.023C280.414 719.117 279.078 718.664 277.312 718.664C275.766 718.664 274.469 719.055 273.422 719.836C272.375 720.617 271.852 721.562 271.852 722.672H267.492C267.492 721.406 267.938 720.188 268.828 719.016C269.734 717.828 270.953 716.891 272.484 716.203C274.031 715.516 275.727 715.172 277.57 715.172C280.492 715.172 282.781 715.906 284.438 717.375C286.094 718.828 286.953 720.836 287.016 723.398V735.07C287.016 737.398 287.312 739.25 287.906 740.625V741H283.359ZM276.164 737.695C277.523 737.695 278.812 737.344 280.031 736.641C281.25 735.938 282.133 735.023 282.68 733.898V728.695H279.281C273.969 728.695 271.312 730.25 271.312 733.359C271.312 734.719 271.766 735.781 272.672 736.547C273.578 737.312 274.742 737.695 276.164 737.695ZM321.375 741C321.125 740.5 320.922 739.609 320.766 738.328C318.75 740.422 316.344 741.469 313.547 741.469C311.047 741.469 308.992 740.766 307.383 739.359C305.789 737.938 304.992 736.141 304.992 733.969C304.992 731.328 305.992 729.281 307.992 727.828C310.008 726.359 312.836 725.625 316.477 725.625H320.695V723.633C320.695 722.117 320.242 720.914 319.336 720.023C318.43 719.117 317.094 718.664 315.328 718.664C313.781 718.664 312.484 719.055 311.438 719.836C310.391 720.617 309.867 721.562 309.867 722.672H305.508C305.508 721.406 305.953 720.188 306.844 719.016C307.75 717.828 308.969 716.891 310.5 716.203C312.047 715.516 313.742 715.172 315.586 715.172C318.508 715.172 320.797 715.906 322.453 717.375C324.109 718.828 324.969 720.836 325.031 723.398V735.07C325.031 737.398 325.328 739.25 325.922 740.625V741H321.375ZM314.18 737.695C315.539 737.695 316.828 737.344 318.047 736.641C319.266 735.938 320.148 735.023 320.695 733.898V728.695H317.297C311.984 728.695 309.328 730.25 309.328 733.359C309.328 734.719 309.781 735.781 310.688 736.547C311.594 737.312 312.758 737.695 314.18 737.695ZM353.25 728.602C353.25 732.461 352.367 735.57 350.602 737.93C348.836 740.289 346.445 741.469 343.43 741.469C340.352 741.469 337.93 740.492 336.164 738.539V750.75H331.828V715.641H335.789L336 718.453C337.766 716.266 340.219 715.172 343.359 715.172C346.406 715.172 348.812 716.32 350.578 718.617C352.359 720.914 353.25 724.109 353.25 728.203V728.602ZM348.914 728.109C348.914 725.25 348.305 722.992 347.086 721.336C345.867 719.68 344.195 718.852 342.07 718.852C339.445 718.852 337.477 720.016 336.164 722.344V734.461C337.461 736.773 339.445 737.93 342.117 737.93C344.195 737.93 345.844 737.109 347.062 735.469C348.297 733.812 348.914 731.359 348.914 728.109ZM380.203 728.602C380.203 732.461 379.32 735.57 377.555 737.93C375.789 740.289 373.398 741.469 370.383 741.469C367.305 741.469 364.883 740.492 363.117 738.539V750.75H358.781V715.641H362.742L362.953 718.453C364.719 716.266 367.172 715.172 370.312 715.172C373.359 715.172 375.766 716.32 377.531 718.617C379.312 720.914 380.203 724.109 380.203 728.203V728.602ZM375.867 728.109C375.867 725.25 375.258 722.992 374.039 721.336C372.82 719.68 371.148 718.852 369.023 718.852C366.398 718.852 364.43 720.016 363.117 722.344V734.461C364.414 736.773 366.398 737.93 369.07 737.93C371.148 737.93 372.797 737.109 374.016 735.469C375.25 733.812 375.867 731.359 375.867 728.109ZM390.445 741H386.109V705H390.445V741ZM402.117 741H397.781V715.641H402.117V741ZM397.43 708.914C397.43 708.211 397.641 707.617 398.062 707.133C398.5 706.648 399.141 706.406 399.984 706.406C400.828 706.406 401.469 706.648 401.906 707.133C402.344 707.617 402.562 708.211 402.562 708.914C402.562 709.617 402.344 710.203 401.906 710.672C401.469 711.141 400.828 711.375 399.984 711.375C399.141 711.375 398.5 711.141 398.062 710.672C397.641 710.203 397.43 709.617 397.43 708.914ZM419.602 741.469C416.164 741.469 413.367 740.344 411.211 738.094C409.055 735.828 407.977 732.805 407.977 729.023V728.227C407.977 725.711 408.453 723.469 409.406 721.5C410.375 719.516 411.719 717.969 413.438 716.859C415.172 715.734 417.047 715.172 419.062 715.172C422.359 715.172 424.922 716.258 426.75 718.43C428.578 720.602 429.492 723.711 429.492 727.758V729.562H412.312C412.375 732.062 413.102 734.086 414.492 735.633C415.898 737.164 417.68 737.93 419.836 737.93C421.367 737.93 422.664 737.617 423.727 736.992C424.789 736.367 425.719 735.539 426.516 734.508L429.164 736.57C427.039 739.836 423.852 741.469 419.602 741.469ZM419.062 718.734C417.312 718.734 415.844 719.375 414.656 720.656C413.469 721.922 412.734 723.703 412.453 726H425.156V725.672C425.031 723.469 424.438 721.766 423.375 720.562C422.312 719.344 420.875 718.734 419.062 718.734ZM433.477 728.109C433.477 724.219 434.398 721.094 436.242 718.734C438.086 716.359 440.5 715.172 443.484 715.172C446.453 715.172 448.805 716.188 450.539 718.219V705H454.875V741H450.891L450.68 738.281C448.945 740.406 446.531 741.469 443.438 741.469C440.5 741.469 438.102 740.266 436.242 737.859C434.398 735.453 433.477 732.312 433.477 728.438V728.109ZM437.812 728.602C437.812 731.477 438.406 733.727 439.594 735.352C440.781 736.977 442.422 737.789 444.516 737.789C447.266 737.789 449.273 736.555 450.539 734.086V722.438C449.242 720.047 447.25 718.852 444.562 718.852C442.438 718.852 440.781 719.672 439.594 721.312C438.406 722.953 437.812 725.383 437.812 728.602ZM475.664 741V718.992H471.656V715.641H475.664V713.039C475.664 710.32 476.391 708.219 477.844 706.734C479.297 705.25 481.352 704.508 484.008 704.508C485.008 704.508 486 704.641 486.984 704.906L486.75 708.422C486.016 708.281 485.234 708.211 484.406 708.211C483 708.211 481.914 708.625 481.148 709.453C480.383 710.266 480 711.438 480 712.969V715.641H485.414V718.992H480V741H475.664ZM489.07 728.086C489.07 725.602 489.555 723.367 490.523 721.383C491.508 719.398 492.867 717.867 494.602 716.789C496.352 715.711 498.344 715.172 500.578 715.172C504.031 715.172 506.82 716.367 508.945 718.758C511.086 721.148 512.156 724.328 512.156 728.297V728.602C512.156 731.07 511.68 733.289 510.727 735.258C509.789 737.211 508.438 738.734 506.672 739.828C504.922 740.922 502.906 741.469 500.625 741.469C497.188 741.469 494.398 740.273 492.258 737.883C490.133 735.492 489.07 732.328 489.07 728.391V728.086ZM493.43 728.602C493.43 731.414 494.078 733.672 495.375 735.375C496.688 737.078 498.438 737.93 500.625 737.93C502.828 737.93 504.578 737.07 505.875 735.352C507.172 733.617 507.82 731.195 507.82 728.086C507.82 725.305 507.156 723.055 505.828 721.336C504.516 719.602 502.766 718.734 500.578 718.734C498.438 718.734 496.711 719.586 495.398 721.289C494.086 722.992 493.43 725.43 493.43 728.602ZM529.852 719.531C529.195 719.422 528.484 719.367 527.719 719.367C524.875 719.367 522.945 720.578 521.93 723V741H517.594V715.641H521.812L521.883 718.57C523.305 716.305 525.32 715.172 527.93 715.172C528.773 715.172 529.414 715.281 529.852 715.5V719.531ZM565.289 732.094H550.992L547.781 741H543.141L556.172 706.875H560.109L573.164 741H568.547L565.289 732.094ZM552.352 728.391H563.953L558.141 712.43L552.352 728.391ZM592.453 738.492C590.766 740.477 588.289 741.469 585.023 741.469C582.32 741.469 580.258 740.688 578.836 739.125C577.43 737.547 576.719 735.219 576.703 732.141V715.641H581.039V732.023C581.039 735.867 582.602 737.789 585.727 737.789C589.039 737.789 591.242 736.555 592.336 734.086V715.641H596.672V741H592.547L592.453 738.492ZM618.047 734.273C618.047 733.102 617.602 732.195 616.711 731.555C615.836 730.898 614.297 730.336 612.094 729.867C609.906 729.398 608.164 728.836 606.867 728.18C605.586 727.523 604.633 726.742 604.008 725.836C603.398 724.93 603.094 723.852 603.094 722.602C603.094 720.523 603.969 718.766 605.719 717.328C607.484 715.891 609.734 715.172 612.469 715.172C615.344 715.172 617.672 715.914 619.453 717.398C621.25 718.883 622.148 720.781 622.148 723.094H617.789C617.789 721.906 617.281 720.883 616.266 720.023C615.266 719.164 614 718.734 612.469 718.734C610.891 718.734 609.656 719.078 608.766 719.766C607.875 720.453 607.43 721.352 607.43 722.461C607.43 723.508 607.844 724.297 608.672 724.828C609.5 725.359 610.992 725.867 613.148 726.352C615.32 726.836 617.078 727.414 618.422 728.086C619.766 728.758 620.758 729.57 621.398 730.523C622.055 731.461 622.383 732.609 622.383 733.969C622.383 736.234 621.477 738.055 619.664 739.43C617.852 740.789 615.5 741.469 612.609 741.469C610.578 741.469 608.781 741.109 607.219 740.391C605.656 739.672 604.43 738.672 603.539 737.391C602.664 736.094 602.227 734.695 602.227 733.195H606.562C606.641 734.648 607.219 735.805 608.297 736.664C609.391 737.508 610.828 737.93 612.609 737.93C614.25 737.93 615.562 737.602 616.547 736.945C617.547 736.273 618.047 735.383 618.047 734.273ZM633.914 709.5V715.641H638.648V718.992H633.914V734.719C633.914 735.734 634.125 736.5 634.547 737.016C634.969 737.516 635.688 737.766 636.703 737.766C637.203 737.766 637.891 737.672 638.766 737.484V741C637.625 741.312 636.516 741.469 635.438 741.469C633.5 741.469 632.039 740.883 631.055 739.711C630.07 738.539 629.578 736.875 629.578 734.719V718.992H624.961V715.641H629.578V709.5H633.914ZM655.992 719.531C655.336 719.422 654.625 719.367 653.859 719.367C651.016 719.367 649.086 720.578 648.07 723V741H643.734V715.641H647.953L648.023 718.57C649.445 716.305 651.461 715.172 654.07 715.172C654.914 715.172 655.555 715.281 655.992 715.5V719.531ZM674.719 741C674.469 740.5 674.266 739.609 674.109 738.328C672.094 740.422 669.688 741.469 666.891 741.469C664.391 741.469 662.336 740.766 660.727 739.359C659.133 737.938 658.336 736.141 658.336 733.969C658.336 731.328 659.336 729.281 661.336 727.828C663.352 726.359 666.18 725.625 669.82 725.625H674.039V723.633C674.039 722.117 673.586 720.914 672.68 720.023C671.773 719.117 670.438 718.664 668.672 718.664C667.125 718.664 665.828 719.055 664.781 719.836C663.734 720.617 663.211 721.562 663.211 722.672H658.852C658.852 721.406 659.297 720.188 660.188 719.016C661.094 717.828 662.312 716.891 663.844 716.203C665.391 715.516 667.086 715.172 668.93 715.172C671.852 715.172 674.141 715.906 675.797 717.375C677.453 718.828 678.312 720.836 678.375 723.398V735.07C678.375 737.398 678.672 739.25 679.266 740.625V741H674.719ZM667.523 737.695C668.883 737.695 670.172 737.344 671.391 736.641C672.609 735.938 673.492 735.023 674.039 733.898V728.695H670.641C665.328 728.695 662.672 730.25 662.672 733.359C662.672 734.719 663.125 735.781 664.031 736.547C664.938 737.312 666.102 737.695 667.523 737.695ZM689.883 741H685.547V705H689.883V741ZM701.555 741H697.219V715.641H701.555V741ZM696.867 708.914C696.867 708.211 697.078 707.617 697.5 707.133C697.938 706.648 698.578 706.406 699.422 706.406C700.266 706.406 700.906 706.648 701.344 707.133C701.781 707.617 702 708.211 702 708.914C702 709.617 701.781 710.203 701.344 710.672C700.906 711.141 700.266 711.375 699.422 711.375C698.578 711.375 697.938 711.141 697.5 710.672C697.078 710.203 696.867 709.617 696.867 708.914ZM724.172 741C723.922 740.5 723.719 739.609 723.562 738.328C721.547 740.422 719.141 741.469 716.344 741.469C713.844 741.469 711.789 740.766 710.18 739.359C708.586 737.938 707.789 736.141 707.789 733.969C707.789 731.328 708.789 729.281 710.789 727.828C712.805 726.359 715.633 725.625 719.273 725.625H723.492V723.633C723.492 722.117 723.039 720.914 722.133 720.023C721.227 719.117 719.891 718.664 718.125 718.664C716.578 718.664 715.281 719.055 714.234 719.836C713.188 720.617 712.664 721.562 712.664 722.672H708.305C708.305 721.406 708.75 720.188 709.641 719.016C710.547 717.828 711.766 716.891 713.297 716.203C714.844 715.516 716.539 715.172 718.383 715.172C721.305 715.172 723.594 715.906 725.25 717.375C726.906 718.828 727.766 720.836 727.828 723.398V735.07C727.828 737.398 728.125 739.25 728.719 740.625V741H724.172ZM716.977 737.695C718.336 737.695 719.625 737.344 720.844 736.641C722.062 735.938 722.945 735.023 723.492 733.898V728.695H720.094C714.781 728.695 712.125 730.25 712.125 733.359C712.125 734.719 712.578 735.781 713.484 736.547C714.391 737.312 715.555 737.695 716.977 737.695ZM738.727 715.641L738.867 718.828C740.805 716.391 743.336 715.172 746.461 715.172C751.82 715.172 754.523 718.195 754.57 724.242V741H750.234V724.219C750.219 722.391 749.797 721.039 748.969 720.164C748.156 719.289 746.883 718.852 745.148 718.852C743.742 718.852 742.508 719.227 741.445 719.977C740.383 720.727 739.555 721.711 738.961 722.93V741H734.625V715.641H738.727ZM38.3203 786.242L38.9766 790.742L39.9375 786.688L46.6875 762.875H50.4844L57.0703 786.688L58.0078 790.812L58.7344 786.219L64.0312 762.875H68.5547L60.2812 797H56.1797L49.1484 772.133L48.6094 769.531L48.0703 772.133L40.7812 797H36.6797L28.4297 762.875H32.9297L38.3203 786.242ZM99.7969 797H95.2734V781.227H78.0703V797H73.5703V762.875H78.0703V777.547H95.2734V762.875H99.7969V797ZM119.086 791.023L128.836 762.875H133.758L121.102 797H117.117L104.484 762.875H109.383L119.086 791.023ZM165.234 797C164.984 796.5 164.781 795.609 164.625 794.328C162.609 796.422 160.203 797.469 157.406 797.469C154.906 797.469 152.852 796.766 151.242 795.359C149.648 793.938 148.852 792.141 148.852 789.969C148.852 787.328 149.852 785.281 151.852 783.828C153.867 782.359 156.695 781.625 160.336 781.625H164.555V779.633C164.555 778.117 164.102 776.914 163.195 776.023C162.289 775.117 160.953 774.664 159.188 774.664C157.641 774.664 156.344 775.055 155.297 775.836C154.25 776.617 153.727 777.562 153.727 778.672H149.367C149.367 777.406 149.812 776.188 150.703 775.016C151.609 773.828 152.828 772.891 154.359 772.203C155.906 771.516 157.602 771.172 159.445 771.172C162.367 771.172 164.656 771.906 166.312 773.375C167.969 774.828 168.828 776.836 168.891 779.398V791.07C168.891 793.398 169.188 795.25 169.781 796.625V797H165.234ZM158.039 793.695C159.398 793.695 160.688 793.344 161.906 792.641C163.125 791.938 164.008 791.023 164.555 789.898V784.695H161.156C155.844 784.695 153.188 786.25 153.188 789.359C153.188 790.719 153.641 791.781 154.547 792.547C155.453 793.312 156.617 793.695 158.039 793.695ZM177.82 797V774.992H173.812V771.641H177.82V769.039C177.82 766.32 178.547 764.219 180 762.734C181.453 761.25 183.508 760.508 186.164 760.508C187.164 760.508 188.156 760.641 189.141 760.906L188.906 764.422C188.172 764.281 187.391 764.211 186.562 764.211C185.156 764.211 184.07 764.625 183.305 765.453C182.539 766.266 182.156 767.438 182.156 768.969V771.641H187.57V774.992H182.156V797H177.82ZM198.258 765.5V771.641H202.992V774.992H198.258V790.719C198.258 791.734 198.469 792.5 198.891 793.016C199.312 793.516 200.031 793.766 201.047 793.766C201.547 793.766 202.234 793.672 203.109 793.484V797C201.969 797.312 200.859 797.469 199.781 797.469C197.844 797.469 196.383 796.883 195.398 795.711C194.414 794.539 193.922 792.875 193.922 790.719V774.992H189.305V771.641H193.922V765.5H198.258ZM218.602 797.469C215.164 797.469 212.367 796.344 210.211 794.094C208.055 791.828 206.977 788.805 206.977 785.023V784.227C206.977 781.711 207.453 779.469 208.406 777.5C209.375 775.516 210.719 773.969 212.438 772.859C214.172 771.734 216.047 771.172 218.062 771.172C221.359 771.172 223.922 772.258 225.75 774.43C227.578 776.602 228.492 779.711 228.492 783.758V785.562H211.312C211.375 788.062 212.102 790.086 213.492 791.633C214.898 793.164 216.68 793.93 218.836 793.93C220.367 793.93 221.664 793.617 222.727 792.992C223.789 792.367 224.719 791.539 225.516 790.508L228.164 792.57C226.039 795.836 222.852 797.469 218.602 797.469ZM218.062 774.734C216.312 774.734 214.844 775.375 213.656 776.656C212.469 777.922 211.734 779.703 211.453 782H224.156V781.672C224.031 779.469 223.438 777.766 222.375 776.562C221.312 775.344 219.875 774.734 218.062 774.734ZM245.789 775.531C245.133 775.422 244.422 775.367 243.656 775.367C240.812 775.367 238.883 776.578 237.867 779V797H233.531V771.641H237.75L237.82 774.57C239.242 772.305 241.258 771.172 243.867 771.172C244.711 771.172 245.352 771.281 245.789 771.5V775.531ZM284.156 791.023L289.031 771.641H293.367L285.984 797H282.469L276.305 777.781L270.305 797H266.789L259.43 771.641H263.742L268.734 790.625L274.641 771.641H278.133L284.156 791.023ZM296.648 784.086C296.648 781.602 297.133 779.367 298.102 777.383C299.086 775.398 300.445 773.867 302.18 772.789C303.93 771.711 305.922 771.172 308.156 771.172C311.609 771.172 314.398 772.367 316.523 774.758C318.664 777.148 319.734 780.328 319.734 784.297V784.602C319.734 787.07 319.258 789.289 318.305 791.258C317.367 793.211 316.016 794.734 314.25 795.828C312.5 796.922 310.484 797.469 308.203 797.469C304.766 797.469 301.977 796.273 299.836 793.883C297.711 791.492 296.648 788.328 296.648 784.391V784.086ZM301.008 784.602C301.008 787.414 301.656 789.672 302.953 791.375C304.266 793.078 306.016 793.93 308.203 793.93C310.406 793.93 312.156 793.07 313.453 791.352C314.75 789.617 315.398 787.195 315.398 784.086C315.398 781.305 314.734 779.055 313.406 777.336C312.094 775.602 310.344 774.734 308.156 774.734C306.016 774.734 304.289 775.586 302.977 777.289C301.664 778.992 301.008 781.43 301.008 784.602ZM337.43 775.531C336.773 775.422 336.062 775.367 335.297 775.367C332.453 775.367 330.523 776.578 329.508 779V797H325.172V771.641H329.391L329.461 774.57C330.883 772.305 332.898 771.172 335.508 771.172C336.352 771.172 336.992 771.281 337.43 771.5V775.531ZM348.516 785.258L345.797 788.094V797H341.461V761H345.797V782.773L348.117 779.984L356.016 771.641H361.289L351.422 782.234L362.438 797H357.352L348.516 785.258ZM370.477 797H366.141V771.641H370.477V797ZM365.789 764.914C365.789 764.211 366 763.617 366.422 763.133C366.859 762.648 367.5 762.406 368.344 762.406C369.188 762.406 369.828 762.648 370.266 763.133C370.703 763.617 370.922 764.211 370.922 764.914C370.922 765.617 370.703 766.203 370.266 766.672C369.828 767.141 369.188 767.375 368.344 767.375C367.5 767.375 366.859 767.141 366.422 766.672C366 766.203 365.789 765.617 365.789 764.914ZM381.539 771.641L381.68 774.828C383.617 772.391 386.148 771.172 389.273 771.172C394.633 771.172 397.336 774.195 397.383 780.242V797H393.047V780.219C393.031 778.391 392.609 777.039 391.781 776.164C390.969 775.289 389.695 774.852 387.961 774.852C386.555 774.852 385.32 775.227 384.258 775.977C383.195 776.727 382.367 777.711 381.773 778.93V797H377.438V771.641H381.539ZM402.891 784.109C402.891 780.156 403.805 777.016 405.633 774.688C407.461 772.344 409.883 771.172 412.898 771.172C415.992 771.172 418.406 772.266 420.141 774.453L420.352 771.641H424.312V796.391C424.312 799.672 423.336 802.258 421.383 804.148C419.445 806.039 416.836 806.984 413.555 806.984C411.727 806.984 409.938 806.594 408.188 805.812C406.438 805.031 405.102 803.961 404.18 802.602L406.43 800C408.289 802.297 410.562 803.445 413.25 803.445C415.359 803.445 417 802.852 418.172 801.664C419.359 800.477 419.953 798.805 419.953 796.648V794.469C418.219 796.469 415.852 797.469 412.852 797.469C409.883 797.469 407.477 796.273 405.633 793.883C403.805 791.492 402.891 788.234 402.891 784.109ZM407.25 784.602C407.25 787.461 407.836 789.711 409.008 791.352C410.18 792.977 411.82 793.789 413.93 793.789C416.664 793.789 418.672 792.547 419.953 790.062V778.484C418.625 776.062 416.633 774.852 413.977 774.852C411.867 774.852 410.219 775.672 409.031 777.312C407.844 778.953 407.25 781.383 407.25 784.602ZM447.492 797H443.156V771.641H447.492V797ZM442.805 764.914C442.805 764.211 443.016 763.617 443.438 763.133C443.875 762.648 444.516 762.406 445.359 762.406C446.203 762.406 446.844 762.648 447.281 763.133C447.719 763.617 447.938 764.211 447.938 764.914C447.938 765.617 447.719 766.203 447.281 766.672C446.844 767.141 446.203 767.375 445.359 767.375C444.516 767.375 443.875 767.141 443.438 766.672C443.016 766.203 442.805 765.617 442.805 764.914ZM458.555 771.641L458.695 774.828C460.633 772.391 463.164 771.172 466.289 771.172C471.648 771.172 474.352 774.195 474.398 780.242V797H470.062V780.219C470.047 778.391 469.625 777.039 468.797 776.164C467.984 775.289 466.711 774.852 464.977 774.852C463.57 774.852 462.336 775.227 461.273 775.977C460.211 776.727 459.383 777.711 458.789 778.93V797H454.453V771.641H458.555ZM516.164 766.578H505.195V797H500.719V766.578H489.773V762.875H516.164V766.578ZM517.055 784.086C517.055 781.602 517.539 779.367 518.508 777.383C519.492 775.398 520.852 773.867 522.586 772.789C524.336 771.711 526.328 771.172 528.562 771.172C532.016 771.172 534.805 772.367 536.93 774.758C539.07 777.148 540.141 780.328 540.141 784.297V784.602C540.141 787.07 539.664 789.289 538.711 791.258C537.773 793.211 536.422 794.734 534.656 795.828C532.906 796.922 530.891 797.469 528.609 797.469C525.172 797.469 522.383 796.273 520.242 793.883C518.117 791.492 517.055 788.328 517.055 784.391V784.086ZM521.414 784.602C521.414 787.414 522.062 789.672 523.359 791.375C524.672 793.078 526.422 793.93 528.609 793.93C530.812 793.93 532.562 793.07 533.859 791.352C535.156 789.617 535.805 787.195 535.805 784.086C535.805 781.305 535.141 779.055 533.812 777.336C532.5 775.602 530.75 774.734 528.562 774.734C526.422 774.734 524.695 775.586 523.383 777.289C522.07 778.992 521.414 781.43 521.414 784.602ZM557.836 775.531C557.18 775.422 556.469 775.367 555.703 775.367C552.859 775.367 550.93 776.578 549.914 779V797H545.578V771.641H549.797L549.867 774.57C551.289 772.305 553.305 771.172 555.914 771.172C556.758 771.172 557.398 771.281 557.836 771.5V775.531ZM560.227 784.086C560.227 781.602 560.711 779.367 561.68 777.383C562.664 775.398 564.023 773.867 565.758 772.789C567.508 771.711 569.5 771.172 571.734 771.172C575.188 771.172 577.977 772.367 580.102 774.758C582.242 777.148 583.312 780.328 583.312 784.297V784.602C583.312 787.07 582.836 789.289 581.883 791.258C580.945 793.211 579.594 794.734 577.828 795.828C576.078 796.922 574.062 797.469 571.781 797.469C568.344 797.469 565.555 796.273 563.414 793.883C561.289 791.492 560.227 788.328 560.227 784.391V784.086ZM564.586 784.602C564.586 787.414 565.234 789.672 566.531 791.375C567.844 793.078 569.594 793.93 571.781 793.93C573.984 793.93 575.734 793.07 577.031 791.352C578.328 789.617 578.977 787.195 578.977 784.086C578.977 781.305 578.312 779.055 576.984 777.336C575.672 775.602 573.922 774.734 571.734 774.734C569.594 774.734 567.867 775.586 566.555 777.289C565.242 778.992 564.586 781.43 564.586 784.602ZM592.852 771.641L592.992 774.828C594.93 772.391 597.461 771.172 600.586 771.172C605.945 771.172 608.648 774.195 608.695 780.242V797H604.359V780.219C604.344 778.391 603.922 777.039 603.094 776.164C602.281 775.289 601.008 774.852 599.273 774.852C597.867 774.852 596.633 775.227 595.57 775.977C594.508 776.727 593.68 777.711 593.086 778.93V797H588.75V771.641H592.852ZM621.117 765.5V771.641H625.852V774.992H621.117V790.719C621.117 791.734 621.328 792.5 621.75 793.016C622.172 793.516 622.891 793.766 623.906 793.766C624.406 793.766 625.094 793.672 625.969 793.484V797C624.828 797.312 623.719 797.469 622.641 797.469C620.703 797.469 619.242 796.883 618.258 795.711C617.273 794.539 616.781 792.875 616.781 790.719V774.992H612.164V771.641H616.781V765.5H621.117ZM629.32 784.086C629.32 781.602 629.805 779.367 630.773 777.383C631.758 775.398 633.117 773.867 634.852 772.789C636.602 771.711 638.594 771.172 640.828 771.172C644.281 771.172 647.07 772.367 649.195 774.758C651.336 777.148 652.406 780.328 652.406 784.297V784.602C652.406 787.07 651.93 789.289 650.977 791.258C650.039 793.211 648.688 794.734 646.922 795.828C645.172 796.922 643.156 797.469 640.875 797.469C637.438 797.469 634.648 796.273 632.508 793.883C630.383 791.492 629.32 788.328 629.32 784.391V784.086ZM633.68 784.602C633.68 787.414 634.328 789.672 635.625 791.375C636.938 793.078 638.688 793.93 640.875 793.93C643.078 793.93 644.828 793.07 646.125 791.352C647.422 789.617 648.07 787.195 648.07 784.086C648.07 781.305 647.406 779.055 646.078 777.336C644.766 775.602 643.016 774.734 640.828 774.734C638.688 774.734 636.961 775.586 635.648 777.289C634.336 778.992 633.68 781.43 633.68 784.602ZM671.883 797V774.992H667.875V771.641H671.883V769.039C671.883 766.32 672.609 764.219 674.062 762.734C675.516 761.25 677.57 760.508 680.227 760.508C681.227 760.508 682.219 760.641 683.203 760.906L682.969 764.422C682.234 764.281 681.453 764.211 680.625 764.211C679.219 764.211 678.133 764.625 677.367 765.453C676.602 766.266 676.219 767.438 676.219 768.969V771.641H681.633V774.992H676.219V797H671.883ZM685.289 784.086C685.289 781.602 685.773 779.367 686.742 777.383C687.727 775.398 689.086 773.867 690.82 772.789C692.57 771.711 694.562 771.172 696.797 771.172C700.25 771.172 703.039 772.367 705.164 774.758C707.305 777.148 708.375 780.328 708.375 784.297V784.602C708.375 787.07 707.898 789.289 706.945 791.258C706.008 793.211 704.656 794.734 702.891 795.828C701.141 796.922 699.125 797.469 696.844 797.469C693.406 797.469 690.617 796.273 688.477 793.883C686.352 791.492 685.289 788.328 685.289 784.391V784.086ZM689.648 784.602C689.648 787.414 690.297 789.672 691.594 791.375C692.906 793.078 694.656 793.93 696.844 793.93C699.047 793.93 700.797 793.07 702.094 791.352C703.391 789.617 704.039 787.195 704.039 784.086C704.039 781.305 703.375 779.055 702.047 777.336C700.734 775.602 698.984 774.734 696.797 774.734C694.656 774.734 692.93 775.586 691.617 777.289C690.305 778.992 689.648 781.43 689.648 784.602ZM726.07 775.531C725.414 775.422 724.703 775.367 723.938 775.367C721.094 775.367 719.164 776.578 718.148 779V797H713.812V771.641H718.031L718.102 774.57C719.523 772.305 721.539 771.172 724.148 771.172C724.992 771.172 725.633 771.281 726.07 771.5V775.531ZM36.1641 821.5V827.641H40.8984V830.992H36.1641V846.719C36.1641 847.734 36.375 848.5 36.7969 849.016C37.2188 849.516 37.9375 849.766 38.9531 849.766C39.4531 849.766 40.1406 849.672 41.0156 849.484V853C39.875 853.312 38.7656 853.469 37.6875 853.469C35.75 853.469 34.2891 852.883 33.3047 851.711C32.3203 850.539 31.8281 848.875 31.8281 846.719V830.992H27.2109V827.641H31.8281V821.5H36.1641ZM68.4375 847.023L73.3125 827.641H77.6484L70.2656 853H66.75L60.5859 833.781L54.5859 853H51.0703L43.7109 827.641H48.0234L53.0156 846.625L58.9219 827.641H62.4141L68.4375 847.023ZM80.9297 840.086C80.9297 837.602 81.4141 835.367 82.3828 833.383C83.3672 831.398 84.7266 829.867 86.4609 828.789C88.2109 827.711 90.2031 827.172 92.4375 827.172C95.8906 827.172 98.6797 828.367 100.805 830.758C102.945 833.148 104.016 836.328 104.016 840.297V840.602C104.016 843.07 103.539 845.289 102.586 847.258C101.648 849.211 100.297 850.734 98.5312 851.828C96.7812 852.922 94.7656 853.469 92.4844 853.469C89.0469 853.469 86.2578 852.273 84.1172 849.883C81.9922 847.492 80.9297 844.328 80.9297 840.391V840.086ZM85.2891 840.602C85.2891 843.414 85.9375 845.672 87.2344 847.375C88.5469 849.078 90.2969 849.93 92.4844 849.93C94.6875 849.93 96.4375 849.07 97.7344 847.352C99.0312 845.617 99.6797 843.195 99.6797 840.086C99.6797 837.305 99.0156 835.055 97.6875 833.336C96.375 831.602 94.625 830.734 92.4375 830.734C90.2969 830.734 88.5703 831.586 87.2578 833.289C85.9453 834.992 85.2891 837.43 85.2891 840.602ZM129.656 846.648L135.562 827.641H140.203L130.008 856.914C128.43 861.133 125.922 863.242 122.484 863.242L121.664 863.172L120.047 862.867V859.352L121.219 859.445C122.688 859.445 123.828 859.148 124.641 858.555C125.469 857.961 126.148 856.875 126.68 855.297L127.641 852.719L118.594 827.641H123.328L129.656 846.648ZM154.289 853.469C150.852 853.469 148.055 852.344 145.898 850.094C143.742 847.828 142.664 844.805 142.664 841.023V840.227C142.664 837.711 143.141 835.469 144.094 833.5C145.062 831.516 146.406 829.969 148.125 828.859C149.859 827.734 151.734 827.172 153.75 827.172C157.047 827.172 159.609 828.258 161.438 830.43C163.266 832.602 164.18 835.711 164.18 839.758V841.562H147C147.062 844.062 147.789 846.086 149.18 847.633C150.586 849.164 152.367 849.93 154.523 849.93C156.055 849.93 157.352 849.617 158.414 848.992C159.477 848.367 160.406 847.539 161.203 846.508L163.852 848.57C161.727 851.836 158.539 853.469 154.289 853.469ZM153.75 830.734C152 830.734 150.531 831.375 149.344 832.656C148.156 833.922 147.422 835.703 147.141 838H159.844V837.672C159.719 835.469 159.125 833.766 158.062 832.562C157 831.344 155.562 830.734 153.75 830.734ZM184.875 853C184.625 852.5 184.422 851.609 184.266 850.328C182.25 852.422 179.844 853.469 177.047 853.469C174.547 853.469 172.492 852.766 170.883 851.359C169.289 849.938 168.492 848.141 168.492 845.969C168.492 843.328 169.492 841.281 171.492 839.828C173.508 838.359 176.336 837.625 179.977 837.625H184.195V835.633C184.195 834.117 183.742 832.914 182.836 832.023C181.93 831.117 180.594 830.664 178.828 830.664C177.281 830.664 175.984 831.055 174.938 831.836C173.891 832.617 173.367 833.562 173.367 834.672H169.008C169.008 833.406 169.453 832.188 170.344 831.016C171.25 829.828 172.469 828.891 174 828.203C175.547 827.516 177.242 827.172 179.086 827.172C182.008 827.172 184.297 827.906 185.953 829.375C187.609 830.828 188.469 832.836 188.531 835.398V847.07C188.531 849.398 188.828 851.25 189.422 852.625V853H184.875ZM177.68 849.695C179.039 849.695 180.328 849.344 181.547 848.641C182.766 847.938 183.648 847.023 184.195 845.898V840.695H180.797C175.484 840.695 172.828 842.25 172.828 845.359C172.828 846.719 173.281 847.781 174.188 848.547C175.094 849.312 176.258 849.695 177.68 849.695ZM207.586 831.531C206.93 831.422 206.219 831.367 205.453 831.367C202.609 831.367 200.68 832.578 199.664 835V853H195.328V827.641H199.547L199.617 830.57C201.039 828.305 203.055 827.172 205.664 827.172C206.508 827.172 207.148 827.281 207.586 827.5V831.531ZM226.359 846.273C226.359 845.102 225.914 844.195 225.023 843.555C224.148 842.898 222.609 842.336 220.406 841.867C218.219 841.398 216.477 840.836 215.18 840.18C213.898 839.523 212.945 838.742 212.32 837.836C211.711 836.93 211.406 835.852 211.406 834.602C211.406 832.523 212.281 830.766 214.031 829.328C215.797 827.891 218.047 827.172 220.781 827.172C223.656 827.172 225.984 827.914 227.766 829.398C229.562 830.883 230.461 832.781 230.461 835.094H226.102C226.102 833.906 225.594 832.883 224.578 832.023C223.578 831.164 222.312 830.734 220.781 830.734C219.203 830.734 217.969 831.078 217.078 831.766C216.188 832.453 215.742 833.352 215.742 834.461C215.742 835.508 216.156 836.297 216.984 836.828C217.812 837.359 219.305 837.867 221.461 838.352C223.633 838.836 225.391 839.414 226.734 840.086C228.078 840.758 229.07 841.57 229.711 842.523C230.367 843.461 230.695 844.609 230.695 845.969C230.695 848.234 229.789 850.055 227.977 851.43C226.164 852.789 223.812 853.469 220.922 853.469C218.891 853.469 217.094 853.109 215.531 852.391C213.969 851.672 212.742 850.672 211.852 849.391C210.977 848.094 210.539 846.695 210.539 845.195H214.875C214.953 846.648 215.531 847.805 216.609 848.664C217.703 849.508 219.141 849.93 220.922 849.93C222.562 849.93 223.875 849.602 224.859 848.945C225.859 848.273 226.359 847.383 226.359 846.273ZM263.906 853C263.656 852.5 263.453 851.609 263.297 850.328C261.281 852.422 258.875 853.469 256.078 853.469C253.578 853.469 251.523 852.766 249.914 851.359C248.32 849.938 247.523 848.141 247.523 845.969C247.523 843.328 248.523 841.281 250.523 839.828C252.539 838.359 255.367 837.625 259.008 837.625H263.227V835.633C263.227 834.117 262.773 832.914 261.867 832.023C260.961 831.117 259.625 830.664 257.859 830.664C256.312 830.664 255.016 831.055 253.969 831.836C252.922 832.617 252.398 833.562 252.398 834.672H248.039C248.039 833.406 248.484 832.188 249.375 831.016C250.281 829.828 251.5 828.891 253.031 828.203C254.578 827.516 256.273 827.172 258.117 827.172C261.039 827.172 263.328 827.906 264.984 829.375C266.641 830.828 267.5 832.836 267.562 835.398V847.07C267.562 849.398 267.859 851.25 268.453 852.625V853H263.906ZM256.711 849.695C258.07 849.695 259.359 849.344 260.578 848.641C261.797 847.938 262.68 847.023 263.227 845.898V840.695H259.828C254.516 840.695 251.859 842.25 251.859 845.359C251.859 846.719 252.312 847.781 253.219 848.547C254.125 849.312 255.289 849.695 256.711 849.695ZM289.125 846.273C289.125 845.102 288.68 844.195 287.789 843.555C286.914 842.898 285.375 842.336 283.172 841.867C280.984 841.398 279.242 840.836 277.945 840.18C276.664 839.523 275.711 838.742 275.086 837.836C274.477 836.93 274.172 835.852 274.172 834.602C274.172 832.523 275.047 830.766 276.797 829.328C278.562 827.891 280.812 827.172 283.547 827.172C286.422 827.172 288.75 827.914 290.531 829.398C292.328 830.883 293.227 832.781 293.227 835.094H288.867C288.867 833.906 288.359 832.883 287.344 832.023C286.344 831.164 285.078 830.734 283.547 830.734C281.969 830.734 280.734 831.078 279.844 831.766C278.953 832.453 278.508 833.352 278.508 834.461C278.508 835.508 278.922 836.297 279.75 836.828C280.578 837.359 282.07 837.867 284.227 838.352C286.398 838.836 288.156 839.414 289.5 840.086C290.844 840.758 291.836 841.57 292.477 842.523C293.133 843.461 293.461 844.609 293.461 845.969C293.461 848.234 292.555 850.055 290.742 851.43C288.93 852.789 286.578 853.469 283.688 853.469C281.656 853.469 279.859 853.109 278.297 852.391C276.734 851.672 275.508 850.672 274.617 849.391C273.742 848.094 273.305 846.695 273.305 845.195H277.641C277.719 846.648 278.297 847.805 279.375 848.664C280.469 849.508 281.906 849.93 283.688 849.93C285.328 849.93 286.641 849.602 287.625 848.945C288.625 848.273 289.125 847.383 289.125 846.273ZM325.781 846.273C325.781 845.102 325.336 844.195 324.445 843.555C323.57 842.898 322.031 842.336 319.828 841.867C317.641 841.398 315.898 840.836 314.602 840.18C313.32 839.523 312.367 838.742 311.742 837.836C311.133 836.93 310.828 835.852 310.828 834.602C310.828 832.523 311.703 830.766 313.453 829.328C315.219 827.891 317.469 827.172 320.203 827.172C323.078 827.172 325.406 827.914 327.188 829.398C328.984 830.883 329.883 832.781 329.883 835.094H325.523C325.523 833.906 325.016 832.883 324 832.023C323 831.164 321.734 830.734 320.203 830.734C318.625 830.734 317.391 831.078 316.5 831.766C315.609 832.453 315.164 833.352 315.164 834.461C315.164 835.508 315.578 836.297 316.406 836.828C317.234 837.359 318.727 837.867 320.883 838.352C323.055 838.836 324.812 839.414 326.156 840.086C327.5 840.758 328.492 841.57 329.133 842.523C329.789 843.461 330.117 844.609 330.117 845.969C330.117 848.234 329.211 850.055 327.398 851.43C325.586 852.789 323.234 853.469 320.344 853.469C318.312 853.469 316.516 853.109 314.953 852.391C313.391 851.672 312.164 850.672 311.273 849.391C310.398 848.094 309.961 846.695 309.961 845.195H314.297C314.375 846.648 314.953 847.805 316.031 848.664C317.125 849.508 318.562 849.93 320.344 849.93C321.984 849.93 323.297 849.602 324.281 848.945C325.281 848.273 325.781 847.383 325.781 846.273ZM334.617 840.086C334.617 837.602 335.102 835.367 336.07 833.383C337.055 831.398 338.414 829.867 340.148 828.789C341.898 827.711 343.891 827.172 346.125 827.172C349.578 827.172 352.367 828.367 354.492 830.758C356.633 833.148 357.703 836.328 357.703 840.297V840.602C357.703 843.07 357.227 845.289 356.273 847.258C355.336 849.211 353.984 850.734 352.219 851.828C350.469 852.922 348.453 853.469 346.172 853.469C342.734 853.469 339.945 852.273 337.805 849.883C335.68 847.492 334.617 844.328 334.617 840.391V840.086ZM338.977 840.602C338.977 843.414 339.625 845.672 340.922 847.375C342.234 849.078 343.984 849.93 346.172 849.93C348.375 849.93 350.125 849.07 351.422 847.352C352.719 845.617 353.367 843.195 353.367 840.086C353.367 837.305 352.703 835.055 351.375 833.336C350.062 831.602 348.312 830.734 346.125 830.734C343.984 830.734 342.258 831.586 340.945 833.289C339.633 834.992 338.977 837.43 338.977 840.602ZM365.273 853V830.992H361.266V827.641H365.273V825.039C365.273 822.32 366 820.219 367.453 818.734C368.906 817.25 370.961 816.508 373.617 816.508C374.617 816.508 375.609 816.641 376.594 816.906L376.359 820.422C375.625 820.281 374.844 820.211 374.016 820.211C372.609 820.211 371.523 820.625 370.758 821.453C369.992 822.266 369.609 823.438 369.609 824.969V827.641H375.023V830.992H369.609V853H365.273ZM385.711 821.5V827.641H390.445V830.992H385.711V846.719C385.711 847.734 385.922 848.5 386.344 849.016C386.766 849.516 387.484 849.766 388.5 849.766C389 849.766 389.688 849.672 390.562 849.484V853C389.422 853.312 388.312 853.469 387.234 853.469C385.297 853.469 383.836 852.883 382.852 851.711C381.867 850.539 381.375 848.875 381.375 846.719V830.992H376.758V827.641H381.375V821.5H385.711ZM417.984 847.023L422.859 827.641H427.195L419.812 853H416.297L410.133 833.781L404.133 853H400.617L393.258 827.641H397.57L402.562 846.625L408.469 827.641H411.961L417.984 847.023ZM447.281 853C447.031 852.5 446.828 851.609 446.672 850.328C444.656 852.422 442.25 853.469 439.453 853.469C436.953 853.469 434.898 852.766 433.289 851.359C431.695 849.938 430.898 848.141 430.898 845.969C430.898 843.328 431.898 841.281 433.898 839.828C435.914 838.359 438.742 837.625 442.383 837.625H446.602V835.633C446.602 834.117 446.148 832.914 445.242 832.023C444.336 831.117 443 830.664 441.234 830.664C439.688 830.664 438.391 831.055 437.344 831.836C436.297 832.617 435.773 833.562 435.773 834.672H431.414C431.414 833.406 431.859 832.188 432.75 831.016C433.656 829.828 434.875 828.891 436.406 828.203C437.953 827.516 439.648 827.172 441.492 827.172C444.414 827.172 446.703 827.906 448.359 829.375C450.016 830.828 450.875 832.836 450.938 835.398V847.07C450.938 849.398 451.234 851.25 451.828 852.625V853H447.281ZM440.086 849.695C441.445 849.695 442.734 849.344 443.953 848.641C445.172 847.938 446.055 847.023 446.602 845.898V840.695H443.203C437.891 840.695 435.234 842.25 435.234 845.359C435.234 846.719 435.688 847.781 436.594 848.547C437.5 849.312 438.664 849.695 440.086 849.695ZM469.992 831.531C469.336 831.422 468.625 831.367 467.859 831.367C465.016 831.367 463.086 832.578 462.07 835V853H457.734V827.641H461.953L462.023 830.57C463.445 828.305 465.461 827.172 468.07 827.172C468.914 827.172 469.555 827.281 469.992 827.5V831.531ZM484.055 853.469C480.617 853.469 477.82 852.344 475.664 850.094C473.508 847.828 472.43 844.805 472.43 841.023V840.227C472.43 837.711 472.906 835.469 473.859 833.5C474.828 831.516 476.172 829.969 477.891 828.859C479.625 827.734 481.5 827.172 483.516 827.172C486.812 827.172 489.375 828.258 491.203 830.43C493.031 832.602 493.945 835.711 493.945 839.758V841.562H476.766C476.828 844.062 477.555 846.086 478.945 847.633C480.352 849.164 482.133 849.93 484.289 849.93C485.82 849.93 487.117 849.617 488.18 848.992C489.242 848.367 490.172 847.539 490.969 846.508L493.617 848.57C491.492 851.836 488.305 853.469 484.055 853.469ZM483.516 830.734C481.766 830.734 480.297 831.375 479.109 832.656C477.922 833.922 477.188 835.703 476.906 838H489.609V837.672C489.484 835.469 488.891 833.766 487.828 832.562C486.766 831.344 485.328 830.734 483.516 830.734ZM509.836 840.109C509.836 836.219 510.758 833.094 512.602 830.734C514.445 828.359 516.859 827.172 519.844 827.172C522.812 827.172 525.164 828.188 526.898 830.219V817H531.234V853H527.25L527.039 850.281C525.305 852.406 522.891 853.469 519.797 853.469C516.859 853.469 514.461 852.266 512.602 849.859C510.758 847.453 509.836 844.312 509.836 840.438V840.109ZM514.172 840.602C514.172 843.477 514.766 845.727 515.953 847.352C517.141 848.977 518.781 849.789 520.875 849.789C523.625 849.789 525.633 848.555 526.898 846.086V834.438C525.602 832.047 523.609 830.852 520.922 830.852C518.797 830.852 517.141 831.672 515.953 833.312C514.766 834.953 514.172 837.383 514.172 840.602ZM548.508 853.469C545.07 853.469 542.273 852.344 540.117 850.094C537.961 847.828 536.883 844.805 536.883 841.023V840.227C536.883 837.711 537.359 835.469 538.312 833.5C539.281 831.516 540.625 829.969 542.344 828.859C544.078 827.734 545.953 827.172 547.969 827.172C551.266 827.172 553.828 828.258 555.656 830.43C557.484 832.602 558.398 835.711 558.398 839.758V841.562H541.219C541.281 844.062 542.008 846.086 543.398 847.633C544.805 849.164 546.586 849.93 548.742 849.93C550.273 849.93 551.57 849.617 552.633 848.992C553.695 848.367 554.625 847.539 555.422 846.508L558.07 848.57C555.945 851.836 552.758 853.469 548.508 853.469ZM547.969 830.734C546.219 830.734 544.75 831.375 543.562 832.656C542.375 833.922 541.641 835.703 541.359 838H554.062V837.672C553.938 835.469 553.344 833.766 552.281 832.562C551.219 831.344 549.781 830.734 547.969 830.734ZM571.477 847.117L577.758 827.641H582.188L573.094 853H569.789L560.602 827.641H565.031L571.477 847.117ZM596.555 853.469C593.117 853.469 590.32 852.344 588.164 850.094C586.008 847.828 584.93 844.805 584.93 841.023V840.227C584.93 837.711 585.406 835.469 586.359 833.5C587.328 831.516 588.672 829.969 590.391 828.859C592.125 827.734 594 827.172 596.016 827.172C599.312 827.172 601.875 828.258 603.703 830.43C605.531 832.602 606.445 835.711 606.445 839.758V841.562H589.266C589.328 844.062 590.055 846.086 591.445 847.633C592.852 849.164 594.633 849.93 596.789 849.93C598.32 849.93 599.617 849.617 600.68 848.992C601.742 848.367 602.672 847.539 603.469 846.508L606.117 848.57C603.992 851.836 600.805 853.469 596.555 853.469ZM596.016 830.734C594.266 830.734 592.797 831.375 591.609 832.656C590.422 833.922 589.688 835.703 589.406 838H602.109V837.672C601.984 835.469 601.391 833.766 600.328 832.562C599.266 831.344 597.828 830.734 596.016 830.734ZM616.195 853H611.859V817H616.195V853ZM622.008 840.086C622.008 837.602 622.492 835.367 623.461 833.383C624.445 831.398 625.805 829.867 627.539 828.789C629.289 827.711 631.281 827.172 633.516 827.172C636.969 827.172 639.758 828.367 641.883 830.758C644.023 833.148 645.094 836.328 645.094 840.297V840.602C645.094 843.07 644.617 845.289 643.664 847.258C642.727 849.211 641.375 850.734 639.609 851.828C637.859 852.922 635.844 853.469 633.562 853.469C630.125 853.469 627.336 852.273 625.195 849.883C623.07 847.492 622.008 844.328 622.008 840.391V840.086ZM626.367 840.602C626.367 843.414 627.016 845.672 628.312 847.375C629.625 849.078 631.375 849.93 633.562 849.93C635.766 849.93 637.516 849.07 638.812 847.352C640.109 845.617 640.758 843.195 640.758 840.086C640.758 837.305 640.094 835.055 638.766 833.336C637.453 831.602 635.703 830.734 633.516 830.734C631.375 830.734 629.648 831.586 628.336 833.289C627.023 834.992 626.367 837.43 626.367 840.602ZM671.953 840.602C671.953 844.461 671.07 847.57 669.305 849.93C667.539 852.289 665.148 853.469 662.133 853.469C659.055 853.469 656.633 852.492 654.867 850.539V862.75H650.531V827.641H654.492L654.703 830.453C656.469 828.266 658.922 827.172 662.062 827.172C665.109 827.172 667.516 828.32 669.281 830.617C671.062 832.914 671.953 836.109 671.953 840.203V840.602ZM667.617 840.109C667.617 837.25 667.008 834.992 665.789 833.336C664.57 831.68 662.898 830.852 660.773 830.852C658.148 830.852 656.18 832.016 654.867 834.344V846.461C656.164 848.773 658.148 849.93 660.82 849.93C662.898 849.93 664.547 849.109 665.766 847.469C667 845.812 667.617 843.359 667.617 840.109ZM688.008 853.469C684.57 853.469 681.773 852.344 679.617 850.094C677.461 847.828 676.383 844.805 676.383 841.023V840.227C676.383 837.711 676.859 835.469 677.812 833.5C678.781 831.516 680.125 829.969 681.844 828.859C683.578 827.734 685.453 827.172 687.469 827.172C690.766 827.172 693.328 828.258 695.156 830.43C696.984 832.602 697.898 835.711 697.898 839.758V841.562H680.719C680.781 844.062 681.508 846.086 682.898 847.633C684.305 849.164 686.086 849.93 688.242 849.93C689.773 849.93 691.07 849.617 692.133 848.992C693.195 848.367 694.125 847.539 694.922 846.508L697.57 848.57C695.445 851.836 692.258 853.469 688.008 853.469ZM687.469 830.734C685.719 830.734 684.25 831.375 683.062 832.656C681.875 833.922 681.141 835.703 680.859 838H693.562V837.672C693.438 835.469 692.844 833.766 691.781 832.562C690.719 831.344 689.281 830.734 687.469 830.734ZM715.195 831.531C714.539 831.422 713.828 831.367 713.062 831.367C710.219 831.367 708.289 832.578 707.273 835V853H702.938V827.641H707.156L707.227 830.57C708.648 828.305 710.664 827.172 713.273 827.172C714.117 827.172 714.758 827.281 715.195 827.5V831.531ZM733.969 846.273C733.969 845.102 733.523 844.195 732.633 843.555C731.758 842.898 730.219 842.336 728.016 841.867C725.828 841.398 724.086 840.836 722.789 840.18C721.508 839.523 720.555 838.742 719.93 837.836C719.32 836.93 719.016 835.852 719.016 834.602C719.016 832.523 719.891 830.766 721.641 829.328C723.406 827.891 725.656 827.172 728.391 827.172C731.266 827.172 733.594 827.914 735.375 829.398C737.172 830.883 738.07 832.781 738.07 835.094H733.711C733.711 833.906 733.203 832.883 732.188 832.023C731.188 831.164 729.922 830.734 728.391 830.734C726.812 830.734 725.578 831.078 724.688 831.766C723.797 832.453 723.352 833.352 723.352 834.461C723.352 835.508 723.766 836.297 724.594 836.828C725.422 837.359 726.914 837.867 729.07 838.352C731.242 838.836 733 839.414 734.344 840.086C735.688 840.758 736.68 841.57 737.32 842.523C737.977 843.461 738.305 844.609 738.305 845.969C738.305 848.234 737.398 850.055 735.586 851.43C733.773 852.789 731.422 853.469 728.531 853.469C726.5 853.469 724.703 853.109 723.141 852.391C721.578 851.672 720.352 850.672 719.461 849.391C718.586 848.094 718.148 846.695 718.148 845.195H722.484C722.562 846.648 723.141 847.805 724.219 848.664C725.312 849.508 726.75 849.93 728.531 849.93C730.172 849.93 731.484 849.602 732.469 848.945C733.469 848.273 733.969 847.383 733.969 846.273ZM744.047 850.727C744.047 849.977 744.266 849.352 744.703 848.852C745.156 848.352 745.828 848.102 746.719 848.102C747.609 848.102 748.281 848.352 748.734 848.852C749.203 849.352 749.438 849.977 749.438 850.727C749.438 851.445 749.203 852.047 748.734 852.531C748.281 853.016 747.609 853.258 746.719 853.258C745.828 853.258 745.156 853.016 744.703 852.531C744.266 852.047 744.047 851.445 744.047 850.727Z" fill="black"/>
<path d="M61.2471 46.9779C60.5407 47.0918 59.8229 47.2969 59.0938 47.5931C58.3646 47.8894 57.6468 48.3337 56.9404 48.9261C56.234 49.4958 55.5618 50.2364 54.9238 51.1478C54.2858 52.0365 53.7048 53.153 53.1807 54.4974C52.6566 55.8191 52.2122 57.3913 51.8477 59.2142C51.4831 61.0144 51.2324 63.1107 51.0957 65.5033C52.0755 64.5463 53.0781 63.8171 54.1035 63.3158C55.1517 62.7917 56.1087 62.4043 56.9746 62.1537C57.9772 61.8802 58.957 61.7207 59.9141 61.6752C61.2585 61.6752 62.6484 61.7891 64.084 62.017C65.5195 62.2448 66.9209 62.6094 68.2881 63.1107C69.6781 63.612 70.9883 64.2842 72.2188 65.1273C73.4492 65.9476 74.5316 66.9616 75.4658 68.1693C76.4001 69.3542 77.1406 70.7556 77.6875 72.3734C78.2344 73.9913 78.5078 75.837 78.5078 77.9105C78.5078 79.8929 78.166 81.6931 77.4824 83.3109C76.7988 84.906 75.8988 86.3301 74.7822 87.5834C73.6657 88.8138 72.401 89.8848 70.9883 90.7963C69.5983 91.7077 68.1742 92.4597 66.7158 93.0521C65.2803 93.6218 63.8789 94.0433 62.5117 94.3168C61.1673 94.613 59.9938 94.7611 58.9912 94.7611H58.3076C57.305 94.7383 56.1201 94.556 54.7529 94.2142C53.4085 93.8952 52.0072 93.3711 50.5488 92.642C49.1133 91.89 47.6777 90.8988 46.2422 89.6683C44.8294 88.4151 43.5648 86.877 42.4482 85.0541C41.3317 83.2084 40.4202 81.0323 39.7139 78.5258C39.0303 75.9965 38.6885 73.0798 38.6885 69.7758C38.6885 67.1097 39.11 64.6602 39.9531 62.4271C40.819 60.1941 41.9355 58.1774 43.3027 56.3773C44.6927 54.5772 46.2536 53.0049 47.9854 51.6605C49.7399 50.3161 51.5173 49.1996 53.3174 48.3109C55.1175 47.3995 56.8493 46.7159 58.5127 46.2601C60.1989 45.8044 61.6686 45.5765 62.9219 45.5765H63.332C65.1322 45.6221 66.8298 45.8614 68.4248 46.2943C70.0199 46.7273 71.4098 47.3197 72.5947 48.0717C73.8024 48.8008 74.7594 49.6781 75.4658 50.7035C76.195 51.7061 76.5824 52.7885 76.6279 53.9506C76.6279 54.976 76.4684 55.876 76.1494 56.6508C75.8532 57.4255 75.443 58.0749 74.9189 58.599C74.4176 59.1003 73.8252 59.4877 73.1416 59.7611C72.458 60.0118 71.7516 60.1371 71.0225 60.1371C70.3161 60.1371 69.6325 59.9776 68.9717 59.6586C68.3109 59.3396 67.7184 58.9066 67.1943 58.3597C66.693 57.8129 66.2829 57.1862 65.9639 56.4799C65.6449 55.7735 65.4854 55.0329 65.4854 54.2582C65.4854 53.9164 65.5309 53.5746 65.6221 53.2328C65.7132 52.891 65.8044 52.5492 65.8955 52.2074C66.0094 51.8656 66.112 51.5124 66.2031 51.1478C66.2943 50.7832 66.3398 50.4187 66.3398 50.0541C66.3398 49.097 66.0436 48.3223 65.4512 47.7299C64.8815 47.1374 64.0384 46.8412 62.9219 46.8412H62.5459C62.2952 46.8412 62.0674 46.864 61.8623 46.9095C61.6572 46.9551 61.4521 46.9779 61.2471 46.9779ZM59.9141 62.9398C58.9115 62.9854 57.8861 63.1791 56.8379 63.5209C55.9492 63.8171 54.9808 64.2728 53.9326 64.8881C52.9072 65.5033 51.916 66.3692 50.959 67.4857V70.2201C50.959 73.6608 51.0615 76.6231 51.2666 79.1068C51.4945 81.5905 51.7907 83.6983 52.1553 85.4301C52.5426 87.1618 52.987 88.5632 53.4883 89.6342C53.9896 90.6823 54.5251 91.5026 55.0947 92.0951C55.6644 92.6648 56.2454 93.0521 56.8379 93.2572C57.4303 93.4395 58.0114 93.5306 58.5811 93.5306C59.1507 93.5306 59.7432 93.4851 60.3584 93.3939C60.9964 93.28 61.6117 93.0521 62.2041 92.7103C62.8193 92.3457 63.4004 91.833 63.9473 91.1722C64.4941 90.4886 64.9727 89.5658 65.3828 88.4037C65.793 87.2416 66.1234 85.806 66.374 84.097C66.6247 82.3881 66.75 80.3259 66.75 77.9105C66.6816 75.2217 66.4196 72.795 65.9639 70.6302C65.7588 69.7188 65.5081 68.8187 65.2119 67.9301C64.9157 67.0414 64.5397 66.2439 64.084 65.5375C63.651 64.8083 63.127 64.2159 62.5117 63.7601C61.9193 63.2816 61.2357 63.0082 60.4609 62.9398H59.9141Z" fill="black"/>
<path d="M462.5 119.571C462.5 167.992 416.205 207.643 358.563 207.643C300.922 207.643 254.627 167.992 254.627 119.571C254.627 71.151 300.922 31.5 358.563 31.5C416.205 31.5 462.5 71.151 462.5 119.571Z" stroke="black" stroke-width="3"/>
<path d="M262.171 181.418C262.171 194.504 249.594 205.51 233.546 205.51C217.498 205.51 204.921 194.504 204.921 181.418C204.921 168.333 217.498 157.327 233.546 157.327C249.594 157.327 262.171 168.333 262.171 181.418Z" stroke="black" stroke-width="3"/>
<path d="M502.749 194.592C502.749 207.677 490.172 218.684 474.125 218.684C458.077 218.684 445.5 207.677 445.5 194.592C445.5 181.506 458.077 170.5 474.125 170.5C490.172 170.5 502.749 181.506 502.749 194.592Z" stroke="black" stroke-width="3"/>
<path d="M198.156 223.005C198.156 230.79 190.637 237.5 180.828 237.5C171.019 237.5 163.5 230.79 163.5 223.005C163.5 215.22 171.019 208.51 180.828 208.51C190.637 208.51 198.156 215.22 198.156 223.005Z" stroke="black" stroke-width="3"/>
<path d="M543.156 231.995C543.156 239.78 535.637 246.49 525.828 246.49C516.019 246.49 508.5 239.78 508.5 231.995C508.5 224.21 516.019 217.5 525.828 217.5C535.637 217.5 543.156 224.21 543.156 231.995Z" stroke="black" stroke-width="3"/>
<path d="M132.738 384.739C129.149 368.909 131.416 366.444 132.738 352.027C132.738 352.027 128.789 355.029 115.56 358.138C102.332 361.246 91.979 361.246 86.1316 361.246C80.2843 361.246 71.6031 358.763 61.0167 358.138C56.0523 357.885 49.8971 352.137 43.6663 347.628C37.4355 343.119 35.6222 339.101 29 327.794C40.2095 322.43 65.0428 324.093 71.7529 323.205C78.463 322.317 94.9506 320.985 105.495 317.284C116.039 313.584 124.189 302.578 133.319 291.659C151.004 265.485 163.623 273.103 167.569 268.464C171.514 263.824 235.548 260.039 245.632 266.531C255.716 273.023 284.023 278.056 288.77 295.971C301.985 300.287 307.073 312.394 317.617 316.095C328.162 319.795 344.649 321.127 351.359 322.015C358.069 322.904 384.79 310.731 396 316.095C389.378 327.402 385.677 341.93 379.446 346.439C373.215 350.947 367.06 356.696 362.095 356.948C351.509 357.574 342.828 360.057 336.98 360.057C331.133 360.057 320.78 360.057 307.552 356.948C295.923 354.215 290.225 348.165 289.017 346.743C292.014 351.013 292.511 373.9 284.994 388.902C277.274 404.308 273.86 397.963 266.21 400.649C258.559 403.334 225.432 407.593 225.432 403.92C225.432 400.247 201.934 403.92 193.433 403.92C184.932 403.92 163.132 400.649 163.132 400.649C163.132 400.649 136.327 400.569 132.738 384.739Z" fill="#93BE37" fill-opacity="0.8"/>
<path d="M132.738 313.746C132.74 326.009 133.204 332.119 133.306 338.065M133.306 338.065C133.377 342.15 133.276 346.157 132.738 352.027M133.306 338.065C133.346 338.354 133.351 338.647 133.319 338.943M133.306 338.065C132.592 332.827 120.54 328.682 109.895 328.682C98.662 328.682 106.78 325.004 88.8452 328.682C70.9105 332.361 61.5924 333.994 45.4244 331.359M132.738 352.027C131.416 366.444 129.149 368.909 132.738 384.739C136.327 400.569 163.132 400.649 163.132 400.649C163.132 400.649 184.932 403.92 193.433 403.92C201.934 403.92 225.432 400.247 225.432 403.92C225.432 407.593 258.559 403.334 266.21 400.649C273.86 397.963 277.274 404.308 284.994 388.902C292.511 373.9 292.014 351.013 289.017 346.743M132.738 352.027C132.738 352.027 128.789 355.029 115.56 358.138C102.332 361.246 91.979 361.246 86.1317 361.246C80.2843 361.246 71.6031 358.763 61.0167 358.138C56.0523 357.885 49.8971 352.137 43.6663 347.628C37.4355 343.119 35.6222 339.101 29 327.794C40.2095 322.43 65.0428 324.093 71.7529 323.205C78.463 322.317 94.9506 320.985 105.495 317.284C116.039 313.584 124.189 302.578 133.319 291.659M289.017 346.743C288.936 346.628 288.854 346.526 288.77 346.439M289.017 346.743C290.225 348.165 295.923 354.215 307.552 356.948C320.78 360.057 331.133 360.057 336.981 360.057C342.828 360.057 351.509 357.574 362.095 356.948C367.06 356.696 373.215 350.947 379.446 346.439C385.677 341.93 389.378 327.402 396 316.095C384.79 310.731 358.069 322.904 351.359 322.015C344.649 321.127 328.162 319.795 317.617 316.095C307.073 312.394 301.985 300.287 288.77 295.971M289.017 346.743C288.851 346.547 288.77 346.439 288.77 346.439M288.77 346.439C285.558 343.102 288.77 313.746 288.77 313.746M133.319 291.659C151.004 265.485 163.623 273.103 167.569 268.464C171.514 263.824 235.548 260.039 245.632 266.531C255.716 273.023 284.023 278.056 288.77 295.971M133.319 291.659C130.989 296.672 131.511 298.35 131.511 303.703M288.77 295.971C290.133 300.456 289.255 301.469 289.43 305.041M287.632 328.682C287.023 323.037 300.023 321.725 311.255 321.725C322.488 321.725 326.055 327.83 343.989 331.508C361.924 335.187 367.372 328.642 383.54 326.007" stroke="black" stroke-width="5"/>
<path d="M207.483 342.312C206.55 343.332 206 343.409 204.948 342.312C205.583 336.526 205.87 337.865 207.483 335.932C209.097 333.999 218.776 333.999 220.447 335.932C222.118 337.865 222.251 336.006 222.694 341.635C221.851 342.967 221.527 343.523 220.447 342.312" stroke="black" stroke-width="5"/>
<path d="M181.145 313.746C185.575 319.501 187.375 324.6 190.679 335.157C189.815 338.257 189.358 340.361 187.375 343.335C185.393 346.309 179.729 352.405 175.199 353.446C170.668 354.487 159.718 353.595 154.621 350.472C149.524 347.35 144.615 340.956 145.842 330.696C147.069 320.437 151.128 316.422 153.677 313.746C156.226 311.069 160.058 309.241 164.438 307.055C170.391 305.842 173.484 306.041 181.145 313.746Z" fill="black"/>
<path d="M153.677 313.746C156.226 311.069 160.058 309.241 164.438 307.055C170.391 305.842 173.484 306.041 181.145 313.746C185.575 319.501 187.375 324.6 190.679 335.157C189.815 338.257 189.358 340.361 187.375 343.335M153.677 313.746C151.128 316.422 147.069 320.437 145.842 330.696C144.615 340.956 149.524 347.35 154.621 350.472M153.677 313.746C150.525 320.072 147.273 331.063 148.124 337.402C148.976 343.74 151.692 345.9 154.621 350.472M154.621 350.472C159.718 353.595 170.668 354.487 175.199 353.446C179.729 352.405 185.393 346.309 187.375 343.335M187.375 343.335C188.453 340.374 188.525 337.536 188.619 335.157C188.713 332.778 188.249 329.817 187.958 326.846" stroke="black" stroke-width="5"/>
<path d="M171.438 330.246C171.562 329.652 172.08 328.926 172.555 328.55C173.043 328.1 173.051 328.126 173.796 328.041C174.541 327.956 174.727 328.126 175.223 328.55C175.72 328.974 175.844 329.822 175.968 330.585C176.092 331.349 176.061 331.243 176.061 332.26C176.061 333.278 175.999 333.13 175.751 333.639C175.502 334.148 174.975 334.317 174.541 334.487C174.106 334.656 173.362 334.487 173.362 334.487C173.362 334.487 172.276 334.063 172.089 333.639C171.903 333.215 171.562 332.96 171.438 331.858C171.314 330.755 171.314 330.84 171.438 330.246Z" fill="#FFFFFD"/>
<path d="M158.834 323.444C159.018 322.364 159.785 321.043 160.487 320.36C161.21 319.542 161.222 319.589 162.324 319.434C163.426 319.28 163.702 319.589 164.436 320.36C165.171 321.131 165.355 322.673 165.539 324.061C165.722 325.448 165.676 325.256 165.676 327.106C165.676 328.956 165.584 328.687 165.217 329.612C164.85 330.537 164.069 330.846 163.426 331.154C162.783 331.462 161.681 331.154 161.681 331.154C161.681 331.154 160.074 330.383 159.798 329.612C159.523 328.841 159.018 328.378 158.834 326.374C158.65 324.369 158.65 324.523 158.834 323.444Z" fill="#FFFFFD"/>
<path d="M145.86 330.696C147.087 320.437 151.146 316.422 153.695 313.746C150.542 320.072 147.291 331.063 148.142 337.401C148.993 343.74 151.71 345.9 154.638 350.472C149.541 347.349 144.633 340.956 145.86 330.696Z" fill="#FFFFFD" stroke="black" stroke-width="5"/>
<path d="M186.354 322.816C189.074 331.126 187.297 324.6 190.601 335.157C189.737 338.257 188.808 340.807 186.825 343.781C187.903 340.82 187.975 336.628 188.069 334.249C188.164 331.87 186.644 325.787 186.354 322.816Z" fill="#FFFFFD" stroke="black" stroke-width="5"/>
<path d="M242.8 314.745C238.37 320.501 236.57 325.6 233.266 336.157C234.13 339.257 234.588 341.361 236.57 344.335C238.552 347.309 244.216 353.405 248.747 354.446C253.278 355.486 264.227 354.594 269.324 351.472C274.422 348.349 279.33 341.956 278.103 331.696C276.876 321.437 272.817 317.422 270.268 314.745C267.72 312.069 263.887 310.241 259.508 308.054C253.554 306.841 250.462 307.041 242.8 314.745Z" fill="black"/>
<path d="M270.268 314.745C267.72 312.069 263.887 310.241 259.508 308.054C253.554 306.841 250.462 307.041 242.8 314.745C238.37 320.501 236.57 325.6 233.266 336.157C234.13 339.257 234.588 341.361 236.57 344.335M270.268 314.745C272.817 317.422 276.876 321.437 278.103 331.696C279.33 341.956 274.422 348.349 269.324 351.472M270.268 314.745C273.421 321.072 276.672 332.063 275.821 338.401C274.97 344.74 272.253 346.9 269.324 351.472M269.324 351.472C264.227 354.594 253.278 355.486 248.747 354.446C244.216 353.405 238.552 347.309 236.57 344.335M236.57 344.335C235.492 341.373 235.421 338.536 235.326 336.157C235.232 333.778 235.697 330.817 235.987 327.846" stroke="black" stroke-width="5"/>
<path d="M265.078 332.03C264.954 331.437 264.435 330.71 263.961 330.334C263.473 329.884 263.464 329.91 262.72 329.825C261.975 329.74 261.789 329.91 261.292 330.334C260.796 330.758 260.672 331.606 260.548 332.37C260.424 333.133 260.455 333.027 260.455 334.045C260.455 335.062 260.517 334.914 260.765 335.423C261.013 335.932 261.541 336.101 261.975 336.271C262.409 336.441 263.154 336.271 263.154 336.271C263.154 336.271 264.24 335.847 264.426 335.423C264.612 334.999 264.954 334.744 265.078 333.642C265.202 332.539 265.202 332.624 265.078 332.03Z" fill="#FFFFFD"/>
<path d="M256.134 324.836C255.916 323.702 255.003 322.315 254.168 321.597C253.309 320.739 253.294 320.788 251.984 320.626C250.673 320.464 250.346 320.788 249.472 321.597C248.598 322.407 248.38 324.026 248.161 325.483C247.943 326.94 247.997 326.738 247.997 328.681C247.997 330.624 248.107 330.341 248.543 331.312C248.98 332.284 249.909 332.608 250.673 332.931C251.438 333.255 252.748 332.931 252.748 332.931C252.748 332.931 254.66 332.122 254.987 331.312C255.315 330.503 255.916 330.017 256.134 327.912C256.352 325.807 256.352 325.969 256.134 324.836Z" fill="#FFFFFD"/>
<path d="M278.085 331.696C276.858 321.436 272.799 317.422 270.25 314.745C273.403 321.072 276.654 332.063 275.803 338.401C274.952 344.74 272.235 346.9 269.306 351.472C274.404 348.349 279.312 341.956 278.085 331.696Z" fill="#FFFFFD" stroke="black" stroke-width="5"/>
<path d="M237.592 323.816C234.871 332.126 236.648 325.6 233.345 336.157C234.209 339.257 235.138 341.807 237.12 344.781C236.043 341.819 235.971 337.628 235.877 335.249C235.782 332.87 237.302 326.786 237.592 323.816Z" fill="#FFFFFD" stroke="black" stroke-width="5"/>
<path d="M139.062 314.774C147.456 305.931 152.608 304.248 158.951 302.14C165.295 300.033 173.384 301.108 177.559 302.927C181.734 304.746 191.79 315.168 193.666 321.018" stroke="black" stroke-width="5"/>
<path d="M284.725 311.444C276.125 303.107 270.937 301.732 264.547 300.004C258.158 298.276 250.1 299.831 245.971 301.898C241.843 303.964 232.045 314.978 230.31 320.936" stroke="black" stroke-width="5"/>
<path d="M201.42 362.52C215.966 370.235 218.773 363.497 226.349 364.859" stroke="black" stroke-width="5"/>
<path d="M197.4 254.567C196.866 260.259 197.397 262.702 199.663 265.868" stroke="black" stroke-width="5"/>
<path d="M206.129 253.682C204.815 259.243 205.171 261.895 207.542 265.882" stroke="black" stroke-width="5"/>
<path d="M213.717 253.114C215.07 259.022 215.695 263.04 213.346 267.222" stroke="black" stroke-width="5"/>
<path d="M200.135 258.433L201.456 264.083" stroke="black" stroke-width="5"/>
<path d="M208.913 264.083L210.235 269.734" stroke="black" stroke-width="5"/>
<path d="M220.052 254.567L218.73 264.975" stroke="black" stroke-width="5"/>
<path d="M222.374 450.796C222.552 448.963 222.718 447.238 222.873 445.61L222.374 450.796Z" fill="#E07E24" fill-opacity="0.8"/>
<path d="M162.378 400.985C162.378 400.985 135.572 400.905 131.983 385.075C131.983 385.075 127.435 382.101 125.453 393.848C123.471 405.594 123.974 412.585 125.453 418.976C126.932 425.368 131.777 431.02 131.777 431.02L181.523 447.673C197.599 449.289 215.976 453.621 222.374 450.796L222.873 445.61C225.256 420.591 225.419 419.807 224.68 404.313C224.678 404.294 224.677 404.275 224.677 404.256C224.677 400.583 201.179 404.256 192.678 404.256C184.177 404.256 162.378 400.985 162.378 400.985Z" fill="#E07E24" fill-opacity="0.8"/>
<path d="M284.317 390.279C276.597 405.685 273.106 398.299 265.455 400.985C257.844 403.656 225.024 407.884 224.68 404.313C225.419 419.807 225.256 420.591 222.873 445.61C226.101 445.808 255.396 447.491 270.724 444.402C286.96 441.131 285.137 441.875 291.224 431.02C297.311 420.166 295.377 416.597 291.224 404.553C287.071 392.51 284.317 390.279 284.317 390.279Z" fill="#E07E24" fill-opacity="0.8"/>
<path d="M224.677 404.256C224.677 400.583 201.179 404.256 192.678 404.256C184.177 404.256 162.378 400.985 162.378 400.985C162.378 400.985 135.572 400.905 131.983 385.075C131.983 385.075 127.435 382.101 125.453 393.848C123.471 405.594 123.974 412.585 125.453 418.976C126.932 425.368 131.777 431.02 131.777 431.02L181.523 447.673C197.599 449.289 215.976 453.621 222.374 450.796M224.677 404.256C224.677 404.275 224.678 404.294 224.68 404.313M224.677 404.256C224.678 404.275 224.679 404.294 224.68 404.313M222.374 450.796C222.552 448.963 222.718 447.238 222.873 445.61M222.374 450.796L222.873 445.61M222.873 445.61C226.101 445.808 255.396 447.491 270.724 444.402C286.96 441.131 285.137 441.875 291.224 431.02C297.311 420.166 295.377 416.597 291.224 404.553C287.071 392.51 284.317 390.279 284.317 390.279C276.597 405.685 273.106 398.299 265.455 400.985C257.844 403.656 225.024 407.884 224.68 404.313M222.873 445.61C225.256 420.591 225.419 419.807 224.68 404.313" stroke="black" stroke-width="5"/>
<path d="M222.374 451.075C222.552 449.242 222.718 447.517 222.873 445.889L222.374 451.075Z" fill="#BD722D" fill-opacity="0.9"/>
<path d="M151.01 437.846L136.514 433.045C136.514 433.045 131.888 469.176 130.756 476.016C129.623 482.856 123.851 496.646 123.851 496.646C127.25 497.888 146.415 505.159 146.415 505.159C149.178 483.027 150.818 442.732 151.01 437.846Z" fill="#BD722D" fill-opacity="0.9"/>
<path d="M144.611 515.883C145.256 513.337 145.858 509.616 146.415 505.159L123.851 496.646C120.453 495.404 118.454 513.955 120.17 516.44C121.886 518.925 139.819 524.784 142.861 523.002C142.914 522.783 142.967 522.561 143.021 522.335C143.465 520.49 143.979 518.381 144.611 515.883Z" fill="#BD722D" fill-opacity="0.9"/>
<path d="M136.514 433.045C136.514 433.045 131.888 469.176 130.756 476.016C129.623 482.856 123.851 496.646 123.851 496.646C127.25 497.888 146.415 505.159 146.415 505.159C149.178 483.027 150.818 442.732 151.01 437.846L136.514 433.045Z" fill="#BD722D" fill-opacity="0.9"/>
<path d="M222.374 451.075C215.976 453.9 197.598 449.567 181.522 447.952L151.01 437.846C150.818 442.732 149.178 483.027 146.415 505.159C145.858 509.616 145.256 513.337 144.611 515.883C143.979 518.381 143.465 520.49 143.021 522.335C142.967 522.561 142.914 522.783 142.861 523.002C140.599 532.432 140.114 534.921 134.042 549.138C126.682 566.373 116.018 561.275 120.17 576.568C124.322 591.86 140.554 596.351 151.028 601.934C161.503 607.517 196.042 615.649 202.365 613.707C208.687 611.765 217.714 610.195 246.151 610.915C274.589 611.636 270.273 603.083 286.069 601.084C325.374 596.112 325.798 576.568 315.701 567.586C305.603 558.605 306.924 559.09 300.791 540.399C297.75 531.135 295.489 525.885 293.637 521.218C291.753 516.468 290.292 512.321 288.864 505.159C286.033 490.959 281.54 442.697 281.54 442.697L270.724 444.681C255.396 447.769 226.1 446.087 222.873 445.889C222.718 447.517 222.552 449.242 222.374 451.075Z" fill="#BD722D" fill-opacity="0.9"/>
<path d="M222.374 451.075C215.976 453.9 197.598 449.567 181.522 447.952L151.01 437.846M222.374 451.075C222.552 449.242 222.718 447.517 222.873 445.889M222.374 451.075L222.873 445.889M222.873 445.889C226.1 446.087 255.396 447.769 270.724 444.681L281.54 442.697C281.54 442.697 286.033 490.959 288.864 505.159M151.028 437.357C151.028 437.357 151.022 437.525 151.01 437.846M146.415 505.159C145.858 509.616 145.256 513.337 144.611 515.883C143.979 518.381 143.465 520.49 143.021 522.335M146.415 505.159L123.851 496.646M146.415 505.159C146.415 505.159 127.25 497.888 123.851 496.646M146.415 505.159C149.178 483.027 150.818 442.732 151.01 437.846M134.042 549.138C126.682 566.373 116.018 561.275 120.17 576.568C124.322 591.86 140.554 596.351 151.028 601.934C161.503 607.517 196.042 615.649 202.365 613.707C208.687 611.765 217.714 610.195 246.151 610.915C274.589 611.636 270.273 603.083 286.069 601.084C325.374 596.112 325.798 576.568 315.701 567.586C305.603 558.605 306.924 559.09 300.791 540.399M134.042 549.138C140.114 534.921 140.599 532.432 142.861 523.002M134.042 549.138C140.255 534.591 140.619 532.323 143.021 522.335M300.791 540.399C294.657 521.709 291.695 519.359 288.864 505.159M300.791 540.399C297.75 531.135 295.489 525.885 293.637 521.218C291.753 516.468 290.292 512.321 288.864 505.159M123.851 496.646C123.851 496.646 129.623 482.856 130.756 476.016C131.888 469.176 136.514 433.045 136.514 433.045L151.01 437.846M123.851 496.646C120.453 495.404 118.454 513.955 120.17 516.44C121.886 518.925 139.819 524.784 142.861 523.002M142.861 523.002C142.914 522.783 142.967 522.561 143.021 522.335" stroke="black" stroke-width="5"/>
<path d="M283.594 441.809C283.594 441.809 322.861 483.716 332.424 494.878C332.424 494.878 337.595 483.268 341.061 477.893C341.061 477.893 332.982 469.347 325.361 460.47C318.131 452.048 296.048 427.453 294.162 425.191C295.029 434.941 286.846 439.567 283.594 441.809Z" fill="#BD722D" fill-opacity="0.9"/>
<path d="M341.061 477.893L332.424 494.878C337.247 500.507 340.597 503.475 344.618 506.777C344.618 506.777 348.41 501.063 350.015 498.019C351.62 494.975 354.891 490.888 354.054 488.278C353.218 485.668 346.931 476.679 343.629 476.546C342.648 476.507 342.527 475.62 341.061 477.893Z" fill="#BD722D" fill-opacity="0.9"/>
<path d="M294.162 425.191C296.048 427.453 318.131 452.048 325.361 460.47C332.982 469.347 341.061 477.893 341.061 477.893M294.162 425.191C294.176 425.66 294.159 424.688 294.162 425.191ZM294.162 425.191C295.029 434.941 286.846 439.567 283.594 441.809C283.594 441.809 322.861 483.716 332.424 494.878M332.424 494.878L341.061 477.893M332.424 494.878C332.424 494.878 337.595 483.268 341.061 477.893M332.424 494.878C337.247 500.507 340.597 503.475 344.618 506.777C344.618 506.777 348.41 501.063 350.015 498.019C351.62 494.975 354.891 490.888 354.054 488.278C353.218 485.668 346.931 476.679 343.629 476.546C342.648 476.507 342.527 475.62 341.061 477.893" stroke="black" stroke-width="5"/>
<path d="M139.062 523.152C132.711 522.264 121.783 518.353 120.462 516.44C118.372 521.603 118.588 529.265 117.927 532.685C117.267 536.105 118.305 546.067 120.382 548.744C122.458 551.42 126.14 552.312 127.367 551.42C128.594 550.528 131.7 546.513 132.549 542.796C132.549 542.796 133.691 544.432 135.107 542.796C136.523 541.161 139.346 534.321 139.534 530.752C139.72 527.25 140.645 527.793 141.139 523.332L139.062 523.152Z" fill="#93BE37" fill-opacity="0.8"/>
<path d="M132.549 542.796C131.7 546.513 128.594 550.528 127.367 551.42C126.14 552.312 122.458 551.42 120.382 548.744C118.305 546.067 117.267 536.105 117.927 532.685C118.588 529.265 118.372 521.603 120.462 516.44C121.783 518.353 132.711 522.264 139.062 523.152M132.549 542.796C132.549 542.796 133.271 535.964 133.021 532.685M132.549 542.796C132.549 542.796 133.691 544.432 135.107 542.796C136.523 541.161 139.346 534.321 139.534 530.752C139.72 527.25 140.645 527.793 141.139 523.332M139.062 523.152L141.139 523.332M139.062 523.152C139.053 523.239 141.148 523.247 141.139 523.332M292.177 429.773C291.955 430.192 292.425 429.331 292.177 429.773Z" stroke="black" stroke-width="5"/>
<path d="M344.984 507.273C347.668 509.439 349.921 511.237 353.83 514.557C356.466 516.277 359.101 516.567 361.122 518.383C363.326 520.362 363.744 519.488 365.533 518.982C367.321 518.475 366.988 516.651 366.988 516.651C369.666 518.019 372.309 516.712 373.551 515.952C374.793 515.192 375.003 514.309 374.65 510.466C374.297 506.623 369.064 499.433 366.672 498.046C364.279 496.66 358.165 490.174 353.913 489.242C354.772 491.845 351.881 495.414 350.302 498.471C348.724 501.527 344.984 507.273 344.984 507.273Z" fill="#93BE37" fill-opacity="0.8"/>
<path d="M366.988 516.651C369.666 518.019 372.309 516.712 373.551 515.952C374.793 515.192 375.003 514.309 374.65 510.466C374.297 506.623 369.064 499.433 366.672 498.046C364.279 496.66 358.165 490.174 353.913 489.242C354.772 491.845 351.881 495.414 350.302 498.471C348.724 501.527 344.984 507.273 344.984 507.273C347.668 509.439 349.921 511.237 353.83 514.557M366.988 516.651C366.988 516.651 359.119 509.595 357.343 507.327M366.988 516.651C366.988 516.651 367.321 518.475 365.533 518.982C363.744 519.488 363.326 520.362 361.122 518.383C359.101 516.567 356.466 516.277 353.83 514.557M353.83 514.557C353.594 514.403 354.079 514.746 353.83 514.557ZM297.164 428.197C297.182 428.667 297.157 427.695 297.164 428.197Z" stroke="black" stroke-width="5"/>
<path d="M600.262 386.739C603.851 370.909 601.584 368.444 600.262 354.027C600.262 354.027 604.211 357.029 617.44 360.138C630.668 363.246 641.021 363.246 646.868 363.246C652.716 363.246 661.397 360.763 671.983 360.138C676.948 359.885 683.103 354.137 689.334 349.628C695.564 345.119 697.378 341.101 704 329.794C692.79 324.43 667.957 326.093 661.247 325.205C654.537 324.317 638.049 322.985 627.505 319.284C616.961 315.584 608.811 304.578 599.681 293.659C581.996 267.485 569.377 275.103 565.431 270.464C561.486 265.824 497.452 262.039 487.368 268.531C477.284 275.023 448.977 280.056 444.23 297.971C431.015 302.287 425.927 314.394 415.383 318.095C404.838 321.795 388.351 323.127 381.641 324.015C374.931 324.904 348.21 312.731 337 318.095C343.622 329.402 347.323 343.93 353.554 348.439C359.785 352.947 365.94 358.696 370.905 358.948C381.491 359.574 390.172 362.057 396.02 362.057C401.867 362.057 412.22 362.057 425.448 358.948C437.077 356.215 442.775 350.165 443.983 348.743C440.986 353.013 440.489 375.9 448.006 390.902C455.726 406.308 459.14 399.963 466.79 402.649C474.441 405.334 507.568 409.593 507.568 405.92C507.568 402.247 531.066 405.92 539.567 405.92C548.068 405.92 569.868 402.649 569.868 402.649C569.868 402.649 596.673 402.569 600.262 386.739Z" fill="#93BE37" fill-opacity="0.8"/>
<path d="M600.262 315.746C600.26 328.009 599.796 334.119 599.694 340.065M599.694 340.065C599.623 344.15 599.724 348.157 600.262 354.027M599.694 340.065C599.654 340.354 599.649 340.647 599.681 340.943M599.694 340.065C600.408 334.827 612.46 330.682 623.105 330.682C634.338 330.682 626.22 327.004 644.155 330.682C662.09 334.361 671.408 335.994 687.576 333.359M600.262 354.027C601.584 368.444 603.851 370.909 600.262 386.739C596.673 402.569 569.868 402.649 569.868 402.649C569.868 402.649 548.068 405.92 539.567 405.92C531.066 405.92 507.568 402.247 507.568 405.92C507.568 409.593 474.441 405.334 466.79 402.649C459.14 399.963 455.726 406.308 448.006 390.902C440.489 375.9 440.986 353.013 443.983 348.743M600.262 354.027C600.262 354.027 604.211 357.029 617.44 360.138C630.668 363.246 641.021 363.246 646.868 363.246C652.716 363.246 661.397 360.763 671.983 360.138C676.948 359.885 683.103 354.137 689.334 349.628C695.564 345.119 697.378 341.101 704 329.794C692.79 324.43 667.957 326.093 661.247 325.205C654.537 324.317 638.049 322.985 627.505 319.284C616.961 315.584 608.811 304.578 599.681 293.659M443.983 348.743C444.064 348.628 444.146 348.526 444.23 348.439M443.983 348.743C442.775 350.165 437.077 356.215 425.448 358.948C412.22 362.057 401.867 362.057 396.019 362.057C390.172 362.057 381.491 359.574 370.905 358.948C365.94 358.696 359.785 352.947 353.554 348.439C347.323 343.93 343.622 329.402 337 318.095C348.21 312.731 374.931 324.904 381.641 324.015C388.351 323.127 404.838 321.795 415.383 318.095C425.927 314.394 431.015 302.287 444.23 297.971M443.983 348.743C444.149 348.547 444.23 348.439 444.23 348.439M444.23 348.439C447.442 345.102 444.23 315.746 444.23 315.746M599.681 293.659C581.996 267.485 569.377 275.103 565.431 270.464C561.486 265.824 497.452 262.039 487.368 268.531C477.284 275.023 448.977 280.056 444.23 297.971M599.681 293.659C602.011 298.672 601.489 300.35 601.489 305.703M444.23 297.971C442.867 302.456 443.745 303.469 443.57 307.041M445.368 330.682C445.977 325.037 432.977 323.725 421.745 323.725C410.512 323.725 406.945 329.83 389.011 333.508C371.076 337.187 365.628 330.642 349.46 328.007" stroke="black" stroke-width="5"/>
<path d="M525.517 344.312C526.45 345.332 527 345.409 528.052 344.312C527.417 338.526 527.13 339.865 525.517 337.932C523.903 335.999 514.224 335.999 512.553 337.932C510.882 339.865 510.749 338.006 510.306 343.635C511.149 344.967 511.473 345.523 512.553 344.312" stroke="black" stroke-width="5"/>
<path d="M551.855 315.746C547.425 321.501 545.625 326.6 542.321 337.157C543.185 340.257 543.642 342.361 545.625 345.335C547.607 348.309 553.271 354.405 557.801 355.446C562.332 356.487 573.282 355.595 578.379 352.472C583.476 349.35 588.385 342.956 587.158 332.696C585.931 322.437 581.872 318.422 579.323 315.746C576.774 313.069 572.942 311.241 568.562 309.055C562.609 307.842 559.516 308.041 551.855 315.746Z" fill="black"/>
<path d="M579.323 315.746C576.774 313.069 572.942 311.241 568.562 309.055C562.609 307.842 559.516 308.041 551.855 315.746C547.425 321.501 545.625 326.6 542.321 337.157C543.185 340.257 543.642 342.361 545.625 345.335M579.323 315.746C581.872 318.422 585.931 322.437 587.158 332.696C588.385 342.956 583.476 349.35 578.379 352.472M579.323 315.746C582.475 322.072 585.727 333.063 584.876 339.402C584.024 345.74 581.308 347.9 578.379 352.472M578.379 352.472C573.282 355.595 562.332 356.487 557.801 355.446C553.271 354.405 547.607 348.309 545.625 345.335M545.625 345.335C544.547 342.374 544.475 339.536 544.381 337.157C544.287 334.778 544.751 331.817 545.042 328.846" stroke="black" stroke-width="5"/>
<path d="M561.562 332.246C561.438 331.652 560.92 330.926 560.445 330.55C559.957 330.1 559.949 330.126 559.204 330.041C558.459 329.956 558.273 330.126 557.777 330.55C557.28 330.974 557.156 331.822 557.032 332.585C556.908 333.349 556.939 333.243 556.939 334.26C556.939 335.278 557.001 335.13 557.249 335.639C557.498 336.148 558.025 336.317 558.459 336.487C558.894 336.656 559.638 336.487 559.638 336.487C559.638 336.487 560.724 336.063 560.911 335.639C561.097 335.215 561.438 334.96 561.562 333.858C561.686 332.755 561.686 332.84 561.562 332.246Z" fill="#FFFFFD"/>
<path d="M574.166 325.444C573.982 324.364 573.215 323.043 572.513 322.36C571.79 321.542 571.778 321.589 570.676 321.434C569.574 321.28 569.298 321.589 568.564 322.36C567.829 323.131 567.645 324.673 567.461 326.061C567.278 327.448 567.324 327.256 567.324 329.106C567.324 330.956 567.416 330.687 567.783 331.612C568.15 332.537 568.931 332.846 569.574 333.154C570.217 333.462 571.319 333.154 571.319 333.154C571.319 333.154 572.926 332.383 573.202 331.612C573.477 330.841 573.982 330.378 574.166 328.374C574.35 326.369 574.35 326.523 574.166 325.444Z" fill="#FFFFFD"/>
<path d="M587.14 332.696C585.913 322.437 581.854 318.422 579.305 315.746C582.458 322.072 585.709 333.063 584.858 339.401C584.007 345.74 581.29 347.9 578.362 352.472C583.459 349.349 588.367 342.956 587.14 332.696Z" fill="#FFFFFD" stroke="black" stroke-width="5"/>
<path d="M546.646 324.816C543.926 333.126 545.703 326.6 542.399 337.157C543.263 340.257 544.192 342.807 546.175 345.781C545.097 342.82 545.025 338.628 544.931 336.249C544.836 333.87 546.356 327.787 546.646 324.816Z" fill="#FFFFFD" stroke="black" stroke-width="5"/>
<path d="M490.2 316.745C494.63 322.501 496.43 327.6 499.734 338.157C498.87 341.257 498.412 343.361 496.43 346.335C494.448 349.309 488.784 355.405 484.253 356.446C479.722 357.486 468.773 356.594 463.676 353.472C458.578 350.349 453.67 343.956 454.897 333.696C456.124 323.437 460.183 319.422 462.732 316.745C465.28 314.069 469.113 312.241 473.492 310.054C479.446 308.841 482.538 309.041 490.2 316.745Z" fill="black"/>
<path d="M462.732 316.745C465.28 314.069 469.113 312.241 473.492 310.054C479.446 308.841 482.538 309.041 490.2 316.745C494.63 322.501 496.43 327.6 499.734 338.157C498.87 341.257 498.412 343.361 496.43 346.335M462.732 316.745C460.183 319.422 456.124 323.437 454.897 333.696C453.67 343.956 458.578 350.349 463.676 353.472M462.732 316.745C459.579 323.072 456.328 334.063 457.179 340.401C458.03 346.74 460.747 348.9 463.676 353.472M463.676 353.472C468.773 356.594 479.722 357.486 484.253 356.446C488.784 355.405 494.448 349.309 496.43 346.335M496.43 346.335C497.508 343.373 497.579 340.536 497.674 338.157C497.768 335.778 497.303 332.817 497.013 329.846" stroke="black" stroke-width="5"/>
<path d="M467.922 334.03C468.046 333.437 468.565 332.71 469.039 332.334C469.527 331.884 469.536 331.91 470.28 331.825C471.025 331.74 471.211 331.91 471.708 332.334C472.204 332.758 472.328 333.606 472.452 334.37C472.576 335.133 472.545 335.027 472.545 336.045C472.545 337.062 472.483 336.914 472.235 337.423C471.987 337.932 471.459 338.101 471.025 338.271C470.591 338.441 469.846 338.271 469.846 338.271C469.846 338.271 468.76 337.847 468.574 337.423C468.388 336.999 468.046 336.744 467.922 335.642C467.798 334.539 467.798 334.624 467.922 334.03Z" fill="#FFFFFD"/>
<path d="M476.866 326.836C477.084 325.702 477.997 324.315 478.832 323.597C479.691 322.739 479.706 322.788 481.016 322.626C482.327 322.464 482.654 322.788 483.528 323.597C484.402 324.407 484.62 326.026 484.839 327.483C485.057 328.94 485.003 328.738 485.003 330.681C485.003 332.624 484.893 332.341 484.457 333.312C484.02 334.284 483.091 334.608 482.327 334.931C481.562 335.255 480.252 334.931 480.252 334.931C480.252 334.931 478.34 334.122 478.013 333.312C477.685 332.503 477.084 332.017 476.866 329.912C476.648 327.807 476.648 327.969 476.866 326.836Z" fill="#FFFFFD"/>
<path d="M454.915 333.696C456.142 323.436 460.201 319.422 462.75 316.745C459.597 323.072 456.346 334.063 457.197 340.401C458.048 346.74 460.765 348.9 463.694 353.472C458.596 350.349 453.688 343.956 454.915 333.696Z" fill="#FFFFFD" stroke="black" stroke-width="5"/>
<path d="M495.408 325.816C498.129 334.126 496.352 327.6 499.655 338.157C498.791 341.257 497.862 343.807 495.88 346.781C496.957 343.819 497.029 339.628 497.123 337.249C497.218 334.87 495.698 328.786 495.408 325.816Z" fill="#FFFFFD" stroke="black" stroke-width="5"/>
<path d="M593.938 316.774C585.544 307.931 580.392 306.248 574.049 304.14C567.705 302.033 559.616 303.108 555.441 304.927C551.266 306.746 541.21 317.168 539.334 323.018" stroke="black" stroke-width="5"/>
<path d="M448.275 313.444C456.875 305.107 462.063 303.732 468.453 302.004C474.842 300.276 482.9 301.831 487.029 303.898C491.157 305.964 500.955 316.978 502.69 322.936" stroke="black" stroke-width="5"/>
<path d="M531.58 364.52C517.034 372.235 514.227 365.497 506.651 366.859" stroke="black" stroke-width="5"/>
<path d="M535.6 256.567C536.134 262.259 535.603 264.702 533.337 267.868" stroke="black" stroke-width="5"/>
<path d="M526.871 255.682C528.185 261.243 527.829 263.895 525.458 267.882" stroke="black" stroke-width="5"/>
<path d="M519.283 255.114C517.93 261.022 517.305 265.04 519.654 269.222" stroke="black" stroke-width="5"/>
<path d="M532.865 260.433L531.544 266.083" stroke="black" stroke-width="5"/>
<path d="M524.087 266.083L522.765 271.734" stroke="black" stroke-width="5"/>
<path d="M512.948 256.567L514.27 266.975" stroke="black" stroke-width="5"/>
<path d="M510.626 452.796C510.448 450.963 510.282 449.238 510.127 447.61L510.626 452.796Z" fill="#E07E24" fill-opacity="0.8"/>
<path d="M570.622 402.985C570.622 402.985 597.428 402.905 601.017 387.075C601.017 387.075 605.565 384.101 607.547 395.848C609.529 407.594 609.026 414.585 607.547 420.976C606.068 427.368 601.223 433.02 601.223 433.02L551.477 449.673C535.401 451.289 517.024 455.621 510.626 452.796L510.127 447.61C507.744 422.591 507.581 421.807 508.32 406.313C508.322 406.294 508.323 406.275 508.323 406.256C508.323 402.583 531.821 406.256 540.322 406.256C548.823 406.256 570.622 402.985 570.622 402.985Z" fill="#E07E24" fill-opacity="0.8"/>
<path d="M448.683 392.279C456.403 407.685 459.894 400.299 467.545 402.985C475.156 405.656 507.976 409.884 508.32 406.313C507.581 421.807 507.744 422.591 510.127 447.61C506.899 447.808 477.604 449.491 462.276 446.402C446.04 443.131 447.863 443.875 441.776 433.02C435.689 422.166 437.623 418.597 441.776 406.553C445.929 394.51 448.683 392.279 448.683 392.279Z" fill="#E07E24" fill-opacity="0.8"/>
<path d="M508.323 406.256C508.323 402.583 531.821 406.256 540.322 406.256C548.823 406.256 570.622 402.985 570.622 402.985C570.622 402.985 597.428 402.905 601.017 387.075C601.017 387.075 605.565 384.101 607.547 395.848C609.529 407.594 609.026 414.585 607.547 420.976C606.068 427.368 601.223 433.02 601.223 433.02L551.477 449.673C535.401 451.289 517.024 455.621 510.626 452.796M508.323 406.256C508.323 406.275 508.322 406.294 508.32 406.313M508.323 406.256C508.322 406.275 508.321 406.294 508.32 406.313M510.626 452.796C510.448 450.963 510.282 449.238 510.127 447.61M510.626 452.796L510.127 447.61M510.127 447.61C506.899 447.808 477.604 449.491 462.276 446.402C446.04 443.131 447.863 443.875 441.776 433.02C435.689 422.166 437.623 418.597 441.776 406.553C445.929 394.51 448.683 392.279 448.683 392.279C456.403 407.685 459.894 400.299 467.545 402.985C475.156 405.656 507.976 409.884 508.32 406.313M510.127 447.61C507.744 422.591 507.581 421.807 508.32 406.313" stroke="black" stroke-width="5"/>
<path d="M510.626 453.075C510.448 451.242 510.282 449.517 510.127 447.889L510.626 453.075Z" fill="#BD722D" fill-opacity="0.9"/>
<path d="M581.99 439.846L596.486 435.045C596.486 435.045 601.112 471.176 602.244 478.016C603.377 484.856 609.149 498.646 609.149 498.646C605.75 499.888 586.585 507.159 586.585 507.159C583.822 485.027 582.182 444.732 581.99 439.846Z" fill="#BD722D" fill-opacity="0.9"/>
<path d="M588.389 517.883C587.744 515.337 587.142 511.616 586.585 507.159L609.149 498.646C612.547 497.404 614.546 515.955 612.83 518.44C611.114 520.925 593.181 526.784 590.139 525.002C590.086 524.783 590.033 524.561 589.979 524.335C589.535 522.49 589.021 520.381 588.389 517.883Z" fill="#BD722D" fill-opacity="0.9"/>
<path d="M596.486 435.045C596.486 435.045 601.112 471.176 602.244 478.016C603.377 484.856 609.149 498.646 609.149 498.646C605.75 499.888 586.585 507.159 586.585 507.159C583.822 485.027 582.182 444.732 581.99 439.846L596.486 435.045Z" fill="#BD722D" fill-opacity="0.9"/>
<path d="M510.626 453.075C517.024 455.9 535.402 451.567 551.478 449.952L581.99 439.846C582.182 444.732 583.822 485.027 586.585 507.159C587.142 511.616 587.744 515.337 588.389 517.883C589.021 520.381 589.535 522.49 589.979 524.335C590.033 524.561 590.086 524.783 590.139 525.002C592.401 534.432 592.886 536.921 598.958 551.138C606.318 568.373 616.982 563.275 612.83 578.568C608.678 593.86 592.446 598.351 581.972 603.934C571.497 609.517 536.958 617.649 530.635 615.707C524.313 613.765 515.286 612.195 486.849 612.915C458.411 613.636 462.727 605.083 446.931 603.084C407.626 598.112 407.202 578.568 417.299 569.586C427.397 560.605 426.076 561.09 432.209 542.399C435.25 533.135 437.511 527.885 439.363 523.218C441.247 518.468 442.708 514.321 444.136 507.159C446.967 492.959 451.46 444.697 451.46 444.697L462.276 446.681C477.604 449.769 506.9 448.087 510.127 447.889C510.282 449.517 510.448 451.242 510.626 453.075Z" fill="#BD722D" fill-opacity="0.9"/>
<path d="M510.626 453.075C517.024 455.9 535.402 451.567 551.478 449.952L581.99 439.846M510.626 453.075C510.448 451.242 510.282 449.517 510.127 447.889M510.626 453.075L510.127 447.889M510.127 447.889C506.9 448.087 477.604 449.769 462.276 446.681L451.46 444.697C451.46 444.697 446.967 492.959 444.136 507.159M581.972 439.357C581.972 439.357 581.978 439.525 581.99 439.846M586.585 507.159C587.142 511.616 587.744 515.337 588.389 517.883C589.021 520.381 589.535 522.49 589.979 524.335M586.585 507.159L609.149 498.646M586.585 507.159C586.585 507.159 605.75 499.888 609.149 498.646M586.585 507.159C583.822 485.027 582.182 444.732 581.99 439.846M598.958 551.138C606.318 568.373 616.982 563.275 612.83 578.568C608.678 593.86 592.446 598.351 581.972 603.934C571.497 609.517 536.958 617.649 530.635 615.707C524.313 613.765 515.286 612.195 486.849 612.915C458.411 613.636 462.727 605.083 446.931 603.084C407.626 598.112 407.202 578.568 417.299 569.586C427.397 560.605 426.076 561.09 432.209 542.399M598.958 551.138C592.886 536.921 592.401 534.432 590.139 525.002M598.958 551.138C592.745 536.591 592.381 534.323 589.979 524.335M432.209 542.399C438.343 523.709 441.305 521.359 444.136 507.159M432.209 542.399C435.25 533.135 437.511 527.885 439.363 523.218C441.247 518.468 442.708 514.321 444.136 507.159M609.149 498.646C609.149 498.646 603.377 484.856 602.244 478.016C601.112 471.176 596.486 435.045 596.486 435.045L581.99 439.846M609.149 498.646C612.547 497.404 614.546 515.955 612.83 518.44C611.114 520.925 593.181 526.784 590.139 525.002M590.139 525.002C590.086 524.783 590.033 524.561 589.979 524.335" stroke="black" stroke-width="5"/>
<path d="M449.406 443.809C449.406 443.809 410.139 485.716 400.576 496.878C400.576 496.878 395.405 485.268 391.939 479.893C391.939 479.893 400.018 471.347 407.639 462.47C414.869 454.048 436.952 429.453 438.838 427.191C437.971 436.941 446.154 441.567 449.406 443.809Z" fill="#BD722D" fill-opacity="0.9"/>
<path d="M391.939 479.893L400.576 496.878C395.753 502.507 392.403 505.475 388.382 508.777C388.382 508.777 384.59 503.063 382.985 500.019C381.38 496.975 378.109 492.888 378.946 490.278C379.782 487.668 386.069 478.679 389.371 478.546C390.352 478.507 390.473 477.62 391.939 479.893Z" fill="#BD722D" fill-opacity="0.9"/>
<path d="M438.838 427.191C436.952 429.453 414.869 454.048 407.639 462.47C400.018 471.347 391.939 479.893 391.939 479.893M438.838 427.191C438.824 427.66 438.841 426.688 438.838 427.191ZM438.838 427.191C437.971 436.941 446.154 441.567 449.406 443.809C449.406 443.809 410.139 485.716 400.576 496.878M400.576 496.878L391.939 479.893M400.576 496.878C400.576 496.878 395.405 485.268 391.939 479.893M400.576 496.878C395.753 502.507 392.403 505.475 388.382 508.777C388.382 508.777 384.59 503.063 382.985 500.019C381.38 496.975 378.109 492.888 378.946 490.278C379.782 487.668 386.069 478.679 389.371 478.546C390.352 478.507 390.473 477.62 391.939 479.893" stroke="black" stroke-width="5"/>
<path d="M593.938 525.152C600.289 524.264 611.217 520.353 612.538 518.44C614.628 523.603 614.412 531.265 615.073 534.685C615.733 538.105 614.695 548.067 612.618 550.744C610.542 553.42 606.86 554.312 605.633 553.42C604.406 552.528 601.3 548.513 600.451 544.796C600.451 544.796 599.309 546.432 597.893 544.796C596.477 543.161 593.654 536.321 593.466 532.752C593.28 529.25 592.355 529.793 591.861 525.332L593.938 525.152Z" fill="#93BE37" fill-opacity="0.8"/>
<path d="M600.451 544.796C601.3 548.513 604.406 552.528 605.633 553.42C606.86 554.312 610.542 553.42 612.618 550.744C614.695 548.067 615.733 538.105 615.073 534.685C614.412 531.265 614.628 523.603 612.538 518.44C611.217 520.353 600.289 524.264 593.938 525.152M600.451 544.796C600.451 544.796 599.729 537.964 599.979 534.685M600.451 544.796C600.451 544.796 599.309 546.432 597.893 544.796C596.477 543.161 593.654 536.321 593.466 532.752C593.28 529.25 592.355 529.793 591.861 525.332M593.938 525.152L591.861 525.332M593.938 525.152C593.947 525.239 591.852 525.247 591.861 525.332M440.823 431.773C441.045 432.192 440.575 431.331 440.823 431.773Z" stroke="black" stroke-width="5"/>
<path d="M388.016 509.273C385.332 511.439 383.079 513.237 379.17 516.557C376.534 518.277 373.899 518.567 371.878 520.383C369.674 522.362 369.256 521.488 367.467 520.982C365.679 520.475 366.012 518.651 366.012 518.651C363.334 520.019 360.691 518.712 359.449 517.952C358.207 517.192 357.997 516.309 358.35 512.466C358.703 508.623 363.936 501.433 366.328 500.046C368.721 498.66 374.835 492.174 379.087 491.242C378.228 493.845 381.119 497.414 382.698 500.471C384.276 503.527 388.016 509.273 388.016 509.273Z" fill="#93BE37" fill-opacity="0.8"/>
<path d="M366.012 518.651C363.334 520.019 360.691 518.712 359.449 517.952C358.207 517.192 357.997 516.309 358.35 512.466C358.703 508.623 363.936 501.433 366.328 500.046C368.721 498.66 374.835 492.174 379.087 491.242C378.228 493.845 381.119 497.414 382.698 500.471C384.276 503.527 388.016 509.273 388.016 509.273C385.332 511.439 383.079 513.237 379.17 516.557M366.012 518.651C366.012 518.651 373.881 511.595 375.657 509.327M366.012 518.651C366.012 518.651 365.679 520.475 367.467 520.982C369.256 521.488 369.674 522.362 371.878 520.383C373.899 518.567 376.534 518.277 379.17 516.557M379.17 516.557C379.406 516.403 378.921 516.746 379.17 516.557ZM435.836 430.197C435.818 430.667 435.843 429.695 435.836 430.197Z" stroke="black" stroke-width="5"/>
<path d="M308.805 127.094H294.508L291.297 136H286.656L299.688 101.875H303.625L316.68 136H312.062L308.805 127.094ZM295.867 123.391H307.469L301.656 107.43L295.867 123.391ZM335.969 133.492C334.281 135.477 331.805 136.469 328.539 136.469C325.836 136.469 323.773 135.688 322.352 134.125C320.945 132.547 320.234 130.219 320.219 127.141V110.641H324.555V127.023C324.555 130.867 326.117 132.789 329.242 132.789C332.555 132.789 334.758 131.555 335.852 129.086V110.641H340.188V136H336.062L335.969 133.492ZM361.562 129.273C361.562 128.102 361.117 127.195 360.227 126.555C359.352 125.898 357.812 125.336 355.609 124.867C353.422 124.398 351.68 123.836 350.383 123.18C349.102 122.523 348.148 121.742 347.523 120.836C346.914 119.93 346.609 118.852 346.609 117.602C346.609 115.523 347.484 113.766 349.234 112.328C351 110.891 353.25 110.172 355.984 110.172C358.859 110.172 361.188 110.914 362.969 112.398C364.766 113.883 365.664 115.781 365.664 118.094H361.305C361.305 116.906 360.797 115.883 359.781 115.023C358.781 114.164 357.516 113.734 355.984 113.734C354.406 113.734 353.172 114.078 352.281 114.766C351.391 115.453 350.945 116.352 350.945 117.461C350.945 118.508 351.359 119.297 352.188 119.828C353.016 120.359 354.508 120.867 356.664 121.352C358.836 121.836 360.594 122.414 361.938 123.086C363.281 123.758 364.273 124.57 364.914 125.523C365.57 126.461 365.898 127.609 365.898 128.969C365.898 131.234 364.992 133.055 363.18 134.43C361.367 135.789 359.016 136.469 356.125 136.469C354.094 136.469 352.297 136.109 350.734 135.391C349.172 134.672 347.945 133.672 347.055 132.391C346.18 131.094 345.742 129.695 345.742 128.195H350.078C350.156 129.648 350.734 130.805 351.812 131.664C352.906 132.508 354.344 132.93 356.125 132.93C357.766 132.93 359.078 132.602 360.062 131.945C361.062 131.273 361.562 130.383 361.562 129.273ZM386.312 129.273C386.312 128.102 385.867 127.195 384.977 126.555C384.102 125.898 382.562 125.336 380.359 124.867C378.172 124.398 376.43 123.836 375.133 123.18C373.852 122.523 372.898 121.742 372.273 120.836C371.664 119.93 371.359 118.852 371.359 117.602C371.359 115.523 372.234 113.766 373.984 112.328C375.75 110.891 378 110.172 380.734 110.172C383.609 110.172 385.938 110.914 387.719 112.398C389.516 113.883 390.414 115.781 390.414 118.094H386.055C386.055 116.906 385.547 115.883 384.531 115.023C383.531 114.164 382.266 113.734 380.734 113.734C379.156 113.734 377.922 114.078 377.031 114.766C376.141 115.453 375.695 116.352 375.695 117.461C375.695 118.508 376.109 119.297 376.938 119.828C377.766 120.359 379.258 120.867 381.414 121.352C383.586 121.836 385.344 122.414 386.688 123.086C388.031 123.758 389.023 124.57 389.664 125.523C390.32 126.461 390.648 127.609 390.648 128.969C390.648 131.234 389.742 133.055 387.93 134.43C386.117 135.789 383.766 136.469 380.875 136.469C378.844 136.469 377.047 136.109 375.484 135.391C373.922 134.672 372.695 133.672 371.805 132.391C370.93 131.094 370.492 129.695 370.492 128.195H374.828C374.906 129.648 375.484 130.805 376.562 131.664C377.656 132.508 379.094 132.93 380.875 132.93C382.516 132.93 383.828 132.602 384.812 131.945C385.812 131.273 386.312 130.383 386.312 129.273ZM401.008 136H396.672V110.641H401.008V136ZM396.32 103.914C396.32 103.211 396.531 102.617 396.953 102.133C397.391 101.648 398.031 101.406 398.875 101.406C399.719 101.406 400.359 101.648 400.797 102.133C401.234 102.617 401.453 103.211 401.453 103.914C401.453 104.617 401.234 105.203 400.797 105.672C400.359 106.141 399.719 106.375 398.875 106.375C398.031 106.375 397.391 106.141 396.953 105.672C396.531 105.203 396.32 104.617 396.32 103.914ZM418.492 136.469C415.055 136.469 412.258 135.344 410.102 133.094C407.945 130.828 406.867 127.805 406.867 124.023V123.227C406.867 120.711 407.344 118.469 408.297 116.5C409.266 114.516 410.609 112.969 412.328 111.859C414.062 110.734 415.938 110.172 417.953 110.172C421.25 110.172 423.812 111.258 425.641 113.43C427.469 115.602 428.383 118.711 428.383 122.758V124.562H411.203C411.266 127.062 411.992 129.086 413.383 130.633C414.789 132.164 416.57 132.93 418.727 132.93C420.258 132.93 421.555 132.617 422.617 131.992C423.68 131.367 424.609 130.539 425.406 129.508L428.055 131.57C425.93 134.836 422.742 136.469 418.492 136.469ZM417.953 113.734C416.203 113.734 414.734 114.375 413.547 115.656C412.359 116.922 411.625 118.703 411.344 121H424.047V120.672C423.922 118.469 423.328 116.766 422.266 115.562C421.203 114.344 419.766 113.734 417.953 113.734Z" fill="black"/>
</svg>
