<svg width="800" height="899" viewBox="0 0 800 899" fill="none" xmlns="http://www.w3.org/2000/svg">
<path d="M2.5 2.5H797.5V674.616H2.5V2.5Z" fill="#FFFFFD" stroke="black" stroke-width="5"/>
<path d="M2.5 675.795H797.5V896.5H2.5V675.795Z" fill="#FFFFFD" stroke="black" stroke-width="5"/>
<path d="M36.7734 706.875L47.9297 734.719L59.0859 706.875H64.9219V741H60.4219V727.711L60.8438 713.367L49.6406 741H46.1953L35.0156 713.438L35.4609 727.711V741H30.9609V706.875H36.7734ZM76.8984 741H72.5625V715.641H76.8984V741ZM72.2109 708.914C72.2109 708.211 72.4219 707.617 72.8438 707.133C73.2812 706.648 73.9219 706.406 74.7656 706.406C75.6094 706.406 76.25 706.648 76.6875 707.133C77.125 707.617 77.3438 708.211 77.3438 708.914C77.3438 709.617 77.125 710.203 76.6875 710.672C76.25 711.141 75.6094 711.375 74.7656 711.375C73.9219 711.375 73.2812 711.141 72.8438 710.672C72.4219 710.203 72.2109 709.617 72.2109 708.914ZM99.5156 741C99.2656 740.5 99.0625 739.609 98.9062 738.328C96.8906 740.422 94.4844 741.469 91.6875 741.469C89.1875 741.469 87.1328 740.766 85.5234 739.359C83.9297 737.938 83.1328 736.141 83.1328 733.969C83.1328 731.328 84.1328 729.281 86.1328 727.828C88.1484 726.359 90.9766 725.625 94.6172 725.625H98.8359V723.633C98.8359 722.117 98.3828 720.914 97.4766 720.023C96.5703 719.117 95.2344 718.664 93.4688 718.664C91.9219 718.664 90.625 719.055 89.5781 719.836C88.5312 720.617 88.0078 721.562 88.0078 722.672H83.6484C83.6484 721.406 84.0938 720.188 84.9844 719.016C85.8906 717.828 87.1094 716.891 88.6406 716.203C90.1875 715.516 91.8828 715.172 93.7266 715.172C96.6484 715.172 98.9375 715.906 100.594 717.375C102.25 718.828 103.109 720.836 103.172 723.398V735.07C103.172 737.398 103.469 739.25 104.062 740.625V741H99.5156ZM92.3203 737.695C93.6797 737.695 94.9688 737.344 96.1875 736.641C97.4062 735.938 98.2891 735.023 98.8359 733.898V728.695H95.4375C90.125 728.695 87.4688 730.25 87.4688 733.359C87.4688 734.719 87.9219 735.781 88.8281 736.547C89.7344 737.312 90.8984 737.695 92.3203 737.695ZM143.297 728.602C143.297 732.461 142.414 735.57 140.648 737.93C138.883 740.289 136.492 741.469 133.477 741.469C130.398 741.469 127.977 740.492 126.211 738.539V750.75H121.875V715.641H125.836L126.047 718.453C127.812 716.266 130.266 715.172 133.406 715.172C136.453 715.172 138.859 716.32 140.625 718.617C142.406 720.914 143.297 724.109 143.297 728.203V728.602ZM138.961 728.109C138.961 725.25 138.352 722.992 137.133 721.336C135.914 719.68 134.242 718.852 132.117 718.852C129.492 718.852 127.523 720.016 126.211 722.344V734.461C127.508 736.773 129.492 737.93 132.164 737.93C134.242 737.93 135.891 737.109 137.109 735.469C138.344 733.812 138.961 731.359 138.961 728.109ZM153.539 741H149.203V705H153.539V741ZM176.156 741C175.906 740.5 175.703 739.609 175.547 738.328C173.531 740.422 171.125 741.469 168.328 741.469C165.828 741.469 163.773 740.766 162.164 739.359C160.57 737.938 159.773 736.141 159.773 733.969C159.773 731.328 160.773 729.281 162.773 727.828C164.789 726.359 167.617 725.625 171.258 725.625H175.477V723.633C175.477 722.117 175.023 720.914 174.117 720.023C173.211 719.117 171.875 718.664 170.109 718.664C168.562 718.664 167.266 719.055 166.219 719.836C165.172 720.617 164.648 721.562 164.648 722.672H160.289C160.289 721.406 160.734 720.188 161.625 719.016C162.531 717.828 163.75 716.891 165.281 716.203C166.828 715.516 168.523 715.172 170.367 715.172C173.289 715.172 175.578 715.906 177.234 717.375C178.891 718.828 179.75 720.836 179.812 723.398V735.07C179.812 737.398 180.109 739.25 180.703 740.625V741H176.156ZM168.961 737.695C170.32 737.695 171.609 737.344 172.828 736.641C174.047 735.938 174.93 735.023 175.477 733.898V728.695H172.078C166.766 728.695 164.109 730.25 164.109 733.359C164.109 734.719 164.562 735.781 165.469 736.547C166.375 737.312 167.539 737.695 168.961 737.695ZM190.711 715.641L190.852 718.828C192.789 716.391 195.32 715.172 198.445 715.172C203.805 715.172 206.508 718.195 206.555 724.242V741H202.219V724.219C202.203 722.391 201.781 721.039 200.953 720.164C200.141 719.289 198.867 718.852 197.133 718.852C195.727 718.852 194.492 719.227 193.43 719.977C192.367 720.727 191.539 721.711 190.945 722.93V741H186.609V715.641H190.711ZM217.195 715.641L217.336 718.828C219.273 716.391 221.805 715.172 224.93 715.172C230.289 715.172 232.992 718.195 233.039 724.242V741H228.703V724.219C228.688 722.391 228.266 721.039 227.438 720.164C226.625 719.289 225.352 718.852 223.617 718.852C222.211 718.852 220.977 719.227 219.914 719.977C218.852 720.727 218.023 721.711 217.43 722.93V741H213.094V715.641H217.195ZM250.102 741.469C246.664 741.469 243.867 740.344 241.711 738.094C239.555 735.828 238.477 732.805 238.477 729.023V728.227C238.477 725.711 238.953 723.469 239.906 721.5C240.875 719.516 242.219 717.969 243.938 716.859C245.672 715.734 247.547 715.172 249.562 715.172C252.859 715.172 255.422 716.258 257.25 718.43C259.078 720.602 259.992 723.711 259.992 727.758V729.562H242.812C242.875 732.062 243.602 734.086 244.992 735.633C246.398 737.164 248.18 737.93 250.336 737.93C251.867 737.93 253.164 737.617 254.227 736.992C255.289 736.367 256.219 735.539 257.016 734.508L259.664 736.57C257.539 739.836 254.352 741.469 250.102 741.469ZM249.562 718.734C247.812 718.734 246.344 719.375 245.156 720.656C243.969 721.922 243.234 723.703 242.953 726H255.656V725.672C255.531 723.469 254.938 721.766 253.875 720.562C252.812 719.344 251.375 718.734 249.562 718.734ZM263.977 728.109C263.977 724.219 264.898 721.094 266.742 718.734C268.586 716.359 271 715.172 273.984 715.172C276.953 715.172 279.305 716.188 281.039 718.219V705H285.375V741H281.391L281.18 738.281C279.445 740.406 277.031 741.469 273.938 741.469C271 741.469 268.602 740.266 266.742 737.859C264.898 735.453 263.977 732.312 263.977 728.438V728.109ZM268.312 728.602C268.312 731.477 268.906 733.727 270.094 735.352C271.281 736.977 272.922 737.789 275.016 737.789C277.766 737.789 279.773 736.555 281.039 734.086V722.438C279.742 720.047 277.75 718.852 275.062 718.852C272.938 718.852 271.281 719.672 270.094 721.312C268.906 722.953 268.312 725.383 268.312 728.602ZM309.914 709.5V715.641H314.648V718.992H309.914V734.719C309.914 735.734 310.125 736.5 310.547 737.016C310.969 737.516 311.688 737.766 312.703 737.766C313.203 737.766 313.891 737.672 314.766 737.484V741C313.625 741.312 312.516 741.469 311.438 741.469C309.5 741.469 308.039 740.883 307.055 739.711C306.07 738.539 305.578 736.875 305.578 734.719V718.992H300.961V715.641H305.578V709.5H309.914ZM318.117 728.086C318.117 725.602 318.602 723.367 319.57 721.383C320.555 719.398 321.914 717.867 323.648 716.789C325.398 715.711 327.391 715.172 329.625 715.172C333.078 715.172 335.867 716.367 337.992 718.758C340.133 721.148 341.203 724.328 341.203 728.297V728.602C341.203 731.07 340.727 733.289 339.773 735.258C338.836 737.211 337.484 738.734 335.719 739.828C333.969 740.922 331.953 741.469 329.672 741.469C326.234 741.469 323.445 740.273 321.305 737.883C319.18 735.492 318.117 732.328 318.117 728.391V728.086ZM322.477 728.602C322.477 731.414 323.125 733.672 324.422 735.375C325.734 737.078 327.484 737.93 329.672 737.93C331.875 737.93 333.625 737.07 334.922 735.352C336.219 733.617 336.867 731.195 336.867 728.086C336.867 725.305 336.203 723.055 334.875 721.336C333.562 719.602 331.812 718.734 329.625 718.734C327.484 718.734 325.758 719.586 324.445 721.289C323.133 722.992 322.477 725.43 322.477 728.602ZM364.43 709.5V715.641H369.164V718.992H364.43V734.719C364.43 735.734 364.641 736.5 365.062 737.016C365.484 737.516 366.203 737.766 367.219 737.766C367.719 737.766 368.406 737.672 369.281 737.484V741C368.141 741.312 367.031 741.469 365.953 741.469C364.016 741.469 362.555 740.883 361.57 739.711C360.586 738.539 360.094 736.875 360.094 734.719V718.992H355.477V715.641H360.094V709.5H364.43ZM389.906 741C389.656 740.5 389.453 739.609 389.297 738.328C387.281 740.422 384.875 741.469 382.078 741.469C379.578 741.469 377.523 740.766 375.914 739.359C374.32 737.938 373.523 736.141 373.523 733.969C373.523 731.328 374.523 729.281 376.523 727.828C378.539 726.359 381.367 725.625 385.008 725.625H389.227V723.633C389.227 722.117 388.773 720.914 387.867 720.023C386.961 719.117 385.625 718.664 383.859 718.664C382.312 718.664 381.016 719.055 379.969 719.836C378.922 720.617 378.398 721.562 378.398 722.672H374.039C374.039 721.406 374.484 720.188 375.375 719.016C376.281 717.828 377.5 716.891 379.031 716.203C380.578 715.516 382.273 715.172 384.117 715.172C387.039 715.172 389.328 715.906 390.984 717.375C392.641 718.828 393.5 720.836 393.562 723.398V735.07C393.562 737.398 393.859 739.25 394.453 740.625V741H389.906ZM382.711 737.695C384.07 737.695 385.359 737.344 386.578 736.641C387.797 735.938 388.68 735.023 389.227 733.898V728.695H385.828C380.516 728.695 377.859 730.25 377.859 733.359C377.859 734.719 378.312 735.781 379.219 736.547C380.125 737.312 381.289 737.695 382.711 737.695ZM407.438 729.258L404.719 732.094V741H400.383V705H404.719V726.773L407.039 723.984L414.938 715.641H420.211L410.344 726.234L421.359 741H416.273L407.438 729.258ZM434.742 741.469C431.305 741.469 428.508 740.344 426.352 738.094C424.195 735.828 423.117 732.805 423.117 729.023V728.227C423.117 725.711 423.594 723.469 424.547 721.5C425.516 719.516 426.859 717.969 428.578 716.859C430.312 715.734 432.188 715.172 434.203 715.172C437.5 715.172 440.062 716.258 441.891 718.43C443.719 720.602 444.633 723.711 444.633 727.758V729.562H427.453C427.516 732.062 428.242 734.086 429.633 735.633C431.039 737.164 432.82 737.93 434.977 737.93C436.508 737.93 437.805 737.617 438.867 736.992C439.93 736.367 440.859 735.539 441.656 734.508L444.305 736.57C442.18 739.836 438.992 741.469 434.742 741.469ZM434.203 718.734C432.453 718.734 430.984 719.375 429.797 720.656C428.609 721.922 427.875 723.703 427.594 726H440.297V725.672C440.172 723.469 439.578 721.766 438.516 720.562C437.453 719.344 436.016 718.734 434.203 718.734ZM477.234 741C476.984 740.5 476.781 739.609 476.625 738.328C474.609 740.422 472.203 741.469 469.406 741.469C466.906 741.469 464.852 740.766 463.242 739.359C461.648 737.938 460.852 736.141 460.852 733.969C460.852 731.328 461.852 729.281 463.852 727.828C465.867 726.359 468.695 725.625 472.336 725.625H476.555V723.633C476.555 722.117 476.102 720.914 475.195 720.023C474.289 719.117 472.953 718.664 471.188 718.664C469.641 718.664 468.344 719.055 467.297 719.836C466.25 720.617 465.727 721.562 465.727 722.672H461.367C461.367 721.406 461.812 720.188 462.703 719.016C463.609 717.828 464.828 716.891 466.359 716.203C467.906 715.516 469.602 715.172 471.445 715.172C474.367 715.172 476.656 715.906 478.312 717.375C479.969 718.828 480.828 720.836 480.891 723.398V735.07C480.891 737.398 481.188 739.25 481.781 740.625V741H477.234ZM470.039 737.695C471.398 737.695 472.688 737.344 473.906 736.641C475.125 735.938 476.008 735.023 476.555 733.898V728.695H473.156C467.844 728.695 465.188 730.25 465.188 733.359C465.188 734.719 465.641 735.781 466.547 736.547C467.453 737.312 468.617 737.695 470.039 737.695ZM498.562 728.109C498.562 724.156 499.477 721.016 501.305 718.688C503.133 716.344 505.555 715.172 508.57 715.172C511.664 715.172 514.078 716.266 515.812 718.453L516.023 715.641H519.984V740.391C519.984 743.672 519.008 746.258 517.055 748.148C515.117 750.039 512.508 750.984 509.227 750.984C507.398 750.984 505.609 750.594 503.859 749.812C502.109 749.031 500.773 747.961 499.852 746.602L502.102 744C503.961 746.297 506.234 747.445 508.922 747.445C511.031 747.445 512.672 746.852 513.844 745.664C515.031 744.477 515.625 742.805 515.625 740.648V738.469C513.891 740.469 511.523 741.469 508.523 741.469C505.555 741.469 503.148 740.273 501.305 737.883C499.477 735.492 498.562 732.234 498.562 728.109ZM502.922 728.602C502.922 731.461 503.508 733.711 504.68 735.352C505.852 736.977 507.492 737.789 509.602 737.789C512.336 737.789 514.344 736.547 515.625 734.062V722.484C514.297 720.062 512.305 718.852 509.648 718.852C507.539 718.852 505.891 719.672 504.703 721.312C503.516 722.953 502.922 725.383 502.922 728.602ZM542.203 741C541.953 740.5 541.75 739.609 541.594 738.328C539.578 740.422 537.172 741.469 534.375 741.469C531.875 741.469 529.82 740.766 528.211 739.359C526.617 737.938 525.82 736.141 525.82 733.969C525.82 731.328 526.82 729.281 528.82 727.828C530.836 726.359 533.664 725.625 537.305 725.625H541.523V723.633C541.523 722.117 541.07 720.914 540.164 720.023C539.258 719.117 537.922 718.664 536.156 718.664C534.609 718.664 533.312 719.055 532.266 719.836C531.219 720.617 530.695 721.562 530.695 722.672H526.336C526.336 721.406 526.781 720.188 527.672 719.016C528.578 717.828 529.797 716.891 531.328 716.203C532.875 715.516 534.57 715.172 536.414 715.172C539.336 715.172 541.625 715.906 543.281 717.375C544.938 718.828 545.797 720.836 545.859 723.398V735.07C545.859 737.398 546.156 739.25 546.75 740.625V741H542.203ZM535.008 737.695C536.367 737.695 537.656 737.344 538.875 736.641C540.094 735.938 540.977 735.023 541.523 733.898V728.695H538.125C532.812 728.695 530.156 730.25 530.156 733.359C530.156 734.719 530.609 735.781 531.516 736.547C532.422 737.312 533.586 737.695 535.008 737.695ZM574.078 728.602C574.078 732.461 573.195 735.57 571.43 737.93C569.664 740.289 567.273 741.469 564.258 741.469C561.18 741.469 558.758 740.492 556.992 738.539V750.75H552.656V715.641H556.617L556.828 718.453C558.594 716.266 561.047 715.172 564.188 715.172C567.234 715.172 569.641 716.32 571.406 718.617C573.188 720.914 574.078 724.109 574.078 728.203V728.602ZM569.742 728.109C569.742 725.25 569.133 722.992 567.914 721.336C566.695 719.68 565.023 718.852 562.898 718.852C560.273 718.852 558.305 720.016 556.992 722.344V734.461C558.289 736.773 560.273 737.93 562.945 737.93C565.023 737.93 566.672 737.109 567.891 735.469C569.125 733.812 569.742 731.359 569.742 728.109ZM599.812 734.648L605.719 715.641H610.359L600.164 744.914C598.586 749.133 596.078 751.242 592.641 751.242L591.82 751.172L590.203 750.867V747.352L591.375 747.445C592.844 747.445 593.984 747.148 594.797 746.555C595.625 745.961 596.305 744.875 596.836 743.297L597.797 740.719L588.75 715.641H593.484L599.812 734.648ZM624.445 741.469C621.008 741.469 618.211 740.344 616.055 738.094C613.898 735.828 612.82 732.805 612.82 729.023V728.227C612.82 725.711 613.297 723.469 614.25 721.5C615.219 719.516 616.562 717.969 618.281 716.859C620.016 715.734 621.891 715.172 623.906 715.172C627.203 715.172 629.766 716.258 631.594 718.43C633.422 720.602 634.336 723.711 634.336 727.758V729.562H617.156C617.219 732.062 617.945 734.086 619.336 735.633C620.742 737.164 622.523 737.93 624.68 737.93C626.211 737.93 627.508 737.617 628.57 736.992C629.633 736.367 630.562 735.539 631.359 734.508L634.008 736.57C631.883 739.836 628.695 741.469 624.445 741.469ZM623.906 718.734C622.156 718.734 620.688 719.375 619.5 720.656C618.312 721.922 617.578 723.703 617.297 726H630V725.672C629.875 723.469 629.281 721.766 628.219 720.562C627.156 719.344 625.719 718.734 623.906 718.734ZM655.031 741C654.781 740.5 654.578 739.609 654.422 738.328C652.406 740.422 650 741.469 647.203 741.469C644.703 741.469 642.648 740.766 641.039 739.359C639.445 737.938 638.648 736.141 638.648 733.969C638.648 731.328 639.648 729.281 641.648 727.828C643.664 726.359 646.492 725.625 650.133 725.625H654.352V723.633C654.352 722.117 653.898 720.914 652.992 720.023C652.086 719.117 650.75 718.664 648.984 718.664C647.438 718.664 646.141 719.055 645.094 719.836C644.047 720.617 643.523 721.562 643.523 722.672H639.164C639.164 721.406 639.609 720.188 640.5 719.016C641.406 717.828 642.625 716.891 644.156 716.203C645.703 715.516 647.398 715.172 649.242 715.172C652.164 715.172 654.453 715.906 656.109 717.375C657.766 718.828 658.625 720.836 658.688 723.398V735.07C658.688 737.398 658.984 739.25 659.578 740.625V741H655.031ZM647.836 737.695C649.195 737.695 650.484 737.344 651.703 736.641C652.922 735.938 653.805 735.023 654.352 733.898V728.695H650.953C645.641 728.695 642.984 730.25 642.984 733.359C642.984 734.719 643.438 735.781 644.344 736.547C645.25 737.312 646.414 737.695 647.836 737.695ZM677.742 719.531C677.086 719.422 676.375 719.367 675.609 719.367C672.766 719.367 670.836 720.578 669.82 723V741H665.484V715.641H669.703L669.773 718.57C671.195 716.305 673.211 715.172 675.82 715.172C676.664 715.172 677.305 715.281 677.742 715.5V719.531ZM716.109 735.023L720.984 715.641H725.32L717.938 741H714.422L708.258 721.781L702.258 741H698.742L691.383 715.641H695.695L700.688 734.625L706.594 715.641H710.086L716.109 735.023ZM734.461 741H730.125V715.641H734.461V741ZM729.773 708.914C729.773 708.211 729.984 707.617 730.406 707.133C730.844 706.648 731.484 706.406 732.328 706.406C733.172 706.406 733.812 706.648 734.25 707.133C734.688 707.617 734.906 708.211 734.906 708.914C734.906 709.617 734.688 710.203 734.25 710.672C733.812 711.141 733.172 711.375 732.328 711.375C731.484 711.375 730.844 711.141 730.406 710.672C729.984 710.203 729.773 709.617 729.773 708.914ZM747.305 709.5V715.641H752.039V718.992H747.305V734.719C747.305 735.734 747.516 736.5 747.938 737.016C748.359 737.516 749.078 737.766 750.094 737.766C750.594 737.766 751.281 737.672 752.156 737.484V741C751.016 741.312 749.906 741.469 748.828 741.469C746.891 741.469 745.43 740.883 744.445 739.711C743.461 738.539 742.969 736.875 742.969 734.719V718.992H738.352V715.641H742.969V709.5H747.305ZM761.461 718.711C763.383 716.352 765.883 715.172 768.961 715.172C774.32 715.172 777.023 718.195 777.07 724.242V741H772.734V724.219C772.719 722.391 772.297 721.039 771.469 720.164C770.656 719.289 769.383 718.852 767.648 718.852C766.242 718.852 765.008 719.227 763.945 719.977C762.883 720.727 762.055 721.711 761.461 722.93V741H757.125V705H761.461V718.711ZM50.25 781.227H35.4609V793.32H52.6406V797H30.9609V762.875H52.4062V766.578H35.4609V777.547H50.25V781.227ZM69.8203 775.531C69.1641 775.422 68.4531 775.367 67.6875 775.367C64.8438 775.367 62.9141 776.578 61.8984 779V797H57.5625V771.641H61.7812L61.8516 774.57C63.2734 772.305 65.2891 771.172 67.8984 771.172C68.7422 771.172 69.3828 771.281 69.8203 771.5V775.531ZM78.5391 797H74.2031V771.641H78.5391V797ZM73.8516 764.914C73.8516 764.211 74.0625 763.617 74.4844 763.133C74.9219 762.648 75.5625 762.406 76.4062 762.406C77.25 762.406 77.8906 762.648 78.3281 763.133C78.7656 763.617 78.9844 764.211 78.9844 764.914C78.9844 765.617 78.7656 766.203 78.3281 766.672C77.8906 767.141 77.25 767.375 76.4062 767.375C75.5625 767.375 74.9219 767.141 74.4844 766.672C74.0625 766.203 73.8516 765.617 73.8516 764.914ZM95.6719 793.93C97.2188 793.93 98.5703 793.461 99.7266 792.523C100.883 791.586 101.523 790.414 101.648 789.008H105.75C105.672 790.461 105.172 791.844 104.25 793.156C103.328 794.469 102.094 795.516 100.547 796.297C99.0156 797.078 97.3906 797.469 95.6719 797.469C92.2188 797.469 89.4688 796.32 87.4219 794.023C85.3906 791.711 84.375 788.555 84.375 784.555V783.828C84.375 781.359 84.8281 779.164 85.7344 777.242C86.6406 775.32 87.9375 773.828 89.625 772.766C91.3281 771.703 93.3359 771.172 95.6484 771.172C98.4922 771.172 100.852 772.023 102.727 773.727C104.617 775.43 105.625 777.641 105.75 780.359H101.648C101.523 778.719 100.898 777.375 99.7734 776.328C98.6641 775.266 97.2891 774.734 95.6484 774.734C93.4453 774.734 91.7344 775.531 90.5156 777.125C89.3125 778.703 88.7109 780.992 88.7109 783.992V784.812C88.7109 787.734 89.3125 789.984 90.5156 791.562C91.7188 793.141 93.4375 793.93 95.6719 793.93ZM127.242 797H122.906V771.641H127.242V797ZM122.555 764.914C122.555 764.211 122.766 763.617 123.188 763.133C123.625 762.648 124.266 762.406 125.109 762.406C125.953 762.406 126.594 762.648 127.031 763.133C127.469 763.617 127.688 764.211 127.688 764.914C127.688 765.617 127.469 766.203 127.031 766.672C126.594 767.141 125.953 767.375 125.109 767.375C124.266 767.375 123.625 767.141 123.188 766.672C122.766 766.203 122.555 765.617 122.555 764.914ZM138.305 771.641L138.445 774.828C140.383 772.391 142.914 771.172 146.039 771.172C151.398 771.172 154.102 774.195 154.148 780.242V797H149.812V780.219C149.797 778.391 149.375 777.039 148.547 776.164C147.734 775.289 146.461 774.852 144.727 774.852C143.32 774.852 142.086 775.227 141.023 775.977C139.961 776.727 139.133 777.711 138.539 778.93V797H134.203V771.641H138.305ZM192.117 788.094H177.82L174.609 797H169.969L183 762.875H186.938L199.992 797H195.375L192.117 788.094ZM179.18 784.391H190.781L184.969 768.43L179.18 784.391ZM219.281 794.492C217.594 796.477 215.117 797.469 211.852 797.469C209.148 797.469 207.086 796.688 205.664 795.125C204.258 793.547 203.547 791.219 203.531 788.141V771.641H207.867V788.023C207.867 791.867 209.43 793.789 212.555 793.789C215.867 793.789 218.07 792.555 219.164 790.086V771.641H223.5V797H219.375L219.281 794.492ZM244.875 790.273C244.875 789.102 244.43 788.195 243.539 787.555C242.664 786.898 241.125 786.336 238.922 785.867C236.734 785.398 234.992 784.836 233.695 784.18C232.414 783.523 231.461 782.742 230.836 781.836C230.227 780.93 229.922 779.852 229.922 778.602C229.922 776.523 230.797 774.766 232.547 773.328C234.312 771.891 236.562 771.172 239.297 771.172C242.172 771.172 244.5 771.914 246.281 773.398C248.078 774.883 248.977 776.781 248.977 779.094H244.617C244.617 777.906 244.109 776.883 243.094 776.023C242.094 775.164 240.828 774.734 239.297 774.734C237.719 774.734 236.484 775.078 235.594 775.766C234.703 776.453 234.258 777.352 234.258 778.461C234.258 779.508 234.672 780.297 235.5 780.828C236.328 781.359 237.82 781.867 239.977 782.352C242.148 782.836 243.906 783.414 245.25 784.086C246.594 784.758 247.586 785.57 248.227 786.523C248.883 787.461 249.211 788.609 249.211 789.969C249.211 792.234 248.305 794.055 246.492 795.43C244.68 796.789 242.328 797.469 239.438 797.469C237.406 797.469 235.609 797.109 234.047 796.391C232.484 795.672 231.258 794.672 230.367 793.391C229.492 792.094 229.055 790.695 229.055 789.195H233.391C233.469 790.648 234.047 791.805 235.125 792.664C236.219 793.508 237.656 793.93 239.438 793.93C241.078 793.93 242.391 793.602 243.375 792.945C244.375 792.273 244.875 791.383 244.875 790.273ZM260.742 765.5V771.641H265.477V774.992H260.742V790.719C260.742 791.734 260.953 792.5 261.375 793.016C261.797 793.516 262.516 793.766 263.531 793.766C264.031 793.766 264.719 793.672 265.594 793.484V797C264.453 797.312 263.344 797.469 262.266 797.469C260.328 797.469 258.867 796.883 257.883 795.711C256.898 794.539 256.406 792.875 256.406 790.719V774.992H251.789V771.641H256.406V765.5H260.742ZM282.82 775.531C282.164 775.422 281.453 775.367 280.688 775.367C277.844 775.367 275.914 776.578 274.898 779V797H270.562V771.641H274.781L274.852 774.57C276.273 772.305 278.289 771.172 280.898 771.172C281.742 771.172 282.383 771.281 282.82 771.5V775.531ZM301.547 797C301.297 796.5 301.094 795.609 300.938 794.328C298.922 796.422 296.516 797.469 293.719 797.469C291.219 797.469 289.164 796.766 287.555 795.359C285.961 793.938 285.164 792.141 285.164 789.969C285.164 787.328 286.164 785.281 288.164 783.828C290.18 782.359 293.008 781.625 296.648 781.625H300.867V779.633C300.867 778.117 300.414 776.914 299.508 776.023C298.602 775.117 297.266 774.664 295.5 774.664C293.953 774.664 292.656 775.055 291.609 775.836C290.562 776.617 290.039 777.562 290.039 778.672H285.68C285.68 777.406 286.125 776.188 287.016 775.016C287.922 773.828 289.141 772.891 290.672 772.203C292.219 771.516 293.914 771.172 295.758 771.172C298.68 771.172 300.969 771.906 302.625 773.375C304.281 774.828 305.141 776.836 305.203 779.398V791.07C305.203 793.398 305.5 795.25 306.094 796.625V797H301.547ZM294.352 793.695C295.711 793.695 297 793.344 298.219 792.641C299.438 791.938 300.32 791.023 300.867 789.898V784.695H297.469C292.156 784.695 289.5 786.25 289.5 789.359C289.5 790.719 289.953 791.781 290.859 792.547C291.766 793.312 292.93 793.695 294.352 793.695ZM316.711 797H312.375V761H316.711V797ZM328.383 797H324.047V771.641H328.383V797ZM323.695 764.914C323.695 764.211 323.906 763.617 324.328 763.133C324.766 762.648 325.406 762.406 326.25 762.406C327.094 762.406 327.734 762.648 328.172 763.133C328.609 763.617 328.828 764.211 328.828 764.914C328.828 765.617 328.609 766.203 328.172 766.672C327.734 767.141 327.094 767.375 326.25 767.375C325.406 767.375 324.766 767.141 324.328 766.672C323.906 766.203 323.695 765.617 323.695 764.914ZM351 797C350.75 796.5 350.547 795.609 350.391 794.328C348.375 796.422 345.969 797.469 343.172 797.469C340.672 797.469 338.617 796.766 337.008 795.359C335.414 793.938 334.617 792.141 334.617 789.969C334.617 787.328 335.617 785.281 337.617 783.828C339.633 782.359 342.461 781.625 346.102 781.625H350.32V779.633C350.32 778.117 349.867 776.914 348.961 776.023C348.055 775.117 346.719 774.664 344.953 774.664C343.406 774.664 342.109 775.055 341.062 775.836C340.016 776.617 339.492 777.562 339.492 778.672H335.133C335.133 777.406 335.578 776.188 336.469 775.016C337.375 773.828 338.594 772.891 340.125 772.203C341.672 771.516 343.367 771.172 345.211 771.172C348.133 771.172 350.422 771.906 352.078 773.375C353.734 774.828 354.594 776.836 354.656 779.398V791.07C354.656 793.398 354.953 795.25 355.547 796.625V797H351ZM343.805 793.695C345.164 793.695 346.453 793.344 347.672 792.641C348.891 791.938 349.773 791.023 350.32 789.898V784.695H346.922C341.609 784.695 338.953 786.25 338.953 789.359C338.953 790.719 339.406 791.781 340.312 792.547C341.219 793.312 342.383 793.695 343.805 793.695ZM378.07 797H373.734V771.641H378.07V797ZM373.383 764.914C373.383 764.211 373.594 763.617 374.016 763.133C374.453 762.648 375.094 762.406 375.938 762.406C376.781 762.406 377.422 762.648 377.859 763.133C378.297 763.617 378.516 764.211 378.516 764.914C378.516 765.617 378.297 766.203 377.859 766.672C377.422 767.141 376.781 767.375 375.938 767.375C375.094 767.375 374.453 767.141 374.016 766.672C373.594 766.203 373.383 765.617 373.383 764.914ZM389.133 771.641L389.273 774.828C391.211 772.391 393.742 771.172 396.867 771.172C402.227 771.172 404.93 774.195 404.977 780.242V797H400.641V780.219C400.625 778.391 400.203 777.039 399.375 776.164C398.562 775.289 397.289 774.852 395.555 774.852C394.148 774.852 392.914 775.227 391.852 775.977C390.789 776.727 389.961 777.711 389.367 778.93V797H385.031V771.641H389.133ZM445.336 797H422.977V793.883L434.789 780.758C436.539 778.773 437.742 777.164 438.398 775.93C439.07 774.68 439.406 773.391 439.406 772.062C439.406 770.281 438.867 768.82 437.789 767.68C436.711 766.539 435.273 765.969 433.477 765.969C431.32 765.969 429.641 766.586 428.438 767.82C427.25 769.039 426.656 770.742 426.656 772.93H422.32C422.32 769.789 423.328 767.25 425.344 765.312C427.375 763.375 430.086 762.406 433.477 762.406C436.648 762.406 439.156 763.242 441 764.914C442.844 766.57 443.766 768.781 443.766 771.547C443.766 774.906 441.625 778.906 437.344 783.547L428.203 793.461H445.336V797ZM471.328 782.445C471.328 787.523 470.461 791.297 468.727 793.766C466.992 796.234 464.281 797.469 460.594 797.469C456.953 797.469 454.258 796.266 452.508 793.859C450.758 791.438 449.852 787.828 449.789 783.031V777.242C449.789 772.227 450.656 768.5 452.391 766.062C454.125 763.625 456.844 762.406 460.547 762.406C464.219 762.406 466.922 763.586 468.656 765.945C470.391 768.289 471.281 771.914 471.328 776.82V782.445ZM466.992 776.516C466.992 772.844 466.477 770.172 465.445 768.5C464.414 766.812 462.781 765.969 460.547 765.969C458.328 765.969 456.711 766.805 455.695 768.477C454.68 770.148 454.156 772.719 454.125 776.188V783.125C454.125 786.812 454.656 789.539 455.719 791.305C456.797 793.055 458.422 793.93 460.594 793.93C462.734 793.93 464.32 793.102 465.352 791.445C466.398 789.789 466.945 787.18 466.992 783.617V776.516ZM499.242 797H476.883V793.883L488.695 780.758C490.445 778.773 491.648 777.164 492.305 775.93C492.977 774.68 493.312 773.391 493.312 772.062C493.312 770.281 492.773 768.82 491.695 767.68C490.617 766.539 489.18 765.969 487.383 765.969C485.227 765.969 483.547 766.586 482.344 767.82C481.156 769.039 480.562 770.742 480.562 772.93H476.227C476.227 769.789 477.234 767.25 479.25 765.312C481.281 763.375 483.992 762.406 487.383 762.406C490.555 762.406 493.062 763.242 494.906 764.914C496.75 766.57 497.672 768.781 497.672 771.547C497.672 774.906 495.531 778.906 491.25 783.547L482.109 793.461H499.242V797ZM525.234 782.445C525.234 787.523 524.367 791.297 522.633 793.766C520.898 796.234 518.188 797.469 514.5 797.469C510.859 797.469 508.164 796.266 506.414 793.859C504.664 791.438 503.758 787.828 503.695 783.031V777.242C503.695 772.227 504.562 768.5 506.297 766.062C508.031 763.625 510.75 762.406 514.453 762.406C518.125 762.406 520.828 763.586 522.562 765.945C524.297 768.289 525.188 771.914 525.234 776.82V782.445ZM520.898 776.516C520.898 772.844 520.383 770.172 519.352 768.5C518.32 766.812 516.688 765.969 514.453 765.969C512.234 765.969 510.617 766.805 509.602 768.477C508.586 770.148 508.062 772.719 508.031 776.188V783.125C508.031 786.812 508.562 789.539 509.625 791.305C510.703 793.055 512.328 793.93 514.5 793.93C516.641 793.93 518.227 793.102 519.258 791.445C520.305 789.789 520.852 787.18 520.898 783.617V776.516ZM564.609 784.602C564.609 788.477 563.719 791.594 561.938 793.953C560.156 796.297 557.766 797.469 554.766 797.469C551.562 797.469 549.086 796.336 547.336 794.07L547.125 797H543.141V761H547.477V774.43C549.227 772.258 551.641 771.172 554.719 771.172C557.797 771.172 560.211 772.336 561.961 774.664C563.727 776.992 564.609 780.18 564.609 784.227V784.602ZM560.273 784.109C560.273 781.156 559.703 778.875 558.562 777.266C557.422 775.656 555.781 774.852 553.641 774.852C550.781 774.852 548.727 776.18 547.477 778.836V789.805C548.805 792.461 550.875 793.789 553.688 793.789C555.766 793.789 557.383 792.984 558.539 791.375C559.695 789.766 560.273 787.344 560.273 784.109ZM585.75 794.492C584.062 796.477 581.586 797.469 578.32 797.469C575.617 797.469 573.555 796.688 572.133 795.125C570.727 793.547 570.016 791.219 570 788.141V771.641H574.336V788.023C574.336 791.867 575.898 793.789 579.023 793.789C582.336 793.789 584.539 792.555 585.633 790.086V771.641H589.969V797H585.844L585.75 794.492ZM602.461 765.5V771.641H607.195V774.992H602.461V790.719C602.461 791.734 602.672 792.5 603.094 793.016C603.516 793.516 604.234 793.766 605.25 793.766C605.75 793.766 606.438 793.672 607.312 793.484V797C606.172 797.312 605.062 797.469 603.984 797.469C602.047 797.469 600.586 796.883 599.602 795.711C598.617 794.539 598.125 792.875 598.125 790.719V774.992H593.508V771.641H598.125V765.5H602.461ZM628.523 774.711C630.445 772.352 632.945 771.172 636.023 771.172C641.383 771.172 644.086 774.195 644.133 780.242V797H639.797V780.219C639.781 778.391 639.359 777.039 638.531 776.164C637.719 775.289 636.445 774.852 634.711 774.852C633.305 774.852 632.07 775.227 631.008 775.977C629.945 776.727 629.117 777.711 628.523 778.93V797H624.188V761H628.523V774.711ZM666.281 797C666.031 796.5 665.828 795.609 665.672 794.328C663.656 796.422 661.25 797.469 658.453 797.469C655.953 797.469 653.898 796.766 652.289 795.359C650.695 793.938 649.898 792.141 649.898 789.969C649.898 787.328 650.898 785.281 652.898 783.828C654.914 782.359 657.742 781.625 661.383 781.625H665.602V779.633C665.602 778.117 665.148 776.914 664.242 776.023C663.336 775.117 662 774.664 660.234 774.664C658.688 774.664 657.391 775.055 656.344 775.836C655.297 776.617 654.773 777.562 654.773 778.672H650.414C650.414 777.406 650.859 776.188 651.75 775.016C652.656 773.828 653.875 772.891 655.406 772.203C656.953 771.516 658.648 771.172 660.492 771.172C663.414 771.172 665.703 771.906 667.359 773.375C669.016 774.828 669.875 776.836 669.938 779.398V791.07C669.938 793.398 670.234 795.25 670.828 796.625V797H666.281ZM659.086 793.695C660.445 793.695 661.734 793.344 662.953 792.641C664.172 791.938 665.055 791.023 665.602 789.898V784.695H662.203C656.891 784.695 654.234 786.25 654.234 789.359C654.234 790.719 654.688 791.781 655.594 792.547C656.5 793.312 657.664 793.695 659.086 793.695ZM675.68 784.109C675.68 780.219 676.602 777.094 678.445 774.734C680.289 772.359 682.703 771.172 685.688 771.172C688.656 771.172 691.008 772.188 692.742 774.219V761H697.078V797H693.094L692.883 794.281C691.148 796.406 688.734 797.469 685.641 797.469C682.703 797.469 680.305 796.266 678.445 793.859C676.602 791.453 675.68 788.312 675.68 784.438V784.109ZM680.016 784.602C680.016 787.477 680.609 789.727 681.797 791.352C682.984 792.977 684.625 793.789 686.719 793.789C689.469 793.789 691.477 792.555 692.742 790.086V778.438C691.445 776.047 689.453 774.852 686.766 774.852C684.641 774.852 682.984 775.672 681.797 777.312C680.609 778.953 680.016 781.383 680.016 784.602ZM721.617 765.5V771.641H726.352V774.992H721.617V790.719C721.617 791.734 721.828 792.5 722.25 793.016C722.672 793.516 723.391 793.766 724.406 793.766C724.906 793.766 725.594 793.672 726.469 793.484V797C725.328 797.312 724.219 797.469 723.141 797.469C721.203 797.469 719.742 796.883 718.758 795.711C717.773 794.539 717.281 792.875 717.281 790.719V774.992H712.664V771.641H717.281V765.5H721.617ZM729.82 784.086C729.82 781.602 730.305 779.367 731.273 777.383C732.258 775.398 733.617 773.867 735.352 772.789C737.102 771.711 739.094 771.172 741.328 771.172C744.781 771.172 747.57 772.367 749.695 774.758C751.836 777.148 752.906 780.328 752.906 784.297V784.602C752.906 787.07 752.43 789.289 751.477 791.258C750.539 793.211 749.188 794.734 747.422 795.828C745.672 796.922 743.656 797.469 741.375 797.469C737.938 797.469 735.148 796.273 733.008 793.883C730.883 791.492 729.82 788.328 729.82 784.391V784.086ZM734.18 784.602C734.18 787.414 734.828 789.672 736.125 791.375C737.438 793.078 739.188 793.93 741.375 793.93C743.578 793.93 745.328 793.07 746.625 791.352C747.922 789.617 748.57 787.195 748.57 784.086C748.57 781.305 747.906 779.055 746.578 777.336C745.266 775.602 743.516 774.734 741.328 774.734C739.188 774.734 737.461 775.586 736.148 777.289C734.836 778.992 734.18 781.43 734.18 784.602ZM45.9375 853C45.6875 852.5 45.4844 851.609 45.3281 850.328C43.3125 852.422 40.9062 853.469 38.1094 853.469C35.6094 853.469 33.5547 852.766 31.9453 851.359C30.3516 849.938 29.5547 848.141 29.5547 845.969C29.5547 843.328 30.5547 841.281 32.5547 839.828C34.5703 838.359 37.3984 837.625 41.0391 837.625H45.2578V835.633C45.2578 834.117 44.8047 832.914 43.8984 832.023C42.9922 831.117 41.6562 830.664 39.8906 830.664C38.3438 830.664 37.0469 831.055 36 831.836C34.9531 832.617 34.4297 833.562 34.4297 834.672H30.0703C30.0703 833.406 30.5156 832.188 31.4062 831.016C32.3125 829.828 33.5312 828.891 35.0625 828.203C36.6094 827.516 38.3047 827.172 40.1484 827.172C43.0703 827.172 45.3594 827.906 47.0156 829.375C48.6719 830.828 49.5312 832.836 49.5938 835.398V847.07C49.5938 849.398 49.8906 851.25 50.4844 852.625V853H45.9375ZM38.7422 849.695C40.1016 849.695 41.3906 849.344 42.6094 848.641C43.8281 847.938 44.7109 847.023 45.2578 845.898V840.695H41.8594C36.5469 840.695 33.8906 842.25 33.8906 845.359C33.8906 846.719 34.3438 847.781 35.25 848.547C36.1562 849.312 37.3203 849.695 38.7422 849.695ZM77.8594 840.602C77.8594 844.477 76.9688 847.594 75.1875 849.953C73.4062 852.297 71.0156 853.469 68.0156 853.469C64.8125 853.469 62.3359 852.336 60.5859 850.07L60.375 853H56.3906V817H60.7266V830.43C62.4766 828.258 64.8906 827.172 67.9688 827.172C71.0469 827.172 73.4609 828.336 75.2109 830.664C76.9766 832.992 77.8594 836.18 77.8594 840.227V840.602ZM73.5234 840.109C73.5234 837.156 72.9531 834.875 71.8125 833.266C70.6719 831.656 69.0312 830.852 66.8906 830.852C64.0312 830.852 61.9766 832.18 60.7266 834.836V845.805C62.0547 848.461 64.125 849.789 66.9375 849.789C69.0156 849.789 70.6328 848.984 71.7891 847.375C72.9453 845.766 73.5234 843.344 73.5234 840.109ZM82.1953 840.086C82.1953 837.602 82.6797 835.367 83.6484 833.383C84.6328 831.398 85.9922 829.867 87.7266 828.789C89.4766 827.711 91.4688 827.172 93.7031 827.172C97.1562 827.172 99.9453 828.367 102.07 830.758C104.211 833.148 105.281 836.328 105.281 840.297V840.602C105.281 843.07 104.805 845.289 103.852 847.258C102.914 849.211 101.562 850.734 99.7969 851.828C98.0469 852.922 96.0312 853.469 93.75 853.469C90.3125 853.469 87.5234 852.273 85.3828 849.883C83.2578 847.492 82.1953 844.328 82.1953 840.391V840.086ZM86.5547 840.602C86.5547 843.414 87.2031 845.672 88.5 847.375C89.8125 849.078 91.5625 849.93 93.75 849.93C95.9531 849.93 97.7031 849.07 99 847.352C100.297 845.617 100.945 843.195 100.945 840.086C100.945 837.305 100.281 835.055 98.9531 833.336C97.6406 831.602 95.8906 830.734 93.7031 830.734C91.5625 830.734 89.8359 831.586 88.5234 833.289C87.2109 834.992 86.5547 837.43 86.5547 840.602ZM122.977 831.531C122.32 831.422 121.609 831.367 120.844 831.367C118 831.367 116.07 832.578 115.055 835V853H110.719V827.641H114.938L115.008 830.57C116.43 828.305 118.445 827.172 121.055 827.172C121.898 827.172 122.539 827.281 122.977 827.5V831.531ZM134.039 821.5V827.641H138.773V830.992H134.039V846.719C134.039 847.734 134.25 848.5 134.672 849.016C135.094 849.516 135.812 849.766 136.828 849.766C137.328 849.766 138.016 849.672 138.891 849.484V853C137.75 853.312 136.641 853.469 135.562 853.469C133.625 853.469 132.164 852.883 131.18 851.711C130.195 850.539 129.703 848.875 129.703 846.719V830.992H125.086V827.641H129.703V821.5H134.039ZM161.648 821.5V827.641H166.383V830.992H161.648V846.719C161.648 847.734 161.859 848.5 162.281 849.016C162.703 849.516 163.422 849.766 164.438 849.766C164.938 849.766 165.625 849.672 166.5 849.484V853C165.359 853.312 164.25 853.469 163.172 853.469C161.234 853.469 159.773 852.883 158.789 851.711C157.805 850.539 157.312 848.875 157.312 846.719V830.992H152.695V827.641H157.312V821.5H161.648ZM175.805 830.711C177.727 828.352 180.227 827.172 183.305 827.172C188.664 827.172 191.367 830.195 191.414 836.242V853H187.078V836.219C187.062 834.391 186.641 833.039 185.812 832.164C185 831.289 183.727 830.852 181.992 830.852C180.586 830.852 179.352 831.227 178.289 831.977C177.227 832.727 176.398 833.711 175.805 834.93V853H171.469V817H175.805V830.711ZM208.43 853.469C204.992 853.469 202.195 852.344 200.039 850.094C197.883 847.828 196.805 844.805 196.805 841.023V840.227C196.805 837.711 197.281 835.469 198.234 833.5C199.203 831.516 200.547 829.969 202.266 828.859C204 827.734 205.875 827.172 207.891 827.172C211.188 827.172 213.75 828.258 215.578 830.43C217.406 832.602 218.32 835.711 218.32 839.758V841.562H201.141C201.203 844.062 201.93 846.086 203.32 847.633C204.727 849.164 206.508 849.93 208.664 849.93C210.195 849.93 211.492 849.617 212.555 848.992C213.617 848.367 214.547 847.539 215.344 846.508L217.992 848.57C215.867 851.836 212.68 853.469 208.43 853.469ZM207.891 830.734C206.141 830.734 204.672 831.375 203.484 832.656C202.297 833.922 201.562 835.703 201.281 838H213.984V837.672C213.859 835.469 213.266 833.766 212.203 832.562C211.141 831.344 209.703 830.734 207.891 830.734ZM256.688 840.602C256.688 844.461 255.805 847.57 254.039 849.93C252.273 852.289 249.883 853.469 246.867 853.469C243.789 853.469 241.367 852.492 239.602 850.539V862.75H235.266V827.641H239.227L239.438 830.453C241.203 828.266 243.656 827.172 246.797 827.172C249.844 827.172 252.25 828.32 254.016 830.617C255.797 832.914 256.688 836.109 256.688 840.203V840.602ZM252.352 840.109C252.352 837.25 251.742 834.992 250.523 833.336C249.305 831.68 247.633 830.852 245.508 830.852C242.883 830.852 240.914 832.016 239.602 834.344V846.461C240.898 848.773 242.883 849.93 245.555 849.93C247.633 849.93 249.281 849.109 250.5 847.469C251.734 845.812 252.352 843.359 252.352 840.109ZM266.93 853H262.594V817H266.93V853ZM289.547 853C289.297 852.5 289.094 851.609 288.938 850.328C286.922 852.422 284.516 853.469 281.719 853.469C279.219 853.469 277.164 852.766 275.555 851.359C273.961 849.938 273.164 848.141 273.164 845.969C273.164 843.328 274.164 841.281 276.164 839.828C278.18 838.359 281.008 837.625 284.648 837.625H288.867V835.633C288.867 834.117 288.414 832.914 287.508 832.023C286.602 831.117 285.266 830.664 283.5 830.664C281.953 830.664 280.656 831.055 279.609 831.836C278.562 832.617 278.039 833.562 278.039 834.672H273.68C273.68 833.406 274.125 832.188 275.016 831.016C275.922 829.828 277.141 828.891 278.672 828.203C280.219 827.516 281.914 827.172 283.758 827.172C286.68 827.172 288.969 827.906 290.625 829.375C292.281 830.828 293.141 832.836 293.203 835.398V847.07C293.203 849.398 293.5 851.25 294.094 852.625V853H289.547ZM282.352 849.695C283.711 849.695 285 849.344 286.219 848.641C287.438 847.938 288.32 847.023 288.867 845.898V840.695H285.469C280.156 840.695 277.5 842.25 277.5 845.359C277.5 846.719 277.953 847.781 278.859 848.547C279.766 849.312 280.93 849.695 282.352 849.695ZM304.102 827.641L304.242 830.828C306.18 828.391 308.711 827.172 311.836 827.172C317.195 827.172 319.898 830.195 319.945 836.242V853H315.609V836.219C315.594 834.391 315.172 833.039 314.344 832.164C313.531 831.289 312.258 830.852 310.523 830.852C309.117 830.852 307.883 831.227 306.82 831.977C305.758 832.727 304.93 833.711 304.336 834.93V853H300V827.641H304.102ZM337.336 840.109C337.336 836.219 338.258 833.094 340.102 830.734C341.945 828.359 344.359 827.172 347.344 827.172C350.312 827.172 352.664 828.188 354.398 830.219V817H358.734V853H354.75L354.539 850.281C352.805 852.406 350.391 853.469 347.297 853.469C344.359 853.469 341.961 852.266 340.102 849.859C338.258 847.453 337.336 844.312 337.336 840.438V840.109ZM341.672 840.602C341.672 843.477 342.266 845.727 343.453 847.352C344.641 848.977 346.281 849.789 348.375 849.789C351.125 849.789 353.133 848.555 354.398 846.086V834.438C353.102 832.047 351.109 830.852 348.422 830.852C346.297 830.852 344.641 831.672 343.453 833.312C342.266 834.953 341.672 837.383 341.672 840.602ZM381.141 850.492C379.453 852.477 376.977 853.469 373.711 853.469C371.008 853.469 368.945 852.688 367.523 851.125C366.117 849.547 365.406 847.219 365.391 844.141V827.641H369.727V844.023C369.727 847.867 371.289 849.789 374.414 849.789C377.727 849.789 379.93 848.555 381.023 846.086V827.641H385.359V853H381.234L381.141 850.492ZM402.492 853.469C399.055 853.469 396.258 852.344 394.102 850.094C391.945 847.828 390.867 844.805 390.867 841.023V840.227C390.867 837.711 391.344 835.469 392.297 833.5C393.266 831.516 394.609 829.969 396.328 828.859C398.062 827.734 399.938 827.172 401.953 827.172C405.25 827.172 407.812 828.258 409.641 830.43C411.469 832.602 412.383 835.711 412.383 839.758V841.562H395.203C395.266 844.062 395.992 846.086 397.383 847.633C398.789 849.164 400.57 849.93 402.727 849.93C404.258 849.93 405.555 849.617 406.617 848.992C407.68 848.367 408.609 847.539 409.406 846.508L412.055 848.57C409.93 851.836 406.742 853.469 402.492 853.469ZM401.953 830.734C400.203 830.734 398.734 831.375 397.547 832.656C396.359 833.922 395.625 835.703 395.344 838H408.047V837.672C407.922 835.469 407.328 833.766 406.266 832.562C405.203 831.344 403.766 830.734 401.953 830.734ZM435.211 821.5V827.641H439.945V830.992H435.211V846.719C435.211 847.734 435.422 848.5 435.844 849.016C436.266 849.516 436.984 849.766 438 849.766C438.5 849.766 439.188 849.672 440.062 849.484V853C438.922 853.312 437.812 853.469 436.734 853.469C434.797 853.469 433.336 852.883 432.352 851.711C431.367 850.539 430.875 848.875 430.875 846.719V830.992H426.258V827.641H430.875V821.5H435.211ZM443.414 840.086C443.414 837.602 443.898 835.367 444.867 833.383C445.852 831.398 447.211 829.867 448.945 828.789C450.695 827.711 452.688 827.172 454.922 827.172C458.375 827.172 461.164 828.367 463.289 830.758C465.43 833.148 466.5 836.328 466.5 840.297V840.602C466.5 843.07 466.023 845.289 465.07 847.258C464.133 849.211 462.781 850.734 461.016 851.828C459.266 852.922 457.25 853.469 454.969 853.469C451.531 853.469 448.742 852.273 446.602 849.883C444.477 847.492 443.414 844.328 443.414 840.391V840.086ZM447.773 840.602C447.773 843.414 448.422 845.672 449.719 847.375C451.031 849.078 452.781 849.93 454.969 849.93C457.172 849.93 458.922 849.07 460.219 847.352C461.516 845.617 462.164 843.195 462.164 840.086C462.164 837.305 461.5 835.055 460.172 833.336C458.859 831.602 457.109 830.734 454.922 830.734C452.781 830.734 451.055 831.586 449.742 833.289C448.43 834.992 447.773 837.43 447.773 840.602ZM509.625 842.172C509.203 845.781 507.867 848.57 505.617 850.539C503.383 852.492 500.406 853.469 496.688 853.469C492.656 853.469 489.422 852.023 486.984 849.133C484.562 846.242 483.352 842.375 483.352 837.531V834.25C483.352 831.078 483.914 828.289 485.039 825.883C486.18 823.477 487.789 821.633 489.867 820.352C491.945 819.055 494.352 818.406 497.086 818.406C500.711 818.406 503.617 819.422 505.805 821.453C507.992 823.469 509.266 826.266 509.625 829.844H505.102C504.711 827.125 503.859 825.156 502.547 823.938C501.25 822.719 499.43 822.109 497.086 822.109C494.211 822.109 491.953 823.172 490.312 825.297C488.688 827.422 487.875 830.445 487.875 834.367V837.672C487.875 841.375 488.648 844.32 490.195 846.508C491.742 848.695 493.906 849.789 496.688 849.789C499.188 849.789 501.102 849.227 502.43 848.102C503.773 846.961 504.664 844.984 505.102 842.172H509.625ZM542.039 837.039C542.039 840.383 541.477 843.305 540.352 845.805C539.227 848.289 537.633 850.188 535.57 851.5C533.508 852.812 531.102 853.469 528.352 853.469C525.664 853.469 523.281 852.812 521.203 851.5C519.125 850.172 517.508 848.289 516.352 845.852C515.211 843.398 514.625 840.562 514.594 837.344V834.883C514.594 831.602 515.164 828.703 516.305 826.188C517.445 823.672 519.055 821.75 521.133 820.422C523.227 819.078 525.617 818.406 528.305 818.406C531.039 818.406 533.445 819.07 535.523 820.398C537.617 821.711 539.227 823.625 540.352 826.141C541.477 828.641 542.039 831.555 542.039 834.883V837.039ZM537.562 834.836C537.562 830.789 536.75 827.688 535.125 825.531C533.5 823.359 531.227 822.273 528.305 822.273C525.461 822.273 523.219 823.359 521.578 825.531C519.953 827.688 519.117 830.688 519.07 834.531V837.039C519.07 840.961 519.891 844.047 521.531 846.297C523.188 848.531 525.461 849.648 528.352 849.648C531.258 849.648 533.508 848.594 535.102 846.484C536.695 844.359 537.516 841.32 537.562 837.367V834.836ZM559.57 847.023L569.32 818.875H574.242L561.586 853H557.602L544.969 818.875H549.867L559.57 847.023ZM583.664 853H579.164V818.875H583.664V853ZM591.914 853V818.875H601.547C604.516 818.875 607.141 819.531 609.422 820.844C611.703 822.156 613.461 824.023 614.695 826.445C615.945 828.867 616.578 831.648 616.594 834.789V836.969C616.594 840.188 615.969 843.008 614.719 845.43C613.484 847.852 611.711 849.711 609.398 851.008C607.102 852.305 604.422 852.969 601.359 853H591.914ZM596.414 822.578V849.32H601.148C604.617 849.32 607.312 848.242 609.234 846.086C611.172 843.93 612.141 840.859 612.141 836.875V834.883C612.141 831.008 611.227 828 609.398 825.859C607.586 823.703 605.008 822.609 601.664 822.578H596.414ZM631.758 840.273H620.32V836.734H631.758V840.273ZM649.805 853H645.445V824.102L636.703 827.312V823.375L649.125 818.711H649.805V853ZM679.125 838C678.219 839.078 677.133 839.945 675.867 840.602C674.617 841.258 673.242 841.586 671.742 841.586C669.773 841.586 668.055 841.102 666.586 840.133C665.133 839.164 664.008 837.805 663.211 836.055C662.414 834.289 662.016 832.344 662.016 830.219C662.016 827.938 662.445 825.883 663.305 824.055C664.18 822.227 665.414 820.828 667.008 819.859C668.602 818.891 670.461 818.406 672.586 818.406C675.961 818.406 678.617 819.672 680.555 822.203C682.508 824.719 683.484 828.156 683.484 832.516V833.781C683.484 840.422 682.172 845.273 679.547 848.336C676.922 851.383 672.961 852.945 667.664 853.023H666.82V849.367H667.734C671.312 849.305 674.062 848.375 675.984 846.578C677.906 844.766 678.953 841.906 679.125 838ZM672.445 838C673.898 838 675.234 837.555 676.453 836.664C677.688 835.773 678.586 834.672 679.148 833.359V831.625C679.148 828.781 678.531 826.469 677.297 824.688C676.062 822.906 674.5 822.016 672.609 822.016C670.703 822.016 669.172 822.75 668.016 824.219C666.859 825.672 666.281 827.594 666.281 829.984C666.281 832.312 666.836 834.234 667.945 835.75C669.07 837.25 670.57 838 672.445 838ZM690 850.727C690 849.977 690.219 849.352 690.656 848.852C691.109 848.352 691.781 848.102 692.672 848.102C693.562 848.102 694.234 848.352 694.688 848.852C695.156 849.352 695.391 849.977 695.391 850.727C695.391 851.445 695.156 852.047 694.688 852.531C694.234 853.016 693.562 853.258 692.672 853.258C691.781 853.258 691.109 853.016 690.656 852.531C690.219 852.047 690 851.445 690 850.727Z" fill="black"/>
<path d="M43.9297 93.2914H52.0986L67.1719 47.9349L57.0889 48.0717C56.4964 48.2084 55.79 48.4362 54.9697 48.7552C54.1494 49.0743 53.2949 49.53 52.4062 50.1224C51.5176 50.7149 50.6289 51.4782 49.7402 52.4125C48.8743 53.3467 48.0768 54.4974 47.3477 55.8646C46.6185 57.2318 46.0033 58.8497 45.502 60.7181C45.0007 62.5866 44.6816 64.7513 44.5449 67.2123H43.2803L44.3398 46.9095L80.3311 46.5336L80.9463 47.3881L65.0527 93.2914H73.1875V94.556H43.9297V93.2914Z" fill="black"/>
<path d="M110.703 442.075L518.214 453.409L403.832 580.5C272.35 580.307 159.711 523.243 110.703 442.075Z" fill="#0EB7C1" stroke="black" stroke-width="3"/>
<path d="M629.96 514.124C572.062 555.723 492.001 581.5 403.5 581.5C270.697 581.5 157.02 523.48 108.558 441.155C108.477 441.017 108.396 440.88 108.316 440.742C92.3234 413.426 83.5 383.445 83.5 352C83.5 288.817 119.14 231.478 177.04 189.876C234.938 148.277 314.999 122.5 403.5 122.5C492.001 122.5 572.062 148.277 629.96 189.876C687.86 231.478 723.5 288.817 723.5 352C723.5 415.183 687.86 472.522 629.96 514.124Z" stroke="black" stroke-width="3"/>
<ellipse cx="248.5" cy="259.5" rx="33.5" ry="30.5" fill="#FD9316"/>
<path d="M291 243L318 237" stroke="#FD9316" stroke-width="5"/>
<path d="M291 270.391L310 278" stroke="#FD9316" stroke-width="5"/>
<path d="M279.999 291.022L293.961 318.112" stroke="#FD9316" stroke-width="5"/>
<path d="M254.144 300.717L254.197 334.208" stroke="#FD9316" stroke-width="5"/>
<path d="M228.753 299.299L209.955 324.495" stroke="#FD9316" stroke-width="5"/>
<path d="M210.622 242.913L174 230.264" stroke="#FD9316" stroke-width="5"/>
<path d="M238.755 221.008L237.641 196.275" stroke="#FD9316" stroke-width="5"/>
<path d="M273 221L291 200" stroke="#FD9316" stroke-width="5"/>
<path d="M184 286.619L205.656 269.414" stroke="#FD9316" stroke-width="5"/>
</svg>
